/* XPM */
static char *db63fae80c854d78e0f6a2a999305510hB77KK1kZazim3gc[] = {
/* columns rows colors chars-per-pixel */
"20 20 3 1 ",
"  c #bfbfbf",
"# c #aaaaaa",
"1 c #0000ff",
/* pixels */
"####################",
"#                  #",
"#                  #",
"#         11       #",
"#        111       #",
"#       1111       #",
"#      11 11       #",
"#     11  11       #",
"#     1   11       #",
"#         11       #",
"#         11       #",
"#         11       #",
"#         11       #",
"#         11       #",
"#         11       #",
"#         11       #",
"#     111111111    #",
"#                  #",
"#                  #",
"####################"
};  
