/* XPM */
static char *db63fae80c854d78e0f6a2a999305510hB77KK1kZazim3gc[] = {
/* columns rows colors chars-per-pixel */
"20 20 3 1 ",
"  c #bfbfbf",
"# c #aaaaaa",
"3 c #fe0000",
/* pixels */
"####################",
"#                  #",
"#                  #",
"#      333333      #",
"#      333333      #",
"#   333      333   #",
"#   333      333   #",
"#            333   #",
"#            333   #",
"#         333      #",
"#         333      #",
"#            333   #",
"#            333   #",
"#   333      333   #",
"#   333      333   #",
"#      333333      #",
"#      333333      #",
"#                  #",
"#                  #",
"####################"
};  
