/* XPM */
static char *db63fae80c854d78e0f6a2a999305510hB77KK1kZazim3gc[] = {
/* columns rows colors chars-per-pixel */
"20 20 3 1 ",
"  c #bfbfbf",
"# c #aaaaaa",
"4 c #0a0f77",
/* pixels */
"####################",
"#                  #",
"#                  #",
"#          444     #",
"#          444     #",
"#       444444     #",
"#       444444     #",
"#    444   444     #",
"#    444   444     #",
"# 444      444     #",
"# 444      444     #",
"# 4444444444444444 #",
"# 4444444444444444 #",
"#          444     #",
"#          444     #",
"#          444     #",
"#                  #",
"#                  #",
"#                  #",
"####################"
};  
