/* XPM */
static char *db63fae80c854d78e0f6a2a999305510hB77KK1kZazim3gc[] = {
/* columns rows colors chars-per-pixel */
"20 20 3 1 ",
"  c #bfbfbf",
"# c #aaaaaa",
"7 c #006969",
/* pixels */
"####################",
"#   777777777777   #",
"#   777777777777   #",
"#   777777777777   #",
"#   777      777   #",
"#   777      777   #",
"#   777      777   #",
"#         777      #",
"#         777      #",
"#         777      #",
"#      777         #",
"#      777         #",
"#      777         #",
"#      777         #",
"#      777         #",
"#      777         #",
"#      777         #",
"#      777         #",
"#      777         #",
"####################"
};  