/* XPM */
static char *db63fae80c854d78e0f6a2a999305510hB77KK1kZazim3gc[] = {
/* columns rows colors chars-per-pixel */
"20 20 2 1 ",
"  c #bfbfbf",
"# c #aaaaaa",
/* pixels */
"####################",
"#                  #",
"#                  #",
"#                  #",
"#                  #",
"#                  #",
"#                  #",
"#                  #",
"#                  #",
"#                  #",
"#                  #",
"#                  #",
"#                  #",
"#                  #",
"#                  #",
"#                  #",
"#                  #",
"#                  #",
"#                  #",
"####################"
};  