/* XPM */
static char *db63fae80c854d78e0f6a2a999305510hB77KK1kZazim3te[] = {
/* columns rows colors chars-per-pixel */
"20 20 3 1 ",
"  c #bfbfbf",
". c #ffffff",
"# c #7e7e7e",
/* pixels */
"....................",
".                  #",
".                  #",
".                  #",
".                  #",
".                  #",
".                  #",
".                  #",
".                  #",
".                  #",
".                  #",
".                  #",
".                  #",
".                  #",
".                  #",
".                  #",
".                  #",
".                  #",
".                  #",
".###################"
};
