/* XPM */
static char *__of_hearts1672178124[] = {
/* columns rows colors chars-per-pixel */
"100 145 43 1 ",
"  c None",
". c #DF0000",
"X c #DF0808",
"o c #E00C0C",
"O c #E11414",
"+ c #E21B1B",
"@ c #E32424",
"# c #E42C2C",
"$ c #E53333",
"% c #E63B3B",
"& c #E74444",
"* c #E74848",
"= c #E84C4C",
"- c #E95454",
"; c #EA5B5B",
": c #EB6464",
"> c #EC6C6C",
", c #ED7373",
"< c #EE7C7C",
"1 c #868686",
"2 c #A7A7A7",
"3 c gray66",
"4 c #B5B5B5",
"5 c #EF8383",
"6 c #F08C8C",
"7 c #F19393",
"8 c #F29B9B",
"9 c #F3A4A4",
"0 c #F4ABAB",
"q c #F5B4B4",
"w c #F6BCBC",
"e c #C2C2C2",
"r c #F7C3C3",
"t c #F8C7C7",
"y c #F8CCCC",
"u c #F9D4D4",
"i c #FADCDC",
"p c #EFEFEF",
"a c #FBE4E4",
"s c #FCECEC",
"d c #F1F1F1",
"f c #FDF4F4",
"g c #FFFFFF",
/* pixels */
"  14eeeeeeeeeeeeeeeeeeeeeeeeeeeeeeeeeeeeeeeeeeeeeeeeeeeeeeeeeeeeeeeeeeeeeeeeeeeeeeeeeeeeeeeeeeee41  ",
" 3pggggggggggggggggggggggggggggggggggggggggggggggggggggggggggggggggggggggggggggggggggggggggggggggp2 ",
"1dgggggggfasfgggggggggggggggggggggggggggggggggggggggggggggggggggggggggggggggggggggggggggggggggggggd1",
"4ggggggf9=@#:yggggggggggggggggggggggggggggggggggggggggggggggggggggggggggggggggggggggggggggggggggggg4",
"egggggf6X&5>O#ugggggggggggggggggggggggggggggggggggggggggggggggggggggggggggggggggggggggggggggggggggge",
"egggggyO=agg8.,gggggggggggggggggggggggggggggggggggggggggggggggggggggggggggggggggggggggggggggggggggge",
"eggggg<orgggs50gggggggggggggggggggggggggggggggggggggggggggggggggggggggggggggggggggggggggggggggggggge",
"eggggf&$ffuifgggggggggggggggggggggggggggggggggggggggggggggggggggggggggggggggggggggggggggggggggggggge",
"egggga@=0%+O=wggggggggggggggggggggggggggggggggggggggggggggggggggggggggggggggggggggggggggggggggggggge",
"egggga@@@;6,O+tgggggggggggggggggggggggggggggggggggggggggggggggggggggggggggggggggggggggggggggggggggge",
"eggggi+.<fgg0X;fggggggggggggggggggggggggggggggggggggggggggggggggggggggggggggggggggggggggggggggggggge",
"4gggga++igggf%@sggggggggggggggggggggggggggggggggggggggggggggggggggggggggggggggggggggggggggggggggggg4",
"eggggs$@sgggf-+iggggggggggggggggggggggggggggggggggggggggggggggggggggggggggggggggggggggggggggggggggge",
"eggggg;Xygggf$#sgggggggggggggggggggggggggggggggggggggggggggfgggggggggggfggggggggggggggggggggggggggge",
"eggggg0X>fgg9X,ggggggggggi05<6wfgggggfr7<50igggggggggggs0,--:9sgggggu5;-:6yfggggggggggggggggggggggge",
"egggggf:X=6,O$iggggggggs5@X...o=ygggi;X....@,aggggggggq%X...XX=uggf8+.....O,agggggggggggggggggggggge",
"eggggggd6$@@:ugggggggga=........$uga%........&igggggg9O........%ag8X........=aggggggggggggggggggggge",
"eggggggggsasgggggggggf:..........;f:..........;fggggu@..........5i#..........,fgggggggggggggggggggg4",
"eggggggggggggggggggggrX..........O8+..........Xqgggg<...........#,...........+ugggggggggggggggggggge",
"eggfq,;,wggs7;;6igggg5............@X...........>gggf%...........XO...........X9gggggggggggggggggggge",
"egf<X...O9f-....#tggg-..........o...o..........=fgga@....o....o...o...........<gggggggggggggggggggge",
"egqX.....#5......&sgf=.................o.......%fggi+.........................<gggggggggggggggggggge",
"eg:.......O.o....Xrgg:.........................-fggs$...o.o..o.o..............7gggggggggggggggggggge",
"eg-..............Xqgg9..........o...o..........7gggg,.o......................Ougggggggggggggggggggge",
"eg,..............Oygga#................o......@iggggyO.X...........oo..o.....:ggggggggggggggggggggg4",
"egyO.............:fggg8X......................7gggggg<.........o............#uggggggggggggggggggggge",
"egf5............@uggggf:.....................-fggggggs=....................X0gggggggggggggggggggggge",
"eggf;..........O0gggggga%.............o.....$iggggggggu#...........o.......5fgggggggggggggggggggggge",
"egggi&........X7fgggggggr@...o.............+wggggggggggq+.......o...o.....;sggggggggggggggggggggggge",
"4ggggu#......X<fgggggggggq+...............O0gggggggggggg9X...............=agggggggggggggggggggggggge",
"egggggr@.....:fggggggggggg9X..o..........X7gggggggggggggg6X........o....%iggggggggggggggggggggggggge",
"egggggg9X...&aggggggggggggf5X............5fggggggggggggggf,.....o....o.@ygggggggggggggggggggggggggge",
"eggggggf<..+yggggggggggggggf>X..........>fggggggggggggggggs:..........+wggggggggggggggggggggggggggge",
"eggggggga$.6ggggggggggggggggf-.........-sgggggggggggggggggga&........o9gggggggggggggggggggggggggggge",
"egggggggg8$agggggggggggggggggi$.......#iggggggggggggggggggggy@.......<fgggggggggggggggggggggggggggge",
"egggggggga0gggggggggggggggggggr+.....Owgggggggggggggggggggggg0O.....-sggggggggggggggggggggggggggggge",
"egggggggggfgggggggggggggggggggg7X...X6gggggggggggggggggggggggf<....@ugggggggggggggggggggggggggggggge",
"eggggggggggggggggggggggggggggggf-...=sggggggggggggggggggggggggs$..X8ggggggggggggggggggggggggggggggg4",
"egggggggggggggggggggggggggggggggtO.Orgggggggggggggggggggggggggg0X.=sggggggggggggggggggggggggggggggge",
"egggggggggggggggggggggggggggggggf>.:fggggggggggggggggggggggggggf&X0gggggggggggggggggggggggggggggggge",
"eggggggggggggggggggggggggggggggggt+wgggggggggggggggggggggggggggg8&sgggggggggggggggggggggggggggggggge",
"eggggggggggggggggggggggggggggggggf5sggggggggggggggggggggggggggggi9ggggggggggggggggggggggggggggggggge",
"egggggggggggggggggggggggggggggggggsggggggggggggggggggggggggggggggfggggggggggggggggggggggggggggggggge",
"egggggggggggggggggggggggggggggggggggggggggggggggggggggggggggggggggggggggggggggggggggggggggggggggggge",
"egggggggggggggggggggggggggggggggggggggggggggggggggggggggggggggggggggggggggggggggggggggggggggggggggg4",
"egggggggggggggggggggggggggggggggggggggggggggggggggggggggggggggggggggggggggggggggggggggggggggggggggge",
"egggggggggggggggggggggggggggggggggggggggggggggggggggggggggggggggggggggggggggggggggggggggggggggggggge",
"4gggggggggggggggggggggggggggggggggggggggggggggggggggggggggggggggggggggggggggggggggggggggggggggggggge",
"egggggggggggggggggggggggggggggggggggggggggggggggggggggggggggggggggggggggggggggggggggggggggggggggggge",
"egggggggggggggggggggggggggggggggggggggggggggggggggggggggggggggggggggggggggggggggggggggggggggggggggge",
"egggggggggggggggggggggggggggggggggggggggggggggggggggggggggggggggggggggggggggggggggggggggggggggggggge",
"egggggggggggggggggggggggggggggggggggggggggggggggggggggggggggggggggggggggggggggggggggggggggggggggggge",
"egggggggggggggggggggggggggggggggggggggggggggggggggggggggggggggggggggggggggggggggggggggggggggggggggge",
"egggggggggggggggggggggggggggggggggggggggggggggggggggggggggggggggggggggggggggggggggggggggggggggggggge",
"egggggggggggggggggggggggggggggggggggggggggggggggggggggggggggggggggggggggggggggggggggggggggggggggggge",
"egggggggggggggggggggggggggggggggggggggggggggggggggggggggggggggggggggggggggggggggggggggggggggggggggge",
"egggggggggggggggggggggggggffsffggggggggdssfggggggggggggggauyafgggggggsuyisggggggggggggggggggggggggg4",
"eggggggggggggggggggggggga8;$#%>tgggggy,%#$-7agggggggggfq;@OO@-wggggs6$+O+%5iggggggggggggggggggggggge",
"eggggggggggggggggggggggw$......O7fgf8+......#0gggggggs>X......+8gga-.......#qgggggggggggggggggggggge",
"4gggggggggggggggggggggq+........O0gwO........O0gggggf>.........Orf:.........Orggggggggggggggggggggge",
"eggggggggggggggggggggs$..........$i&.......o..#aggggqX..........;wO..........=fgggggggggggggggggggge",
"egggggggggggggggggggg9X..........X>O...........7gggg;...........O=...........Xrgggggggggggggggggggge",
"egggggggggggggggggggg>.........o..X............;gggs#.........................6gggggggggggggggggggge",
"egggggggggggggggggggf-....................o....&fggi@.........................<gggggggggggggggggggge",
"egggggggggggggggggggg=....o....oo....o.........&fgga@...o..o..........o..o....<gggggggggggggggggggge",
"egggggggggggggggggggg<..o...o......o...........:gggf=........................X0gggggggggggggggggggge",
"eggggggggggggggggggggwX.......................X0gggg7...............o..o.o...$sgggggggggggggggggggge",
"eggggggggggggggggggggf-....o....o...o.........=fggggs%......o...............X7ggggggggggggggggggggge",
"egggggggggggggggggggggy+...........o.........OrggggggqO.o...................=fggggggggggggggggggggge",
"egggggggggggggggggggggg8o...................X7gggggggf5....................#ugggggggggggggggggggggg4",
"eggggggggggggggggggggggf>...................:fggggggggs;...............o..Oqggggggggggggggggggggggge",
"4gggggggggggggggggggggggs-.........o.......=agggggggggga&..o.........o...X8gggggggggggggggggggggggge",
"eggggggggggggggggggggggggi&.....o...o.....%iggggggggggggu$..............X6fgggggggggggggggggggggggge",
"egggggggggggggggggggggggggu#...........o.#yggggggggggggggt@.............,fggggggggggggggggggggggggge",
"eggggggggggggggggggggggggggr@......o....+wggggggggggggggggqO...........;sgggggggggggggggggggggggggge",
"eggggggggggggggggggggggggggg0O..o......O9gggggggggggggggggg8X.........=aggggggggggggggggggggggggggge",
"egggggggggggggggggggggggggggg7X.......X6gggggggggggggggggggf<........#ugggggggggggggggggggggggggggg4",
"eggggggggggggggggggggggggggggf:.......:fggggggggggggggggggggf-......Oqggggggggggggggggggggggggggggge",
"eggggggggggggggggggggggggggggga&.....%aggggggggggggggggggggggi$....X6fggggggggggggggggggggggggggggge",
"eggggggggggggggggggggggggggggggt+...Orgggggggggggggggggggggggg0X...=fgggggggggggggggggggggggggggggge",
"eggggggggggggggggggggggggggggggg5...<gggggggggggggggggggggggggf:..Oyggggggggggggggggggggggggggggggge",
"eggggggggggggggggggggggggggggggga$.#igggggggggggggggggggggggggguO.>gggggggggggggggggggggggggggggggge",
"egggggggggggggggggggggggggggggggg7X5gggggggggggggggggggggggggggg>Oygggggggggggggggggggggggggggggggge",
"4ggggggggggggggggggggggggggggggggi%uggggggggggggggggggggggggggggw:fgggggggggggggggggggggggggggggggge",
"eggggggggggggggggggggggggggggggggfqfggggggggggggggggggggggggggggfyggggggggggggggggggggggggggggggggge",
"egggggggggggggggggggggggggggggggggggggggggggggggggggggggggggggggggggggggggggggggggggggggggggggggggge",
"egggggggggggggggggggggggggggggggggggggggggggggggggggggggggggggggggggggggggggggggggggggggggggggggggge",
"egggggggggggggggggggggggggggggggggggggggggggggggggggggggggggggggggggggggggggggggggggggggggggggggggge",
"egggggggggggggggggggggggggggggggggggggggggggggggggggggggggggggggggggggggggggggggggggggggggggggggggg4",
"egggggggggggggggggggggggggggggggggggggggggggggggggggggggggggggggggggggggggggggggggggggggggggggggggge",
"egggggggggggggggggggggggggggggggggggggggggggggggggggggggggggggggggggggggggggggggggggggggggggggggggge",
"egggggggggggggggggggggggggggggggggggggggggggggggggggggggggggggggggggggggggggggggggggggggggggggggggge",
"egggggggggggggggggggggggggggggggggggggggggggggggggggggggggggggggggggggggggggggggggggggggggggggggggge",
"egggggggggggggggggggggggggggggggggggggggggggggggggggggggggggggggggggggggggggggggggggggggggggggggggge",
"egggggggggggggggggggggggggggggggggggggggggggggggggggggggggggggggggggggggggggggggggggggggggggggggggge",
"4gggggggggggggggggggggggggggggggggggggggggggggggggggggggggggggggggggggggggggggggggggggggggggggggggge",
"egggggggggggggggggggggggggggggggggggggggggggggggggggggggggggggggggggggggggggggggggggggggggggggggggge",
"egggggggggggggggggggggggggggggggggggggggggggggggggggggggggggggggggggggggggggggggggggggggggggggggggge",
"egggggggggggggggggggggggggggggggggggggggggggggggggggggggggggggggggggggggggggggggggggggggggggggggggge",
"egggggggggggggggggggggggggggggggggggggggggggggggggggggggggggggggggggggggggggggggggggggggggggggggggge",
"egggggggggggggggggggggggggggggggggfgggggggggggggggggggggggggggggfsggggggggggggggggggggggggggggggggge",
"eggggggggggggggggggggggggggggggggf8fggggggggggggggggggggggggggggi6ggggggggggggggggggggggggggggggggg4",
"eggggggggggggggggggggggggggggggggu#ygggggggggggggggggggggggggggg6#agggggggggggggggggggggggggggggggge",
"egggggggggggggggggggggggggggggggg5.>fggggggggggggggggggggggggggs%.7gggggggggggggggggggggggggggggggge",
"egggggggggggggggggggggggggggggggi@.+ygggggggggggggggggggggggggg8X.$aggggggggggggggggggggggggggggggge",
"eggggggggggggggggggggggggggggggf,...;fggggggggggggggggggggggggi#...,fgggggggggggggggggggggggggggggge",
"eggggggggggggggggggggggggggggggqO...X8gggggggggggggggggggggggf:....Oqgggggggggggggggggggggggggggggge",
"4gggggggggggggggggggggggggggggi$.....@ygggggggggggggggggggggg7X.....$iggggggggggggggggggggggggggggge",
"eggggggggggggggggggggggggggggf-.......%aggggggggggggggggggggwO.......-fggggggggggggggggggusgggggggg4",
"egggggggggggggggggggggggggggf<X........:fggggggggggggggggggu$.........<fggggggggggggggggg>8gggggggge",
"eggggggggggggggggggggggggggg7X.........X5fgggggggggggggggga&..........X7fgggggggggggggggtO%aggggggge",
"egggggggggggggggggggggggggg0O...........o7gggggggggggggggs;............O0ggggggggggggggf-..5ggggggge",
"egggggggggggggggggggggggggw+......o..o...O0gggggggggggggf>...o..........+wggggggggggggf6X..Oqgggggge",
"eggggggggggggggggggggggggy#............o..+wgggggggggggf5X.o...o....o....#ygggggggggggqO....$uggggge",
"egggggggggggggggggggggggi%......o..o.o.....#ygggggggggg8X.................%igggggggggr@......&agggge",
"eggggggggggggggggggggggf-...................&sggggggggr+....o........o.....;fgggggggu$........-sggge",
"egggggggggggggggggggggf5.........o...........>fggggggi$...........o...o....X5gggggga&..........>fgge",
"egggggggggggggggggggggwX...o.................o9gggggf:.........o....o.......Owggggf:...........X7gge",
"eggggggggggggggggggggs&.........o.............$aggggwo...o...................-fggg9.............+uge",
"4gggggggggggggggggggg0X.....o.............o....8gggf:.................o......Xtggs%..............>ge",
"egggggggggggggggggggg>.......o...........o.....;fggs#.........................6ggyO..............%fe",
"egggggggggggggggggggf=...oo....................%fgga+.........................,gguO..............%fe",
"egggggggggggggggggggg-....o.o.o................&fgga@.........................5ggf%......*#......,ge",
"egggggggggggggggggggg,............+.....o......:gggf&...........X@...........X0gggqO....Or7X....$ige",
"eggggggggggggggggggggqX......o...X5O......o....9gggg7...........%7...........#iggggw-@@=wgf7$+#:ugge",
"eggggggggggggggggggggf=..........=s;..........&dgggga$.........X8s%.........X6ggggggfaidggggsasgggge",
"egggggggggggggggggggggu$........+tgy@........#yggggggr#........;fgw+.......X,fggggggggggggggggggggge",
"eggggggggggggggggggggggu;O.....$qgggr%.....o-yggggggggu:+....O,sgggw%X...X$8fggggggggggu5:<wfgggggge",
"egggggggggggggggggggggggfr5:-:7aggggga8:-:5wfggggggggggfu9558yggggggsq6<7wsggggggggggg9+O$@O,fggggge",
"egggggggggggggggggggggggggggggggggggggggfggggggggggggggggggggggggggggggggggggggggggggu+$yfi:X8ggggge",
"egggggggggggggggggggggggggggggggggggggggggggggggggggggggggggggggggggggggggggggggggggg5X0gggi@%sgggge",
"4gggggggggggggggggggggggggggggggggggggggggggggggggggggggggggggggggggggggggggggggggggg-Oigggg-ougggge",
"egggggggggggggggggggggggggggggggggggggggggggggggggggggggggggggggggggggggggggggggggggg-Ougggg;.qgggge",
"egggggggggggggggggggggggggggggggggggggggggggggggggggggggggggggggggggggggggggggggggggg<.9gggi#.0gggge",
"eggggggggggggggggggggggggggggggggggggggggggggggggggggggggggggggggggggggggggggggggggggy+@0it=o.9gggge",
"eggggggggggggggggggggggggggggggggggggggggggggggggggggggggggggggggggggggggggggggggggggg9@X+O=>Xqgggg4",
"eggggggggggggggggggggggggggggggggggggggggggggggggggggggggggggggggggggggggggggggggggggggu750s5oygggge",
"eggggggggggggggggggggggggggggggggggggggggggggggggggggggggggggggggggggggggggggggggggggpyfgggf=@agggge",
"egggggggggggggggggggggggggggggggggggggggggggggggggggggggggggggggggggggggggggggggggggg0O7gggwX>fgggge",
"eggggggggggggggggggggggggggggggggggggggggggggggggggggggggggggggggggggggggggggggggggggi@+0i0#@uggggge",
"egggggggggggggggggggggggggggggggggggggggggggggggggggggggggggggggggggggggggggggggggggggq$X+O$wgggggge",
"4ggggggggggggggggggggggggggggggggggggggggggggggggggggggggggggggggggggggggggggggggggggggaq8qsggggggg4",
"1dggggggggggggggggggggggggggggggggggggggggggggggggggggggggggggggggggggggggggggggggggggggggggggggggd1",
" 3pggggggggggggggggggggggggggggggggggggggggggggggggggggggggggggggggggggggggggggggggggggggggggggggd2 ",
"  14eeeeeeeeeeeeeeeeeeeeeeeeeeeueeueeeeeeeeeeeeeeeeeeeeeeeeeeeeeeeeeeepeeeeeeeeeeeeeeeeeeeeeeeee41  "
};
