/* XPM */
static char *__of_hearts1672178178[] = {
/* columns rows colors chars-per-pixel */
"100 145 45 1 ",
"  c None",
". c #DF0000",
"X c #DF0808",
"o c #E00707",
"O c #E00C0C",
"+ c #E11313",
"@ c #E21B1B",
"# c #E32323",
"$ c #E42C2C",
"% c #E53333",
"& c #E63C3C",
"* c #E74343",
"= c #E84747",
"- c #E84C4C",
"; c #E95454",
": c #EA5C5C",
"> c #EB6464",
", c #EC6B6B",
"< c #ED7373",
"1 c #EE7C7C",
"2 c #868686",
"3 c #A7A7A7",
"4 c gray66",
"5 c #B5B5B5",
"6 c #EF8484",
"7 c #F08787",
"8 c #F08B8B",
"9 c #F19393",
"0 c #F29B9B",
"q c #F3A3A3",
"w c #F4ABAB",
"e c #F5B3B3",
"r c #F6BBBB",
"t c #C2C2C2",
"y c #F7C3C3",
"u c #F8C7C7",
"i c #F8CBCB",
"p c #F9D4D4",
"a c #FADCDC",
"s c #EFEFEF",
"d c #FBE3E3",
"f c #FCECEC",
"g c #F1F1F1",
"h c #FDF4F4",
"j c #FFFFFF",
/* pixels */
"  25tttttttttttttttttttttttttttttttttttttttttttttttttttttttttttttttttttttttttttttttttttttttttttt52  ",
" 4sjjjjjjjjjjjjjjjjjjjjjjjjjjjjjjjjjjjjjjjjjjjjjjjjjjjjjjjjjjjjjjjjjjjjjjjjjjjjjjjjjjjjjjjjjjjjjjs3 ",
"2gjjjjjjjhdhjjjjjjjjjjjjjjjjjjjjjjjjjjjjjjjjjjjjjjjjjjjjjjjjjjjjjjjjjjjjjjjjjjjjjjjjjjjjjjjjjjjjjjg2",
"5jjjjjjf6%#%1djjjjjjjjjjjjjjjjjjjjjjjjjjjjjjjjjjjjjjjjjjjjjjjjjjjjjjjjjjjjjjjjjjjjjjjjjjjjjjjjjjjjj5",
"tjjjjjf:X;6:X;fjjjjjjjjjhdpahjjjjjjjhdpafjjjjjjjjjjjjjjjjjfueeuhjjjjjjjprwydjjjjjjjjjjjjjjjjjjjjjjjt",
"tjjjjjeX>hjh<.wjjjjjjjp6&@+@*0hjjjje;#+@$,rjjjjjjjjjjjjjd8%+XXX&qjjjjp:@XXX#>ujjjjjjjjjjjjjjjjjjjjjt",
"tjjjjj9.qjjje.6jjjjjjq#......X,fjj8+......+6hjjjjjjjjjjp*.......+9jji$.......@qjjjjjjjjjjjjjjjjjjjjt",
"tjjjjjeX<jjj6.qjjjjje+.........6je+........X6jjjjjjjjjf*.........+rf*.........+rjjjjjjjjjjjjjjjjjjjt",
"tjjjjjh>@<q1@;fjjjjf&..........@i*....o.....+ujjjjjjjj9...........:0...........-hjjjjjjjjjjjjjjjjjjt",
"tjjjjjjr#.+X@ejjjjjw............;O...........1jjjjjjjh*.....o..o..@%..o........Xujjjjjjjjjjjjjjjjjjt",
"tjjjjjr@%wiw&@ejjjj<............X..o.........*hjjjjjja@.........................0jjjjjjjjjjjjjjjjjjt",
"tjjjjh-+ujjjp@&hjjj>.........................%fjjjjjjp+.......o.......o.........8jjjjjjjjjjjjjjjjjj5",
"tjjjjd#&hjjjj-@ajjj>......o....o.............%fjjjjjja@.......o.......o.........0jjjjjjjjjjjjjjjjjjt",
"5jjjjf$$fjjjj*@djjj9.........................:jjjjjjjh*.......................XXujjjjjjjjjjjjjjjjjjt",
"tjjjjj>Xqjjje+;hjjjp@..oo...................Xwjjjjjjjj9.............o..........-hjjjjjjjjjjjjjjjjjjt",
"tjjjjjp%+>9<+#ujjjjj1......o..o.............-hjjjjjjjjf&......................+rjjjjjjjjjjjjjjjjjjjt",
"tjjjjjjp,$##>ijjjjjjd%.....................@yjjjjjjjjjje+...o.......o..o......1jjjjjjjjjjjjjjjjjjjjt",
"tjjjjjjjjfdfjjjjjjjjjy@...................o9jjjjjjjjjjjj8X...................-fjjjjjjjjjjjjjjjjjjjj5",
"tjjjjjjjjjjjjjjjjjjjjj0X..................<jjjjjjjjjjjjjh>..................%pjjjjjjjjjjjjjjjjjjjjjt",
"tjjhr<:<rjjf9::8ajjjjjh1.................;fjjjjjjjjjjjjjjf-.....o..o..o....#yjjjjjjjjjjjjjjjjjjjjjjt",
"tjh1X...+qf;....$ujjjjjh>...............*djjjjjjjjjjjjjjjja&X...o..oo.....+wjjjjjjjjjjjjjjjjjjjjjjjt",
"tjeX.....%6..o...*fjjjjjf;.............%pjjjjjjjjjjjjjjjjjju#..........o.+0jjjjjjjjjjjjjjjjjjjjjjjjt",
"tj>.......+......Xujjjjjja&...........#yjjjjjjjjjjjjjjjjjjjjr@...........7hjjjjjjjjjjjjjjjjjjjjjjjjt",
"tj;...............ejjjjjjjp$.........+ejjjjjjjjjjjjjjjjjjjjjjq+.........<hjjjjjjjjjjjjjjjjjjjjjjjjjt",
"tj<..............+ijjjjjjjjr+.......X0jjjjjjjjjjjjjjjjjjjjjjjj7X.......-fjjjjjjjjjjjjjjjjjjjjjjjjjj5",
"tju+.............:jjjjjjjjjj9X......,hjjjjjjjjjjjjjjjjjjjjjjjjg:......$pjjjjjjjjjjjjjjjjjjjjjjjjjjjt",
"tjj6X...........#pjjjjjjjjjjh>.....*fjjjjjjjjjjjjjjjjjjjjjjjjjja%....+ejjjjjjjjjjjjjjjjjjjjjjjjjjjjt",
"tjjs;..........+wjjjjjjjjjjjjd%...@yjjjjjjjjjjjjjjjjjjjjjjjjjjjjeX...<jjjjjjjjjjjjjjjjjjjjjjjjjjjjjt",
"tjjjd&...X....X9hjjjjjjjjjjjjjwX..6jjjjjjjjjjjjjjjjjjjjjjjjjjjjjj>..#djjjjjjjjjjjjjjjjjjjjjjjjjjjjjt",
"tjjjjp$......X1hjjjjjjjjjjjjjjh-.#djjjjjjjjjjjjjjjjjjjjjjjjjjjjjjp@X9jjjjjjjjjjjjjjjjjjjjjjjjjjjjjjt",
"tjjjjjy#.....>hjjjjjjjjjjjjjjjjeX6jjjjjjjjjjjjjjjjjjjjjjjjjjjjjjjj>#djjjjjjjjjjjjjjjjjjjjjjjjjjjjjjt",
"tjjjjjjqX...*djjjjjjjjjjjjjjjjjf;pjjjjjjjhdiidjjjjjjjjdpiahjjjjjjje1jjjjjjjjjjjjjjjjjjjjjjjjjjjjjjjt",
"5jjjjjjj<..@ijjjjjjjjjjjjjjjjjjjuhjjjjjf0-#+X#>ijjjja<#++@*9djjjjjfdjjjjjjjjjjjjjjjjjjjjjjjjjjjjjjjt",
"tjjjjjjjd%.8jjjjjjjjjjjjjjjjjjjjjjjjjjp;X......$rjji%.......&yjjjjjjjjjjjjjjjjjjjjjjjjjjjjjjjjjjjjjt",
"tjjjjjjjj0%djjjjjjjjjjjjjjjjjjjjjjjjjf-.........$af*.........%ajjjjjjjjjjjjjjjjjjjjjjjjjjjjjjjjjjjjt",
"tjjjjjjjjdwjjjjjjjjjjjjjjjjjjjjjjjjjj8...........10X..........>jjjjjjjjjjjjjjjjjjjjjjjjjjjjjjjjjjjjt",
"tjjjjjjjjjhjjjjjjjjjjjjjjjjjjjjjjjjjf&...........#&...o.......#ajjjjjjjjjjjjjjjjjjjjjjjjjjjjjjjjjjjt",
"tjjjjjjjjjjjjjjjjjjjjjjjjjjjjjjjjjjjp+............X............ejjjjjjjjjjjjjjjjjjjjjjjjjjjjjjjjjjj5",
"tjjjjjjjjjjjjjjjjjjjjjjjjjjjjjjjjjjjyo.............oo..........qjjjjjjjjjjjjjjjjjjjjjjjjjjjjjjjjjjjt",
"tjjjjjjjjjjjjjjjjjjjjjjjjjjjjjjjjjjjuO................o........wjjjjjjjjjjjjjjjjjjjjjjjjjjjjjjjjjjjt",
"tjjjjjjjjjjjjjjjjjjjjjjjjjjjjjjjjjjjf#.......o................+pjjjjjjjjjjjjjjjjjjjjjjjjjjjjjjjjjjjt",
"tjjjjjjjjjjjjjjjjjjjjjjjjjjjjjjjjjjjh<........................;hjjjjjjjjjjjjjjjjjjjjjjjjjjjjjjjjjjjt",
"tjjjjjjjjjjjjjjjjjjjjjjjjjjjjjjjjjjjjp@.....o..o.......o.....+rjjjjjjjjjjjjjjjjjjjjjjjjjjjjjjjjjjjjt",
"tjjjjjjjjjjjjjjjjjjjjjjjjjjjjjjjjjjjjj9X.....................<hjjjjjjjjjjjjjjjjjjjjjjjjjjjjjjjjjjjjt",
"tjjjjjjjjjjjjjjjjjjjjjjjjjjjjjjjjjjjjjh>......o.............-fjjjjjjjjjjjjjjjjjjjjjjjjjjjjjjjjjjjjj5",
"tjjjjjjjjjjjjjjjjjjjjjjjjjjjjjjjjjjjjjjd&..................$pjjjjjjjjjjjjjjjjjjjjjjjjjjjjjjjjjjjjjjt",
"tjjjjjjjjjjjjjjjjjjjjjjjjjjjjjjjjjjjjjjjp#.....o..........@rjjjjjjjjjjjjjjjjjjjjjjjjjjjjjjjjjjjjjjjt",
"5jjjjjjjjjjjjjjjjjjjjjjjjjjjjjjjjjjjjjjjjy@.o............+wjjjjjjjjjjjjjjjjjjjjjjjjjjjjjjjjjjjjjjjjt",
"tjjjjjjjjjjjjjjjjjjjjjjjjjjjjjjjjjjjjjjjjjq+........o...X9jjjjjjjjjjjjjjjjjjjjjjjjjjjjjjjjjjjjjjjjjt",
"tjjjjjjjjjjjjjjjjjjjjjjjjjjjjjjjjjjjjjjjjjj9X..........X6hjjjjjjjjjjjjjjjjjjjjjjjjjjjjjjjjjjjjjjjjjt",
"tjjjjjjjjjjjjjjjjjjjjjjjjjjjjjjjjjjjjjjjjjjj1X.........,hjjjjjjjjjjjjjjjjjjjjjjjjjjjjjjjjjjjjjjjjjjt",
"tjjjjjjjjjjjjjjjjjjjjjjjjjjjjjjjjjjjjjjjjjjjh:........-fjjjjjjjjjjjjjjjjjjjjjjjjjjjjjjjjjjjjjjjjjjjt",
"tjjjjjjjjjjjjjjjjjjjjjjjjjjjjjjjjjjjjjjjjjjjja%......#pjjjjjjjjjjjjjjjjjjjjjjjjjjjjjjjjjjjjjjjjjjjjt",
"tjjjjjjjjjjjjjjjjjjjjjjjjjjjjjjjjjjjjjjjjjjjjjy@....+wjjjjjjjjjjjjjjjjjjjjjjjjjjjjjjjjjjjjjjjjjjjjjt",
"tjjjjjjjjjjjjjjjjjjjjjjjjjjjjjjjjjjjjjjjjjjjjjj8X...<jjjjjjjjjjjjjjjjjjjjjjjjjjjjjjjjjjjjjjjjjjjjjjt",
"tjjjjjjjjjjjjjjjjjjjjjjjjjjjjjjjjjjjjjjjjjjjjjjf*..$djjjjjjjjjjjjjjjjjjjjjjjjjjjjjjjjjjjjjjjjjjjjjjt",
"tjjjjjjjjjjjjjjjjjjjjjjjjjjjjjjjjjjjjjjjjjjjjjjjeX.0jjjjjjjjjjjjjjjjjjjjjjjjjjjjjjjjjjjjjjjjjjjjjjj5",
"tjjjjjjjjjjjjjjjjjjjjjjjjjjjjjjjjjjjjjjjjjjjjjjjh*$djjjjjjjjjjjjjjjjjjjjjjjjjjjjjjjjjjjjjjjjjjjjjjjt",
"tjjjjjjjjjjjjjjjjjjjjjjjjjjjjjjjjjjjjjjjjjjjjjjjj06jjjjjjjjjjjjjjjjjjjjjjjjjjjjjjjjjjjjjjjjjjjjjjjjt",
"5jjjjjjjjjjjjjjjjjjjjjjjjjjjjjjjjjjjjjjjjjjjjjjjjdajjjjjjjjjjjjjjjjjjjjjjjjjjjjjjjjjjjjjjjjjjjjjjjjt",
"tjjjjjjjjjjjjjjjjjjjjjjjhapahjjjjjjjhdppfjjjjjjjjjjjjjjjjjfueeufjjjjjjhpeeyajjjjjjjjjjjjjjjjjjjjjjjt",
"tjjjjjjjjjjjjjjjjjjjjjp1&@+@&0hjjjje;#+@%>yjjjjjjjjjjjjjd6%+..+&whjjjp:@X.X#>ujjjjjjjjjjjjjjjjjjjjjt",
"tjjjjjjjjjjjjjjjjjjjjq#......X>hjh9+......+6gjjjjjjjjjjp*.......X9hju$.......@qjjjjjjjjjjjjjjjjjjjjt",
"tjjjjjjjjjjjjjjjjjjje+.........6jeX.........7jjjjjjjjjf*.........+rh*.........+rjjjjjjjjjjjjjjjjjjjt",
"tjjjjjjjjjjjjjjjjjjf%..........@u*..........+ujjjjjjjj9.......o...:0X......o...*hjjjjjjjjjjjjjjjjjjt",
"tjjjjjjjjjjjjjjjjjjwX.....o.....;+...........<jjjjjjjh*...o.......@%...........+ujjjjjjjjjjjjjjjjjjt",
"tjjjjjjjjjjjjjjjjjj<.....oo.....X............*hjjjjjja@...o.o...................0jjjjjjjjjjjjjjjjjjt",
"tjjjjjjjjjjjjjjjjjj>.........................%fjjjjjjp+.......o............o....8jjjjjjjjjjjjjjjjjjt",
"tjjjjjjjjjjjjjjjjjj>.....o...................%fjjjjjjp@.........................0jjjjjjjjjjjjjjjjjjt",
"tjjjjjjjjjjjjjjjjjj9...........o.............>jjjjjjjh*.o.o....................+ujjjjjjjjjjjjjjjjjj5",
"tjjjjjjjjjjjjjjjjjjp@...o.o.................Xwjjjjjjjj0........................-hjjjjjjjjjjjjjjjjjjt",
"5jjjjjjjjjjjjjjjjjjj1.......................-fjjjjjjjjf&.o....................+rjjjjjjjjjjjjjjjjjjjt",
"tjjjjjjjjjjjjjjjjjjjd%..............o......@ujjjjjjjjjjr+.....................1jjjjjjjjjjjjjjjjjjjjt",
"tjjjjjjjjjjjjjjjjjjjjy@................o..X0jjjjjjjjjjjj8X.......o...........;fjjjjjjjjjjjjjjjjjjjjt",
"tjjjjjjjjjjjjjjjjjjjjj0X...........o.....X<hjjjjjjjjjjjjh>........o..o....o.$pjjjjjjjjjjjjjjjjjjjjjt",
"tjjjjjjjjjjjjjjjjjjjjjh6X.......o........;fjjjjjjjjjjjjjjs-......o.........@yjjjjjjjjjjjjjjjjjjjjjjt",
"tjjjjjjjjjjjjjjjjjjjjjjh>...........o...*djjjjjjjjjjjjjjjja&.....o........+wjjjjjjjjjjjjjjjjjjjjjjj5",
"tjjjjjjjjjjjjjjjjjjjjjjjf;.............%pjjjjjjjjjjjjjjjjjji$............X0jjjjjjjjjjjjjjjjjjjjjjjjt",
"tjjjjjjjjjjjjjjjjjjjjjjjjd&...........#ujjjjjjjjjjjjjjjjjjjjr@..o..o....X8jjjjjjjjjjjjjjjjjjjjjjjjjt",
"tjjjjjjjjjjjjjjjjjjjjjjjjjp$.........@ejjjjjjjjjjjjjjjjjjjjjjw+.........<hjjjjjjjjjjjjjjjjjjjjjjjjjt",
"tjjjjjjjjjjjjjjjjjjjjjjjjjjr@.......X0jjjjjjjjjjjjjjjjjjjjjjjh7........-fjjjjjjjjjjjjjjjjjjjjjjjjjjt",
"tjjjjjjjjjjjjjjjjjjjjjjjjjjj9X......,hjjjjjjjjjjjjjjjjjjjjjjjjh>......$pjjjjjjjjjjjjjjjjjjjjjjjjjjjt",
"tjjjjjjjjjjjjjjjjjjjjjjjjjjjh,.....*fjjjjjjjjjjjjjjjjjjjjjjjjjjd%X...+ejjjjjjjjjjjjjjjjjjjjjjjjjjjjt",
"5jjjjjjjjjjjjjjjjjjjjjjjjjjjjd%...@ujjjjjjjjjjjjjafjjjjjjjjjjjjjeX...<jjjjjjjjjjjjjjjjjjjjjjjjjjjjjt",
"tjjjjjjjjjjjjjjjjjjjjjjjjjjjjjwX..1jjjjjjjjjjjjjj<ejjjjjjjjjjjjjj>..$djjjjjjjjjjjjjjjjjjjjjjjjjjjjjt",
"tjjjjjjjjjjjjjjjjjjjjjjjjjjjjjh;X#djjjjjjjjjjjjja@>jjjjjjjjjjjjjjp@.9jjjjjjjjjjjjjjjjjjjjjjjjjjjjjjt",
"tjjjjjjjjjjjjjjjjjjjjjjjjjjjjjjeX6jjjjjjjjjjjjjj6.@ijjjjjjjjjjjjjh>#djjjjjjjjjjjjjjjjjjjjjjjjjjjjjjt",
"tjjjjjjjjjjjjjjjjjjjjjjjjjjjjjjf;pjjjjjjjjjjjjjp#..>hjjjjjjjjjjjjjr1jjjjjjjjjjjjjjjjjjjjjjjjjjjjjjjt",
"tjjjjjjjjjjjjjjjjjjjjjjjjjjjjjjjuhjjjjjjjjjjjjj>...Xwjjjjjjjjjjjjjhajjjjjjjjjjjjjjjjjjjjjjjjjjjjjjj5",
"tjjjjjjjjjjjjjjjjjjjjjjjjjjjjjjjjjjjjjjjjjjjjjqX....$ajjjjjjjjjjjjjjjjjjjjjjjjjjjjjjjjjjjjjjjjjjjjjt",
"tjjjjjjjjjjjjjjjjjjjjjjjjjjjjjjjjjjjjjjjjjjjju#......;hjjjjjjjjjjjjjjjjjjjjjjjjjjjjjjjjjjjjjjjjjjjjt",
"tjjjjjjjjjjjjjjjjjjjjjjjjjjjjjjjjjjjjjjjjjjjd&........1hjjjjjjjjjjjjjjjjjjjjjjjjjjjjjjjjjjjjjjjjjjjt",
"tjjjjjjjjjjjjjjjjjjjjjjjjjjjjjjjjjjjjjjjjjjh:.........Xqjjjjjjjjjjjjjjjjjjjjjjjjjjjjjjjjjjjjjjjjjjjt",
"tjjjjjjjjjjjjjjjjjjjjjjjjjjjjjjjjjjjjjjjjjh<X..........+ejjjjjjjjjjjjjjjjjjjjjjjjjjjjjjjjjjjjjjjjjjt",
"tjjjjjjjjjjjjjjjjjjjjjjjjjjjjjjjjjjjjjjjjh8X............#yjjjjjjjjjjjjjjjjjjjjjjjjjjjjjjjjjjjjjjjjjt",
"5jjjjjjjjjjjjjjjjjjjjjjjjjjjjjjjjjjjjjjjjqX..............%pjjjjjjjjjjjjjjjjjjjjjjjjjjjjjjjjjjjjjjjjt",
"tjjjjjjjjjjjjjjjjjjjjjjjjjjjjjjjjjjjjjjje+...o..o.........*djjjjjjjjjjjjjjjjjjjjjjjjjjjjjjjjjjjjjjjt",
"tjjjjjjjjjjjjjjjjjjjjjjjjjjjjjjjjjjjjjji#...........o.o....:hjjjjjjjjjjjjjjjjjjjjjjjjjjjjjjjjjjjjjjt",
"tjjjjjjjjjjjjjjjjjjjjjjjjjjjjjjjjjjjjjd&...........o........6hjjjjjjjjjjjjjjjjjjjjjjjjjjjjjjjjjjjjjt",
"tjjjjjjjjjjjjjjjjjjjjjjjjjjjjjjjjjjjjh,.....o..o.o...o......+ejjjjjjjjjjjjjjjjjjjjjjjjjjjjjjjjjjjjjt",
"tjjjjjjjjjjjjjjjjjjjjjjjjjjjjjjjjjjjjwX......................%djjjjjjjjjjjjjjjjjjjjjjjjjjjjjjjjjjjjt",
"tjjjjjjjjjjjjjjjjjjjjjjjjjjjjjjjjjjjh*...........o...oo.......9jjjjjjjjjjjjjjjjjjjjjjjjjjjjjjjjjjjj5",
"tjjjjjjjjjjjjjjjjjjjjjjjjjjjjjjjjjjjrX............o..o........*hjjjjjjjjjjjjjjjjjjjjjjjjjjjjjjjjjjjt",
"tjjjjjjjjjjjjjjjjjjjjjjjjjjjjjjjjjjj9............o............@ajjjjjjjjjjjjjjjjjjjjjjjjjjjjjjjjjjjt",
"tjjjjjjjjjjjjjjjjjjjjjjjjjjjjjjjjjjj6.........................+pjjjjjjjjjjjjjjjjjjjjjjjjjjjjjjjjjjjt",
"tjjjjjjjjjjjjjjjjjjjjjjjjjjjjjjjjjjj0.........................#djjjjjjjjjjjjjjjjjjjjjjjjjjjjjjjjjjjt",
"tjjjjjjjjjjjjjjjjjjjjjjjjjjjjjjjjjjju+...........&@...........-hjjjjjjjjjjjjjjjjjjjjjjjjjjjjjjjjjjjt",
"5jjjjjjjjjjjjjjjjjjjjjjjjjjjjjjjjjjjh-..........Xw>..........Xqjjjjjjjjjjjjjjjjjjjjjjjjjjjjjjjjjjjjt",
"tjjjjjjjjjjjjjjjjjjjjjjjjjjjjjjjjjjjjy@.........;hu@.........;fjjjjjjjjjjjjjjjjjjjjjjjjjjpfjjjjjjjj5",
"tjjjjjjjjjjjjjjjjjjjjjjjjjjjjjjjjjjjjje#.....X.&pjj0+......X;djjjjjjjjjjjjjjjjjjjjjjjjjjj,0jjjjjjjjt",
"tjjjjjjjjjjjjjjjjjjjjjjjjjjjjjjjahjjjjjp<$+XX#<ajjjhe-@XX@*0fjjjjjjjjjjjjjjjjjjjjjjjjjjji+&djjjjjjjt",
"tjjjjjjjjjjjjjjjjjjjjjjjjjjjjjjh,pjjjjjjjfiyudjjjjjjjhpyuahjjjjjjjdijjjjjjjjjjjjjjjjjjjh;..6jjjjjjjt",
"tjjjjjjjjjjjjjjjjjjjjjjjjjjjjjju+8jjjjjjjjjjjjjjjjjjjjjjjjjjjjjjjjq>jjjjjjjjjjjjjjjjjjh8X..+ejjjjjjt",
"tjjjjjjjjjjjjjjjjjjjjjjjjjjjjjj,.%fjjjjjjjjjjjjjjjjjjjjjjjjjjjjjjj;+ijjjjjjjjjjjjjjjjje+....%pjjjjjt",
"tjjjjjjjjjjjjjjjjjjjjjjjjjjjjjr+.X8jjjjjjjjjjjjjjjjjjjjjjjjjjjjjjrO.<jjjjjjjjjjjjjjjjy#......*djjjjt",
"tjjjjjjjjjjjjjjjjjjjjjjjjjjjjh-...@ijjjjjjjjjjjjjjjjjjjjjjjjjjjjh;..+yjjjjjjjjjjjjjjp%........;gjjjt",
"tjjjjjjjjjjjjjjjjjjjjjjjjjjjj8X....;fjjjjjjjjjjjjjjjjjjjjjjjjjjj0X...-hjjjjjjjjjjjjd*..........,hjjt",
"tjjjjjjjjjjjjjjjjjjjjjjjjjjje+.....X1jjjjjjjjjjjjjjjjjjjjjjjjjju#....X6jjjjjjjjjjjh>...........X9jjt",
"tjjjjjjjjjjjjjjjjjjjjjjjjjjp$.......Xwjjjjjjjjjjjjjjjjjjjjjjjjd*......+wjjjjjjjjjjq.............@pjt",
"5jjjjjjjjjjjjjjjjjjjjjjjjjd-.........#yjjjjjjjjjjjjjjjjjjjjjjh,........#pjjjjjjjjf&..............,jt",
"tjjjjjjjjjjjjjjjjjjjjjjjjh>...........%pjjjjjjjjjjjjjjjjjjjjh8X.........&djjjjjjjp+..............&ht",
"tjjjjjjjjjjjjjjjjjjjjjjjh<.......o.o...*djjjjjjjjjjjjjjjjjjj0X...........;fjjjjjjp+..............&ht",
"tjjjjjjjjjjjjjjjjjjjjjjj8X........o.....;fjjjjjjjjjjjjjjjjje+.............>hjjjjjg&......-$......<jt",
"tjjjjjjjjjjjjjjjjjjjjjj0X................,hjjjjjjjjjjjjjjjy#..............X6hjjjjje+....@y0.....%ajt",
"tjjjjjjjjjjjjjjjjjjjjje+.................X6jjjjjjjjjjjjjjp$................X0jjjjjjr;##=ejh9%@$>pjjt",
"tjjjjjjjjjjjjjjjjjjjjp%...........o.......+wjjjjjjjjjjjjd*...o....o.........+ejjjjjjhddhjjjjhafjjjjt",
"tjjjjjjjjjjjjjjjjjjjf;.....................#pjjjjjjjjjjh,......o.o...........$pjjjjjjjjjjjjjjjjjjjjt",
"tjjjjjjjjjjjjjjjjjjj9X......................:hjjjjjjjjj0X....o................;hjjjjjjji7><qfjjjjjjt",
"tjjjjjjjjjjjjjjjjjjd$.......................Xrjjjjjjjja#......................X0jjjjjj9+@&$o-ajjjjjt",
"tjjjjjjjjjjjjjjjjjj0.........................,jjjjjjjj1........................%fjjjjrX*ihd9o;hjjjjt",
"tjjjjjjjjjjjjjjjjjj,.........................&fjjjjjjf%........................Xrjjjj>Xujjjh;Opjjjjt",
"5jjjjjjjjjjjjjjjjjj:.........................%fjjjjjjp@.........................8jjjj-@djjjj6.ejjjjt",
"tjjjjjjjjjjjjjjjjjj<............X............*hjjjjjjp+...................o.....8jjjj>Xujjjj:Xyjjjj5",
"tjjjjjjjjjjjjjjjjjjq..........X.&X...........>jjjjjjjd#............X...........XqjjjjeX-pjhqO-hjjjjt",
"tjjjjjjjjjjjjjjjjjja$..........+e&..........Xrjjjjjjjh;...........#-........o..+pjjjjjq##-*+:pjjjjjt",
"tjjjjjjjjjjjjjjjjjjj0X.........>j0X.........,hjjjjjjjjwX..........<rX..........>hjjjjju%@-%O1hjjjjjt",
"tjjjjjjjjjjjjjjjjjjjj6+.......-djh,X......X>fjjjjjjjjjh>.........$ph>.........$pjjjjjf%#ujf<X9jjjjjt",
"tjjjjjjjjjjjjjjjjjjjjjr:@XXX#1djjjh9%XXX+*qhjjjjjjjjjjjf<X......#rjjd;......X*ijjjjjjuX,jjja+;jjjjjt",
"tjjjjjjjjjjjjjjjjjjjjjjhayerdjjjjjjjfuerphjjjjjjjjjjjjjjjr,%#@%<pjjjjf9*#@$-0sjjjjjjjiX:jjjuX>jjjjjt",
"tjjjjjjjjjjjjjjjjjjjjjjjjjjjjjjjjjjjjjjjjjjjjjjjjjjjjjjjjjjfaafjjjjjjjjhdafhjjjjjjjjjh;X8py*Xwjjjjjt",
"tjjjjjjjjjjjjjjjjjjjjjjjjjjjjjjjjjjjjjjjjjjjjjjjjjjjjjjjjjjjjjjjjjjjjjjjjjjjjjjjjjjjjja-X@+@8jjjjjjt",
"5jjjjjjjjjjjjjjjjjjjjjjjjjjjjjjjjjjjjjjjjjjjjjjjjjjjjjjjjjjjjjjjjjjjjjjjjjjjjjjjjjjjjjjhyqwpjjjjjjj5",
"2gjjjjjjjjjjjjjjjjjjjjjjjjjjjjjjjjjjjjjjjjjjjjjjjjjjjjjjjjjjjjjjjjjjjjjjjjjjjjjjjjjjjjjjjjjjjjjjjjg2",
" 4sjjjjjjjjjjjjjjjjjjjjjjjjjjjjjjjjjjjjjjjjjjjjjjjjjjjjjjjjjjjjjjjjjjjjjjjjjjjjjjjjjjjjjjjjjjjjjjg3 ",
"  25tttttttttttttttttttttttttttptptttttttttttttttttttttttttttttttttttttttttstttttttttttttttttttt52  "
};
