/* XPM */
static char *ace_of_hearts1672178176[] = {
/* columns rows colors chars-per-pixel */
"100 145 75 1 ",
"  c None",
". c #DF0101",
"X c #D70E0E",
"o c #DD0A0A",
"O c #D61414",
"+ c #DD1414",
"@ c #D51C1C",
"# c #DD1B1B",
"$ c #E00606",
"% c #E00C0C",
"& c #E11414",
"* c #E21C1C",
"= c #D52424",
"- c #DC2323",
"; c #D62B2B",
": c #DC2C2C",
"> c #D63333",
", c #DC3434",
"< c #D73A3A",
"1 c #DB3C3C",
"2 c #E32424",
"3 c #E42C2C",
"4 c #E53434",
"5 c #E63B3B",
"6 c #DD4444",
"7 c #DC4C4C",
"8 c #DD5454",
"9 c #DE5B5B",
"0 c #E64343",
"q c #E84646",
"w c #E54A4A",
"e c #E84C4C",
"r c #E25353",
"t c #E95353",
"y c #E25D5D",
"u c #EA5C5C",
"i c #DF6060",
"p c #E16262",
"a c #EB6363",
"s c #E66C6C",
"d c #EC6C6C",
"f c #E77272",
"g c #ED7373",
"h c #ED7C7C",
"j c #868686",
"k c #A7A7A7",
"l c gray66",
"z c #B5B5B5",
"x c #EE8383",
"c c #EB8989",
"v c #F08B8B",
"b c #EC9393",
"n c #EE9999",
"m c #F19393",
"M c #F29C9C",
"N c #EFACAC",
"B c #F3A3A3",
"V c #F4ABAB",
"C c #F5B3B3",
"Z c #F6BBBB",
"A c #C2C2C2",
"S c #F7C3C3",
"D c #F7CACA",
"F c #F8CCCC",
"G c #F6D2D2",
"H c #F9D4D4",
"J c #F5DADA",
"K c #FADBDB",
"L c #EFEFEF",
"P c #F7E1E1",
"I c #FBE4E4",
"U c #FCECEC",
"Y c #F1F1F1",
"T c #FDF4F4",
"R c #FFFFFF",
/* pixels */
"  jzAAAAAAAAAAAAAAAAAAAAAAAAAAAAAAAAAAAAAAAAAAAAAAAAAAAAAAAAAAAAAAAAAAAAAAAAAAAAAAAAAAAAAAAAAAAAzj  ",
" lLRRRRRRRRRRRRRRRRRRRRRRRRRRRRRRRRRRRRRRRRRRRRRRRRRRRRRRRRRRRRRRRRRRRRRRRRRRRRRRRRRRRRRRRRRRRRRRLk ",
"jYRRRRRRRUURRRRRRRRRRRRRRRRRRRRRRRRRRRRRRRRRRRRRRRRRRRRRRRRRRRRRRRRRRRRRRRRRRRRRRRRRRRRRRRRRRRRRRRYj",
"zRRRRRRRS45FRRRRRRRRRRRRRRRRRRRRRRRRRRRRRRRRRRRRRRRRRRRRRRRRRRRRRRRRRRRRRRRRRRRRRRRRRRRRRRRRRRRRRRRz",
"ARRRRRRRg.ohRRRRRRRRRRRRRRRRRRRRRRRRRRRRRRRRRRRRRRRRRRRRRRRRRRRRRRRRRRRRRRRRRRRRRRRRRRRRRRRRRRRRRRRA",
"ARRRRRRI2e03IRRRRRRRRRRRRRRRRRRRRRRRRRRRRRRRRRRRRRRRRRRRRRRRRRRRRRRRRRRRRRRRRRRRRRRRRRRRRRRRRRRRRRRA",
"ARRRRRRB.Mm.BRRRRRRRRRRRRRRRRRRRRRRRRRRRRRRRRRRRRRRRRRRRRRRRRRRRRRRRRRRRRRRRRRRRRRRRRRRRRRRRRRRRRRRA",
"ARRRRRTe*KK&eTRRRRRRRRRRRRRRRRRRRRRRRRRRRRRRRRRRRRRRRRRRRRRRRRRRRRRRRRRRRRRRRRRRRRRRRRRRRRRRRRRRRRRA",
"ARRRRRF&uRTt%SRRRRRRRRRRRRRRRRRRRRRRRRRRRRRRRRRRRRRRRRRRRRRRRRRRRRRRRRRRRRRRRRRRRRRRRRRRRRRRRRRRRRRA",
"ARRRRRx.VRRV$gRRRRRRRRRRRRRRRRRRRRRRRRRRRRRRRRRRRRRRRRRRRRRRRRRRRRRRRRRRRRRRRRRRRRRRRRRRRRRRRRRRRRRA",
"ARRRRU43KUTH22IRRRRRRRRRRRRRRRRRRRRRRRRRRRRRRRRRRRRRRRRRRRRRRRRRRRRRRRRRRRRRRRRRRRRRRRRRRRRRRRRRRRRz",
"ARRRRC.%4444$.MRRRRRRRRRRRRRRRRRRRRRRRRRRRRRRRRRRRRRRRRRRRRRRRRRRRRRRRRRRRRRRRRRRRRRRRRRRRRRRRRRRRRA",
"zRRRRu$tuuuuto0TRRRRRRRRRRRRRRRRRRRRRRRRRRRRRRRRRRRRRRRRRRRRRRRRRRRRRRRRRRRRRRRRRRRRRRRRRRRRRRRRRRRA",
"ARRRH*5URRRRT0%ZRRRRRRRRRRRRRRRRRRRRRRRRRRRRRRRRRRRRRRRRRRRRRRRRRRRRRRRRRRRRRRRRRRRRRRRRRRRRRRRRRRRA",
"ARRRm.xRRRRRRm.aRRRRRRRRRRRRRRRRRRRRRRRRRRRRRRRRRRRRRRRRRRRRRRRRRRRRRRRRRRRRRRRRRRRRRRRRRRRRRRRRRRRA",
"ARRT5&FRRRRRRK**HRRRRRRRRRRRRRRRRRRRRRRRRRRRRRRRRRRRRRRRRRRRRRRRRRRRRRRRRRRRRRRRRRRRRRRRRRRRRRRRRRRA",
"ARRKegTRRRRRRRx0ZRRRRRRRRRRRRRRRRRRRRRRRRRRRRRRRRRRRRRRRRRRRRRRRRRRRRRRRRRRRRRRRRRRRRRRRRRRRRRRRRRRA",
"ARRRTRRRRRRRRRRTRRRRRRRRRRRRRRRRRRRRRRRRRRRRRRRRRRRRRRRRRRRRRRRRRRRRRRRRRRRRRRRRRRRRRRRRRRRRRRRRRRRz",
"ARRRRRRRRRRRRRRRRRRRRRRRRRRRRRRRRRRRRRRRRRRRRRRRRRRRRRRRRRRRRRRRRRRRRRRRRRRRRRRRRRRRRRRRRRRRRRRRRRRA",
"ARRTZgudZRRUmuucKRRRRRRRRRRRRRRRRRRRRRRRRRRRRRRRRRRRRRRRRRRRRRRRRRRRRRRRRRRRRRRRRRRRRRRRRRRRRRRRRRRA",
"zRRh%...&BTt....3SRRRRRRRRRRRRRRRRRRRRRRRRRRRRRRRRRRRRRRRRRRRRRRRRRRRRRRRRRRRRRRRRRRRRRRRRRRRRRRRRRA",
"ARC$.....3x......0URRRRRRRRRRRRRRRRRRRRRRRRRRRRRRRRRRRRRRRRRRRRRRRRRRRRRRRRRRRRRRRRRRRRRRRRRRRRRRRRA",
"ARa$......&.$....%SRRRRRRRRRRRRRRRRRRRRRRRRRRRRRRRRRRRRRRRRRRRRRRRRRRRRRRRRRRRRRRRRRRRRRRRRRRRRRRRRA",
"ARt...........$...CRRRRRRRRRRRRRRRRRRRRRRRRRRRRRRRRRRRRRRRRRRRRRRRRRRRRRRRRRRRRRRRRRRRRRRRRRRRRRRRRA",
"ARg.$$...$.....$.&FRRRRRRRRRRRRRRRRRRRRRRRRRRRRRRRRRRRRRRRRRRRRRRRRRRRRRRRRRRRRRRRRRRRRRRRRRRRRRRRRz",
"ARD*..$....$.$...uRRRRRRRRRRRRRRRRRRRRRRRRRRRRRRRRRRRRRRRRRRRRRRRRRRRRRRRRRRRRRRRRRRRRRRRRRRRRRRRRRA",
"ARTx.....$......2GRRRRRRRRRRRRRRRRRRRRRRRRRRRRRRRRRRRRRRRRRRRRRRRRRRRRRRRRRRRRRRRRRRRRRRRRRRRRRRRRRA",
"ARRUt..$.$.$$..&VRRRRRRRRRRRRRRRRRRRRRRRRRRRRRRRRRRRRRRRRRRRRRRRRRRRRRRRRRRRRRRRRRRRRRRRRRRRRRRRRRRA",
"ARRRI0........$mRRRRRRRRRRRRRRRRRRRRRRRRRRRRRRRRRRRRRRRRRRRRRRRRRRRRRRRRRRRRRRRRRRRRRRRRRRRRRRRRRRRA",
"ARRRRG3.$.$..$hTRRRRRRRRRRRRRRRRRRRRRRRRRRRRRRRRRRRRRRRRRRRRRRRRRRRRRRRRRRRRRRRRRRRRRRRRRRRRRRRRRRRA",
"ARRRRRS*.....aTRRRRRRRRRRRRRRRRRRRRRRRRRRRRRRRRRRRRRRRRRRRRRRRRRRRRRRRRRRRRRRRRRRRRRRRRRRRRRRRRRRRRA",
"ARRRRRRBo...qIRRRRRRRRRRRRRRRRRRRRRRRRRRRRRRRRRRRRRRRRRRRRRRRRRRRRRRRRRRRRRRRRRRRRRRRRRRRRRRRRRRRRRA",
"ARRRRRRRg..*DRRRRRRRRRRRRRRRRRRRRRRRRRRRRRRRRRRRRRRRRRRRRRRRRRRRRRRRRRRRRRRRRRRRRRRRRRRRRRRRRRRRRRRA",
"zRRRRRRRI4.vRRRRRRRRRRRRRRRRRRRRRRRRRRRRRRRRRRRRRRRRRRRRRRRRRRRRRRRRRRRRRRRRRRRRRRRRRRRRRRRRRRRRRRRA",
"ARRRRRRRRM4IRRRRRRRRRRRRRRRRRRRRRRRRRRRRRRRRRRRRRRRRRRRRRRRRRRRRRRRRRRRRRRRRRRRRRRRRRRRRRRRRRRRRRRRA",
"ARRRRRRRRIVRRRRRRRRRRRRRRRRRRRRRRRRRRRRRRRRRRRRRRRRRRRRRRRRRRRRRRRRRRRRRRRRRRRRRRRRRRRRRRRRRRRRRRRRA",
"ARRRRRRRRRRRRRRRRRRRRRRRRRRRRRRRRRRRRRRRRRRRRRRRRRRRRRRRRRRRRRRRRRRRRRRRRRRRRRRRRRRRRRRRRRRRRRRRRRRA",
"ARRRRRRRRRRRRRRRRRRRRRRRRRRRRRRRRRRRRRRRRRRRRRRRRRRRRRRRRRRRRRRRRRRRRRRRRRRRRRRRRRRRRRRRRRRRRRRRRRRz",
"ARRRRRRRRRRRRRRRRRRRRRTRRRRRRRTPFSZSDKTRRRRRRRRRRRRRRRRRTRRRYUGDZSDKURRRRRRRRRRRRRRRRRRRRRRRRRRRRRRA",
"zRRRRRRRRRRRRRRRRRRRRRRRRRYUZciw14,,,4ehCLRRRRRRRRRRRRRRRRJnsw5,4450tgBGTRRRRRRRRRRRRRRRRRRRRRRRRRRA",
"ARRRRRRRRRRRRRRRRRRRRYRRRJnu05,1,,,::--#-tVTRRRRRRRRRRRRKx03:3:,,,44445wgSTRRRRRRRRRRRRRRRRRRRRRRRRA",
"ARRRRRRRRRRRRRRRRRRRRRRLNu66616<1,::;--###2gIRRRRRRRRRRZe::,,1,,,,,,,5555qhHRRRRRRRRRRRRRRRRRRRRRRRA",
"ARRRRRRRRRRRRRRRRRRRRRJc7ww7676<1<>>;---##++tKRRRRRRRRn4:55<11<,>,>,4,15500uCRRRRRRRRRRRRRRRRRRRRRRA",
"zRRRRRRRRRRRRRRRRRRTRJf7788877761<>;;;==###&+tIRRRRRRN::1166661<,,>,,,555000eBRRRRRRRRRRRRRRRRRRRRRA",
"ARRRRRRRRRRRRRRRRRRRIf8r899898776<>>;--##++&+&gTRRRRF42,576666<<>>,,<,555000qeVRRRRRRRRRRRRRRRRRRRRz",
"ARRRRRRRRRRRRRRRRRRLc8r9yyiy98776<>;:--##+&&%%&VRRRUu#:5607w61<>>>>>,4155000qwtSRRRRRRRRRRRRRRRRRRRA",
"ARRRRRRRRRRRRRRRRTRC8999ppppy8776<>:--##&*&&%&$0URRB##:160661<>>>>:>,,4550qqqeegURRRRRRRRRRRRRRRRRRA",
"ARRRRRRRRRRRRRRRRRPsr9ppppppy876<,::-2**&&&%&%$%BRUq+-:<161<<<>>>>,>4,45550qqqeeBRRRRRRRRRRRRRRRRRRA",
"ARRRRRRRRRRRRRRYRRN889ippppyr8w14,:22#**&&&%%%$$eRC#+-;>>,<>>>>;;:>:444555000qetdURRRRRRRRRRRRRRRRRA",
"ARRRRRRRRRRRRRRRRYhr99iippy9r711,3322****&&%%$$o&DgXO-;;>;>;;;:;:::4445555000eeetZRRRRRRRRRRRRRRRRRA",
"ARRRRRRRRRRRRRRRRG998999y9880654332-***&&&&%%$$$.h5oO@===;;;;;;:::3444455000qeeetcRRRRRRRRRRRRRRRRRA",
"zRRRRRRRRRRRRRRRRN889999888765,332222***&&%&%o$$.3+XO@@@=====---3:3344455000qqeeedURRRRRRRRRRRRRRRRA",
"ARRRRRRRRRRRRRRTYb88888887605443322*#**&&&&%$o$$...XOO@@@=@=---2233444455500qeeetuKRRRRRRRRRRRRRRRRA",
"ARRRRRRRRRRRRRRRYf8888877701444333222***&&%%%.$$...XXOOOO####222233344455500qqqtetDRRRRRRRRRRRRRRRRA",
"ARRRRRRRRRRRRRRRRf877777661554433222***&&&&%%$$o..o.XXOOO###*222233444450500qqetttZRRRRRRRRRRRRRRRRA",
"ARRRRRRRRRRRRRRRYf7877676654,43332222***&&%&%$$.oXoooXXO+##**#2333334445500qqeqettCRRRRRRRRRRRRRRRRA",
"ARRRRRRRRRRRRRRTYf8776766155443333222**&&&&%$%o$.o.Xo+o++&**2*2223334445550qqqeettCRRRRRRRRRRRRRRRRz",
"zRRRRRRRRRRRRRRRTh7777665554444332222***&&&&&$$$o..ooo++&&+***22333444555000qqeettSRRRRRRRRRRRRRRRRA",
"ARRRRRRRRRRRRRRRRb777060155444433222*****&&%%%%$$ooo$+%&&****2222343444555q0qeettuHRRRRRRRRRRRRRRRRA",
"ARRRRRRRRRRRRRRRRC7w76050555443333222****&&o%%%%$o%$%%&&&&**222233344445500qqeeeegTRRRRRRRRRRRRRRRRA",
"ARRRRRRRRRRRRRRRRJyww0005555444333222***&&&%&%%$%%$&%&&&&***222322444455550qqeeeeMRRRRRRRRRRRRRRRRRA",
"ARRRRRRRRRRRRRRRRRcww00050544443323222****&&&%%%%%%%&%&*&****22234244455050qqeeeuGRRRRRRRRRRRRRRRRRA",
"ARRRRRRRRRRRRRRRRTSwwwq00555444333222*2*&&&&&%%%%%%&%&&&****222323444455500qqeeehTRRRRRRRRRRRRRRRRRA",
"zRRRRRRRRRRRRRRRRRThwwq00555444333322******&&&&&&&&%&&&&&**222223334445550qqqeetSRRRRRRRRRRRRRRRRRRA",
"ARRRRRRRRRRRRRRRRRRDtqq0q55554434232222****&*%&%&%&&%&&****22223334344555qqqqeevTRRRRRRRRRRRRRRRRRRA",
"ARRRRRRRRRRRRRRRRRRTmqq0q55544433423222***&&&*&&&&&&*&*&**2*223243444555555qqquHRRRRRRRRRRRRRRRRRRRA",
"ARRRRRRRRRRRRRRRRRRRIa00555554444232222******&&&&&&&&&****22223333344555qqqqqeBRRRRRRRRRRRRRRRRRRRRA",
"ARRRRRRRRRRRRRRRRRRRRZe00q555444343222222****&*&&&*&&****2222223344455555qqqqhURRRRRRRRRRRRRRRRRRRRA",
"ARRRRRRRRRRRRRRRRRRRRTm0q5555444433232222*****&&*&*&****222232333444455q000qaHRRRRRRRRRRRRRRRRRRRRRA",
"zRRRRRRRRRRRRRRRRRRRRRUd50q5544443432322*2***************22222433445555500qeZRRRRRRRRRRRRRRRRRRRRRRz",
"ARRRRRRRRRRRRRRRRRRRRRRHu5555554433322222*2*************222233334344455500qMRRRRRRRRRRRRRRRRRRRRRRRA",
"ARRRRRRRRRRRRRRRRRRRRRRRZeq554544433332222222*******2*22222223344445555q00hURRRRRRRRRRRRRRRRRRRRRRRA",
"ARRRRRRRRRRRRRRRRRRRRRRRRM0055444433323222222*2**2*2**2222333333445455500dIRRRRRRRRRRRRRRRRRRRRRRRRA",
"ARRRRRRRRRRRRRRRRRRRRRRRRTv5555444433323232222*2222222222223334344455500uHRRRRRRRRRRRRRRRRRRRRRRRRRA",
"ARRRRRRRRRRRRRRRRRRRRRRRRRTh5555444443332222222***2*2222233333444445550tFRRRRRRRRRRRRRRRRRRRRRRRRRRA",
"zRRRRRRRRRRRRRRRRRRRRRRRRRRId55444433333323222222222222232334344455550qCRRRRRRRRRRRRRRRRRRRRRRRRRRRA",
"ARRRRRRRRRRRRRRRRRRRRRRRRRRRKa4554444432232222222222223233334344445550VRRRRRRRRRRRRRRRRRRRRRRRRRRRRz",
"ARRRRRRRRRRRRRRRRRRRRRRRRRRRRGt54444433433333322323223333334344455555MRRRRRRRRRRRRRRRRRRRRRRRRRRRRRA",
"ARRRRRRRRRRRRRRRRRRRRRRRRRRRRRSq555444433333322323323233333344455555vTRRRRRRRRRRRRRRRRRRRRRRRRRRRRRA",
"ARRRRRRRRRRRRRRRRRRRRRRRRRRRRRRVq4444344343333332323333333444444455hURRRRRRRRRRRRRRRRRRRRRRRRRRRRRRA",
"ARRRRRRRRRRRRRRRRRRRRRRRRRRRRRRRM554444434333333333333334434445555dIRRRRRRRRRRRRRRRRRRRRRRRRRRRRRRRA",
"zRRRRRRRRRRRRRRRRRRRRRRRRRRRRRRRTv5554444343433333333443344445455uKRRRRRRRRRRRRRRRRRRRRRRRRRRRRRRRRA",
"ARRRRRRRRRRRRRRRRRRRRRRRRRRRRRRRRTh54444443334343333434344445455tFRRRRRRRRRRRRRRRRRRRRRRRRRRRRRRRRRA",
"ARRRRRRRRRRRRRRRRRRRRRRRRRRRRRRRRRUd554444444343434334444445455qZRRRRRRRRRRRRRRRRRRRRRRRRRRRRRRRRRRA",
"ARRRRRRRRRRRRRRRRRRRRRRRRRRRRRRRRRRKa45454444434434444444445550VRRRRRRRRRRRRRRRRRRRRRRRRRRRRRRRRRRRA",
"ARRRRRRRRRRRRRRRRRRRRRRRRRRRRRRRRRRRGt455445444444444445455455MRRRRRRRRRRRRRRRRRRRRRRRRRRRRRRRRRRRRA",
"ARRRRRRRRRRRRRRRRRRRRRRRRRRRRRRRRRRRRZq5454444444444444555555xTRRRRRRRRRRRRRRRRRRRRRRRRRRRRRRRRRRRRA",
"zRRRRRRRRRRRRRRRRRRRRRRRRRRRRRRRRRRRRRB554545544545445454555dIRRRRRRRRRRRRRRRRRRRRRRRRRRRRRRRRRRRRRA",
"ARRRRRRRRRRRRRRRRRRRRRRRRRRRRRRRRRRRRRTv5555445554554555555uKRRRRRRRRRRRRRRRRRRRRRRRRRRRRRRRRRRRRRRz",
"ARRRRRRRRRRRRRRRRRRRRRRRRRRRRRRRRRRRRRRUd555555455545555550ZRRRRRRRRRRRRRRRRRRRRRRRRRRRRRRRRRRRRRRRA",
"ARRRRRRRRRRRRRRRRRRRRRRRRRRRRRRRRRRRRRRRFt5555555555555505MRRRRRRRRRRRRRRRRRRRRRRRRRRRRRRRRRRRRRRRRA",
"ARRRRRRRRRRRRRRRRRRRRRRRRRRRRRRRRRRRRRRRRC05q555555555055hTRRRRRRRRRRRRRRRRRRRRRRRRRRRRRRRRRRRRRRRRA",
"ARRRRRRRRRRRRRRRRRRRRRRRRRRRRRRRRRRRRRRRRTv5555550555550uKRRRRRRRRRRRRRRRRRRRRRRRRRRRRRRRRRRRRRRRRRA",
"zRRRRRRRRRRRRRRRRRRRRRRRRRRRRRRRRRRRRRRRRRIa5q5q50q50000CRRRRRRRRRRRRRRRRRRRRRRRRRRRRRRRRRRRRRRRRRRA",
"ARRRRRRRRRRRRRRRRRRRRRRRRRRRRRRRRRRRRRRRRRRZeqqq0500005xTRRRRRRRRRRRRRRRRRRRRRRRRRRRRRRRRRRRRRRRRRRA",
"ARRRRRRRRRRRRRRRRRRRRRRRRRRRRRRRRRRRRRRRRRRTv5q5000000uKRRRRRRRRRRRRRRRRRRRRRRRRRRRRRRRRRRRRRRRRRRRA",
"ARRRRRRRRRRRRRRRRRRRRRRRRRRRRRRRRRRRRRRRRRRRKuqq00qqq0VRRRRRRRRRRRRRRRRRRRRRRRRRRRRRRRRRRRRRRRRRRRRA",
"ARRRRRRRRRRRRRRRRRRRRRRRRRRRRRRRRRRRRRRRRRRRRBqqqqqqqdURRRRRRRRRRRRRRRRRRRRRRRRRRRRRRRRRRRRRRRRRRRRA",
"ARRRRRRRRRRRRRRRRRRRRRRRRRRRRRRRRRRRRRRRRRRRRUdqq0qqqZRRRRRRRRRRRRRRRRRRRRRRRRRRRRRRRRRRRRRRRRRRRRRA",
"zRRRRRRRRRRRRRRRRRRRRRRRRRRRRRRRRRRRRRRRRRRRRRZqwwqqhTRRRRRRRRRRRRRRRRRRRRRRRRRRRRRRRRRRRRRRRRRRRRRA",
"ARRRRRRRRRRRRRRRRRRRRRRRRRRRRRRRRRRRRRRRRRRRRRTgqeeeSRRRRRRRRRRRRRRRRRRRRRRRRRRRRRRRRRRRRRRRRRRRRRRA",
"ARRRRRRRRRRRRRRRRRRRRRRRRRRRRRRRRRRRRRRRRRRRRRRCteqgTRRRRRRRRRRRRRRRRRRRRRRRRRRRRRRRRRRRRRRRRRRRRRRz",
"ARRRRRRRRRRRRRRRRRRRRRRRRRRRRRRRRRRRRRRRRRRRRRRUdqtCRRRRRRRRRRRRRRRRRRRRRRRRRRRRRRRRRRRRRRRRRRRRRRRA",
"ARRRRRRRRRRRRRRRRRRRRRRRRRRRRRRRRRRRRRRRRRRRRRRRBeaIRRRRRRRRRRRRRRRRRRRRRRRRRRRRRRRRRRRRRRRRRRRRRRRA",
"ARRRRRRRRRRRRRRRRRRRRRRRRRRRRRRRRRRRRRRRRRRRRRRRHuvRRRRRRRRRRRRRRRRRRRRRRRRRRRRRRRRRRRRRRRRRRRRRRRRA",
"zRRRRRRRRRRRRRRRRRRRRRRRRRRRRRRRRRRRRRRRRRRRRRRRTxSRRRRRRRRRRRRRRRRRRRRRRRRRRRRRRRRRRRRRRRRRRRRRRRRA",
"ARRRRRRRRRRRRRRRRRRRRRRRRRRRRRRRRRRRRRRRRRRRRRRRRZIRRRRRRRRRRRRRRRRRRRRRRRRRRRRRRRRRRRRRRRRRRRRRRRRA",
"ARRRRRRRRRRRRRRRRRRRRRRRRRRRRRRRRRRRRRRRRRRRRRRRRTRRRRRRRRRRRRRRRRRRRRRRRRRRRRRRRRRRRRRRRRRRRRRRRRRA",
"ARRRRRRRRRRRRRRRRRRRRRRRRRRRRRRRRRRRRRRRRRRRRRRRRRRRRRRRRRRRRRRRRRRRRRRRRRRRRRRRRRRRRRRRRGIRRRRRRRRz",
"ARRRRRRRRRRRRRRRRRRRRRRRRRRRRRRRRRRRRRRRRRRRRRRRRRRRRRRRRRRRRRRRRRRRRRRRRRRRRRRRRRRRRRRRRdMRRRRRRRRA",
"ARRRRRRRRRRRRRRRRRRRRRRRRRRRRRRRRRRRRRRRRRRRRRRRRRRRRRRRRRRRRRRRRRRRRRRRRRRRRRRRRRRRRRRRD&5IRRRRRRRA",
"zRRRRRRRRRRRRRRRRRRRRRRRRRRRRRRRRRRRRRRRRRRRRRRRRRRRRRRRRRRRRRRRRRRRRRRRRRRRRRRRRRRRRRRTt.$xRRRRRRRA",
"ARRRRRRRRRRRRRRRRRRRRRRRRRRRRRRRRRRRRRRRRRRRRRRRRRRRRRRRRRRRRRRRRRRRRRRRRRRRRRRRRRRRRRRv...&ZRRRRRRA",
"ARRRRRRRRRRRRRRRRRRRRRRRRRRRRRRRRRRRRRRRRRRRRRRRRRRRRRRRRRRRRRRRRRRRRRRRRRRRRRRRRRRRRRV&....3GRRRRRA",
"ARRRRRRRRRRRRRRRRRRRRRRRRRRRRRRRRRRRRRRRRRRRRRRRRRRRRRRRRRRRRRRRRRRRRRRRRRRRRRRRRRRRRS2......qIRRRRA",
"ARRRRRRRRRRRRRRRRRRRRRRRRRRRRRRRRRRRRRRRRRRRRRRRRRRRRRRRRRRRRRRRRRRRRRRRRRRRRRRRRRRRH4........tURRRA",
"ARRRRRRRRRRRRRRRRRRRRRRRRRRRRRRRRRRRRRRRRRRRRRRRRRRRRRRRRRRRRRRRRRRRRRRRRRRRRRRRRRRI0....$..$..gTRRA",
"zRRRRRRRRRRRRRRRRRRRRRRRRRRRRRRRRRRRRRRRRRRRRRRRRRRRRRRRRRRRRRRRRRRRRRRRRRRRRRRRRRTa...$...$....mRRA",
"ARRRRRRRRRRRRRRRRRRRRRRRRRRRRRRRRRRRRRRRRRRRRRRRRRRRRRRRRRRRRRRRRRRRRRRRRRRRRRRRRRB.............*GRA",
"ARRRRRRRRRRRRRRRRRRRRRRRRRRRRRRRRRRRRRRRRRRRRRRRRRRRRRRRRRRRRRRRRRRRRRRRRRRRRRRRRU5....$$.$..$$..dRA",
"ARRRRRRRRRRRRRRRRRRRRRRRRRRRRRRRRRRRRRRRRRRRRRRRRRRRRRRRRRRRRRRRRRRRRRRRRRRRRRRRRF&..............5TA",
"ARRRRRRRRRRRRRRRRRRRRRRRRRRRRRRRRRRRRRRRRRRRRRRRRRRRRRRRRRRRRRRRRRRRRRRRRRRRRRRRRG&..$...........5TA",
"ARRRRRRRRRRRRRRRRRRRRRRRRRRRRRRRRRRRRRRRRRRRRRRRRRRRRRRRRRRRRRRRRRRRRRRRRRRRRRRRRT5......q3......gRA",
"zRRRRRRRRRRRRRRRRRRRRRRRRRRRRRRRRRRRRRRRRRRRRRRRRRRRRRRRRRRRRRRRRRRRRRRRRRRRRRRRRRC&....*Sm.....4KRA",
"ARRRRRRRRRRRRRRRRRRRRRRRRRRRRRRRRRRRRRRRRRRRRRRRRRRRRRRRRRRRRRRRRRRRRRRRRRRRRRRRRRRZt22qCRTb4*3dHRRA",
"ARRRRRRRRRRRRRRRRRRRRRRRRRRRRRRRRRRRRRRRRRRRRRRRRRRRRRRRRRRRRRRRRRRRRRRRRRRRRRRRRRRRRIKTRRRRTKURRRRA",
"ARRRRRRRRRRRRRRRRRRRRRRRRRRRRRRRRRRRRRRRRRRRRRRRRRRRRRRRRRRRRRRRRRRRRRRRRRRRRRRRRRRRRRRRRRRRRRRRRRRA",
"ARRRRRRRRRRRRRRRRRRRRRRRRRRRRRRRRRRRRRRRRRRRRRRRRRRRRRRRRRRRRRRRRRRRRRRRRRRRRRRRRRRKMCRRRRRRRRSMKRRA",
"ARRRRRRRRRRRRRRRRRRRRRRRRRRRRRRRRRRRRRRRRRRRRRRRRRRRRRRRRRRRRRRRRRRRRRRRRRRRRRRRRRRG#*KRRRRRRT0&FRRA",
"zRRRRRRRRRRRRRRRRRRRRRRRRRRRRRRRRRRRRRRRRRRRRRRRRRRRRRRRRRRRRRRRRRRRRRRRRRRRRRRRRRRRa.mRRRRRRZ$tTRRA",
"ARRRRRRRRRRRRRRRRRRRRRRRRRRRRRRRRRRRRRRRRRRRRRRRRRRRRRRRRRRRRRRRRRRRRRRRRRRRRRRRRRRRZ$qTRRRRRg.BRRRA",
"ARRRRRRRRRRRRRRRRRRRRRRRRRRRRRRRRRRRRRRRRRRRRRRRRRRRRRRRRRRRRRRRRRRRRRRRRRRRRRRRRRRRT0oMZZCZV33IRRRA",
"ARRRRRRRRRRRRRRRRRRRRRRRRRRRRRRRRRRRRRRRRRRRRRRRRRRRRRRRRRRRRRRRRRRRRRRRRRRRRRRRRRRRRm..%%&%$.gRRRRz",
"ARRRRRRRRRRRRRRRRRRRRRRRRRRRRRRRRRRRRRRRRRRRRRRRRRRRRRRRRRRRRRRRRRRRRRRRRRRRRRRRRRRRRK2*MCCC5%ZRRRRA",
"ARRRRRRRRRRRRRRRRRRRRRRRRRRRRRRRRRRRRRRRRRRRRRRRRRRRRRRRRRRRRRRRRRRRRRRRRRRRRRRRRRRRRRd.VRRI20TRRRRA",
"zRRRRRRRRRRRRRRRRRRRRRRRRRRRRRRRRRRRRRRRRRRRRRRRRRRRRRRRRRRRRRRRRRRRRRRRRRRRRRRRRRRRRRS%tRRM.mRRRRRA",
"ARRRRRRRRRRRRRRRRRRRRRRRRRRRRRRRRRRRRRRRRRRRRRRRRRRRRRRRRRRRRRRRRRRRRRRRRRRRRRRRRRRRRRTq*HRq*KRRRRRA",
"ARRRRRRRRRRRRRRRRRRRRRRRRRRRRRRRRRRRRRRRRRRRRRRRRRRRRRRRRRRRRRRRRRRRRRRRRRRRRRRRRRRRRRRM.mG&uRRRRRRA",
"ARRRRRRRRRRRRRRRRRRRRRRRRRRRRRRRRRRRRRRRRRRRRRRRRRRRRRRRRRRRRRRRRRRRRRRRRRRRRRRRRRRRRRRI20x$CRRRRRRA",
"ARRRRRRRRRRRRRRRRRRRRRRRRRRRRRRRRRRRRRRRRRRRRRRRRRRRRRRRRRRRRRRRRRRRRRRRRRRRRRRRRRRRRRRRh%34URRRRRRA",
"ARRRRRRRRRRRRRRRRRRRRRRRRRRRRRRRRRRRRRRRRRRRRRRRRRRRRRRRRRRRRRRRRRRRRRRRRRRRRRRRRRRRRRRRD&$xRRRRRRRA",
"zRRRRRRRRRRRRRRRRRRRRRRRRRRRRRRRRRRRRRRRRRRRRRRRRRRRRRRRRRRRRRRRRRRRRRRRRRRRRRRRRRRRRRRRRZBIRRRRRRRz",
"jYRRRRRRRRRRRRRRRRRRRRRRRRRRRRRRRRRRRRRRRRRRRRRRRRRRRRRRRRRRRRRRRRRRRRRRRRRRRRRRRRRRRRRRRRRRRRRRRRYj",
" kYRRRRRRRRRRRRRRRRRRRRRRRRRRRRRRRRRRRRRRRRRRRRRRRRRRRRRRRRRRRRRRRRRRRRRRRRRRRRRRRRRRRRRRRRRRRRRRYk ",
"  jzAAAAAAAAAAAAAAAAAAAAAAAAAAAAAAJAAAAAAAAAAAAAAAAAAAAAAAAAAAAAAAAAAAAJAAAAAAAAAAAAAAAAAAAAAAAAzj  "
};
