/* XPM */
static char *c9a18aa0e9fe4a40f384e8bee804521b4bXHCxBsCFcsCANa[] = {
/* columns rows colors chars-per-pixel */
"100 145 44 1 ",
"  c None",
". c #DF0000",
"X c #DF0808",
"o c #E00C0C",
"O c #E11414",
"+ c #E21B1B",
"@ c #E32222",
"# c #E42C2C",
"$ c #E53434",
"% c #E63B3B",
"& c #E74343",
"* c #E84747",
"= c #E84C4C",
"- c #E95454",
"; c #EA5B5B",
": c #EB6363",
"> c #EC6C6C",
", c #ED7474",
"< c #EE7B7B",
"1 c #868686",
"2 c #A7A7A7",
"3 c gray66",
"4 c #B5B5B5",
"5 c #EF8484",
"6 c #F08787",
"7 c #F08B8B",
"8 c #F19393",
"9 c #F29C9C",
"0 c #F3A3A3",
"q c #F4ACAC",
"w c #F5B3B3",
"e c #F6BCBC",
"r c #C2C2C2",
"t c #F7C3C3",
"y c #F8C6C6",
"u c #F8CBCB",
"i c #F9D3D3",
"p c #FADCDC",
"a c #EFEFEF",
"s c #FBE4E4",
"d c #FCECEC",
"f c #F1F1F1",
"g c #FDF4F4",
"h c #FFFFFF",
/* pixels */
"  14rrrrrrrrrrrrrrrrrrrrrrrrrrrrrrrrrrrrrrrrrrrrrrrrrrrrrrrrrrrrrrrrrrrrrrrrrrrrrrrrrrrrrrrrrrrr41  ",
" 3ahhhhhhhhhhhhhhhhhhhhhhhhhhhhhhhhhhhhhhhhhhhhhhhhhhhhhhhhhhhhhhhhhhhhhhhhhhhhhhhhhhhhhhhhhhhhhha2 ",
"1fhhhhhhhhhhhhhhhhhhhhhhhhhhhhhhhhhhhhhhhhhhhhhhhhhhhhhhhhhhhhhhhhhhhhhhhhhhhhhhhhhhhhhhhhhhhhhhhhf1",
"4hhhhuihhhdw80shhhhhhhhhgspsghhhhhhhgdppghhhhhhhhhhhhhhhhhhhhhhhhhhhhhhhhhhhhhhhhhhhhhhhhhhhhhhhhhh4",
"rhhhu@,hhi%X+O#whhhhhhp5&@+@=0ghhhhe;#++$,uhhhhhhhhhhhhhhs0,;;<tghhhhgt5;;,0shhhhhhhhhhhhhhhhhhhhhhr",
"rhhu$.,hd*+0pw#+ihhhhq#......X>ghg8O......O7ghhhhhhhhhhg9#X....O,ghhg<O.....#8ghhhhhhhhhhhhhhhhhhhhr",
"rd9+X.,hqX5hhhwo<hhhe+........X6hwO....o...X7hhhhhhhhhg7X........,gg<X.......X<ghhhhhhhhhhhhhhhhhhhr",
"r8X=9o,h>othhhs#%ghs%........o.+u=..........+uhhhhhhhhwo.........XwtX.........oqhhhhhhhhhhhhhhhhhhhr",
"rq0guo,h=+shhhg=+shqX...........;o...........<hhhhhhhg=...........-;........o..&ghhhhhhhhhhhhhhhhhhr",
"rhhhuo,g%@dhhhh;Oih<........o...X.....o......&ghhhhhhi+.....o..o..oO.o.........Ouhhhhhhhhhhhhhhhhhhr",
"rhhhuo,g$#dhhhh;Oih:.......o.........o.......$dhhhhhheX...............o........Xwhhhhhhhhhhhhhhhhhhr",
"rhhhuX,g%#dhhhh;Oih:............o............$dhhhhhhwX.......o.................qhhhhhhhhhhhhhhhhhhr",
"rhhhuo,g*+shhhg=+sh7........o................;ghhhhhhuO...............o........Xthhhhhhhhhhhhhhhhhhr",
"rhhhyo,h>ouhhhd$%ghi+.....o....o............X0hhhhhhhg&......oo................%dhhhhhhhhhhhhhhhhhh4",
"4hhhuo,h0X8hhheo,hhg,....oo.................*ghhhhhhhh9X......o....o.o.o......X8hhhhhhhhhhhhhhhhhhhr",
"rhhhyo,hs$@edi&Oyhhhp$.......o.............Oehhhhhhhhhg=........o.............=dhhhhhhhhhhhhhhhhhhhr",
"rhhhu.,hhe@O$+O9hhhhheO...................X8hhhhhhhhhhhu@...........o........@uhhhhhhhhhhhhhhhhhhhhr",
"rhhhs7ehhhp8,5uhhhhhhh8X..................>ghhhhhhhhhhhhqO.............o....X0hhhhhhhhhhhhhhhhhhhhhr",
"rhhhhhhhhhhhhhhhhhhhhhg,.................-shhhhhhhhhhhhhg7.........o........5hhhhhhhhhhhhhhhhhhhhhhr",
"rhhge,;,ehhd8;;7phhhhhhg:...............%phhhhhhhhhhhhhhhg,.....o....o.....>ghhhhhhhhhhhhhhhhhhhhhhr",
"rhg<X...O0g-....#thhhhhhs=.............#ihhhhhhhhhhhhhhhhha;....o.........;dhhhhhhhhhhhhhhhhhhhhhhhr",
"rhwX.....#5......&dhhhhhhp%...........@thhhhhhhhhhhhhhhhhhhs&.......o....*shhhhhhhhhhhhhhhhhhhhhhhhr",
"rh:.......O......Xthhhhhhhu@.........Oqhhhhhhhhhhhhhhhhhhhhhi$..........$ihhhhhhhhhhhhhhhhhhhhhhhhhr",
"rh-..............XwhhhhhhhhwO..o.....8hhst857qshhhhhgi9550ighy+........@thhhhhhhhhhhhhhhhhhhhhhhhhhr",
"rh,..............Ouhhhhhhhhh7X......:gg0%X...X%whhhd<+....O:uh0O......X0hhhhhhhhhhhhhhhhhhhhhhhhhhh4",
"rhuO.............:ghhhhhhhhhg:.....&sg<X.......Owhg>X.......#eg<......<ghhhhhhhhhhhhhhhhhhhhhhhhhhhr",
"rhh5............@ihhhhhhhhhhhp#...Oth0X.........#s0X.........#pd=....=dhhhhhhhhhhhhhhhhhhhhhhhhhhhhr",
"rhha;..........Oqhhhhhhhhhhhhh0X..<gs$...........7*...........5htO..Othhhhhhhhhhhhhhhhhhhhhhhhhhhhhr",
"rhhhp&........X8hhhhhhhhhhhhhhg=.@sheX...........@o...........%gh,..,ghhhhhhhhhhhhhhhhhhhhhhhhhhhhhr",
"rhhhhi#......X<ghhhhhhhhhhhhhhhqX5hh8.........................+shi++ihhhhhhhhhhhhhhhhhhhhhhhhhhhhhhr",
"rhhhhht@.....:ghhhhhhhhhhhhhhhhd=uhh5.........................Oihh::hhhhhhhhhhhhhhhhhhhhhhhhhhhhhhhr",
"rhhhhhh0X...&shhhhhhhhhhhhhhhhhhtghh9...............o.........@shheehhhhhhhhhhhhhhhhhhhhhhhhhhhhhhhr",
"rhhhhhhg<..+uhhhhhhhhhhhhhhhhhhhhhhhiO...................o....-ghhgghhhhhhhhhhhhhhhhhhhhhhhhhhhhhhhr",
"4hhhhhhhs$.7hhhhhhhhhhhhhhhhhhhhhhhhg;........o......oo......Xwhhhhhhhhhhhhhhhhhhhhhhhhhhhhhhhhhhhhr",
"rhhhhhhhh9$shhhhhhhhhhhhhhhhhhhhhhhhht+......o........o......;ghhhhhhhhhhhhhhhhhhhhhhhhhhhhhhhhhhhhr",
"rhhhhhhhhsqhhhhhhhhhhhhhhhhhhhhhhhhhhh8X....................#ihhhhhhhhhhhhhhhhhhhhhhhhhhhhhhhhhhhhhr",
"rhhhhhhhhhghhhhhhhhhhhhhhhhhhhhhhhhhhhg:.....o.............Owhhhhhhhhhhhhhhhhhhhhhhhhhhhhhhhhhhhhhhr",
"rhhhhhhhhhhhhhhhhhhhhhhhhhhhhhhhhhhhhhhs&.................o7hhhhhhhhhhhhhhhhhhhhhhhhhhhhhhhhhhhhhhh4",
"rhhhhhhhhhhhhhhhhhhhhhhhhhhhhhhhhhhhhhhhi#..o..o.........X,ghhhhhhhhhhhhhhhhhhhhhhhhhhhhhhhhhhhhhhhr",
"rhhhhhhhhhhhhhhhhhhhhhhhhhhhhhhhhhhhhhhhht@..............:ghhhhhhhhhhhhhhhhhhhhhhhhhhhhhhhhhhhhhhhhr",
"rhhhhhhhhhhhhhhhhhhhhhhhhhhhhhhhhhhhhhhhhhwO............-shhhhhhhhhhhhhhhhhhhhhhhhhhhhhhhhhhhhhhhhhr",
"rhhhhhhhhhhhhhhhhhhhhhhhhhhhhhhhhhhhhhhhhhh9XX.........%phhhhhhhhhhhhhhhhhhhhhhhhhhhhhhhhhhhhhhhhhhr",
"rhhhhhhhhhhhhhhhhhhhhhhhgsisghhhhhhhgsppdhhg5X........#uhhhhhghhhhhhhhhhhghhhhhhhhhhhhhhhhhhhhhhhhhr",
"rhhhhhhhhhhhhhhhhhhhhhp5%+++*0ghhhge;#O+$,thg;.......Oqhhs0,-;<tghhhhgt<;->0phhhhhhhhhhhhhhhhhhhhhhr",
"rhhhhhhhhhhhhhhhhhhhhq#......X>ghg8O......O7gp%.....X7hg9#.....X,dhhd,O.....@8ghhhhhhhhhhhhhhhhhhhhr",
"rhhhhhhhhhhhhhhhhhhhwO.........5hwO........X7he+....;gg5X........>gg,o...o...X<ghhhhhhhhhhhhhhhhhhhr",
"rhhhhhhhhhhhhhhhhhhs%..........@u*..........Ouh5...@ihwX.....o.o.Xweo.........o0hhhhhhhhhhhhhhhhhhhr",
"4hhhhhhhhhhhhhhhhhhqX...........-O...........<hs$..7hg=...........-;...........&ghhhhhhhhhhhhhhhhhhr",
"rhhhhhhhhhhhhhhhhhh,............X............*gh0.#shi+.....o.....OO...o....o..Oihhhhhhhhhhhhhhhhhhr",
"rhhhhhhhhhhhhhhhhhh:.....oo.o................#dhs$5hheX........................Xwhhhhhhhhhhhhhhhhhhr",
"rhhhhhhhhhhhhhhhhhh:......o..................$ghh8uhhwX........o........o.......qhhhhhhhhhhhhhhhhhhr",
"rhhhhhhhhhhhhhhhhhh8..........o..............;ghhdghhuO......o.......o.....o..XXthhhhhhhhhhhhhhhhhh4",
"rhhhhhhhhhhhhhhhhhhi+.......................Xqhhhhhhhg&...............o........%dhhhhhhhhhhhhhhhhhhr",
"rhhhhhhhhhhhhhhhhhhh,.......................*ghhhhhhhh0...........o.o.........X8hhhhhhhhhhhhhhhhhhhr",
"rhhhhhhhhhhhhhhhhhhhs$.....................+ehhhhhhhhhg=......................*dhhhhhhhhhhhhhhhhhhhr",
"rhhhhhhhhhhhhhhhhhhhhe+...................X8hhhhhhhhhhhu@.............o..o...@uhhhhhhhhhhhhhhhhhhhhr",
"rhhhhhhhhhhhhhhhhhhhhh8X..................>ghhhhhhhhhhhhqO..................Xqhhhhhhhhhhhhhhhhhhhhhr",
"rhhhhhhhhhhhhhhhhhhhhhg<X................-shhhhhhhhhhhhhg7X................X5hhhhhhhhhhhhhhhhhhhhhhr",
"rhhhhhhhhhhhhhhhhhhhhhhg:.......o.......&phhhhhhhhhhhhhhhg,.............o..,ghhhhhhhhhhhhhhhhhhhhhhr",
"4hhhhhhhhhhhhhhhhhhhhhhhs=.............#ihhhhhhhhhhhhhhhhhd;.....o........;dhhhhhhhhhhhhhhhhhhhhhhhr",
"rhhhhhhhhhhhhhhhhhhhhhhhhp%...........@thhhhhhhhhhhhhhhhhhhs*.....o......*shhhhhhhhhhhhhhhhhhhhhhhhr",
"rhhhhhhhhhhhhhhhhhhhhhhhhhu#.........Oqhhhhhhhhhhhhhhhhhhhhhp$..........$phhhhhhhhhhhhhhhhhhhhhhhhhr",
"rhhhhhhhhhhhhhhhhhhhhhhhhhhwO...o...X8hhhhhhhhhhhhhhhhhhhhhhht@X...o...@uhhhhhhhhhhhhhhhhhhhhhhhhhhr",
"rhhhhhhhhhhhhhhhhhhhhhhhhhhh8.......>ghhhhhhhhhhhhhhhhhhhhhhhh0X......X0hhhhhhhhhhhhhhhhhhhhhhhhhhh4",
"rhhhhhhhhhhhhhhhhhhhhhhhhhhhg:.....&shhhhhhhhhhhhhhhhhhhhhhhhhh<.....X<ghhhhhhhhhhhhhhhhhhhhhhhhhhhr",
"rhhhhhhhhhhhhhhhhhhhhhhhhhhhhp$...Othhhhhhhhhhhhhhhhhhhhhhhhhhhd*....=dhhhhhhhhhhhhhhhhhhhhhhhhhhhhr",
"rhhhhhhhhhhhhhhhhhhhhhhhhhhhhhqX..<hhhhhhhhhhhhhhhhhhhhhhhhhhhhhtO..+thhhhhhhhhhhhhhhhhhhhhhhhhhhhhr",
"rhhhhhhhhhhhhhhhhhhhhhhhhhhhhhg=.#phhhhhhhhhhhhhhhhhhhhhhhhhhhhhh<..,ghhhhhhhhhhhhhhhhhhhhhhhhhhhhhr",
"rhhhhhhhhhhhhhhhhhhhhhhhhhhhhhhwX5hhhhhhhhhhhhhhhhhhhhhhhhhhhhhhhp++ihhhhhhhhhhhhhhhhhhhhhhhhhhhhhhr",
"rhhhhhhhhhhhhhhhhhhhhhhhhhhhhhhs-uhhhhhhhhhhhhhhhhhhhhhhhhhhhhhhhg>>hhhhhhhhhhhhhhhhhhhhhhhhhhhhhhh4",
"rhhhhhhhhhhhhhhhhhhhhhhhhhhhhhhhtghhhhhhhhhhhhhhhhhhhhhhhhhhhhhhhhtehhhhhhhhhhhhhhhhhhhhhhhhhhhhhhhr",
"4hhhhhhhhhhhhhhhhhhhhhhhhhhhhhhhhhhhhhhhhhhhhhhhhhhhhhhhhhhhhhhhhhgghhhhhhhhhhhhhhhhhhhhhhhhhhhhhhhr",
"rhhhhhhhhhhhhhhhhhhhhhhhhhhhhhhhghhhhhhhhhhhhhhhhhhhhhhhhhhhhhhhhhhhhhhhhhhhhhhhhhhhhhhhhhhhhhhhhhhr",
"rhhhhhhhhhhhhhhhhhhhhhhhhhhhhhhhqdhhhhhhhhhhhhhhhhhhhhhhhhhhhhhhhhsshhhhhhhhhhhhhhhhhhhhhhhhhhhhhhhr",
"rhhhhhhhhhhhhhhhhhhhhhhhhhhhhhhs%ehhhhhhhhhhhhhhhhhhhhhhhhhhhhhhhh87hhhhhhhhhhhhhhhhhhhhhhhhhhhhhhhr",
"rhhhhhhhhhhhhhhhhhhhhhhhhhhhhhh0X:hhhhhhhhhhhhhhhhhhhhhhhhhhhhhhhg&$dhhhhhhhhhhhhhhhhhhhhhhhhhhhhhhr",
"rhhhhhhhhhhhhhhhhhhhhhhhhhhhhhd%.OuhhhhhhhhhhhhhhhhhhhhhhhhhhhhhhwXX0hhhhhhhhhhhhhhhhhhhhhhhhhhhhhhr",
"rhhhhhhhhhhhhhhhhhhhhhhhhhhhhh8...-ghhhhhhhhhhhhhhhhhhhhhhhhhhhhd*..$shhhhhhhhhhhhhhhhhhhhhhhhhhhhhr",
"rhhhhhhhhhhhhhhhhhhhhhhhhhhhhi@...X9hhhhhhhhhhhhhhhhhhhhhhhhhhhh7X...5hhhhhhhhhhhhhhhhhhhhhhhhhhhhhr",
"rhhhhhhhhhhhhhhhhhhhhhhhhhhhs=.....@uhhhhhhhhhhhhhhhhhhhhhhhhhhu+....Owhhhhhhhhhhhhhhhhhhhhhhhhhhhhr",
"rhhhhhhhhhhhhhhhhhhhhhhhhhhg,X......&shhhhhhhhhhhhhhhhhhhhhhhhs%......$ihhhhhhhhhhhhhhhhhhhhhhhhhhhr",
"rhhhhhhhhhhhhhhhhhhhhhhhhhh0X........:ghhhhhhhhhhhhhhhhhhhhhhg:........-ghhhhhhhhhhhhhhhhhhhhhhhhhhr",
"rhhhhhhhhhhhhhhhhhhhhhhhhhw+.........X5ghhhhhhhhhhhhhhhhhhhhg7X.........,ghhhhhhhhhhhhhhhhhhhhhhhhhr",
"4hhhhhhhhhhhhhhhhhhhhhhhhu@...........o9hhhhhhhhhhhhhhhhhhhh9X..........X7ghhhhhhhhhhhhhhhhhhhhhhhh4",
"rhhhhhhhhhhhhhhhhhhhhhhhi$.............OqhhhhhhhhhhhhhhhhhhqO............O9hhhhhhhhhhhhhhhhhhhhhhhhr",
"rhhhhhhhhhhhhhhhhhhhhhhs=...............@thhhhhhhhhhhhhhhhe@..............+whhhhhhhhhhhhhhhhhhhhhhhr",
"rhhhhhhhhhhhhhhhhhhhhhd;.................#ihhhhhhhhhhhhhhi#.....o..........@thhhhhhhhhhhhhhhhhhhhhhr",
"rhhhhhhhhhhhhhhhhhhhhg,X..................=shhhhhhhhhhhhs&..................$phhhhhhhhhhhhhhhhhhhhhr",
"rhhhhhhhhhhhhhhhhhhhh0X.o....o.............,ghhhhhhhhhhg:................o...-ghhhhhhhhhhhhhhhhhhhhr",
"rhhhhhhhhhhhhhhhhhhhu@.....o.....o.........X0hhhhhhhhhh8X........o....o......X5hhhhhhhhhhhhhhhhhhhhr",
"rhhhhhhhhhhhhhhhhhhg;..........o...o........$shhhhhhhhu+........o.o..oo..o....Ouhhhhhhhhhhhhhhhhhhhr",
"rhhhhhhhhhhhhhhhhhhtO.......o....o...........8hhhhhhhh>........................:ghhhhhhhhhhhhhhhhhhr",
"rhhhhhhhhhhhhhhhhhh5....o.........o..........=ghhhhhhs@...................o....+phhhhhhhhhhhhhhhhhhr",
"rhhhhhhhhhhhhhhhhhh:..o....o.................$dhhsghhtX.........o......oo......Xwhhhhhhhhhhhhhhhhhhr",
"rhhhhhhhhhhhhhhhhhh:.........................$dhd>shhw......................o...qhhhhhhhhhhhhhhhhhhr",
"4hhhhhhhhhhhhhhhhhh5..o...o.....O..o.........-gheOqhhto.o.................o....othhhhhhhhhhhhhhhhhh4",
"rhhhhhhhhhhhhhhhhhheX..........X,O...........7hg;.=ghs#...........#$...........@shhhhhhhhhhhhhhhhhhr",
"rhhhhhhhhhhhhhhhhhhg-..........#s;..........#pheX.Xqhh<...........57...........,ghhhhhhhhhhhhhhhhhhr",
"rhhhhhhhhhhhhhhhhhhhi#........X0hu@........Oqhs*...%shs%.........$ps$.........#phhhhhhhhhhhhhhhhhhhr",
"rhhhhhhhhhhhhhhhhhhhhu=o.....+8hhhe#......$whh5.....,ghu&.......@ehhe#.......%uhhhhhhhhhhhhhhhhhhhhr",
"rhhhhhhhhhhhhhhhhhhhhhgw>=%*<uhhhhhp7-%&:0shhqO.....X0hhs7&OXX@;uhhhhi;@XX+%7shhhhhhhhhhhhhhhhhhhhhr",
"rhhhhhhhhhhhhhhhhhhhhhhhhggghhhhhhhhhggghhhhi#.......+yhhhgitysghhhhhhhputidhhhhhhhhhhhhhhhhhhhhhhh4",
"rhhhhhhhhhhhhhhhhhhhhhhhhhhhhhhhhhhhhhhhhhhs&.........$phhhhhhhhhhhhhhhhhhhhhhhhhhhhhhhhhhhhhhhhhhhr",
"rhhhhhhhhhhhhhhhhhhhhhhhhhhhhhhhhhhhhhhhhha;...........=shhhhhhhhhhhhhhhhhhhhhhhhhhhhhhhhhhhhhhhhhhr",
"rhhhhhhhhhhhhhhhhhhhhhhhhhhhhhhhhhhhhhhhhg,.............:ghhhhhhhhhhhhhhhhhhhhhhhhhhhhhhhhhhhhhhhhhr",
"rhhhhhhhhhhhhhhhhhhhhhhhhhhhhhhhhhhhhhhhg5X..............,ghhhhhhhhhhhhhhhhhhhhhhhhhhhhhhhhhhhhhhhhr",
"rhhhhhhhhhhhhhhhhhhhhhhhhhhhhhhhhhhhhhhh9X...............X7hhhhhhhhhhhhhhhhhhhhhhhhhhhhhhhhhhhhhhhhr",
"4hhhhhhhhhhhhhhhhhhhhhhhhhhhhhhhhhhhhhhwOX................O0hhhhhhhhhhhhhhhhhhhhhhhhhhhhhhhhhhhhhhhr",
"rhhhhhhhhhhhhhhhhhhhhhhhhhhhhhhhhhhhhhi#...................@uhhhhhhhhhhhhhhhhhhhhhhhhhhhhpshhhhhhhhr",
"rhhhhhhhhhhhhhhhhhhhhhhhhhhhhhhhhhhhhs=.....................&shhhhhhhhhhhhhhhhhhhhhhhhhhg>9hhhhhhhhr",
"rhhhhhhhhhhhhhhhhhhhhhhhhhhhhhhhhhhhh5.......................<hhhhhhhhhhhhhhhhhhhhhhhhhhuO%shhhhhhhr",
"rhhhhhhhhhhhhhhhhhhhhhhhhhhhhhhhhhhhp@.......................+ihhhhhhhhhhhhhhhhhhhhhhhhg-..5hhhhhhhr",
"rhhhhhhhhhhhhhhhhhhhhhhhhhhhhhhhhhhh7.........................7hhhhhhhhhhhhhhhhhhhhhhhh7...Owhhhhhhr",
"rhhhhhhhhhhhhhhhhhhhhhhhhhhhhhhhughh;...........o.............=ghhgghhhhhhhhhhhhhhhhhhwO....$ihhhhhr",
"rhhhhhhhhhhhhhhhhhhhhhhhhhhhhhhg;ihg*.........................&ghhq0hhhhhhhhhhhhhhhhht@......&shhhhr",
"rhhhhhhhhhhhhhhhhhhhhhhhhhhhhhheX5hh;.........................=hhg;-ghhhhhhhhhhhhhhhi$........-dhhh4",
"rhhhhhhhhhhhhhhhhhhhhhhhhhhhhhg;.#ph5............%..........o.<ghuOXyhhhhhhhhhhhhhhs&..........>ghhr",
"rhhhhhhhhhhhhhhhhhhhhhhhhhhhhhwo..<hu+..........+w@.........oothh:..-ghhhhhhhhhhhhg:...........X8hhr",
"rhhhhhhhhhhhhhhhhhhhhhhhhhhhhs&...+th<..........<g<..........,ghwO..X0hhhhhhhhhhhh0X............+uhr",
"4hhhhhhhhhhhhhhhhhhhhhhhhhhhg<.....*sd:X.......=shs-.......X:ahs%....#phhhhhhhhhhs%..............>hr",
"rhhhhhhhhhhhhhhhhhhhhhhhhhhh0XX.....>gg0%O..X@,shhhd,+X..O%9ghg:......-dhhhhhhhhhuO..............%gr",
"rhhhhhhhhhhhhhhhhhhhhhhhhhht+...o...X8hhguq0qpghhhhhhpw0qudhhh8........5ghhhhhhhhiO......X.......&gr",
"rhhhhhhhhhhhhhhhhhhhhhhhhhp%.........OwhhhhhhhhhhhhhhhhhhhhhhwO........X0hhhhhhhhg%......&#......,h4",
"rhhhhhhhhhhhhhhhhhhhhhhhhs*.......o...@thhhhhhhhhhhhhhhhhhhhy@..........+ehhhhhhhhwO....+y8X....$phr",
"rhhhhhhhhhhhhhhhhhhhhhhhd:.............$ihhhhhhhhhhhhhhhhhhi$............#uhhhhhhhhe-@@*whg8$+#>ihhr",
"rhhhhhhhhhhhhhhhhhhhhhhg,.........o.....*shhhhhhhhhhhhhhhhs&..............$phhhhhhhhgdsghhhhdsdhhhhr",
"rhhhhhhhhhhhhhhhhhhhhhh7X................-shhhhhhhhhhhhhhd-................*shhhhhhhhpq0ughhhttghhhr",
"rhhhhhhhhhhhhhhhhhhhhh0X..o..............X,ghhhhhhhhhhhhg>..................;ghhhhhg7+O+O>ahg%$ghhhr",
"rhhhhhhhhhhhhhhhhhhhhu@...........o...o...X9hhhhhhhhhhhh8X...................5hhhhhqX-tu>.5gg$$ghhh4",
"rhhhhhhhhhhhhhhhhhhhs%........o.o..........+thhhhhhhhhheO....................Oqhhhg&@phhg*@sg%$dhhhr",
"rhhhhhhhhhhhhhhhhhhg5........oo...o.........-ghhhhhhhhs%......................#shhiO:hhhh7Xwg%$ghhhr",
"4hhhhhhhhhhhhhhhhhhp@...............o..o....Xqhhhhhhhh7X.......................5hhw.5hhhhq.7g$$dhhhr",
"rhhhhhhhhhhhhhhhhhh9.........o.....o...o.....:hhhhhhhd$..o.....................#sh0.9hhhheX<g$$ghhhr",
"rhhhhhhhhhhhhhhhhhh:............o............$dhhhhhhyX........................Xeh9.9hhhhtX,g$$dhhhr",
"rhhhhhhhhhhhhhhhhhh:.........o...............#dhhhhhhwX....o....................qh9.9hhhhtX,g$$ghhhr",
"rhhhhhhhhhhhhhhhhhh,............X.....o......&ghhhhhhto..o.....................Xehw.7hhhhw.7g$$ggwpr",
"rhhhhhhhhhhhhhhhhhhqX...........=X...........,hhhhhhhp+...........O+..........XOihuX>hhhh8.qg$$e=Otr",
"rhhhhhhhhhhhhhhhhhhs$..........+t&..........Ouhhhhhhhh;...........>>...........-ghd$$dhhg;Oig$OO+8gr",
"rhhhhhhhhhhhhhhhhhhhqO.........<hqX........X<ghhhhhhhhu+.........OtuO.........Oehhh7X<sd0X:hg%.%uhhr",
"rhhhhhhhhhhhhhhhhhhhg0@......X;dhg7O.....XX,ghhhhhhhhhg0+.......X7hh8O.......O8hhhhd:X#$X*phg$$phhhr",
"rhhhhhhhhhhhhhhhhhhhhhi,$+X+%8ghhhgw=+oO#;eghhhhhhhhhhhht=O...X@8hhhh9#X...O=ehhhhhhg0>>9shhg0thhhhr",
"4hhhhhhhhhhhhhhhhhhhhhhhdiuidhhhhhhhgpuishhhhhhhhhhhhhhhhgu955qshhhhhhpq669tghhhhhhhhhhhhhhhhhhhhhh4",
"1fhhhhhhhhhhhhhhhhhhhhhhhhhhhhhhhhhhhhhhhhhhhhhhhhhhhhhhhhhhhhhhhhhhhhhhhhhhhhhhhhhhhhhhhhhhhhhhhhf1",
" 2fhhhhhhhhhhhhhhhhhhhhhhhhhhhhhhhhhhhhhhhhhhhhhhhhhhhhhhhhhhhhhhhhhhhhhhhhhhhhhhhhhhhhhhhhhhhhhhf2 ",
"  14rrrrrrrrrrrrrrrrrrrrrrrrrrrrrrirrrrrrrrrrrrrrrrrrrrrrrrrrrrrrrrrrrarrrrrrrrrrrrrrrrrrrrrrrrr41  "
};
