/* XPM */
static char *_d6d5b2fb9304c9eadc5c3edd619de76LILoQonbQVhA3j5P[] = {
/* columns rows colors chars-per-pixel */
"100 145 43 1 ",
"  c None",
". c #DF0000",
"X c #DF0A0A",
"o c #E00E0E",
"O c #E01313",
"+ c #E11C1C",
"@ c #E32424",
"# c #E32B2B",
"$ c #E53434",
"% c #E63B3B",
"& c #E74343",
"* c #E74A4A",
"= c #E84D4D",
"- c #E95353",
"; c #EA5C5C",
": c #EB6363",
"> c #EC6B6B",
", c #ED7474",
"< c #ED7A7A",
"1 c #909090",
"2 c #ADADAD",
"3 c #B7B7B7",
"4 c gray72",
"5 c #EF8484",
"6 c #EF8989",
"7 c #F08C8C",
"8 c #F19494",
"9 c #F29B9B",
"0 c #F3A3A3",
"q c #F4ACAC",
"w c #F5B4B4",
"e c #F6BCBC",
"r c #C4C4C4",
"t c #F7C4C4",
"y c #F7C9C9",
"u c #F8CDCD",
"i c #F9D4D4",
"p c #FADCDC",
"a c #EAEAEA",
"s c #FBE3E3",
"d c #FCECEC",
"f c #FDF4F4",
"g c #FFFFFF",
/* pixels */
"  13rrrrrrrrrrrrr4rrrrrr4rrrrr4rrrrrrrrrrrrrrrrr4rrrrr4rrrrrrrrrrrrrrrrr4rrrrr4rrrrrrrrrrrrrrrr441  ",
" 2afgggfggfgfggfggggfgggggfggggggggfggfgfgggfgggggfggggggggfggfgfgggfgggggfggggggggfggfgfgggfgggga2 ",
"1agggggggggdsfgggggggggggggggggggggggggggggggggggggggggggggggggggggggggggggggggggggggggggggggggggga1",
"4gggggggggd5;tggggggggggggggggggggggggggggggggggggggggggggggggggggggggggggggggggggggggggggggggggggg2",
"rggggggggfq+@wggggggggggggggggggggggggggggggggggggggggggggggggggggggggggggggggggggggggggggggggggggfr",
"rfgggggggy*X#wggggggggggggggggggggggggggggggggggggggggggggggggggggggggggggggggggggggggggggggggggggfr",
"rgggggggs,$&#wgggggggggggggggggggggggggggggggggggggggggggggggggggggggggggggggggggggggggggggggggggggr",
"rfgggggf8%7,@wgggggggggggggggggggggggggggggggggggggggggggggggggggggggggggggggggggggggggggggggggggggr",
"rgggggge%,p<@wggggggggggggggggggggggggggggggggggggggggggggggggggggggggggggggggggggggggggggggggggggfr",
"rgggggp;*if,@wgggggggggggggggggggggggggggggggggggggggggggggggggggggggggggggggggggggggggggggggggggggr",
"raggga6%qgf<#wgggggggggggggggggggggggggggggggggggggggggggggggggggggggggggggggggggggggggggggggggggggr",
"rggggw#*wtw;+5ifggggggggggggggggggggggggggggggggggggggggggggggggggggggggggggggggggggggggggggggggggg4",
"rgggf7X#%%$+o@:iggggggggggggggggggggggggggggggggggggggggggggggggggggggggggggggggggggggggggggggggggfr",
"rgggft<<,,>%O=8pgggggggggggggggggggggggggggggggggggggggggggggggggggggggggggggggggggggggggggggggggggr",
"raggggffgfd,@qggggggggggggggggggggggggggggggggggggggggggggggggggggggggggggggggggggggggggggggggggggfr",
"rgggggggggd,@wgggggggggggggggggggggggggggggggggggggggggggggggggggggggggggggggggggggggggggggggggggggr",
"rgggggggggf0,ugggggggggggggggggggggggggggggggggggggggggggggggggggggggggggggggggggggggggggggggggggggr",
"rfgggggggggdsfgggggggggggggggggggggggggggggggggggggggggggggggggggggggggggggggggggggggggggggggggggggr",
"rgggggffgggggffgggggggggggggggggggggggggggggggggggggggggggggggggggggggggggggggggggggggggggggggggggg4",
"rfgd0>;>qfgp6;;6yggggggggggggggggggggggggggggggggggggggggggggggggggggggggggggggggggggggggggggggggggr",
"rga<@X.X#9i:OX.O&wggggggggggggggggggggggggggggggggggggggggggggggggggggggggggggggggggggggggggggggggg4",
"rgq+.....%>O.....-pggggggggggggggggggggggggggggggggggggggggggggggggggggggggggggggggggggggggggggggggr",
"rf>......XOX.....@wggggggggggggggggggggggggggggggggggggggggggggggggggggggggggggggggggggggggggggggggr",
"ra;X.............+0ggggggggggggggggggggggggggggggggggggggggggggggggggggggggggggggggggggggggggggggggr",
"rf<..............#egggggfiewepgggggggpewwufggggggggggggggfsiupfgggggggsuupdgggggggggggggggggggggggg4",
"rft@............X>sgggfw:#+O+$5pgggs8&@O+#-0dggggggggggdq:%@@$:efgggd6*#@#*6uggggggggggggggggggggggr",
"rgf6X...........$egggd5@X....XX;sga,O......+,pggggggggs,@X....X#0fgp;OX....O&qgggggggggggggggggggggr",
"rfgp:X.........@9gggg6+........X<d8O........O<fggggggd,O........#ed,X........$wgggggggggggggggggggg4",
"rgggu=X.......+6dgggy%...o......@0%..........#wgggggg0@....o....X:q+.........X;sgggggggggggggggggggr",
"rfggfy%......O<sgggg8O..........X&O..........X,fggggd:X..........+*X..........@wgggggggggggggggggggr",
"rggggfw$....X>sggggf>X...........X............-sggggi&...o..o.o..XX...........O6ggggggggggggggggggg4",
"4gggggf9+..X=igggggd;...o.....................*pggggt$....oo..................X<gggggggggggggggggggr",
"rgggggga<X.#wggggggf:...........o....o........=sggggy%.......o......o.........X<ggggggggggggggggggg4",
"rgggggggu&O5fggggggg7O......o.o......o.o.o...X,fggggs=.........o...o..o......X+9gggggggggggggggggggr",
"4gggggggf9=uggggggggt$..o...o......o...o.....#qgggggg5O..o.o.o...o.....o.o....&uggggggggggggggggggfr",
"rggggggggpwfggggggggd<O.......o.oo...o..o...X:sggggggy&......o.o..o..o.o.....O6fgggggggggggggggggggr",
"rgggggggggfggggggggggi=........o.....o.....X%egggggggg8@........o.o...o.o...X-pggggggggggggggggggggr",
"4gggggggggggggggggggggw$.......oo.o...o....@0gggggggggd,O.........o.........$eggggggggggggggggggggg4",
"rgggggggggggggggggggggg8@...........oo....O5fggggggggggp-X......o..........@9ggggggggggggggggggggggr",
"rggggggggggggggggggggggd5O.......o.o.....O,sggggggggggggy*X........o......+6fggggggggggggggggggggggr",
"rgggggggggggggggggggggggs,O.............X:pggggggggggggggw$X.....o.o.....O<dggggggggggggggggggggggg4",
"rggggggggggggggggggggggggp:X...........X=iggggggggggggggggq#.......o.o..X>sggggggggggggggggggggggggr",
"rfggggggggggggggggggggggggi=X.........X&ygggggggggggggggggf9@.....o....X;pgggggggggggggggggggggggggr",
"rggggggggggggggggggggggggggy&...o.....$wgggggggggggggggggggd6+..o.....X*uggggggggggggggggggggggggggr",
"rgggggggggggggggggggggggggggw#.......@0gggggggggggggggggggggd>X.......$egggggggggggggggggggggggggggr",
"rfggggggggggggggggggggggggggf8+.....O5dggggggggggggggggggggggi-X.....@9ggggggggggggggggggggggggggggr",
"rggggggggggggggggggggggggggggd,X...X:sggggggggggggggggggggggggt$....X5fggggggggggggggggggggggggggggr",
"rfggggggggggggggggggggggggggggi&...$ygggggggggggggggggggggggggg8O..X=pggggggggggggggggggggggggggggar",
"rgggggggggggggggggggggggggggggg0+.X8fggggggggggggggggggggggggggd:..@wggggggggggggggggggggggggggggggr",
"4ggggggggggggggggggggggggggggggs-X*pgggggggggggggggggggggggggggge@X>dggggggggggggggggggggggggggggggr",
"rgggggggggggggggggggggggggggggggq@8fggggggggggggggggggggggggggggf:@eggggggggggggggggggggggggggggggg4",
"rgggggggggggggggggggggggggggggggs,iggggggggggggggggggggggggggggggq>dgggggggggggggggggggggggggggggggr",
"rgggggggggggggggggggggggggggggggfifggggggggggggggggggggggggggggggsygggggggggggggggggggggggggggggggg4",
"rfgggggggggggggggggggggggggggggggggggggggggggggggggggggggggggggggggggggggggggggggggggggggggggggggggr",
"rggggggggggggggggggggggggggggggggggggggggggggggggggggggggggggggggggggggggggggggggggggggggggggggggggr",
"4ggggggggggggggggggggggggggggggggggggggggggggggggggggggggggggggggggggggggggggggggggggggggggggggggggr",
"rggggggggggggggggggggggggggggggggggggggggggggggggggggggggggggggggggggggggggggggggggggggggggggggggggr",
"rggggggggggggggggggggggggggggggggggggggggggggggggggggggggggggggggggggggggggggggggggggggggggggggggggr",
"4ggggggggggggggggggggggggggggggggggggggggggggggggggggggggggggggggggggggggggggggggggggggggggggggggggr",
"rgggggggggggggggggggggggggggggggggggggggggggggggggggggggggggggggggggggggggggggggggggggggggggggggggar",
"rggggggggggggggggggggggggggggggggggggggggggggggggggggggggggggggggggggggggggggggggggggggggggggggggggr",
"4ggggggggggggggggggggggggggggggggggggggggggggggggggggggggggggggggggggggggggggggggggggggggggggggggggr",
"rgggggggggggggggggggggggggggggggggggggggggggggggggggggggggggggggggggggggggggggggggggggggggggggggggg4",
"rggggggggggggggggggggggggggggggggggggggggggggggggggggggggggggggggggggggggggggggggggggggggggggggggggr",
"rggggggggggggggggggggggggggggggggggggggggggggggggggggggggggggggggggggggggggggggggggggggggggggggggggr",
"rgggggggggggggggggggggggggggggggggggggggggggggggggggggggggggggggggggggggggggggggggggggggggggggggggfr",
"rfgggggggggggggggggggggggggggggggggggggggggggggggggggggggggggggggggggggggggggggggggggggggggggggggggr",
"rggggggggggggggggggggggggggggggggggggggggggggggggggggggggggggggggggggggggggggggggggggggggggggggggggr",
"rgggggggggggggggggggggggggggggggggggggggggggggggggggggggggggggggggggggggggggggggggggggggggggggggggfr",
"rfgggggggggggggggggggggggggggggggggggggggggggggggggggggggggggggggggggggggggggggggggggggggggggggggggr",
"rggggggggggggggggggggggggggggggggggggggggggggggggggggggggggggggggggggggggggggggggggggggggggggggggggr",
"rfggggggggggggggggggggggggggggggggggggggggggggggggggggggggggggggggggggggggggggggggggggggggggggggggfr",
"rgggggggggggggggggggggggggggggggggggggggggggggggggggggggggggggggggggggggggggggggggggggggggggggggggfr",
"4ggggggggggggggggggggggggggggggggggggggggggggggggggggggggggggggggggggggggggggggggggggggggggggggggggr",
"rggggggggggggggggggggggggggggggggggggggggggggggggggggggggggggggggggggggggggggggggggggggggggggggggggr",
"rgggggggggggggggggggggggggggggggggggggggggggggggggggggggggggggggggggggggggggggggggggggggggggggggggg4",
"rgggggggggggggggggggggggggggggggggggggggggggggggggggggggggggggggggggggggggggggggggggggggggggggggggg4",
"rfgggggggggggggggggggggggggggggggggggggggggggggggggggggggggggggggggggggggggggggggggggggggggggggggggr",
"rgggggggggggggggggggggggggggggggggggggggggggggggggggggggggggggggggggggggggggggggggggggggggggggggggfr",
"4ggggggggggggggggggggggggggggggggggggggggggggggggggggggggggggggggggggggggggggggggggggggggggggggggggr",
"rggggggggggggggggggggggggggggggggggggggggggggggggggggggggggggggggggggggggggggggggggggggggggggggggggr",
"rgggggggggggggggggggggggggggggggggggggggggggggggggggggggggggggggggggggggggggggggggggggggggggggggggg4",
"4ggggggggggggggggggggggggggggggggggggggggggggggggggggggggggggggggggggggggggggggggggggggggggggggggggr",
"rggggggggggggggggggggggggggggggggggggggggggggggggggggggggggggggggggggggggggggggggggggggggggggggggggr",
"rgggggggggggggggggggggggggggggggggggggggggggggggggggggggggggggggggggggggggggggggggggggggggggggggggg4",
"4ggggggggggggggggggggggggggggggggggggggggggggggggggggggggggggggggggggggggggggggggggggggggggggggggggr",
"rggggggggggggggggggggggggggggggggggggggggggggggggggggggggggggggggggggggggggggggggggggggggggggggggggr",
"rggggggggggggggggggggggggggggggggggggggggggggggggggggggggggggggggggggggggggggggggggggggggggggggggggr",
"rgggggggggggggggggggggggggggggggggggggggggggggggggggggggggggggggggggggggggggggggggggggggggggggggggg4",
"rggggggggggggggggggggggggggggggggggggggggggggggggggggggggggggggggggggggggggggggggggggggggggggggggggr",
"rfgggggggggggggggggggggggggggggggggggggggggggggggggggggggggggggggggggggggggggggggggggggggggggggggggr",
"rggggggggggggggggggggggggggggggggfggggggggggggggggggggggggggggggggggggggggggggggggggggggggggggggggg4",
"rgggggggggggggggggggggggggggggggfedggggggggggggggggggggggggggggggsyggggggggggggggggggggggggggggggggr",
"rfggggggggggggggggggggggggggggggi-eggggggggggggggggggggggggggggggw>dgggggggggggggggggggggggggggggggr",
"rggggggggggggggggggggggggggggggg8O,fggggggggggggggggggggggggggggd>@eggggggggggggggggggggggggggggggg4",
"rfgggggggggggggggggggggggggggggp&X#yggggggggggggggggggggggggggggt@X:dggggggggggggggggggggggggggggggr",
"rgggggggggggggggggggggggggggggf7X.X>dggggggggggggggggggggggggggd:X.+qgggggggggggggggggggggggggggggg4",
"4ggggggggggggggggggggggggggggge$...+0gggggggggggggggggggggggggg0+..X*pgggggggggggggggggggggggggggggr",
"rggggggggggggggggggggggggggggp-X....%tggggggggggggggggggggggggy$....X<dgggggggggggggggggggggggggggfr",
"rgggggggggggggggggggggggggggd<X......;pggggggggggggggggggggggp;X.....+9ggggggggggggggggggggggggggggr",
"rggggggggggggggggggggggggggf8+...o...X<dggggggggggggggggggggd<X.......$wgggggggggggggggggggggggggggr",
"rfgggggggggggggggggggggggggq#......o..+6fggggggggggggggggggf8+.........*ygggggggggggggggggggggggggg4",
"rgggggggggggggggggggggggggw$...........@9fggggggggggggggggf0@..........X-igggggggggggggggggggggggggr",
"4ggggggggggggggggggggggggt&X............$qggggggggggggggggq$...o........X>pggggggggggggggggggggggggr",
"rgggggggggggggggggggggggu=X......o.o.....%egggggggggggggge%X.......o.....O,sggggggggggggggggggggggg4",
"rggggggggggggggggggggggp:X.......o...o....*yggggggggggggy*X..........o....+6fggggggggggggggggggggggr",
"4gggggggggggggggggggggd,O..........o......X:pggggggggggp;X....o....o..o....@9ggggggggggggggggggggggr",
"rggggggggggggggggggggf8@........o....oo....O<dggggggggd<O...o.......o.o.....$egggggggggggggggggggggr",
"rgggggggggggggggggggge$.....................@0gggggggg8@......o.o...........X-iggggggggggudggggggggr",
"4gggggggggggggggggggs:X...oo...o.............*iggggggu*...........o..o.o.....O5gggggggggd,0fgggggggr",
"rgggggggggggggggggggw@.......o...............+8gggggg5O.....oo.o...o...o......*uggggggggw@*igggggggr",
"rggggggggggggggggggg<X.o..o....o.............X:dggggp-...........o.o.o........+8gggggggp;XX6agggggar",
"rggggggggggggggggggd:..........o..............*pggggy%.....oo...............o.X<ggggggd6O..@qfgggggr",
"rggggggggggggggggggd:........o................=pggggt$...o................o...X<fggggg0#....%tgggggr",
"rfgggggggggggggggggf,X...........O............;sggggi&..o........XX...........O6ggggfw$......=igggg4",
"rggggggggggggggggggg0+..........X:+..........O6gggggd:X.o.o..o...+*X.......o..@wggggt&.......X:pgggr",
"rgggggggggggggggggggp-X.........%y-.....o....%ygggggg0@.........X:q@.........X-sgggu-.........X,aggr",
"rfgggggggggggggggggggw$........+9fe#.......X@9fggggggd,O........#ed>X.......X$wgggp>X..........O7ffr",
"rggggggggggggggggggggfw&OX...X@6dgf0$X...XX%0fggggggggp,@X....X#0fgp;OX....O%qgggg9+............$yfr",
"rfgggggggggggggggggggggp9;&$&>efgggft,*$%;6igggggggggggfq:%@@$:efgggs6*@@#*6iggggi=..............<ar",
"rggggggggggggggggggggggggfssdfggggggggdpsfgggggggggggggggfsuypfgggggggdiuidgggggge#..............*sr",
"4gggggggggggggggggggggggggggggggggggggggggggggggggggggggggggggggggggggggggggggggge$......X.......*ar",
"rggggggggggggggggggggggggggggggggggggggggggggggggggggggggggggggggggggggggggggggggi-......&#.....X<fr",
"rgggggggggggggggggggggggggggggggggggggggggggggggggggggggggggggggggggggggggggggggggq#X...$w6+...X&ufr",
"rgggggggggggggggggggggggggggggggggggggggggggggggggggggggggggggggggggggggggggggggggfq;$$=qfa6&$%>yfgr",
"rfggggggggggggggggggggggggggggggggggggggggggggggggggggggggggggggggggggggggggggggggggdiusfgggpyifggfr",
"rggggggggggggggggggggggggggggggggggggggggggggggggggggggggggggggggggggggggggggggggggggggggggggggggggr",
"4gggggggggggggggggggggggggggggggggggggggggggggggggggggggggggggggggggggggggggggggggggggdwwdgggggggggr",
"rgggggggggggggggggggggggggggggggggggggggggggggggggggggggggggggggggggggggggggggggggggggp=-pgggggggggr",
"rgggggggggggggggggggggggggggggggggggggggggggggggggggggggggggggggggggggggggggggggggggggs**pgggggggggr",
"4gggggggggggggggggggggggggggggggggggggggggggggggggggggggggggggggggggggggggggggggggggfi9$$8ewweufggfr",
"rgggggggggggggggggggggggggggggggggggggggggggggggggggggggggggggggggggggggggggggggggggd5#Xo#$$$#>dgggr",
"rgggggggggggggggggggggggggggggggggggggggggggggggggggggggggggggggggggggggggggggggggggfw,@@,57;o>agggr",
"4gggggggggggggggggggggggggggggggggggggggggggggggggggggggggggggggggggggggggggggggggggggi&*ifs:%egggfr",
"rgggggggggggggggggggggggggggggggggggggggggggggggggggggggggggggggggggggggggggggggggggggs&*ig8$8fgggfr",
"rgggggggggggggggggggggggggggggggggggggggggggggggggggggggggggggggggggggggggggggggggggggp&*py&,sgggggr",
"rgggggggggggggggggggggggggggggggggggggggggggggggggggggggggggggggggggggggggggggggggggggp&=e:=uggggggr",
"rfggggggggggggggggggggggggggggggggggggggggggggggggggggggggggggggggggggggggggggggggggggp&&:&0fggggggr",
"rgggggggggggggggggggggggggggggggggggggggggggggggggggggggggggggggggggggggggggggggggggggp*O+5aggggggg4",
"4gggggggggggggggggggggggggggggggggggggggggggggggggggggggggggggggggggggggggggggggggggggp*.-iggggggggr",
"rgggggggggggggggggggggggggggggggggggggggggggggggggggggggggggggggggggggggggggggggggggggp=$wggggggggg4",
"3gggggggggggggggggggggggggggggggggggggggggggggggggggggggggggggggggggggggggggggggggggggfetfggggggggg3",
"1agggggggggggggggggggggggggggggggggggggggggggggggggggggggggggggggggggggggggggggggggggggfgggggggggga1",
" 2aagfggfgffgggggfgfgggfgggggggggggggfgggggfgfgfggfggfgfgggfgggggfgfgggfgggggggggggggfgggfggfggffa2 ",
"  14rrrrrrrrrrrrrrrrrrarrrrrrrrrrrrrarrrrrrrrrrrrrrrrrrrrrrrrrrrrrrarrrrrrrrrrrrrrrrrrrrrrrrrrrr31  "
};
