/* XPM */
static char *__of_hearts1672178124[] = {
/* columns rows colors chars-per-pixel */
"100 145 45 1 ",
"  c None",
". c #DF0000",
"X c #DF0909",
"o c #E00C0C",
"O c #E11313",
"+ c #E21C1C",
"@ c #E32323",
"# c #E42C2C",
"$ c #E53434",
"% c #E63B3B",
"& c #E74343",
"* c #E84747",
"= c #E74848",
"- c #E84B4B",
"; c #E95353",
": c #EA5C5C",
"> c #EB6464",
", c #EC6C6C",
"< c #ED7373",
"1 c #EE7B7B",
"2 c #868686",
"3 c #A7A7A7",
"4 c gray66",
"5 c #B5B5B5",
"6 c #EF8282",
"7 c #F08787",
"8 c #F08C8C",
"9 c #F19393",
"0 c #F29B9B",
"q c #F3A4A4",
"w c #F4ACAC",
"e c #F5B4B4",
"r c #F6BCBC",
"t c #C2C2C2",
"y c #F7C3C3",
"u c #F8C7C7",
"i c #F8CBCB",
"p c #F9D3D3",
"a c #FADCDC",
"s c #EFEFEF",
"d c #FBE3E3",
"f c #FCECEC",
"g c #F1F1F1",
"h c #FDF4F4",
"j c #FFFFFF",
/* pixels */
"  25tttttttttttttttttttttttttttttttttttttttttttttttttttttttttttttttttttttttttttttttttttttttttttt52  ",
" 4sjjjjjjjjjjjjjjjjjjjjjjjjjjjjjjjjjjjjjjjjjjjjjjjjjjjjjjjjjjjjjjjjjjjjjjjjjjjjjjjjjjjjjjjjjjjjjjs3 ",
"2gjjjjjjhjjhhjjjjjjjjjjjjjjjjjjjjjjjjjjjjjjjjjjjjjjjjjjjjjjjjjjjjjjjjjjjjjjjjjjjjjjjjjjjjjjjjjjjjjg2",
"5jjjjjje;--=--qjjjjjjjjjjjjjjjjjjjjjjjjjjjjjjjjjjjjjjjjjjjjjjjjjjjjjjjjjjjjjjjjjjjjjjjjjjjjjjjjjjjj5",
"tjjjjjj<.@#$##0jjjjjjjjjjjjjjjjjjjjjjjjjjjjjjjjjjjjjjjjjjjjjjjjjjjjjjjjjjjjjjjjjjjjjjjjjjjjjjjjjjjjt",
"tjjjjjh*#affffhjjjjjjjjjjjjjjjjjjjjjjjjjjjjjjjjjjjjjjjjjjjjjjjjjjjjjjjjjjjjjjjjjjjjjjjjjjjjjjjjjjjjt",
"tjjjjjf@;jjjjjjjjjjjjjjjjjjjjjjjjjjjjjjjjjjjjjjjjjjjjjjjjjjjjjjjjjjjjjjjjjjjjjjjjjjjjjjjjjjjjjjjjjjt",
"tjjjjjiX1perdjjjjjjjjjjjjjjjjjjjjjjjjjjjjjjjjjjjjjjjjjjjjjjjjjjjjjjjjjjjjjjjjjjjjjjjjjjjjjjjjjjjjjjt",
"tjjjjjw.$+Xo@0hjjjjjjjjjjjjjjjjjjjjjjjjjjjjjjjjjjjjjjjjjjjjjjjjjjjjjjjjjjjjjjjjjjjjjjjjjjjjjjjjjjjjt",
"tjjjjj1.$0r9#Xqjjjjjjjjjjjjjjjjjjjjjjjjjjjjjjjjjjjjjjjjjjjjjjjjjjjjjjjjjjjjjjjjjjjjjjjjjjjjjjjjjjjjt",
"tjjjjjy9ajjjyO%fjjjjjjjjjjjjjjjjjjjjjjjjjjjjjjjjjjjjjjjjjjjjjjjjjjjjjjjjjjjjjjjjjjjjjjjjjjjjjjjjjjj5",
"tjjjjjjjjjjjh=Opjjjjjjjjjjjjjjjjjjjjjjjjjjjjjjjjjjjjjjjjjjjjjjjjjjjjjjjjjjjjjjjjjjjjjjjjjjjjjjjjjjjt",
"5jjjjjhfjjjjj;Xpjjjjjjjjjjjjjjjjjjjjjjjjjjjjjjjjjjjjjjjjjjjjjjjjjjjjjjjjjjjjjjjjjjjjjjjjjjjjjjjjjjjt",
"tjjjjh:-djjjh$@djjjjjjjjjjjjjjjjjjjjjjjjjjjjjjjjjjjjjjjjjjjjjjjjjjjjjjjjjjjjjjjjjjjjjjjjjjjjjjjjjjjt",
"tjjjjh>.0hjj9.<jjjjjjjjjjjjjjjjjjjjjjjjjjjjjjjjjjjjjjjjjjjjjjjjjjjjjjjjjjjjjjjjjjjjjjjjjjjjjjjjjjjjt",
"tjjjjjp#O,9>O%djjjjjjjjjjjjjjjjjjjjjjjjjjjjjjjjjjjjjjjjjjjjjjjjjjjjjjjjjjjjjjjjjjjjjjjjjjjjjjjjjjjjt",
"tjjjjjjp>#@#<ajjjjjjjjjjjjjjjjjjjjjjjjjjjjjjjjjjjjjjjjjjjjjjjjjjjjjjjjjjjjjjjjjjjjjjjjjjjjjjjjjjjjjt",
"tjjjjjjjjfdfjjjjjjjjjjjjjjjjjjjjjjjjjjjjjjjjjjjjjjjjjjjjjjjjjjjjjjjjjjjjjjjjjjjjjjjjjjjjjjjjjjjjjjj5",
"tjjjjjjjjjjjjjjjjjjjjjjjjjjjjjjjjjjjjjjjjjjjjjjjjjjjjjjjjjjjjjjjjjjjjjjjjjjjjjjjjjjjjjjjjjjjjjjjjjjt",
"tjjhr,:<rjjf9::8ajjjjjjjjjjjjjjjjjjjjjjjjjjjjjjjjjjjjjjjjjjjjjjjjjjjjjjjjjjjjjjjjjjjjjjjjjjjjjjjjjjt",
"tjh1X...Oqg;....#yjjjjjjjjjjjjjjjjjjjjjjjjjjjjjjjjjjjjjjjjjjjjjjjjjjjjjjjjjjjjjjjjjjjjjjjjjjjjjjjjjt",
"tjeX.....#6......*fjjjjjjjjjjjjjjjjjjjjjjjjjjjjjjjjjjjjjjjjjjjjjjjjjjjjjjjjjjjjjjjjjjjjjjjjjjjjjjjjt",
"5j,.......O......Xujjjjjjjjjjjjjjjjjjjjjjjjjjjjjjjjjjjjjjjjjjjjjjjjjjjjjjjjjjjjjjjjjjjjjjjjjjjjjjjjt",
"tj;...............ejjjjjjjjjjjjjjjjjjjjjjjjjjjjjjjjjjjjjjjjjjjjjjjjjjjjjjjjjjjjjjjjjjjjjjjjjjjjjjjjt",
"tj<..............Oijjjjjhduyufjjjjjjjfiryahjjjjjjjjjjjjjjjfaafjjjjjjjjhdadjjjjjjjjjjjjjjjjjjjjjjjjj5",
"tju+.............>hjjjhy:#XXO#6fjjjh0%OXO+;ehjjjjjjjjjjjr>$+O#>ujjjjh9&+O@*8djjjjjjjjjjjjjjjjjjjjjjt",
"tjj6............@pjjjh8O.......:fjh<.......o,gjjjjjjjjf<O......@wjjf:.......$yjjjjjjjjjjjjjjjjjjjjjt",
"tjjf:..........Owjjjj0X.........1j0X.........1jjjjjjjj<.........+ih,.........@ujjjjjjjjjjjjjjjjjjjjt",
"tjjja&........X8jjjjd@..........+r$..o.......OujjjjjjeX..o.....o.>rO..........;hjjjjjjjjjjjjjjjjjjjt",
"tjjjjp#.......1jjjjj0............*X....o......1jjjjjj:......o....+;...........Xujjjjjjjjjjjjjjjjjjjt",
"5jjjjjy@.....>fjjjjj,...................o.....*hjjjjf#..o.........X............9jjjjjjjjjjjjjjjjjjjt",
"tjjjjjjqX...&fjjjjjj;...............o.........$hjjjjd+.....o...o...............1jjjjjjjjjjjjjjjjjjjt",
"tjjjjjjh<..@ujjjjjjj:.........o........o..o...%hjjjjd+................o........6jjjjjjjjjjjjjjjjjjjt",
"tjjjjjjjd$.6jjjjjjjj9............oo.o.........<jjjjjh&............o............wjjjjjjjjjjjjjjjjjjjt",
"tjjjjjjjj0$fjjjjjjjja+.......o.o.o......o....orjjjjjj9..........o...o.........#djjjjjjjjjjjjjjjjjjjt",
"tjjjjjjjjdwjjjjjjjjjj1...............o.......>hjjjjjjd$...........o...o.......9jjjjjjjjjjjjjjjjjjjjt",
"tjjjjjjjjjjjjjjjjjjjjd&...............o.....#pjjjjjjjjwX.............o.......-fjjjjjjjjjjjjjjjjjjjjt",
"tjjjjjjjjjjjjjjjjjjjjju@.......o.oo.o......Oejjjjjjjjjj1.........oo.........@pjjjjjjjjjjjjjjjjjjjjj5",
"tjjjjjjjjjjjjjjjjjjjjjjqX.........o...o....8jjjjjjjjjhjf;........o..o......Owjjjjjjjjjjjjjjjjjjjjjjt",
"tjjjjjjjjjjjjjjjjjjjjjjh8X...o............<hjjjjjjjjjjjja%................X9jjjjjjjjjjjjjjjjjjjjjjjt",
"tjjjjjjjjjjjjjjjjjjjjjjjh<...............:fjjjjjjjjjjjjjji#.......o..o....6hjjjjjjjjjjjjjjjjjjjjjjjt",
"tjjjjjjjjjjjjjjjjjjjjjjjjh:.............=fjjjjjjjjjjjjjjjje+....o........>hjjjjjjjjjjjjjjjjjjjjjjjjt",
"tjjjjjjjjjjjjjjjjjjjjjjjjjd=...........%ajjjjjjjjjjjjjjjjjjqO.....o.....;fjjjjjjjjjjjjjjjjjjjjjjjjjt",
"5jjjjjjjjjjjjjjjjjjjjjjjjjja$.........@ujjjjjjjjjjjjjjjjjjjj9X.........&djjjjjjjjjjjjjjjjjjjjjjjjjjt",
"tjjjjjjjjjjjjjjjjjjjjjjjjjjjy+.......Oejjjjjjjjjjjjjjjjjjjjjh<........@pjjjjjjjjjjjjjjjjjjjjjjjjjjj5",
"tjjjjjjjjjjjjjjjjjjjjjjjjjjjjqX......6jjjjjjjjjjjjjjjjjjjjjjjf=......Owjjjjjjjjjjjjjjjjjjjjjjjjjjjjt",
"tjjjjjjjjjjjjjjjjjjjjjjjjjjjjh<.....:hjjjjjjjjjjjjjjjjjjjjjjjjp#.....6hjjjjjjjjjjjjjjjjjjjjjjjjjjjjt",
"tjjjjjjjjjjjjjjjjjjjjjjjjjjjjjd%...@ajjjjjjjjjjjjjjjjjjjjjjjjjjqX...-fjjjjjjjjjjjjjjjjjjjjjjjjjjjjjt",
"tjjjjjjjjjjjjjjjjjjjjjjjjjjjjjjwX.X9jjjjjjjjjjjjjjjjjjjjjjjjjjjh:..Oyjjjjjjjjjjjjjjjjjjjjjjjjjjjjjjt",
"tjjjjjjjjjjjjjjjjjjjjjjjjjjjjjjh;.%fjjjjjjjjjjjjjjjjjjjjjjjjjjjjuO.,hjjjjjjjjjjjjjjjjjjjjjjjjjjjjjjt",
"tjjjjjjjjjjjjjjjjjjjjjjjjjjjjjjjrO0jjjjjjjjjjjjjjjjjjjjjjjjjjjjjh>Oijjjjjjjjjjjjjjjjjjjjjjjjjjjjjjjt",
"tjjjjjjjjjjjjjjjjjjjjjjjjjjjjjjjf:ajjjjjjjjjjjjjjjjjjjjjjjjjjjjjje>hjjjjjjjjjjjjjjjjjjjjjjjjjjjjjjjt",
"tjjjjjjjjjjjjjjjjjjjjjjjjjjjjjjjjpjjjjjjjjjjjjjjjjjjjjjjjjjjjjjjjfujjjjjjjjjjjjjjjjjjjjjjjjjjjjjjjjt",
"tjjjjjjjjjjjjjjjjjjjjjjjjjjjjjjjjjjjjjjjjjjjjjjjjjjjjjjjjjjjjjjjjjjjjjjjjjjjjjjjjjjjjjjjjjjjjjjjjjjt",
"tjjjjjjjjjjjjjjjjjjjjjjjjjjjjjjjjjjjjjjjjjjjjjjjjjjjjjjjjjjjjjjjjjjjjjjjjjjjjjjjjjjjjjjjjjjjjjjjjjjt",
"tjjjjjjjjjjjjjjjjjjjjjjjjjjjjjjjjjjjjjjjjjjjjjjjjjjjjjjjjjjjjjjjjjjjjjjjjjjjjjjjjjjjjjjjjjjjjjjjjjjt",
"5jjjjjjjjjjjjjjjjjjjjjjjjjjjjjjjjjjjjjjjjjjjjjjjjjjjjjjjjjjjjjjjjjjjjjjjjjjjjjjjjjjjjjjjjjjjjjjjjjj5",
"tjjjjjjjjjjjjjjjjjjjjjjjjjjjjjjjjjjjjjjjjjjjjjjjjjjjjjjjjjjjjjjjjjjjjjjjjjjjjjjjjjjjjjjjjjjjjjjjjjjt",
"tjjjjjjjjjjjjjjjjjjjjjjjjjjjjjjjjjjjjjjjjjjjjjjjjjjjjjjjjjjjjjjjjjjjjjjjjjjjjjjjjjjjjjjjjjjjjjjjjjjt",
"tjjjjjjjjjjjjjjjjjjjjjjjjjjjjjjjjjjjjjjjjjjjjjjjjjjjjjjjjjjjjjjjjjjjjjjjjjjjjjjjjjjjjjjjjjjjjjjjjjjt",
"tjjjjjjjjjjjjjjjjjjjjjjjjjjjjjjjjjjjjjjjjdurrajjjjjjjhprrphjjjjjjjjjjjjjjjjjjjjjjjjjjjjjjjjjjjjjjjjt",
"tjjjjjjjjjjjjjjjjjjjjjjjjjjjjjjjjjjjjjji,#XXX@>ajjjjw&OXXO%9fjjjjjjjjjjjjjjjjjjjjjjjjjjjjjjjjjjjjjjt",
"tjjjjjjjjjjjjjjjjjjjjjjjjjjjjjjjjjjjjjq@.......$pjj9X.......-ajjjjjjjjjjjjjjjjjjjjjjjjjjjjjjjjjjjjjt",
"tjjjjjjjjjjjjjjjjjjjjjjjjjjjjjjjjjjjjrO.........=grO.........-fjjjjjjjjjjjjjjjjjjjjjjjjjjjjjjjjjjjjt",
"tjjjjjjjjjjjjjjjjjjjjjjjjjjjjjjjjjjjh=....o.....Xq:...........0jjjjjjjjjjjjjjjjjjjjjjjjjjjjjjjjjjjjt",
"tjjjjjjjjjjjjjjjjjjjjjjjjjjjjjjjjjjjyX..o...o....$+...........=hjjjjjjjjjjjjjjjjjjjjjjjjjjjjjjjjjjjt",
"tjjjjjjjjjjjjjjjjjjjjjjjjjjjjjjjjjjj0.........................@djjjjjjjjjjjjjjjjjjjjjjjjjjjjjjjjjjjt",
"tjjjjjjjjjjjjjjjjjjjjjjjjjjjjjjjjjjj7......o..o...............Oajjjjjjjjjjjjjjjjjjjjjjjjjjjjjjjjjjjt",
"tjjjjjjjjjjjjjjjjjjjjjjjjjjjjjjjjjjj9........o................+ajjjjjjjjjjjjjjjjjjjjjjjjjjjjjjjjjjjt",
"tjjjjjjjjjjjjjjjjjjjjjjjjjjjjjjjjjjjyo..o..o..................&hjjjjjjjjjjjjjjjjjjjjjjjjjjjjjjjjjjj5",
"5jjjjjjjjjjjjjjjjjjjjjjjjjjjjjjjjjjjh&......o.................0jjjjjjjjjjjjjjjjjjjjjjjjjjjjjjjjjjjjt",
"tjjjjjjjjjjjjjjjjjjjjjjjjjjjjjjjjjjjjwo..o...................%fjjjjjjjjjjjjjjjjjjjjjjjjjjjjjjjjjjjjt",
"tjjjjjjjjjjjjjjjjjjjjjjjjjjjjjjjjjjjjh,.....................Orjjjjjjjjjjjjjjjjjjjjjjjjjjjjjjjjjjjjjt",
"tjjjjjjjjjjjjjjjjjjjjjjjjjjjjjjjjjjjjjd*...................X8jjjjjjjjjjjjjjjjjjjjjjjjjjjjjjjjjjjjjjt",
"tjjjjjjjjjjjjjjjjjjjjjjjjjjjjjjjjjjjjjji@............o.....>hjjjjjjjjjjjjjjjjjjjjjjjjjjjjjjjjjjjjjjt",
"tjjjjjjjjjjjjjjjjjjjjjjjjjjjjjjjjjjjjjjje+................;fjjjjjjjjjjjjjjjjjjjjjjjjjjjjjjjjjjjjjjjt",
"tjjjjjjjjjjjjjjjjjjjjjjjjjjjjjjjjjjjjjjjjqX...o..........%ajjjjjjjjjjjjjjjjjjjjjjjjjjjjjjjjjjjjjjjj5",
"tjjjjjjjjjjjjjjjjjjjjjjjjjjjjjjjjjjjjjjjjh8..........o..$ijjjjjjjjjjjjjjjjjjjjjjjjjjjjjjjjjjjjjjjjjt",
"tjjjjjjjjjjjjjjjjjjjjjjjjjjjjjjjjjjjjjjjjjh<...........@yjjjjjjjjjjjjjjjjjjjjjjjjjjjjjjjjjjjjjjjjjjt",
"tjjjjjjjjjjjjjjjjjjjjjjjjjjjjjjjjjjjjjjjjjjh:.........Owjjjjjjjjjjjjjjjjjjjjjjjjjjjjjjjjjjjjjjjjjjjt",
"tjjjjjjjjjjjjjjjjjjjjjjjjjjjjjjjjjjjjjjjjjjjd%.......X8jjjjjjjjjjjjjjjjjjjjjjjjjjjjjjjjjjjjjjjjjjjjt",
"tjjjjjjjjjjjjjjjjjjjjjjjjjjjjjjjjjjjjjjjjjjjjy@......>hjjjjjjjjjjjjjjjjjjjjjjjjjjjjjjjjjjjjjjjjjjjjt",
"5jjjjjjjjjjjjjjjjjjjjjjjjjjjjjjjjjjjjjjjjjjjjjqX....%djjjjjjjjjjjjjjjjjjjjjjjjjjjjjjjjjjjjjjjjjjjjjt",
"tjjjjjjjjjjjjjjjjjjjjjjjjjjjjjjjjjjjjjjjjjjjjjh>...Oejjjjjjjjjjjjjjjjjjjjjjjjjjjjjjjjjjjjjjjjjjjjjjt",
"tjjjjjjjjjjjjjjjjjjjjjjjjjjjjjjjjjjjjjjjjjjjjjjp@..<hjjjjjjjjjjjjjjjjjjjjjjjjjjjjjjjjjjjjjjjjjjjjjjt",
"tjjjjjjjjjjjjjjjjjjjjjjjjjjjjjjjjjjjjjjjjjjjjjjj6.+pjjjjjjjjjjjjjjjjjjjjjjjjjjjjjjjjjjjjjjjjjjjjjjjt",
"tjjjjjjjjjjjjjjjjjjjjjjjjjjjjjjjjjjjjjjjjjjjjjjja+,jjjjjjjjjjjjjjjjjjjjjjjjjjjjjjjjjjjjjjjjjjjjjjjjt",
"tjjjjjjjjjjjjjjjjjjjjjjjjjjjjjjjjjjjjjjjjjjjjjjjj<rjjjjjjjjjjjjjjjjjjjjjjjjjjjjjjjjjjjjjjjjjjjjjjjjt",
"tjjjjjjjjjjjjjjjjjjjjjjjjjjjjjjjjjjjjjjjjjjjjjjjjahjjjjjjjjjjjjjjjjjjjjjjjjjjjjjjjjjjjjjjjjjjjjjjjj5",
"tjjjjjjjjjjjjjjjjjjjjjjjjjjjjjjjjjjjjjjjjjjjjjjjjjjjjjjjjjjjjjjjjjjjjjjjjjjjjjjjjjjjjjjjjjjjjjjjjjjt",
"tjjjjjjjjjjjjjjjjjjjjjjjjjjjjjjjjjjjjjjjjjjjjjjjjjjjjjjjjjjjjjjjjjjjjjjjjjjjjjjjjjjjjjjjjjjjjjjjjjjt",
"tjjjjjjjjjjjjjjjjjjjjjjjjjjjjjjjjjjjjjjjjjjjjjjjjjjjjjjjjjjjjjjjjjjjjjjjjjjjjjjjjjjjjjjjjjjjjjjjjjjt",
"tjjjjjjjjjjjjjjjjjjjjjjjjjjjjjjjjwhjjjjjjjjjjjjjjjjjjjjjjjjjjjjjjfujjjjjjjjjjjjjjjjjjjjjjjjjjjjjjjjt",
"tjjjjjjjjjjjjjjjjjjjjjjjjjjjjjjjd%ujjjjjjjjjjjjjjjjjjjjjjjjjjjjjjr:hjjjjjjjjjjjjjjjjjjjjjjjjjjjjjjjt",
"5jjjjjjjjjjjjjjjjjjjjjjjjjjjjjjj0X<jjjjjjjjjjjjjjjjjjjjjjjjjjjjjh>Oyjjjjjjjjjjjjjjjjjjjjjjjjjjjjjjjt",
"tjjjjjjjjjjjjjjjjjjjjjjjjjjjjjjf%.@pjjjjjjjjjjjjjjjjjjjjjjjjjjjjp+.>hjjjjjjjjjjjjjjjjjjjjjjjjjjjjjjt",
"tjjjjjjjjjjjjjjjjjjjjjjjjjjjjjj9...>hjjjjjjjjjjjjjjjjjjjjjjjjjjh>..Orjjjjjjjjjjjjjjjjjjjjjjjjjjjjjjt",
"tjjjjjjjjjjjjjjjjjjjjjjjjjjjjji@...OejjjjjjjjjjjjjjjjjjjjjjjjjjwX...&fjjjjjjjjjjjjjjjjjjjjjjjjjjjjjt",
"tjjjjjjjjjjjjjjjjjjjjjjjjjjjjf;.....#pjjjjjjjjjjjjjjjjjjjjjjjja#.....1hjjjjjjjjjjjjjjjjjjjjjjjjjjjjt",
"tjjjjjjjjjjjjjjjjjjjjjjjjjjjh1.......;fjjjjjjjjjjjjjjjjjjjjjjf;......Oqjjjjjjjjjjjjjjjjjjjjjjjjjjjjt",
"tjjjjjjjjjjjjjjjjjjjjjjjjjjjqX.....o..1hjjjjjjjjjjjjjjjjjjjjh1........@ujjjjjjjjjjjjjjjjjjjjjjjjjjjt",
"tjjjjjjjjjjjjjjjjjjjjjjjjjje+...o.....o9jjjjjjjjjjjjjjjjjjjj0o.........%ajjjjjjjjjjjjjjjjjjjjjjjjjj5",
"tjjjjjjjjjjjjjjjjjjjjjjjjji#...........Owjjjjjjjjjjjjjjjjjjw+...........-djjjjjjjjjjjjjjjjjjjjjjjjjt",
"tjjjjjjjjjjjjjjjjjjjjjjjja$......o......+rjjjjjjjjjjjjjjjjr@..o..........>hjjjjjjjjjjjjjjjjjjjjjjjjt",
"tjjjjjjjjjjjjjjjjjjjjjjjd=......o...o....#ijjjjjjjjjjjjjjp#..o......o.....1hjjjjjjjjjjjjjjjjjjjjjjjt",
"tjjjjjjjjjjjjjjjjjjjjjjh:.................%djjjjjjjjjjjja%.............o..X8jjjjjjjjjjjjjjjjjjjjjjjt",
"5jjjjjjjjjjjjjjjjjjjjjh1...............o...;fjjjjjjjjjjh;..................Owjjjjjjjjjjjjjjjjjjjjjjt",
"tjjjjjjjjjjjjjjjjjjjjjqX........o....o......6jjjjjjjjjh1....o.........o.....@ijjjjjjjjjjjjjjjjjjjjjt",
"tjjjjjjjjjjjjjjjjjjjjp@.........o..o.o......XejjjjjjjjwX.....................=fjjjjjjjjjjpfjjjjjjjj5",
"tjjjjjjjjjjjjjjjjjjjh:....o..................%gjjjjjjd$...........o.o.o.......8jjjjjjjjjj,0jjjjjjjjt",
"tjjjjjjjjjjjjjjjjjjjyO..o....................Xqjjjjjj9...........oo...........#fjjjjjjjjuO%djjjjjjjt",
"tjjjjjjjjjjjjjjjjjjj1.....o..o...o..o.........:jjjjjh&...............o.........wjjjjjjjh;..6jjjjjjjt",
"tjjjjjjjjjjjjjjjjjjj;.........................%fjjjjd@.........................1jjjjjjj7X..Orjjjjjjt",
"tjjjjjjjjjjjjjjjjjjh:.........................%hjjjja+.....................o.o.1jjjjjjeO....#pjjjjjt",
"tjjjjjjjjjjjjjjjjjjj1............O............-jjjjjf#.........................9jjjjju@......*djjjjt",
"tjjjjjjjjjjjjjjjjjjje.......o....,O......o....8jjjjjh>...........+;...........Oyjjjjp$........;gjjjt",
"tjjjjjjjjjjjjjjjjjjjf*........o.$a-..........#ajjjjjjeo..........>yO..........;hjjjd&..........,hjjt",
"tjjjjjjjjjjjjjjjjjjjjy@........oqjy+.....o..Oqjjjjjjjh<.........+uh<.........@yjjjh>...........X9jjt",
"5jjjjjjjjjjjjjjjjjjjjjr%......O9hjjw@......$wjjjjjjjjjh<O......+wjjd:.......$rjjjjqX............+pjt",
"tjjjjjjjjjjjjjjjjjjjjjjfq>%$%,yhjjjji1&$$;9djjjjjjjjjjjhr>$++#>yjjjjf9&++@*9djjjjf$..............,jt",
"tjjjjjjjjjjjjjjjjjjjjjjjjjhfhjjjjjjjjjhfhhjjjjjjjjjjjjjjjjfaadjjjjjjjjhapdhjjjjjjiO..............%ht",
"tjjjjjjjjjjjjjjjjjjjjjjjjjjjjjjjjjjjjjjjjjjjjjjjjjjjjjjjjjjjjjjjjjjjjjjjjjjjjjjjjpO......X.......%ht",
"tjjjjjjjjjjjjjjjjjjjjjjjjjjjjjjjjjjjjjjjjjjjjjjjjjjjjjjjjjjjjjjjjjjjjjjjjjjjjjjjjh%......=#......<jt",
"tjjjjjjjjjjjjjjjjjjjjjjjjjjjjjjjjjjjjjjjjjjjjjjjjjjjjjjjjjjjjjjjjjjjjjjjjjjjjjjjjjeO....+y9X....$ajt",
"tjjjjjjjjjjjjjjjjjjjjjjjjjjjjjjjjjjjjjjjjjjjjjjjjjjjjjjjjjjjjjjjjjjjjjjjjjjjjjjjjjjr;@@*ejh9$@#>pjjt",
"tjjjjjjjjjjjjjjjjjjjjjjjjjjjjjjjjjjjjjjjjjjjjjjjjjjjjjjjjjjjjjjjjjjjjjjjjjjjjjjjjjjjhddgjjjjfafjjjjt",
"tjjjjjjjjjjjjjjjjjjjjjjjjjjjjjjjjjjjjjjjjjjjjjjjjjjjjjjjjjjjjjjjjjjjjjjjjjjjjjjjjjjjjjjjjjjjjjjjjjjt",
"tjjjjjjjjjjjjjjjjjjjjjjjjjjjjjjjjjjjjjjjjjjjjjjjjjjjjjjjjjjjjjjjjjjjjjjjjjjjjjjjjjjjjjja8,,qfjjjjjjt",
"tjjjjjjjjjjjjjjjjjjjjjjjjjjjjjjjjjjjjjjjjjjjjjjjjjjjjjjjjjjjjjjjjjjjjjjjjjjjjjjjjjjjjjw@O$#X*pjjjjjt",
"tjjjjjjjjjjjjjjjjjjjjjjjjjjjjjjjjjjjjjjjjjjjjjjjjjjjjjjjjjjjjjjjjjjjjjjjjjjjjjjjjjjjjp@#rhf8X;hjjjjt",
"5jjjjjjjjjjjjjjjjjjjjjjjjjjjjjjjjjjjjjjjjjjjjjjjjjjjjjjjjjjjjjjjjjjjjjjjjjjjjjjjjjjjj1.wjjjh=Opjjjjt",
"tjjjjjjjjjjjjjjjjjjjjjjjjjjjjjjjjjjjjjjjjjjjjjjjjjjjjjjjjjjjjjjjjjjjjjjjjjjjjjjjjjjjh&+ajjjjiefjjjjt",
"tjjjjjjjjjjjjjjjjjjjjjjjjjjjjjjjjjjjjjjjjjjjjjjjjjjjjjjjjjjjjjjjjjjjjjjjjjjjjjjjjjjjh%+ajjjjjjjjjjj5",
"tjjjjjjjjjjjjjjjjjjjjjjjjjjjjjjjjjjjjjjjjjjjjjjjjjjjjjjjjjjjjjjjjjjjjjjjjjjjjjjjjjjjj:Xejjjjafhjjjjt",
"tjjjjjjjjjjjjjjjjjjjjjjjjjjjjjjjjjjjjjjjjjjjjjjjjjjjjjjjjjjjjjjjjjjjjjjjjjjjjjjjjjjjjwX%yhfq#-gjjjjt",
"tjjjjjjjjjjjjjjjjjjjjjjjjjjjjjjjjjjjjjjjjjjjjjjjjjjjjjjjjjjjjjjjjjjjjjjjjjjjjjjjjjjjjj1XO$#+.;jjjjjt",
"tjjjjjjjjjjjjjjjjjjjjjjjjjjjjjjjjjjjjjjjjjjjjjjjjjjjjjjjjjjjjjjjjjjjjjjjjjjjjjjjjjjjjjje,;<9X6jjjjjt",
"tjjjjjjjjjjjjjjjjjjjjjjjjjjjjjjjjjjjjjjjjjjjjjjjjjjjjjjjjjjjjjjjjjjjjjjjjjjjjjjjjjjjjjjjjjjwXwjjjjjt",
"tjjjjjjjjjjjjjjjjjjjjjjjjjjjjjjjjjjjjjjjjjjjjjjjjjjjjjjjjjjjjjjjjjjjjjjjjjjjjjjjjjjjjjjjjjj1Xijjjjjt",
"tjjjjjjjjjjjjjjjjjjjjjjjjjjjjjjjjjjjjjjjjjjjjjjjjjjjjjjjjjjjjjjjjjjjjjjjjjjjjjjjjjjjjd66666##djjjjjt",
"tjjjjjjjjjjjjjjjjjjjjjjjjjjjjjjjjjjjjjjjjjjjjjjjjjjjjjjjjjjjjjjjjjjjjjjjjjjjjjjjjjjjju+XXOOX:jjjjjjt",
"5jjjjjjjjjjjjjjjjjjjjjjjjjjjjjjjjjjjjjjjjjjjjjjjjjjjjjjjjjjjjjjjjjjjjjjjjjjjjjjjjjjjjhiuiiiuajjjjjj5",
"2gjjjjjjjjjjjjjjjjjjjjjjjjjjjjjjjjjjjjjjjjjjjjjjjjjjjjjjjjjjjjjjjjjjjjjjjjjjjjjjjjjjjjjjjjjjjjjjjjg2",
" 4sjjjjjjjjjjjjjjjjjjjjjjjjjjjjjjjjjjjjjjjjjjjjjjjjjjjjjjjjjjjjjjjjjjjjjjjjjjjjjjjjjjjjjjjjjjjjjjg3 ",
"  25ttttttttttttttttttttttttttttttpttttttttttttttttttttttttttttttttttstttttttttttttttttttttttttt52  "
};
