/* XPM */
static char *__of_hearts1672178178[] = {
/* columns rows colors chars-per-pixel */
"100 145 45 1 ",
"  c None",
". c #DF0000",
"X c #DF0808",
"o c #E00707",
"O c #E00C0C",
"+ c #E11313",
"@ c #E21B1B",
"# c #E32323",
"$ c #E42C2C",
"% c #E53333",
"& c #E63B3B",
"* c #E74343",
"= c #E74949",
"- c #E84B4B",
"; c #E95353",
": c #EA5C5C",
"> c #EB6464",
", c #EC6A6A",
"< c #ED7373",
"1 c #EE7C7C",
"2 c #868686",
"3 c #A7A7A7",
"4 c gray66",
"5 c #B5B5B5",
"6 c #EF8383",
"7 c #F08787",
"8 c #F08C8C",
"9 c #F19393",
"0 c #F29B9B",
"q c #F3A4A4",
"w c #F4ABAB",
"e c #F5B3B3",
"r c #F6BBBB",
"t c #C2C2C2",
"y c #F7C3C3",
"u c #F8C7C7",
"i c #F8CBCB",
"p c #F9D3D3",
"a c #FADCDC",
"s c #EFEFEF",
"d c #FBE3E3",
"f c #FCECEC",
"g c #F1F1F1",
"h c #FDF4F4",
"j c #FFFFFF",
/* pixels */
"  25tttttttttttttttttttttttttttt5ttttttttttttttttttttttttttttttttttttttttttttttttttttttttttttttt52  ",
" 4sjjjjjjjjjjjjjjjjjjjjjjjjjjjjjjjjjjjjjjjjjjjjjjjjjjjjjjjjjjjjjjjjjjjjjjjjjjjjjjjjjjjjjjjjjjjjjjs3 ",
"2gjjjjjhhjhhjjhjjjjjjjjjjjjjjjjjjjjjjjjjjjjjjjjjjjjjjjjjjjjjjjjjjjjjjjjjjjjjjjjjjjjjjjjjjjjjjjjjjjg2",
"5jjjjh<=---===:djjjjjjjjjjjjjjjjjjjjjjjjjjjjjjjjjjjjjjjjjjjjjjjjjjjjjjjjjjjjjjjjjjjjjjjjjjjjjjjjjjj5",
"tjjjjh:$$$$%@X#djjjjjjjjhdpahjjjjjjjhdpafjjjjjjjjjjjjjjjjjfueeuhjjjjjjjpewydjjjjjjjjjjjjjjjjjjjjjjjt",
"tjjjjjhffffd:Xwjjjjjjjp1&@+@*0hjjjje;#+@%,rjjjjjjjjjjjjjd8%+XXX&qjjjjp:@XXX#>ujjjjjjjjjjjjjjjjjjjjjt",
"tjjjjjjjjjj0X<jjjjjjjq$......X,fjj8+......+6hjjjjjjjjjjp*.......+9jji$.......@qjjjjjjjjjjjjjjjjjjjjt",
"5jjjjjjjjja#%fjjjjjje+.........6je+........X6jjjjjjjjjd=.........+rf*.........+rjjjjjjjjjjjjjjjjjjjt",
"tjjjjjjjjj,Xqjjjjjjf&..........@u=....o.....@ujjjjjjjj9...........:0X..o.......=hjjjjjjjjjjjjjjjjjjt",
"tjjjjjjjjp@&hjjjjjjw............;+...........<jjjjjjjh*.....o..o..@%...........Oujjjjjjjjjjjjjjjjjjt",
"tjjjjjjjj6.qjjjjjjj<............X............*hjjjjjja@.........................0jjjjjjjjjjjjjjjjjjt",
"tjjjjjjjf%#djjjjjjj>.........................%fjjjjjjp+.......o........o........8jjjjjjjjjjjjjjjjjj5",
"tjjjjjjjyX>jjjjjjjj>......o....o.............%hjjjjjja@.............o...........0jjjjjjjjjjjjjjjjjjt",
"tjjjjjjj8.qjjjjjjjj9....o........oo..........:hjjjjjjh*.......o................Oyjjjjjjjjjjjjjjjjjjt",
"tjjjjjjj:Xpjjjjjjjjp@..o....................Xwjjjjjjjj9........................-hjjjjjjjjjjjjjjjjjjt",
"tjjjjjjh%#djjjjjjjjj1......o..o.............=hjjjjjjjjf&............o.........+rjjjjjjjjjjjjjjjjjjjt",
"tjjjjjjf>,hjjjjjjjjjd%.....................@yjjjjjjjjjje+..........o...o......1jjjjjjjjjjjjjjjjjjjjt",
"tjjjjjjjhhjjjjjjjjjjjy@...................o9jjjjjjjjjjjj9....................;fjjjjjjjjjjjjjjjjjjjj5",
"tjjjjjjjjjjjjjjjjjjjjj0X..................<jjjjjjjjjjjjjh>......o...........$pjjjjjjjjjjjjjjjjjjjjjt",
"tjjhr<:<rjjf9::8ajjjjjj<.................;fjjjjjjjjjjjjjjd-........o..o....@yjjjjjjjjjjjjjjjjjjjjjjt",
"tjh1X...+qf:....$ujjjjjh>...............*djjjjjjjjjjjjjjjja&....o...o.....+wjjjjjjjjjjjjjjjjjjjjjjjt",
"tjeX.....%1......*fjjjjjf;.............%pjjjjjjjjjjjjjjjjjji$......o...o.+0jjjjjjjjjjjjjjjjjjjjjjjjt",
"5j,.......+......Xujjjjjja&...........#ujjjjjjjjjjjjjjjjjjjjr@...........7hjjjjjjjjjjjjjjjjjjjjjjjjt",
"tj;...............ejjjjjjjp$.........+ejjjjjjjjjjjjjjjjjjjjjjw+.o.......<hjjjjjjjjjjjjjjjjjjjjjjjjjt",
"tj<..............+ijjjjjjjjr+.......X9jjjjjjjjjjjjjjjjjjjjjjjj6........-fjjjjjjjjjjjjjjjjjjjjjjjjjj5",
"tju@.............>hjjjjjjjjj9X......,jjjjjjjjjjjjjjjjjjjjjjjjjh:......$pjjjjjjjjjjjjjjjjjjjjjjjjjjjt",
"tjj6............#pjjjjjjjjjjh>.....*sjjjjjjjjjjjjjjjjjjjjjjjjjja%....+ejjjjjjjjjjjjjjjjjjjjjjjjjjjjt",
"tjjf:..........+wjjjjjjjjjjjjd%...@yhjjjjjjjjjjjjjjjjjjjjjjjjjjjeX...<hjjjjjjjjjjjjjjjjjjjjjjjjjjjjt",
"tjjja*........X9jjjjjjjjjjjjjjwX..1jjjjjjjjjjjjjjjjjjjjjjjjjjjjjj>..$djjjjjjjjjjjjjjjjjjjjjjjjjjjjjt",
"tjjjjp$......X1hjjjjjjjjjjjjjjh-.$djjjjjjjjjjjjjjjjjjjjjjjjjjjjjjp@.9jjjjjjjjjjjjjjjjjjjjjjjjjjjjjjt",
"tjjjjjy@.....>hjjjjjjjjjjjjjjjjeX6jjjjjjjjjjjjjjjjjjjjjjjjjjjjjjjj>$djjjjjjjjjjjjjjjjjjjjjjjjjjjjjjt",
"tjjjjjjqX...*djjjjjjjjjjjjjjjjjf;pjjjjjjjhdiidjjjjjjjjdpiahjjjjjjje1jjjjjjjjjjjjjjjjjjjjjjjjjjjjjjjt",
"tjjjjjjj<..@ijjjjjjjjjjjjjjjjjjjuhjjjjjf0-@++#>ijjjja<$++@*8djjjjjfdjjjjjjjjjjjjjjjjjjjjjjjjjjjjjjjt",
"tjjjjjjjd%.8jjjjjjjjjjjjjjjjjjjjjjjjjja-X......#rjji%.......&yjjjjjjjjjjjjjjjjjjjjjjjjjjjjjjjjjjjjjt",
"tjjjjjjjj0%djjjjjjjjjjjjjjjjjjjjjjjjjf=.........$af*.........%ajjjjjjjjjjjjjjjjjjjjjjjjjjjjjjjjjjjjt",
"5jjjjjjjjdwjjjjjjjjjjjjjjjjjjjjjjjjjj8...........10X..........,jjjjjjjjjjjjjjjjjjjjjjjjjjjjjjjjjjjjt",
"tjjjjjjjjjhjjjjjjjjjjjjjjjjjjjjjjjjjf&...........$&..o........@djjjjjjjjjjjjjjjjjjjjjjjjjjjjjjjjjjjt",
"tjjjjjjjjjjjjjjjjjjjjjjjjjjjjjjjjjjjp+.........................ejjjjjjjjjjjjjjjjjjjjjjjjjjjjjjjjjjj5",
"tjjjjjjjjjjjjjjjjjjjjjjjjjjjjjjjjjjjyo.................o.......qjjjjjjjjjjjjjjjjjjjjjjjjjjjjjjjjjjjt",
"tjjjjjjjjjjjjjjjjjjjjjjjjjjjjjjjjjjjuO...............o.........wjjjjjjjjjjjjjjjjjjjjjjjjjjjjjjjjjjjt",
"tjjjjjjjjjjjjjjjjjjjjjjjjjjjjjjjjjjjd$................o.......+pjjjjjjjjjjjjjjjjjjjjjjjjjjjjjjjjjjjt",
"tjjjjjjjjjjjjjjjjjjjjjjjjjjjjjjjjjjjj<....o..o....o.o.........;hjjjjjjjjjjjjjjjjjjjjjjjjjjjjjjjjjjjt",
"tjjjjjjjjjjjjjjjjjjjjjjjjjjjjjjjjjjjjp@......oo..o....o......+rjjjjjjjjjjjjjjjjjjjjjjjjjjjjjjjjjjjjt",
"tjjjjjjjjjjjjjjjjjjjjjjjjjjjjjjjjjjjjj9X....................X<hjjjjjjjjjjjjjjjjjjjjjjjjjjjjjjjjjjjjt",
"tjjjjjjjjjjjjjjjjjjjjjjjjjjjjjjjjjjjjjh>.....o..............=fjjjjjjjjjjjjjjjjjjjjjjjjjjjjjjjjjjjjj5",
"tjjjjjjjjjjjjjjjjjjjjjjjjjjjjjjjjjjjjjjd&..................$pjjjjjjjjjjjjjjjjjjjjjjjjjjjjjjjjjjjjjjt",
"tjjjjjjjjjjjjjjjjjjjjjjjjjjjjjjjjjjjjjjjp$..o..o..........@rjjjjjjjjjjjjjjjjjjjjjjjjjjjjjjjjjjjjjjjt",
"5jjjjjjjjjjjjjjjjjjjjjjjjjjjjjjjjjjjjjjjjr@..............+wjjjjjjjjjjjjjjjjjjjjjjjjjjjjjjjjjjjjjjjjt",
"tjjjjjjjjjjjjjjjjjjjjjjjjjjjjjjjjjjjjjjjjjw+............X0jjjjjjjjjjjjjjjjjjjjjjjjjjjjjjjjjjjjjjjjjt",
"tjjjjjjjjjjjjjjjjjjjjjjjjjjjjjjjjjjjjjjjjjh9X...........6hjjjjjjjjjjjjjjjjjjjjjjjjjjjjjjjjjjjjjjjjjt",
"tjjjjjjjjjjjjjjjjjjjjjjjjjjjjjjjjjjjjjjjjjjh6..........,hjjjjjjjjjjjjjjjjjjjjjjjjjjjjjjjjjjjjjjjjjjt",
"tjjjjjjjjjjjjjjjjjjjjjjjjjjjjjjjjjjjjjjjjjjjh:........-fjjjjjjjjjjjjjjjjjjjjjjjjjjjjjjjjjjjjjjjjjjjt",
"tjjjjjjjjjjjjjjjjjjjjjjjjjjjjjjjjjjjjjjjjjjjja&......$pjjjjjjjjjjjjjjjjjjjjjjjjjjjjjjjjjjjjjjjjjjjjt",
"tjjjjjjjjjjjjjjjjjjjjjjjjjjjjjjjjjjjjjjjjjjjjjy@....+ejjjjjjjjjjjjjjjjjjjjjjjjjjjjjjjjjjjjjjjjjjjjjt",
"tjjjjjjjjjjjjjjjjjjjjjjjjjjjjjjjjjjjjjjjjjjjjjj8....<hjjjjjjjjjjjjjjjjjjjjjjjjjjjjjjjjjjjjjjjjjjjjjt",
"tjjjjjjjjjjjjjjjjjjjjjjjjjjjjjjjjjjjjjjjjjjjjjjf*..%djjjjjjjjjjjjjjjjjjjjjjjjjjjjjjjjjjjjjjjjjjjjjjt",
"tjjjjjjjjjjjjjjjjjjjjjjjjjjjjjjjjjjjjjjjjjjjjjjjeX.0jjjjjjjjjjjjjjjjjjjjjjjjjjjjjjjjjjjjjjjjjjjjjjj5",
"tjjjjjjjjjjjjjjjjjjjjjjjjjjjjjjjjjjjjjjjjjjjjjjjh*$fjjjjjjjjjjjjjjjjjjjjjjjjjjjjjjjjjjjjjjjjjjjjjjjt",
"tjjjjjjjjjjjjjjjjjjjjjjjjjjjjjjjjjjjjjjjjjjjjjjjj96jjjjjjjjjjjjjjjjjjjjjjjjjjjjjjjjjjjjjjjjjjjjjjjjt",
"5jjjjjjjjjjjjjjjjjjjjjjjjjjjjjjjjjjjjjjjjjjjjjjjjdajjjjjjjjjjjjjjjjjjjjjjjjjjjjjjjjjjjjjjjjjjjjjjjjt",
"tjjjjjjjjjjjjjjjjjjjjjjjhapahjjjjjjjhdpafjjjjjjjjjjjjjjjjjsueeuhjjjjjjhpeeyajjjjjjjjjjjjjjjjjjjjjjjt",
"tjjjjjjjjjjjjjjjjjjjjjp1&@+@&0hjjjje;@+@$>yjjjjjjjjjjjjjf6%OX.X&whjjjp:@X.X#>ujjjjjjjjjjjjjjjjjjjjjt",
"tjjjjjjjjjjjjjjjjjjjjq#......X>hjh9+......+6hjjjjjjjjjjp*.......X9hju$.......@qjjjjjjjjjjjjjjjjjjjjt",
"tjjjjjjjjjjjjjjjjjjje+.........6jeX.........6hjjjjjjjjf*.........+rh*.........+rjjjjjjjjjjjjjjjjjjjt",
"tjjjjjjjjjjjjjjjjjjf%..........@u*..........+ujjjjjjjj9.......o...:0X.......o..=hjjjjjjjjjjjjjjjjjjt",
"tjjjjjjjjjjjjjjjjjjwX....o......;+..o........<jjjjjjjh*...o.......@%...........Oujjjjjjjjjjjjjjjjjjt",
"tjjjjjjjjjjjjjjjjjj<.....oo.....X............*hjjjjjja@...o.o...................0jjjjjjjjjjjjjjjjjjt",
"tjjjjjjjjjjjjjjjjjj>..............o..........%fjjjjjjp+....................o....8jjjjjjjjjjjjjjjjjjt",
"tjjjjjjjjjjjjjjjjjj>.....o...................%hjjjjjja@.........................0jjjjjjjjjjjjjjjjjjt",
"tjjjjjjjjjjjjjjjjjj9...........o.............:hjjjjjjh&.o.o....................+ujjjjjjjjjjjjjjjjjj5",
"tjjjjjjjjjjjjjjjjjjp@...o.o.................Xwjjjjjjjj0........................-hjjjjjjjjjjjjjjjjjjt",
"5jjjjjjjjjjjjjjjjjjj1.......................=hjjjjjjjjf&.o....................+rjjjjjjjjjjjjjjjjjjjt",
"tjjjjjjjjjjjjjjjjjjjd%.....................@ujjjjjjjjjjr+........o............1jjjjjjjjjjjjjjjjjjjjt",
"tjjjjjjjjjjjjjjjjjjjjy@............oo.o...X0jjjjjjjjjjjj8X...................;fjjjjjjjjjjjjjjjjjjjjt",
"tjjjjjjjjjjjjjjjjjjjjj0X..................<hjjjjjjjjjjjjh>.........o....o...$pjjjjjjjjjjjjjjjjjjjjjt",
"tjjjjjjjjjjjjjjjjjjjjjh6X........o.......;fjjjjjjjjjjjjjjf-......o...o.....#yjjjjjjjjjjjjjjjjjjjjjjt",
"tjjjjjjjjjjjjjjjjjjjjjjh>...............=djjjjjjjjjjjjjjjja&......o.......+wjjjjjjjjjjjjjjjjjjjjjjj5",
"tjjjjjjjjjjjjjjjjjjjjjjjf;..........o..%pjjjjjjjjjjjjjjjjjji$............X0jjjjjjjjjjjjjjjjjjjjjjjjt",
"tjjjjjjjjjjjjjjjjjjjjjjjjd&...........#ujjjjjjjjjjjjjjjjjjjjr@.....o....X8jjjjjjjjjjjjjjjjjjjjjjjjjt",
"tjjjjjjjjjjjjjjjjjjjjjjjjjp$.........@ejjjjjjjjjjjjjjjjjjjjjjw+.o.......<hjjjjjjjjjjjjjjjjjjjjjjjjjt",
"tjjjjjjjjjjjjjjjjjjjjjjjjjjr@.......X0jjjjjjjjjjjjjjjjjjjjjjjj7X.......-fjjjjjjjjjjjjjjjjjjjjjjjjjjt",
"tjjjjjjjjjjjjjjjjjjjjjjjjjjj9X......,hjjjjjjjjjjjjjjjjjjjjjjjjf:......$pjjjjjjjjjjjjjjjjjjjjjjjjjjjt",
"tjjjjjjjjjjjjjjjjjjjjjjjjjjjh,.....=fjjjjjjjjjjjjjjjjjjjjjjjjjjd%X...+ejjjjjjjjjjjjjjjjjjjjjjjjjjjjt",
"5jjjjjjjjjjjjjjjjjjjjjjjjjjjjd%...+ujjjjjjjjjjjjjjjjjjjjjjjjjjjjeX...<jjjjjjjjjjjjjjjjjjjjjjjjjjjjjt",
"tjjjjjjjjjjjjjjjjjjjjjjjjjjjjjwo..1jjjjjjjjjjjjjjjjjjjjjjjjjjjjjh,..$djjjjjjjjjjjjjjjjjjjjjjjjjjjjjt",
"tjjjjjjjjjjjjjjjjjjjjjjjjjjjjjh;.$djjjjjjjjjjjjjjjjjjjjjjjjjjjjjji@.9jjjjjjjjjjjjjjjjjjjjjjjjjjjjjjt",
"tjjjjjjjjjjjjjjjjjjjjjjjjjjjjjjeX6jjjjjjjjjjjjjjjjjjjjjjjjjjjjjjjj>$djjjjjjjjjjjjjjjjjjjjjjjjjjjjjjt",
"tjjjjjjjjjjjjjjjjjjjjjjjjjjjjjjf;pjjjjjjjjjjjjjjjjjjjjjjjjjjjjjjjjr1jjjjjjjjjjjjjjjjjjjjjjjjjjjjjjjt",
"tjjjjjjjjjjjjjjjjjjjjjjjjjjjjjjjuhjjjjjjjjjjjjjjjjjjjjjjjjjjjjjjjjfdjjjjjjjjjjjjjjjjjjjjjjjjjjjjjjj5",
"tjjjjjjjjjjjjjjjjjjjjjjjjjjjjjjjjjjjjjjjjjjjjjjjjjjjjjjjjjjjjjjjjjjjjjjjjjjjjjjjjjjjjjjjjjjjjjjjjjjt",
"tjjjjjjjjjjjjjjjjjjjjjjjjjjjjjjjjjjjjjjjjjjjjjjjjjjjjjjjjjjjjjjjjjjjjjjjjjjjjjjjjjjjjjjjjjjjjjjjjjjt",
"tjjjjjjjjjjjjjjjjjjjjjjjjjjjjjjjjjjjjjjjjjjjjjjjjjjjjjjjjjjjjjjjjjjjjjjjjjjjjjjjjjjjjjjjjjjjjjjjjjjt",
"tjjjjjjjjjjjjjjjjjjjjjjjjjjjjjjjjjjjjjjjjjjjjjjjjjjjjjjjjjjjjjjjjjjjjjjjjjjjjjjjjjjjjjjjjjjjjjjjjjjt",
"tjjjjjjjjjjjjjjjjjjjjjjjjjjjjjjjjjjjjjjjjjjjjjjjjjjjjjjjjjjjjjjjjjjjjjjjjjjjjjjjjjjjjjjjjjjjjjjjjjjt",
"tjjjjjjjjjjjjjjjjjjjjjjjjjjjjjjjjjjjjjjjjjjjjjjjjjjjjjjjjjjjjjjjjjjjjjjjjjjjjjjjjjjjjjjjjjjjjjjjjjjt",
"5jjjjjjjjjjjjjjjjjjjjjjjjjjjjjjjjjjjjjjjjjjjjjjjjjjjjjjjjjjjjjjjjjjjjjjjjjjjjjjjjjjjjjjjjjjjjjjjjjjt",
"tjjjjjjjjjjjjjjjjjjjjjjjjjjjjjjjjjjjjjjjjjjjjjjjjjjjjjjjjjjjjjjjjjjjjjjjjjjjjjjjjjjjjjjjjjjjjjjjjjjt",
"tjjjjjjjjjjjjjjjjjjjjjjjjjjjjjjjjjjjjjjjjjjjjjjjjjjjjjjjjjjjjjjjjjjjjjjjjjjjjjjjjjjjjjjjjjjjjjjjjjjt",
"tjjjjjjjjjjjjjjjjjjjjjjjjjjjjjjjjjjjjjjjjjjjjjjjjjjjjjjjjjjjjjjjjjjjjjjjjjjjjjjjjjjjjjjjjjjjjjjjjjjt",
"tjjjjjjjjjjjjjjjjjjjjjjjjjjjjjjjjjjjjjjjjjjjjjjjjjjjjjjjjjjjjjjjjjjjjjjjjjjjjjjjjjjjjjjjjjjjjjjjjjjt",
"tjjjjjjjjjjjjjjjjjjjjjjjjjjjjjjjjjjjjjjjjjjjjjjjjjjjjjjjjjjjjjjjjjjjjjjjjjjjjjjjjjjjjjjjjjjjjjjjjjjt",
"tjjjjjjjjjjjjjjjjjjjjjjjjjjjjjjjjjjjjjjjjjjjjjjjjjjjjjjjjjjjjjjjjjjjjjjjjjjjjjjjjjjjjjjjjjjjjjjjjjj5",
"tjjjjjjjjjjjjjjjjjjjjjjjjjjjjjjjjjjjjjjjjjjjjjjjjjjjjjjjjjjjjjjjjjjjjjjjjjjjjjjjjjjjjjjjjjjjjjjjjjjt",
"tjjjjjjjjjjjjjjjjjjjjjjjjjjjjjjjjjjjjjjjjjjjjjjjjjjjjjjjjjjjjjjjjjjjjjjjjjjjjjjjjjjjjjjjjjjjjjjjjjjt",
"tjjjjjjjjjjjjjjjjjjjjjjjjjjjjjjjjjjjjjjjjjjjjjjjjjjjjjjjjjjjjjjjjjjjjjjjjjjjjjjjjjjjjjjjjjjjjjjjjjjt",
"tjjjjjjjjjjjjjjjjjjjjjjjjjjjjjjjjjjjjjjjjjjjjjjjjjjjjjjjjjjjjjjjjjjjjjjjjjjjjjjjjjjjjjjjjjjjjjjjjjjt",
"tjjjjjjjjjjjjjjjjjjjjjjjjjjjjjjjjjjjjjjjjjjjjjjjjjjjjjjjjjjjjjjjjjjjjjjjjjjjjjjjjjjjjjjjjjjjjjjjjjjt",
"5jjjjjjjjjjjjjjjjjjjjjjjjjjjjjjjjjjjjjjjjjjjjjjjjjjjjjjjjjjjjjjjjjjjjjjjjjjjjjjjjjjjjjjjjjjjjjjjjjjt",
"tjjjjjjjjjjjjjjjjjjjjjjjjjjjjjjjjjjjjjjjjjjjjjjjjjjjjjjjjjjjjjjjjjjjjjjjjjjjjjjjjjjjjjjjjadjjjjjjjj5",
"tjjjjjjjjjjjjjjjjjjjjjjjjjjjjjjjjjjjjjjjjjjjjjjjjjjjjjjjjjjjjjjjjjjjjjjjjjjjjjjjjjjjjjjjj,0jjjjjjjjt",
"tjjjjjjjjjjjjjjjjjjjjjjjjjjjjjjjahjjjjjjjjjjjjjjjjjjjjjjjjjjjjjjjjjjjjjjjjjjjjjjjjjjjjjju+&djjjjjjjt",
"tjjjjjjjjjjjjjjjjjjjjjjjjjjjjjjh,pjjjjjjjjjjjjjjjjjjjjjjjjjjjjjjjjdujjjjjjjjjjjjjjjjjjjh;..6jjjjjjjt",
"tjjjjjjjjjjjjjjjjjjjjjjjjjjjjjju+8jjjjjjjjjjjjjjjjjjjjjjjjjjjjjjjjw>hjjjjjjjjjjjjjjjjjj8...@rjjjjjjt",
"tjjjjjjjjjjjjjjjjjjjjjjjjjjjjjj,.%fjjjjjjjjjjjjjjjjjjjjjjjjjjjjjjh;+pjjjjjjjjjjjjjjjjje+....$pjjjjjt",
"tjjjjjjjjjjjjjjjjjjjjjjjjjjjjjr+.X8jjjjjjjjjjjjjjjjjjjjjjjjjjjjjjrX.<jjjjjjjjjjjjjjjjy@......*djjjjt",
"tjjjjjjjjjjjjjjjjjjjjjjjjjjjjh-...@ijjjjjjjjjjjjjjjjjjjjjjjjjjjjh;..+yjjjjjjjjjjjjjjp%........;hjjjt",
"tjjjjjjjjjjjjjjjjjjjjjjjjjjjj8X....;fjjjjjjjjjjjjjjjjjjjjjjjjjjj0X...-hjjjjjjjjjjjjd*..........,hjjt",
"tjjjjjjjjjjjjjjjjjjjjjjjjjjje+.....X1jjjjjjjjjjjjjjjjjjjjjjjjjju#.....7hjjjjjjjjjjh>...........X9jjt",
"tjjjjjjjjjjjjjjjjjjjjjjjjjjp$.......Xwjjjjjjjjjjjjjjjjjjjjjjjjd*......+wjjjjjjjjjjq.............@pjt",
"5jjjjjjjjjjjjjjjjjjjjjjjjjd=.........#yjjjjjjjjjjjjjjjjjjjjjjh,........$pjjjjjjjjs&..............,jt",
"tjjjjjjjjjjjjjjjjjjjjjjjjh:......o....%pjjjjjjjjjjjjjjjjjjjjj6X.........&djjjjjjjp+..............&ht",
"tjjjjjjjjjjjjjjjjjjjjjjjh<X............*djjjjjjjjjjjjjjjjjjj0X...........;fjjjjjjp+..............&ht",
"tjjjjjjjjjjjjjjjjjjjjjjj8X......o.......;fjjjjjjjjjjjjjjjjjw+.............,hjjjjjf*......=$......<jt",
"tjjjjjjjjjjjjjjjjjjjjjj0X..........o.....,hjjjjjjjjjjjjjjjy#...............6hjjjjje+....@y9.....%ajt",
"tjjjjjjjjjjjjjjjjjjjjje+.................X6jjjjjjjjjjjjjjp$................X0jjjjjje;##*ejh9%@$,pjjt",
"tjjjjjjjjjjjjjjjjjjjjp%...o...............+wjjjjjjjjjjjjd=....o.............+ejjjjjjjddhjjjjhafjjjjt",
"tjjjjjjjjjjjjjjjjjjjf;.....................$pjjjjjjjjjjh,...o................$pjjjjjjjjjjjjjjjjjjjjt",
"tjjjjjjjjjjjjjjjjjjj9X......................:hjjjjjjjjj0X.....o...............;hjjjjjjjjjju0djjjjjjt",
"tjjjjjjjjjjjjjjjjjjd$.......................Xrjjjjjjjja#......................X0jjjjjjjjjj,oujjjjjjt",
"tjjjjjjjjjjjjjjjjjj0.........................,hjjjjjjj1........................%fjjjjjjjjh=@ajjjjjjt",
"tjjjjjjjjjjjjjjjjjj,.........................&hjjjjjjf%........................Xrjjjjjjjjf#&fjjjjjjt",
"5jjjjjjjjjjjjjjjjjj:.........................%fjjjjjjp@.........................8jjjjjjjjrX,jjjjjjjt",
"tjjjjjjjjjjjjjjjjjj<............X............&hjjjjjjp+.........................8jjjjjjjj1.wjjjjjjj5",
"tjjjjjjjjjjjjjjjjjjq............&X...........,jjjjjjjd#............X...........Xqjjjjjjjf%#djjjjjjjt",
"tjjjjjjjjjjjjjjjjjjd$..........+e&..........Xrjjjjjjjh;...........$-...........+pjjjjjjjq.<jjjjjjjjt",
"tjjjjjjjjjjjjjjjjjjj9X.........,j0X.........,hjjjjjjjjwX..........<rX..........>jjjjjjjf*@pjjjjjjjjt",
"tjjjjjjjjjjjjjjjjjjjj6O.......=djh<X.......>fjjjjjjjjjh,.........$ph>.........$pjjjjjjj0X1jjjjjjjjjt",
"tjjjjjjjjjjjjjjjjjjjjjr:#X.X#1djjjh9%X.X@*qhjjjjjjjjjjjf<X......#rjjd;......X*ijjjjjjja#$djjjjjjjjjt",
"tjjjjjjjjjjjjjjjjjjjjjjhayerdjjjjjjjfuerphjjjjjjjjjjjjjjjr,%@@%<pjjjjf9*@@$-0sjjjjjjjh>+ejjjjjjjjjjt",
"tjjjjjjjjjjjjjjjjjjjjjjjjjjjjjjjjjjjjjjjjjjjjjjjjjjjjjjjjjjfdafjjjjjjjjhddfhjjjjjjjjj8X$661668djjjjt",
"tjjjjjjjjjjjjjjjjjjjjjjjjjjjjjjjjjjjjjjjjjjjjjjjjjjjjjjjjjjjjjjjjjjjjjjjjjjjjjjjjjjjj;+XXOoOO@ijjjjt",
"5jjjjjjjjjjjjjjjjjjjjjjjjjjjjjjjjjjjjjjjjjjjjjjjjjjjjjjjjjjjjjjjjjjjjjjjjjjjjjjjjjjjjpuuiiiiiihjjjj5",
"2gjjjjjjjjjjjjjjjjjjjjjjjjjjjjjjjjjjjjjjjjjjjjjjjjjjjjjjjjjjjjjjjjjjjjjjjjjjjjjjjjjjjjjjjjjjjjjjjjg2",
" 4sjjjjjjjjjjjjjjjjjjjjjjjjjjjjjjjjjjjjjjjjjjjjjjjjjjjjjjjjjjjjjjjjjjjjjjjjjjjjjjjjjjjjjjjjjjjjjjg3 ",
"  25tttttttttttttttttttttttttttppttttttttttttttttttttttttttttttttttttttstttttttttttttttttttttttt52  "
};
