/* XPM */
static char *__of_hearts1672178177[] = {
/* columns rows colors chars-per-pixel */
"100 145 44 1 ",
"  c None",
". c #DF0000",
"X c #DF0808",
"o c #E00C0C",
"O c #E11414",
"+ c #E21B1B",
"@ c #E32323",
"# c #E42C2C",
"$ c #E53333",
"% c #E63B3B",
"& c #E74343",
"* c #E84747",
"= c #E84C4C",
"- c #E95454",
"; c #EA5B5B",
": c #EB6363",
"> c #EC6C6C",
", c #ED7474",
"< c #EE7C7C",
"1 c #868686",
"2 c #A7A7A7",
"3 c gray66",
"4 c #B5B5B5",
"5 c #EF8383",
"6 c #F08787",
"7 c #F08B8B",
"8 c #F19393",
"9 c #F29C9C",
"0 c #F3A3A3",
"q c #F4ACAC",
"w c #F5B3B3",
"e c #F6BCBC",
"r c #C2C2C2",
"t c #F7C3C3",
"y c #F8C7C7",
"u c #F8CCCC",
"i c #F9D3D3",
"p c #FADCDC",
"a c #EFEFEF",
"s c #FBE4E4",
"d c #FCEDED",
"f c #F1F1F1",
"g c #FDF4F4",
"h c #FFFFFF",
/* pixels */
"  14rrrrrrrrrrrrrrrrrrrrrrrrrrrrrrrrrrrrrrrrrrrrrrrrrrrrrrrrrrrrrrrrrrrrrrrrrrrrrrrrrrrrrrrrrrrr41  ",
" 3ahhhhhhhhhhhhhhhhhhhhhhhhhhhhhhhhhhhhhhhhhhhhhhhhhhhhhhhhhhhhhhhhhhhhhhhhhhhhhhhhhhhhhhhhhhhhhha2 ",
"1fhhhhhhhddghhhhhhhhhhhhhhhhhhhhhhhhhhhhhhhhhhhhhhhhhhhhhhhhhhhhhhhhhhhhhhhhhhhhhhhhhhhhhhhhhhhhhhf1",
"4hhhhhhp,$@%8ghhhhhhhhhhgspsghhhhhhhhsppghhhhhhhhhhhhhhhhhhhhhhhhhhhhhhhhhhhhhhhhhhhhhhhhhhhhhhhhhh4",
"rhhhhhp&X-5-O>ghhhhhhhp6&@+@=0ghhhhe;#++$,yhhhhhhhhhhhhhhs0,;;<thhhhhgy5;;,0shhhhhhhhhhhhhhhhhhhhhhr",
"rhhhhh<.<ghh5X0hhhhhhq#......X>ghh8O......+6ghhhhhhhhhhg9#X....O,dhhd<O.....#8ghhhhhhhhhhhhhhhhhhhhr",
"rhhhhg$@shhhp+-hhhhheO........X5hwO........X7hhhhhhhhhh5X........,gh<X.......X<ghhhhhhhhhhhhhhhhhhhr",
"rhhhhs@&ghhhg$#dhhhd%..........@u*..........+uhhhhhhhhwo.........XwtX.........oqhhhhhhhhhhhhhhhhhhhr",
"4hhhhd#$dhhhs@+shhhqX...........;O...........<hhhhhhhg=........o..-;........o..&ghhhhhhhhhhhhhhhhhhr",
"rhhhhh;X0hhh8X+phhh<.........o..X............&ghhhhhhi+.....o.....oO.o.........Ouhhhhhhhhhhhhhhhhhhr",
"rhhhhhy@O>8>#++phhh:.........................#dhhhhhheX...............o........Xwhhhhhhhhhhhhhhhhhhr",
"rhhhhhhe&OO%0-@shhh:.........................$dhhhhhhwX.......o.................qhhhhhhhhhhhhhhhhhh4",
"rhhhhhhhgiidg$%ghhh8.........................;hhhhhhhuO.......o.......o........Xyhhhhhhhhhhhhhhhhhhr",
"rhhhhhw8ghhhyX,hhhhi+....o..o.o.............Xqhhhhhhhg&......o.................%dhhhhhhhhhhhhhhhhhhr",
"rhhhhh<.qhhg;Othhhhh,....oo.................*dhhhhhhhh9X......o....o.o.o......X8hhhhhhhhhhhhhhhhhhhr",
"rhhhhhi#+<7*X5ghhhhhp$.......o.............Oehhhhhhhhhg=........o.............*dhhhhhhhhhhhhhhhhhhhr",
"rhhhhhhy-@@%9ghhhhhhheO...................X8hhhhhhhhhhhu@X..........o........@uhhhhhhhhhhhhhhhhhhhhr",
"4hhhhhhhhssghhhhhhhhhh8X..................>ghhhhhhhhhhhhqX.............o....X0hhhhhhhhhhhhhhhhhhhhh4",
"rhhhhhhhhhhhhhhhhhhhhhg,.................-shhhhhhhhhhhhhh5X................X5hhhhhhhhhhhhhhhhhhhhhhr",
"rhhhw,;,ehhd9;;7phhhhhhg:...............%phhhhhhhhhhhhhhhf>.....o..o..o....>ghhhhhhhhhhhhhhhhhhhhhhr",
"rhg5X...O0g-....#thhhhhhs*.............#ihhhhhhhhhhhhhhhhhd;....o.........;dhhhhhhhhhhhhhhhhhhhhhhhr",
"rhwX.....#<X.....&dhhhhhhp%...........@ehhhhhhhhhhhhhhhhhhhs*.......o....*shhhhhhhhhhhhhhhhhhhhhhhhr",
"rh:......XO......Xthhhhhhhy#.........Oqhhhhhhhhhhhhhhhhhhhhhi$..........$ihhhhhhhhhhhhhhhhhhhhhhhhhr",
"rh-..........o...XwhhhhhhhhwO.......X8hhde855wdhhhhhhi9559uhhy+........@yhhhhhhhhhhhhhhhhhhhhhhhhhhr",
"rh,........o.....Ouhhhhhhhhh7X......>gh0%X...X%whhhg<+....O:uh0X......X0hhhhhhhhhhhhhhhhhhhhhhhhhhhr",
"4huO.............;hhhhhhhhhhg:.....%sh<X.......Owhg>........#eh<.....X<hhhhhhhhhhhhhhhhhhhhhhhhhhhhr",
"rhh6...o....o...@ihhhhhhhhhhhp#...Oeh9X.........#s0X.........#pd*..o.*dhhhhhhhhhhhhhhhhhhhhhhhhhhhhr",
"rhhd;..........Oqhhhhhhhhhhhhh0X..<hs$...........7&...........5hyO..Oehhhhhhhhhhhhhhhhhhhhhhhhhhhhhr",
"rhhhp&........o8hhhhhhhhhhhhhhg*.@sheX...........@o...........%gh,..,hhhhhhhhhhhhhhhhhhhhhhhhhhhhhhr",
"rhhhhi#......o<ghhhhhhhhhhhhhhhwX5hh8.........................+phi++ihhhhhhhhhhhhhhhhhhhhhhhhhhhhhhr",
"rhhhhht+X....:fhhhhhhhhhhhhhhhhd=uhh5...............o.........Oihh::hhhhhhhhhhhhhhhhhhhhhhhhhhhhhhhr",
"rhhhhhh0X...&shhhhhhhhhhhhhhhhhhtghh9.........................@phheehhhhhhhhhhhhhhhhhhhhhhhhhhhhhhh4",
"rhhhhhhh,..+uhhhhhhhhhhhhhhhhhhhhhhhyO........................-hhhghhhhhhhhhhhhhhhhhhhhhhhhhhhhhhhhr",
"rhhhhhhhs$.6hhhhhhhhhhhhhhhhhhhhhhhhh;..................o.o..Xwhhhhhhhhhhhhhhhhhhhhhhhhhhhhhhhhhhhhr",
"rhhhhhhhh9$shhhhhhhhhhhhhhhhhhhhhhhhhy+................o.....;ghhhhhhhhhhhhhhhhhhhhhhhhhhhhhhhhhhhhr",
"4hhhhhhhhsqhhhhhhhhhhhhhhhhhhhhhhhhhhh8X....................#ihhhhhhhhhhhhhhhhhhhhhhhhhhhhhhhhhhhhhr",
"rhhhhhhhhhhhhhhhhhhhhhhhhhhhhhhhhhhhhhg:...................Owhhhhhhhhhhhhhhhhhhhhhhhhhhhhhhhhhhhhhhr",
"rhhhhhhhhhhhhhhhhhhhhhhhhhhhhhhhhhhhhhhs&......o..........X7hhhhhhhhhhhhhhhhhhhhhhhhhhhhhhhhhhhhhhh4",
"rhhhhhhhhhhhhhhhhhhhhhhhhhhhhhhhhhhhhhhhi#...............X,ghhhhhhhhhhhhhhhhhhhhhhhhhhhhhhhhhhhhhhhr",
"rhhhhhhhhhhhhhhhhhhhhhhhhhhhhhhhhhhhhhhhhy@...o..........:ghhhhhhhhhhhhhhhhhhhhhhhhhhhhhhhhhhhhhhhhr",
"rhhhhhhhhhhhhhhhhhhhhhhhhhhhhhhhhhhhhhhhhhqO............=dhhhhhhhhhhhhhhhhhhhhhhhhhhhhhhhhhhhhhhhhhr",
"rhhhhhhhhhhhhhhhhhhhhhhhhhhhhhhhhhhhhhhhhhh9X..........%phhhhhhhhhhhhhhhhhhhhhhhhhhhhhhhhhhhhhhhhhhr",
"rhhhhhhhhhhhhhhhhhhhhhhhgsppghhhhhhhhsipdhhh5X........#uhhhhhhhhhhhhhhhhhhhhhhhhhhhhhhhhhhhhhhhhhhhr",
"rhhhhhhhhhhhhhhhhhhhhhp5%+O@&0ghhhhe;@++$>yhg;.......Oqhhs0>--<thhhhhht<;->0phhhhhhhhhhhhhhhhhhhhhhr",
"rhhhhhhhhhhhhhhhhhhhhq#......X>ghg8O......+5gs%.....X6hh9#.....X>dhhd,O.....@8ghhhhhhhhhhhhhhhhhhhhr",
"rhhhhhhhhhhhhhhhhhhhwO.........5hwO........X6htO....;gg5X...o....>gh,....o...X<ghhhhhhhhhhhhhhhhhhhr",
"rhhhhhhhhhhhhhhhhhhd%..........@u&..........Ouh5X..@ihwX.........Xweo.........o0hhhhhhhhhhhhhhhhhhhr",
"4hhhhhhhhhhhhhhhhhhqX...........-O...........<hs$..6hg*.......o...-;...........&ghhhhhhhhhhhhhhhhhhr",
"rhhhhhhhhhhhhhhhhhh,.......o....X............&gh9.#shiO...........OX.....o.....Oihhhhhhhhhhhhhhhhhhr",
"rhhhhhhhhhhhhhhhhhh:....o....................$dhd$5hheX.......o............o.o..whhhhhhhhhhhhhhhhhhr",
"rhhhhhhhhhhhhhhhhhh:........o................$ghh7uhhwX.............o...........qhhhhhhhhhhhhhhhhhhr",
"rhhhhhhhhhhhhhhhhhh8...........o.............;hhhdhhhuO................o.o.....Oyhhhhhhhhhhhhhhhhhh4",
"rhhhhhhhhhhhhhhhhhhi+.......................Xqhhhhhhhg&............o...........%dhhhhhhhhhhhhhhhhhhr",
"rhhhhhhhhhhhhhhhhhhh,.......................&ghhhhhhhh9X......................X8hhhhhhhhhhhhhhhhhhhr",
"rhhhhhhhhhhhhhhhhhhhs$.....................Othhhhhhhhhg=...............o......*dhhhhhhhhhhhhhhhhhhhr",
"rhhhhhhhhhhhhhhhhhhhhe+...................X8hhhhhhhhhhhu@..........oo........@uhhhhhhhhhhhhhhhhhhhhr",
"rhhhhhhhhhhhhhhhhhhhhh8X..................>ghhhhhhhhhhhhqO..................Xqhhhhhhhhhhhhhhhhhhhhhr",
"rhhhhhhhhhhhhhhhhhhhhhg<X................-dhhhhhhhhhhhhhh5X......o.........X5hhhhhhhhhhhhhhhhhhhhhhr",
"rhhhhhhhhhhhhhhhhhhhhhhg:...............&phhhhhhhhhhhhhhhg,................,ghhhhhhhhhhhhhhhhhhhhhhr",
"4hhhhhhhhhhhhhhhhhhhhhhhd=.............#ihhhhhhhhhhhhhhhhhd;.....o........;dhhhhhhhhhhhhhhhhhhhhhhhr",
"rhhhhhhhhhhhhhhhhhhhhhhhhp%...........@thhhhhhhhhhhhhhhhhhhs&....o.......&shhhhhhhhhhhhhhhhhhhhhhhhr",
"rhhhhhhhhhhhhhhhhhhhhhhhhhu#.........Oqhhhhhhhhhhhhhhhhhhhhhp$..........$phhhhhhhhhhhhhhhhhhhhhhhhhr",
"rhhhhhhhhhhhhhhhhhhhhhhhhhhwO.......X8hhhhhhhhhhhhhhhhhhhhhhhy@....o...@yhhhhhhhhhhhhhhhhhhhhhhhhhhr",
"rhhhhhhhhhhhhhhhhhhhhhhhhhhh8X......>ghhhhhhhhhhhhhhhhhhhhhhhh0X.....XX0hhhhhhhhhhhhhhhhhhhhhhhhhhh4",
"rhhhhhhhhhhhhhhhhhhhhhhhhhhhh:.....&shhhhhhhhhhhhhhhhhhhhhhhhhh<......<hhhhhhhhhhhhhhhhhhhhhhhhhhhhr",
"rhhhhhhhhhhhhhhhhhhhhhhhhhhhhs#...Othhhhhhhhhhhhhhhhhhhhhhhhhhhd=....*fhhhhhhhhhhhhhhhhhhhhhhhhhhhhr",
"rhhhhhhhhhhhhhhhhhhhhhhhhhhhhh0X..<hhhhhhhhhhhhhhhhhhhhhhhhhhhhhy+..Oyhhhhhhhhhhhhhhhhhhhhhhhhhhhhhr",
"rhhhhhhhhhhhhhhhhhhhhhhhhhhhhhg=.#phhhhhhhhhhhhhhhhhhhhhhhhhhhhhh,..,hhhhhhhhhhhhhhhhhhhhhhhhhhhhhhr",
"rhhhhhhhhhhhhhhhhhhhhhhhhhhhhhhqX5hhhhhhhhhhhhhhhhhhhhhhhhhhhhhhhi++ihhhhhhhhhhhhhhhhhhhhhhhhhhhhhhr",
"rhhhhhhhhhhhhhhhhhhhhhhhhhhhhhhd-uhhhhhhhhhhhhhhhhhhhhhhhhhhhhhhhh>:hhhhhhhhhhhhhhhhhhhhhhhhhhhhhhh4",
"rhhhhhhhhhhhhhhhhhhhhhhhhhhhhhhhyghhhhhhhhhhhhhhhhhhhhhhhhhhhhhhhheehhhhhhhhhhhhhhhhhhhhhhhhhhhhhhhr",
"4hhhhhhhhhhhhhhhhhhhhhhhhhhhhhhhhhhhhhhhhhhhhhhhhhhhhhhhhhhhhhhhhhhghhhhhhhhhhhhhhhhhhhhhhhhhhhhhhhr",
"rhhhhhhhhhhhhhhhhhhhhhhhhhhhhhhhhhhhhhhhhhhhhhhhhhhhhhhhhhhhhhhhhhhhhhhhhhhhhhhhhhhhhhhhhhhhhhhhhhhr",
"rhhhhhhhhhhhhhhhhhhhhhhhhhhhhhhh0dhhhhhhhhhhhhhhhhhhhhhhhhhhhhhhhhsshhhhhhhhhhhhhhhhhhhhhhhhhhhhhhhr",
"rhhhhhhhhhhhhhhhhhhhhhhhhhhhhhhs%ehhhhhhhhhhhhhhhhhhhhhhhhhhhhhhhh87hhhhhhhhhhhhhhhhhhhhhhhhhhhhhhhr",
"rhhhhhhhhhhhhhhhhhhhhhhhhhhhhhh0.:hhhhhhhhhhhhhhhhhhhhhhhhhhhhhhhg&$dhhhhhhhhhhhhhhhhhhhhhhhhhhhhhhr",
"rhhhhhhhhhhhhhhhhhhhhhhhhhhhhhd%.+yhhhhhhhhhhhhhhhhhhhhhhhhhhhhhhwoX0hhhhhhhhhhhhhhhhhhhhhhhhhhhhhhr",
"rhhhhhhhhhhhhhhhhhhhhhhhhhhhhh8...-ghhhhhhhhhhhhhhhhhhhhhhhhhhhhd&..$shhhhhhhhhhhhhhhhhhhhhhhhhhhhhr",
"rhhhhhhhhhhhhhhhhhhhhhhhhhhhhi@...X0hhhhhhhhhhhhhhhhhhhhhhhhhhhh7X...5hhhhhhhhhhhhhhhhhhhhhhhhhhhhhr",
"rhhhhhhhhhhhhhhhhhhhhhhhhhhhd*.....@yhhhhhhhhhhhhhhhhhhhhhhhhhhy+....Owhhhhhhhhhhhhhhhhhhhhhhhhhhhhr",
"rhhhhhhhhhhhhhhhhhhhhhhhhhhh,X......&shhhhhhhhhhhhhhhhhhhhhhhhs%......$ihhhhhhhhhhhhhhhhhhhhhhhhhhhr",
"rhhhhhhhhhhhhhhhhhhhhhhhhhh9X........:ghhhhhhhhhhhhhhhhhhhhhhg:........-dhhhhhhhhhhhhhhhhhhhhhhhhhhr",
"rhhhhhhhhhhhhhhhhhhhhhhhhhwO.........X<hhhhhhhhhhhhhhhhhhhhhh5X.........,ghhhhhhhhhhhhhhhhhhhhhhhhhr",
"4hhhhhhhhhhhhhhhhhhhhhhhhy@...........X9hhhhhhhhhhhhhhhhhhhh9X..........X6hhhhhhhhhhhhhhhhhhhhhhhhh4",
"rhhhhhhhhhhhhhhhhhhhhhhhi$.............OqhhhhhhhhhhhhhhhhhhqO...o........X0hhhhhhhhhhhhhhhhhhhhhhhhr",
"rhhhhhhhhhhhhhhhhhhhhhhs*...............@thhhhhhhhhhhhhhhht@.......o......+whhhhhhhhhhhhhhhhhhhhhhhr",
"rhhhhhhhhhhhhhhhhhhhhhd;.................#ihhhhhhhhhhhhhhu#................@yhhhhhhhhhhhhhhhhhhhhhhr",
"rhhhhhhhhhhhhhhhhhhhhh,X..................&dhhhhhhhhhhhhs&......o...........$phhhhhhhhhhhhhhhhhhhhhr",
"rhhhhhhhhhhhhhhhhhhhh0X...o....o...........,ghhhhhhhhhhg:....o.....oo...o....-ghhhhhhhhhhhhhhhhhhhhr",
"rhhhhhhhhhhhhhhhhhhhi+......o..............X0hhhhhhhhhh8X..o.................X5hhhhhhhhhhhhhhhhhhhhr",
"rhhhhhhhhhhhhhhhhhhg;...o...................#shhhhhhhhu+.......o..............+yhhhhhhhhhhhhhhhhhhhr",
"rhhhhhhhhhhhhhhhhhhyO......o................X8hhhhhhhh>.....o.....o..o.....o...:hhhhhhhhhhhhhhhhhhhr",
"rhhhhhhhhhhhhhhhhhh5...........oo............-ghhhhhhs@..........o.....oo....o.+phhhhhhhhhhhhhhhhhhr",
"rhhhhhhhhhhhhhhhhhh:.o..o.o........o.........#dhhhhhhtX........o...............Xwhhhhhhhhhhhhhhhhhhr",
"rhhhhhhhhhhhhhhhhhh:...o.o..................X#dhhhhhhw..............o......o.o..qhhhhhhhhhhhhhhhhhhr",
"4hhhhhhhhhhhhhhhhhh5............O............*hhhhhhhyo.o................o.....Xehhhhhhhhhhhhhhhhhh4",
"rhhhhhhhhhhhhhhhhhheX..........X,O...........7hhhhhhhs#...........#$...........@shhhhhhhhhhhhhhhhhhr",
"rhhhhhhhhhhhhhhhhhhg-..........#s;..........@phhhhhhhh<...........57...........,hhhhhhhhhhhhhhhhhhhr",
"rhhhhhhhhhhhhhhhhhhhi#........X0hu@........Oqhhhhhhhhhs%.........#ps$.........$phhhhhhhhhhhhhhhhhhhr",
"rhhhhhhhhhhhhhhhhhhhhu=o.....+8hhhe#......$whhhhhhhhhhhu&.......@ehhe#.......%yhhhhhhhhhhhhhhhhhhhhr",
"rhhhhhhhhhhhhhhhhhhhhhgw,*%*<yhhhhhp6=%&:0shhhhhhhhhhhhhs7&+XX+;uhhhhi;@XX+%6shhhhhhhhhhhhhhhhhhhhhr",
"rhhhhhhhhhhhhhhhhhhhhhhhhggghhhhhhhhhhgghhhhhhhhhhhhhhhhhhfiuyphhhhhhhhputidhhhhhhhhhhhhhhhhhhhhhhh4",
"rhhhhhhhhhhhhhhhhhhhhhhhhhhhhhhhhhhhhhhhhhhhhhhhhhhhhhhhhhhhhhhhhhhhhhhhhhhhhhhhhhhhhhhhhhhhhhhhhhhr",
"rhhhhhhhhhhhhhhhhhhhhhhhhhhhhhhhhhhhhhhhhhhhhhhhhhhhhhhhhhhhhhhhhhhhhhhhhhhhhhhhhhhhhhhhhhhhhhhhhhhr",
"rhhhhhhhhhhhhhhhhhhhhhhhhhhhhhhhhhhhhhhhhhhhhhhhhhhhhhhhhhhhhhhhhhhhhhhhhhhhhhhhhhhhhhhhhhhhhhhhhhhr",
"rhhhhhhhhhhhhhhhhhhhhhhhhhhhhhhhhhhhhhhhhhhhhhhhhhhhhhhhhhhhhhhhhhhhhhhhhhhhhhhhhhhhhhhhhhhhhhhhhhhr",
"rhhhhhhhhhhhhhhhhhhhhhhhhhhhhhhhhhhhhhhhhhhhhhhhhhhhhhhhhhhhhhhhhhhhhhhhhhhhhhhhhhhhhhhhhhhhhhhhhhhr",
"4hhhhhhhhhhhhhhhhhhhhhhhhhhhhhhhhhhhhhhhhhhhhhhhhhhhhhhhhhhhhhhhhhhhhhhhhhhhhhhhhhhhhhhhhhhhhhhhhhhr",
"rhhhhhhhhhhhhhhhhhhhhhhhhhhhhhhhhhhhhhhhhhhhhhhhhhhhhhhhhhhhhhhhhhhhhhhhhhhhhhhhhhhhhhhhhishhhhhhhhr",
"rhhhhhhhhhhhhhhhhhhhhhhhhhhhhhhhhhhhhhhhhhhhhhhhhhhhhhhhhhhhhhhhhhhhhhhhhhhhhhhhhhhhhhhhh>9hhhhhhhhr",
"rhhhhhhhhhhhhhhhhhhhhhhhhhhhhhhhhhhhhhhhhhhhhhhhhhhhhhhhhhhhhhhhhhhhhhhhhhhhhhhhhhhhhhhhuO%shhhhhhhr",
"rhhhhhhhhhhhhhhhhhhhhhhhhhhhhhhhhhhhhhhhhhhhhhhhhhhhhhhhhhhhhhhhhhhhhhhhhhhhhhhhhhhhhhhg-..5hhhhhhhr",
"rhhhhhhhhhhhhhhhhhhhhhhhhhhhhhhhhhhhhhhhhhhhhhhhhhhhhhhhhhhhhhhhhhhhhhhhhhhhhhhhhhhhhhh6X..Oehhhhhhr",
"rhhhhhhhhhhhhhhhhhhhhhhhhhhhhhhhughhhhhhhhhhhhhhhhhhhhhhhhhhhhhhhhgfhhhhhhhhhhhhhhhhhhwO....#ihhhhhr",
"rhhhhhhhhhhhhhhhhhhhhhhhhhhhhhhg;ihhhhhhhhhhhhhhhhhhhhhhhhhhhhhhhhw0hhhhhhhhhhhhhhhhhy@......*shhhhr",
"rhhhhhhhhhhhhhhhhhhhhhhhhhhhhhheX5hhhhhhhhhhhhhhhhhhhhhhhhhhhhhhhh;=ghhhhhhhhhhhhhhhi$........-dhhh4",
"rhhhhhhhhhhhhhhhhhhhhhhhhhhhhhg;.#phhhhhhhhhhhhhhhhhhhhhhhhhhhhhhu+Xthhhhhhhhhhhhhhs&..........>ghhr",
"rhhhhhhhhhhhhhhhhhhhhhhhhhhhhheX..<hhhhhhhhhhhhhhhhhhhhhhhhhhhhhh:..-ghhhhhhhhhhhhg;...........X8hhr",
"rhhhhhhhhhhhhhhhhhhhhhhhhhhhhs%...OyhhhhhhhhhhhhhhhhhhhhhhhhhhhhwX..Xqhhhhhhhhhhhh0X............+uhr",
"4hhhhhhhhhhhhhhhhhhhhhhhhhhhh<.....&shhhhhhhhhhhhhhhhhhhhhhhhhhs%....#phhhhhhhhhhd%..............>hr",
"rhhhhhhhhhhhhhhhhhhhhhhhhhhh0X......>ghhhhhhhhhhhhhhhhhhhhhhhhg>......-dhhhhhhhhhuO..............%gr",
"rhhhhhhhhhhhhhhhhhhhhhhhhhhy+.......X8hhhhhhhhhhhhhhhhhhhhhhhh7X......X5hhhhhhhhhiO......X.......%gr",
"rhhhhhhhhhhhhhhhhhhhhhhhhhp%.........OwhhhhhhhhhhhhhhhhhhhhhhwO........X0hhhhhhhhg%......*#......,hr",
"rhhhhhhhhhhhhhhhhhhhhhhhhs*...........@yhhhhhhhhhhhhhhhhhhhhy@..........OehhhhhhhhwO....+t8X....$phr",
"rhhhhhhhhhhhhhhhhhhhhhhhd:.............$ihhhhhhhhhhhhhhhhhhi$............@yhhhhhhhhe-@@*whg8%+#:ihhr",
"rhhhhhhhhhhhhhhhhhhhhhhg,...............&shhhhhhhhhhhhhhhhp&..............%phhhhhhhhgssfhhhhdpdhhhhr",
"rhhhhhhhhhhhhhhhhhhhhhh7X................-dhhhhhhhhhhhhhhd-................*shhhhhhhhhhhhhhhhhhhhhhr",
"rhhhhhhhhhhhhhhhhhhhhh0X..................>hhhhhhhhhhhhhh>..................;ghhhhhhhhhdq,>8shhhhhhr",
"rhhhhhhhhhhhhhhhhhhhhy@........o....o.....X9hhhhhhhhhhhh8X...................5hhhhhhhhs=X$$O%ihhhhh4",
"rhhhhhhhhhhhhhhhhhhhd%......o..........o...+yhhhhhhhhhheO....................Oqhhhhhhg:X8dg0X:hhhhhr",
"rhhhhhhhhhhhhhhhhhhh5.......................=ghhhhhhhhs%......................#shhhhhyX>ghhh:-dhhhhr",
"4hhhhhhhhhhhhhhhhhhp+.........o.o..o..o.....Xwhhhhhhhh7........................5hhhhh7Xehhhhgghhhhhr",
"rhhhhhhhhhhhhhhhhhh9.........................:hhhhhhhd$...................o....#shhhh:+i0;-<phhhhhhr",
"rhhhhhhhhhhhhhhhhhh:..............o.o.o......$dhhhhhhyO.....................o..oehhhh*+-@%#X$uhhhhhr",
"rhhhhhhhhhhhhhhhhhh:.........................#dhhhhhhwX...................o.....qhhhh*X$ygd7X=ghhhhr",
"rhhhhhhhhhhhhhhhhhh,..........o.X....o.......&ghhhhhheX........................Xehhhg=.9hhhh=Ouhhhhr",
"rhhhhhhhhhhhhhhhhhhqX...........=o...........,hhhhhhhp+...........++...........+ihhhh;Xuhhhh<.ehhhhr",
"rhhhhhhhhhhhhhhhhhhs$..........+t&..........Oyhhhhhhhh:...........:,...........-ghhhh<Xthhhh>Xthhhh4",
"rhhhhhhhhhhhhhhhhhhhqO.........<hqX........X<hhhhhhhhhyO.........Oyu+.........Oehhhhheo<hhhp#@phhhhr",
"rhhhhhhhhhhhhhhhhhhhh9+......X;dhh5O.....XX,dhhhhhhhhhh0+.......X6hh8X.......O9hhhhhhg:O7ie=X5hhhhhr",
"rhhhhhhhhhhhhhhhhhhhhhi,$+X+%8ghhhhq&+OO#;ehhhhhhhhhhhhhe-O...X@9ghhh9#....O=ehhhhhhhhs:++o+<ghhhhhr",
"4hhhhhhhhhhhhhhhhhhhhhhhdiuidhhhhhhhgpyishhhhhhhhhhhhhhhhgy955qshhhhhhsq559ufhhhhhhhhhhhu0qihhhhhhh4",
"1fhhhhhhhhhhhhhhhhhhhhhhhhhhhhhhhhhhhhhhhhhhhhhhhhhhhhhhhhhhhhhhhhhhhhhhhhhhhhhhhhhhhhhhhhhhhhhhhhf1",
" 2fhhhhhhhhhhhhhhhhhhhhhhhhhhhhhhhhhhhhhhhhhhhhhhhhhhhhhhhhhhhhhhhhhhhhhhhhhhhhhhhhhhhhhhhhhhhhhhf2 ",
"  14rrrrrrrrrrrrrrrrrrrrrrrrrrrrirrrrrrrrrrrrrrrrrrrrrrrrrrrrrrrrrrrrrrarrrrrrrrrrrrrrrrrrrrrrrr41  "
};
