/* XPM */
static char *__of_diamonds1672178124[] = {
/* columns rows colors chars-per-pixel */
"100 145 47 1 ",
"  c None",
". c #DF0000",
"X c #DF0909",
"o c #E00C0C",
"O c #E11313",
"+ c #E21B1B",
"@ c #E32424",
"# c #E42B2B",
"$ c #E53434",
"% c #E63C3C",
"& c #E74444",
"* c #E84747",
"= c #E74848",
"- c #E84A4A",
"; c #E95454",
": c #EA5B5B",
"> c #EB6363",
", c #EC6C6C",
"< c #ED7474",
"1 c #EE7C7C",
"2 c #868686",
"3 c #A7A7A7",
"4 c gray66",
"5 c #B5B5B5",
"6 c #EF8484",
"7 c #F08787",
"8 c #F08C8C",
"9 c #F19494",
"0 c #F29C9C",
"q c #F3A4A4",
"w c #F4ABAB",
"e c #F5B4B4",
"r c #F6BBBB",
"t c #F8BABA",
"y c #C2C2C2",
"u c #C4C8C8",
"i c #F7C3C3",
"p c #F8C5C5",
"a c #F8CCCC",
"s c #F9D4D4",
"d c #FADBDB",
"f c #EFEFEF",
"g c #FBE4E4",
"h c #FCEBEB",
"j c #F1F1F1",
"k c #FDF4F4",
"l c #FFFFFF",
/* pixels */
"  25yyyyyyyyyyyyyyyyyyyyyyyyyyyyyyyyyyyyyyyyyyyyyyyyyyyyyyyyyyyyyyyyyyyyyyyyyyyyyyyyyyyyyyyyyyyy52  ",
" 4fllllllkkklllllllllllllllllllllllllllllllllllllllllllllllllllllllllllllllllllllllllllllllllllllf3 ",
"2jllllld<$#=qkllllllllllllllllllllllllllllllllllllllllllllllllllllllllllllllllllllllllllllllllllllj2",
"5llllld$O>1$o9lllllllllllllllllllllllllllllllllllllllllllllllllllllllllllllllllllllllllllllllllllll5",
"yllllk>owlld#+glllllllllllllllllllllllllllllllllllllllllllllllllllllllllllllllllllllllllllllllllllly",
"yllllsO>klllw1dlllllllllllllllllllllllllllllllllllllllllllllllllllllllllllllllllllllllllllllllllllly",
"yllllqXwlgdhllllllllllllllllllllllllllllllllllllllllllllllllllllllllllllllllllllllllllllllllllllllly",
"yllll7ow1#+#9kllllllllllllllllllllllllllllllllllllllllllllllllllllllllllllllllllllllllllllllllllllly",
"yllll<X$#<1$X1klllllllllllllllllllllllllllllllllllllllllllllllllllllllllllllllllllllllllllllllllllly",
"yllll,.#allg%Oslllllllllllllllllllllllllllllllllllllllllllllllllllllllllllllllllllllllllllllllllllly",
"yllll<.6llll9.0llllllllllllllllllllllllllllllllllllllllllllllllllllllllllllllllllllllllllllllllllll5",
"5llll8.0lllle.7llllllllllllllllllllllllllllllllllllllllllllllllllllllllllllllllllllllllllllllllllllu",
"ulllltX<llll0.qlllllllllllllllllllllllllllllllllllllllllllllllllllllllllllllllllllllllllllllllllllly",
"yllllh$@sllg%+dlllllllllllllllllllllllllllllllllllllllllllllllllllllllllllllllllllllllllllllllllllly",
"ylllllwO#79&X9llllllllllllllllllliklllllllllllllllllllllllllllllladlllllllllllllllllllllllllllllllly",
"ylllllle=++%0klllllllllllllllllls$alllllllllllllllllllllllllllllk;<lllllllllllllllllllllllllllllllly",
"ylllllllkddhllllllllllllllllllll1.,lllllllllllllllllllllllllllllio@dlllllllllllllllllllllllllllllllu",
"yllllllllgilllllllllllllllllllls@.+alllllllllllllllllllllllllllk:..6lllllllllllllllllllllllllllllll5",
"yllllllll6=kllllllllllllllllllk<...>klllllllllllllllllllllllllleo..+slllllllllllllllllllllllllllllly",
"5llllllld#XwllllllllllllllllllpO...oilllllllllllllllllllllllllh=....,kllllllllllllllllllllllllllllly",
"ulllllll<..%hllllllllllllllllk-.....=hlllllllllllllllllllllllk9X....Otllllllllllllllllllllllllllllly",
"ylllllleO...1klllllllllllllll0X...o.X9llllllllllllllllllllllls@......%glllllllllllllllllllllllllllly",
"yllllld$....Oelllllllllllllla@.......+plllllllllllllllllllllk;.......X1kllllllllllllllllllllllllllly",
"yllllh;......@allllllllllllh=.........&glllllllllllllllllllk6X........Xwllllllllllllllllllllllllllly",
"ylllh:........$allllllllllk,...........>kllllllllllllllllllwO..........@pllllllllllllllllllllllllll5",
"ylld;..........#tklllllllk6X.....oo....X1kllllllllllllllllt+........o...$sllllllllllllllllllllllllly",
"yll1............&hllllllk9X.............X6klllllllllllllli@..............%slllllllllllllllllllllllly",
"5llg,X.........%allllllk8X........o..o...X6kllllllllllllt@..........o.....%sllllllllllllllllllllllly",
"ylllk<X.......&dllllllk1o.o...............X1kllllllllllw@....o.............$illlllllllllllllllllllly",
"yllllk>......$sllllllg>X...........o........:dlllllllk9O..........o..o.o....@wklllllllllllllllllllly",
"ylllllh&....+illlllll7.......................6llllllls@..............o.......%glllllllllllllllllllly",
"ylllllli+..X8llllllllh1o..o..o.............X<hlllllllki#..o..o..............=slllllllllllllllllllllu",
"ylllllll6..=hlllllllllk9O........o........X9klllllllllls&.................X:glllllllllllllllllllllly",
"5lllllllg$Xtllllllllllll0O...............O0klllllllllllld&................>hllllllllllllllllllllllly",
"yllllllll9:klllllllllllllqO......oo.....X0llllllllllllllld=..............>hlllllllllllllllllllllllly",
"yllllllllgslllllllllllllll0X...........X9llllllllllllllllld%............:hllllllllllllllllllllllllly",
"ylllllllllllllllllllllllllk6.......o...1klllllllllllllllllla@..........%glllllllllllllllllllllllllly",
"yllllllllllllllllllllllllllk:....o....;hllllllllllllllllllllwX........@plllllllllllllllllllllllllllu",
"yllllllllllllllllllllllllllld#.......#sllllllllllllllllllllll<.......X0llllllllllllllllllllllllllll5",
"5llllllllllllllllllllllllllllqX..o..X0lllllllllllllllllllllllh%..o...:klllllllllllllllllllllllllllly",
"yllllllllllllllllllllllllllllk>.....:klllllllllllllllllllllllleX....@sllllllllllllllllllllllllllllly",
"yllllllllllllllllllllllllllllla+...Oalllllllllllllllllllllllllk>....6lllllllllllllllllllllllllllllly",
"yllllllllllllllllllllllllllllll1...<klllllllllllllllllllllllllla+..$glllllllllllllllllllllllllllllly",
"ylllllllllllllllllllllllllllllld#.@dllllllllllllllllllllllllllll<.X0llllllllllllllllllllllllllllllly",
"ylllllllllllllllllllllllllllllll6.1llllllllllllllllllllllllllllls+$hlllllllllllllllllllllllllllllll5",
"5llllllllllllllllllllllllllllllld&sllllllllllllllllllllllllllllll<9lllllllllllllllllllllllllllllllly",
"yllllllllllllllllllllllllllllllllakllllllllllllllllllllllllllllllghlllllllllllllllllllllllllllllllly",
"ylllllllllllllllllllllllllllllllllllllllllllllllllllllllllllllllllllllllllllllllllllllllllllllllllly",
"ylllllllllllllllllllllllllllllllllllllllllllllllllllllllllllllllllllllllllllllllllllllllllllllllllly",
"ylllllllllllllllllllllllllllllllllllllllllllllllllllllllllllllllllllllllllllllllllllllllllllllllllly",
"ylllllllllllllllllllllllllllllllllllllllllllllllllllllllllllllllllllllllllllllllllllllllllllllllllly",
"5llllllllllllllllllllllllllllllllllllllllllllllllllllllllllllllllllllllllllllllllllllllllllllllllllu",
"ylllllllllllllllllllllllllllllllllllllllllllllllllllllllllllllllllllllllllllllllllllllllllllllllllly",
"ylllllllllllllllllllllllllllllllllllllllllllllllllllllllllllllllllllllllllllllllllllllllllllllllllly",
"ylllllllllllllllllllllllllllllllllllllllllllllllllllllllllllllllllllllllllllllllllllllllllllllllllly",
"yllllllllllllllllllllllllllllllllklllllllllllllllllllllllllllllllkklllllllllllllllllllllllllllllllly",
"ylllllllllllllllllllllllllllllllk8hllllllllllllllllllllllllllllllqtlllllllllllllllllllllllllllllllly",
"5llllllllllllllllllllllllllllllltOelllllllllllllllllllllllllllllh$;klllllllllllllllllllllllllllllllu",
"yllllllllllllllllllllllllllllllk;.-kllllllllllllllllllllllllllll0XOilllllllllllllllllllllllllllllll5",
"ylllllllllllllllllllllllllllllleO.Xwlllllllllllllllllllllllllllh$..:klllllllllllllllllllllllllllllly",
"ylllllllllllllllllllllllllllllk&...%jllllllllllllllllllllllllll8X..Xelllllllllllllllllllllllllllllly",
"ylllllllllllllllllllllllllllllqX...X9llllllllllllllllllllllllld@....&hllllllllllllllllllllllllllllly",
"ylllllllllllllllllllllllllllld#.....#slllllllllllllllllllllllk,.....X7llllllllllllllllllllllllllllly",
"5lllllllllllllllllllllllllllk,.......>kllllllllllllllllllllllwo......+alllllllllllllllllllllllllllly",
"ylllllllllllllllllllllllllllqo.......X0llllllllllllllllllllld#........=hllllllllllllllllllllllllllly",
"ylllllllllllllllllllllllllla@.........+illlllllllllllllllllh;..........<klllllllllllllllllllllllllly",
"ylllllllllllllllllllllllllg%...........$dlllllllllllllllllk<..o........o9lllllllllllllllllllllllllly",
"yllllllllllllllllllllllllg-...o.........=glllllllllllllllk6X............Oqllllllllllllllllllllllllly",
"ylllllllllllllllllllllllg;....o..........-glllllllllllllk6X..............Oqllllllllllllllllllllllllu",
"5llllllllllllllllllllllg-.................=dlllllllllllk6X...oo...o..o.o..O0lllllllllllllllllllllll5",
"yllllllllllllllllllllls&...................%alllllllllh<X............o.....O8kllllllllllllllllllllly",
"ylllllllllllllllllllle#.....................@elllllllg-.....................X,hlllllllllllllllllllly",
"yllllllllllllllllllllqO.....................O0llllllld-.....................X>hlllllllllllllllllllly",
"ylllllllllllllllllllllt#...................@elllllllllh,X..................X6kllllllllllllllllllllly",
"ylllllllllllllllllllllla$.................$plllllllllllk1X.......o........O0klllllllllllllllllllllly",
"5llllllllllllllllllllllla%...............$alllllllllllllk6X..............O0lllllllllllllllllllllllly",
"ylllllllllllllllllllllllls$..........o..$alllllllllllllllk6X............Oqlllllllllllllllllllllllll5",
"yllllllllllllllllllllllllla#...........@plllllllllllllllllk,.....oo....X8kllllllllllllllllllllllllly",
"ylllllllllllllllllllllllllleO.........Owlllllllllllllllllllh-..........,klllllllllllllllllllllllllly",
"ylllllllllllllllllllllllllll7X...o...X6klllllllllllllllllllls#...o....&hllllllllllllllllllllllllllly",
"ylllllllllllllllllllllllllllk;...o...=kllllllllllllllllllllllwo..o...+alllllllllllllllllllllllllllly",
"5lllllllllllllllllllllllllllla+.....+alllllllllllllllllllllllk>......7llllllllllllllllllllllllllllly",
"ylllllllllllllllllllllllllllll8.....6klllllllllllllllllllllllls@....%hllllllllllllllllllllllllllllly",
"ylllllllllllllllllllllllllllllh$...$gllllllllllllllllllllllllll8...Xwllllllllllllllllllllllllllllllu",
"yllllllllllllllllllllllllllllllqX.X0lllllllllllllllllllllllllllg$..;klllllllllllllllllllllllllllllly",
"yllllllllllllllllllllllllllllllk&.%hllllllllllllllllllllllllllll0XOillllllllllllllllllllllllllllllly",
"ylllllllllllllllllllllllllllllllwX0lllllllllllllllllllllllllllllh#;kllllllllllllllllllllllllllllllly",
"5lllllllllllllllllllllllllllllllh<hllllllllllllllllllllllllllllll0elllllllllllllllllllllllllllllllly",
"yllllllllllllllllllllllllllllllllhlllllllllllllllllllllllllllllllkklllllllllllllllllllllllllllllllly",
"yllllllllllllllllllllllllllllllllllllllllllllllllllllllllllllllllllllllllllllllllllllllllllllllllllu",
"yllllllllllllllllllllllllllllllllllllllllllllllllllllllllllllllllllllllllllllllllllllllllllllllllll5",
"ylllllllllllllllllllllllllllllllllllllllllllllllllllllllllllllllllllllllllllllllllllllllllllllllllly",
"ylllllllllllllllllllllllllllllllllllllllllllllllllllllllllllllllllllllllllllllllllllllllllllllllllly",
"5lllllllllllllllllllllllllllllllllllllllllllllllllllllllllllllllllllllllllllllllllllllllllllllllllly",
"ylllllllllllllllllllllllllllllllllllllllllllllllllllllllllllllllllllllllllllllllllllllllllllllllllly",
"ylllllllllllllllllllllllllllllllllllllllllllllllllllllllllllllllllllllllllllllllllllllllllllllllllly",
"yllllllllllllllllllllllllllllllllllllllllllllllllllllllllllllllllllllllllllllllllllllllllllllllllll5",
"ylllllllllllllllllllllllllllllllllllllllllllllllllllllllllllllllllllllllllllllllllllllllllllllllllly",
"yllllllllllllllllllllllllllllllllglllllllllllllllllllllllllllllllhklllllllllllllllllllllllllllllllly",
"5lllllllllllllllllllllllllllllllg>gllllllllllllllllllllllllllllll10lllllllllllllllllllllllllllllllly",
"ylllllllllllllllllllllllllllllll0X9llllllllllllllllllllllllllllld@%kllllllllllllllllllllllllllllllly",
"yllllllllllllllllllllllllllllllh%.$hllllllllllllllllllllllllllll6.Xqllllllllllllllllllllllllllllllly",
"yllllllllllllllllllllllllllllll0X..9llllllllllllllllllllllllllls@..%hlllllllllllllllllllllllllllllly",
"ylllllllllllllllllllllllllllllg#...#dllllllllllllllllllllllllll,....9llllllllllllllllllllllllllllllu",
"ylllllllllllllllllllllllllllll1.....<llllllllllllllllllllllllliO....#dllllllllllllllllllllllllllllly",
"5llllllllllllllllllllllllllllp+.....Orlllllllllllllllllllllllj*......,klllllllllllllllllllllllllllly",
"ylllllllllllllllllllllllllllh=.......&gllllllllllllllllllllll6X......Xwlllllllllllllllllllllllllllly",
"yllllllllllllllllllllllllllk1.........<klllllllllllllllllllltO........#sllllllllllllllllllllllllllly",
"yllllllllllllllllllllllllllqO.........X0llllllllllllllllllld#..........-jlllllllllllllllllllllllllly",
"ylllllllllllllllllllllllllr+...........+tlllllllllllllllllg=...........X>klllllllllllllllhdllllllllu",
"ylllllllllllllllllllllllla#.............@illlllllllllllllh:.............X<kllllllllllllll9>klllllll5",
"5lllllllllllllllllllllllp#...............#rlllllllllllllg:...............X<kllllllllllllg$Orllllllly",
"yllllllllllllllllllllllr#........o..o..o..@elllllllllllg;....o............X,kllllllllllk8..;klllllly",
"yllllllllllllllllllllkq@...................+qklllllllla&.......o..o..oo.....:dllllllllla+..X9lllllly",
"yllllllllllllllllllll0X.........o..o........X9llllllls#....o.................&glllllllh=....@allllly",
"yllllllllllllllllllllp%.............o..o....$rlllllllh1X.....o...o....o..o..O0kllllllk,......%dlllly",
"yllllllllllllllllllllld;...................-dlllllllllk0O...o..o.o..o.o....@tlllllllk1X.......=gllly",
"5llllllllllllllllllllllh>.................;gllllllllllllw+................#illlllllh<X.........=slly",
"ylllllllllllllllllllllllh>...............:hllllllllllllllw+........o.....#allllllll1............=hly",
"yllllllllllllllllllllllllh:.............;hllllllllllllllllwO.....o..o...@allllllllls=..........#ekly",
"ylllllllllllllllllllllllllg=...........&gllllllllllllllllll0X..........Otlllllllllllg;........#pllly",
"ylllllllllllllllllllllllllls#.........#alllllllllllllllllllk<.........X0lllllllllllllg=......@plllly",
"yllllllllllllllllllllllllllleO.......Xwlllllllllllllllllllllj&........>klllllllllllllls#....Owllllly",
"5lllllllllllllllllllllllllllk<.......,kllllllllllllllllllllllp+......$glllllllllllllllleX...1kllllly",
"yllllllllllllllllllllllllllllg$.....#gllllllllllllllllllllllll6.....Xwlllllllllllllllllk,..%glllllly",
"ylllllllllllllllllllllllllllllwX...Xqlllllllllllllllllllllllllh%....:klllllllllllllllllld@Xqlllllll5",
"ylllllllllllllllllllllllllllllk;...=kllllllllllllllllllllllllllwX..Oallllllllllllllllllll1&kllllllly",
"ylllllllllllllllllllllllllllllliOXXelllllllllllllllllllllllllllk-..<llllllllllllllllllllldrlllllllly",
"yllllllllllllllllllllllllllllllk>.;klllllllllllllllllllllllllllleX+sllllllllllllllllllllllllllllllly",
"5llllllllllllllllllllllllllllllli+tlllllllllllllllllllllllllllllk=<llllllllllllllllllllg8;;7dllllll5",
"ylllllllllllllllllllllllllllllllk0klllllllllllllllllllllllllllllltsllllllllllllllllllls$X&&O$pllllly",
"yllllllllllllllllllllllllllllllllklllllllllllllllllllllllllllllllllllllllllllllllllllk;Xwkke+%hlllly",
"yllllllllllllllllllllllllllllllllllllllllllllllllllllllllllllllllllllllllllllllllllllaO>klll1Xelllly",
"yllllllllllllllllllllllllllllllllllllllllllllllllllllllllllllllllllllllllllllllllllllw.8lllle.<lllly",
"yllllllllllllllllllllllllllllllllllllllllllllllllllllllllllllllllllllllllllllllllllllw.7llllw.:lllly",
"5llllllllllllllllllllllllllllllllllllllllllllllllllllllllllllllllllllllllllllllllllllsO&kllk,.;kllly",
"yllllllllllllllllllllllllllllllllllllllllllllllllllllllllllllllllllllllllllllllllllllk,X:pp<+X-klllu",
"ylllllllllllllllllllllllllllllllllllllllllllllllllllllllllllllllllllllllllllllllllllllg>ooO#9+:llll5",
"yllllllllllllllllllllllllllllllllllllllllllllllllllllllllllllllllllllllllllllllllllllllki0wdso<lllly",
"yllllllllllllllllllllllllllllllllllllllllllllllllllllllllllllllllllllllllllllllllllllkpsllll0.wlllly",
"yllllllllllllllllllllllllllllllllllllllllllllllllllllllllllllllllllllllllllllllllllllh$$hllh%@glllly",
"5llllllllllllllllllllllllllllllllllllllllllllllllllllllllllllllllllllllllllllllllllllk1.>rr-o9lllll5",
"2jllllllllllllllllllllllllllllllllllllllllllllllllllllllllllllllllllllllllllllllllllllh<+OO#9kllllj2",
" 4fllllllllllllllllllllllllllllklllllllllllllllllllllllllllllllllllllllllllllllkllllllllstrglllllj3 ",
"  25yuyyyuyyyyyyyyyuuyuyuyuyyyyuyyyuyyyyuyuyuyuuyuyyyyuyyyyyyyyyyyyuyyyyyyyuyuyyyuyyuyuyyuuuyyyy52  "
};
