/* XPM */
static char *__of_diamonds1672178178[] = {
/* columns rows colors chars-per-pixel */
"100 145 45 1 ",
"  c None",
". c #DF0000",
"X c #DF0808",
"o c #E00C0C",
"O c #E11313",
"+ c #E21C1C",
"@ c #E32323",
"# c #E42C2C",
"$ c #E53333",
"% c #E63B3B",
"& c #E74444",
"* c #E84B4B",
"= c #E95353",
"- c #EA5C5C",
"; c #EB6363",
": c #EC6B6B",
"> c #ED7474",
", c #EE7B7B",
"< c #868686",
"1 c #A7A7A7",
"2 c gray66",
"3 c #B5B5B5",
"4 c #EF8383",
"5 c #F08787",
"6 c #F08C8C",
"7 c #F19494",
"8 c #F29B9B",
"9 c #F3A4A4",
"0 c #F4ACAC",
"q c #F5B3B3",
"w c #F6BCBC",
"e c #F8BABA",
"r c #C2C2C2",
"t c #C4C8C8",
"y c #F7C3C3",
"u c #F9C4C4",
"i c #F8CBCB",
"p c #F9D3D3",
"a c #FADCDC",
"s c #EFEFEF",
"d c #FBE4E4",
"f c #FCEBEB",
"g c #F1F1F1",
"h c #FDF4F4",
"j c #FFFFFF",
/* pixels */
"  <3rrrrrrrrrrrrrrrrrrrrrrrrrrrrrrrrrrrrrrrrrrrrrrrrrrrrrrrrrrrrrrrrrrrrrrrrrrrrrrrrrrrrrrrrrrrr3<  ",
" 2sjjjjjjhhjjjjjjjjjjjjjjjjjjjjjjjjjjjjjjjjjjjjjjjjjjjjjjjjjjjjjjjjjjjjjjjjjjjjjjjjjjjjjjjjjjjjjjs1 ",
"<gjjjjjw-##;yjjjjjjjjjjjjjjjjjjjjjjjjjjjjjjjjjjjjjjjjjjjjjjjjjjjjjjjjjjjjjjjjjjjjjjjjjjjjjjjjjjjjjg<",
"3jjjjjqO@>:++wjjjjjjjjjjjjjjjjjjjjjjjjjjjjjjjjjjjjjjjjjjjjjjjjjjjjjjjjjjjjjjjjjjjjjjjjjjjjjjjjjjjjj3",
"rjjjjh&+ujjwO=hjjjjjjjjjjjjjjjjjjjjjjjjjjjjjjjjjjjjjjjjjjjjjjjjjjjjjjjjjjjjjjjjjjjjjjjjjjjjjjjjjjjjr",
"rjjjjd@%hjjh$@fjjjjjjjjjjjjjjjjjjjjjjjjjjjjjjjjjjjjjjjjjjjjjjjjjjjjjjjjjjjjjjjjjjjjjjjjjjjjjjjjjjjjr",
"rjjjjf%@ajja+&hjjjjjjjjjjjjjjjjjjjjjjjjjjjjjjjjjjjjjjjjjjjjjjjjjjjjjjjjjjjjjjjjjjjjjjjjjjjjjjjjjjjjr",
"rjjjjj0+*99*+0jjjjjjjjjjjjjjjjjjjjjjjjjjjjjjjjjjjjjjjjjjjjjjjjjjjjjjjjjjjjjjjjjjjjjjjjjjjjjjjjjjjjjr",
"rjjjjjf;.Xo.:hjjjjjjjjjjjjjjjjjjjjjjjjjjjjjjjjjjjjjjjjjjjjjjjjjjjjjjjjjjjjjjjjjjjjjjjjjjjjjjjjjjjjjr",
"rjjjjh-O>ww:O:hjjjjjjjjjjjjjjjjjjjjjjjjjjjjjjjjjjjjjjjjjjjjjjjjjjjjjjjjjjjjjjjjjjjjjjjjjjjjjjjjjjjjr",
"rjjjj0o:hjjh;.wjjjjjjjjjjjjjjjjjjjjjjjjjjjjjjjjjjjjjjjjjjjjjjjjjjjjjjjjjjjjjjjjjjjjjjjjjjjjjjjjjjjjr",
"rjjjj,.qjjjjq.4jjjjjjjjjjjjjjjjjjjjjjjjjjjjjjjjjjjjjjjjjjjjjjjjjjjjjjjjjjjjjjjjjjjjjjjjjjjjjjjjjjjj3",
"3jjjj5o9jjjj0.6jjjjjjjjjjjjjjjjjjjjjjjjjjjjjjjjjjjjjjjjjjjjjjjjjjjjjjjjjjjjjjjjjjjjjjjjjjjjjjjjjjjjr",
"rjjjjyo*fjjf=Xyjjjjjjjjjjjjjjjjjyjjjjjjjjjjjjjjjjjjjjjjjjjjjjjjjjjidjjjjjjjjjjjjjjjjjjjjjjjjjjjjjjjr",
"rjjjjh>o*77*X>hjjjjjjjjjjjjjjjja%ujjjjjjjjjjjjjjjjjjjjjjjjjjjjjjjh=4jjjjjjjjjjjjjjjjjjjjjjjjjjjjjjjr",
"rjjjjjh6$++%7hjjjjjjjjjjjjjjjjj4.:jjjjjjjjjjjjjjjjjjjjjjjjjjjjjjjwo#djjjjjjjjjjjjjjjjjjjjjjjjjjjjjjr",
"rjjjjjjjhaahjjjjjjjjjjjjjjjjjja#.+ijjjjjjjjjjjjjjjjjjjjjjjjjjjjjh=..6jjjjjjjjjjjjjjjjjjjjjjjjjjjjjjt",
"rjjjjjjjjdyjjjjjjjjjjjjjjjjjjj,...;hjjjjjjjjjjjjjjjjjjjjjjjjjjjjqo..#ajjjjjjjjjjjjjjjjjjjjjjjjjjjjj3",
"rjjjjjjjj4&hjjjjjjjjjjjjjjjjjp+...Owjjjjjjjjjjjjjjjjjjjjjjjjjjjf&....>jjjjjjjjjjjjjjjjjjjjjjjjjjjjjr",
"rjjjjjjja@X0jjjjjjjjjjjjjjjjh-.....*fjjjjjjjjjjjjjjjjjjjjjjjjjj6.....Oyjjjjjjjjjjjjjjjjjjjjjjjjjjjjr",
"rjjjjjjj>..%djjjjjjjjjjjjjjj9X......6jjjjjjjjjjjjjjjjjjjjjjjjjp@......*fjjjjjjjjjjjjjjjjjjjjjjjjjjjr",
"rjjjjjjqO...,jjjjjjjjjjjjjja#.......+ujjjjjjjjjjjjjjjjjjjjjjjf=.......X4jjjjjjjjjjjjjjjjjjjjjjjjjjjr",
"rjjjjja$....Oqjjjjjjjjjjjjh=.........%djjjjjjjjjjjjjjjjjjjjjj4X........Oqjjjjjjjjjjjjjjjjjjjjjjjjjjr",
"3jjjjf=......@ijjjjjjjjjjh,...........;hjjjjjjjjjjjjjjjjjjjj0X..........#pjjjjjjjjjjjjjjjjjjjjjjjjjr",
"rjjjf-........$ijjjjjjjjj7X......o..o..,jjjjjjjjjjjjjjjjjjjw+........o...%djjjjjjjjjjjjjjjjjjjjjjjj3",
"rjja=..........#whjjjjjj8O.............o4hjjjjjjjjjjjjjjjjy@..............*ajjjjjjjjjjjjjjjjjjjjjjjr",
"rjj,............&fjjjjj7X.......o..o....X4hjjjjjjjjjjjjjjw@................&ajjjjjjjjjjjjjjjjjjjjjjr",
"rjjd:X.........%ijjjjh6O...............o.X,hjjjjjjjjjjjj0@..........o..o....&ijjjjjjjjjjjjjjjjjjjjjr",
"rjjjg>........&ajjjjf>........o...o.......X-ajjjjjjjjjh7O............o.......#wjjjjjjjjjjjjjjjjjjjjr",
"rjjjjh:......$pjjjjj7....o...........o......>jjjjjjjjjy+...........o..........&djjjjjjjjjjjjjjjjjjjr",
"rjjjjjf&....+yjjjjjjf,o....oo..o.oo..o....X;djjjjjjjjjjq@..............o.....&pjjjjjjjjjjjjjjjjjjjjr",
"rjjjjjju+..X6jjjjjjjjh7o.o...............o4gjjjjjjjjjjjji$...........o......-djjjjjjjjjjjjjjjjjjjjjt",
"rjjjjjjj4..*hjjjjjjjjjh9O...............X6hjjjjjjjjjjjjjji%................;fjjjjjjjjjjjjjjjjjjjjjjr",
"rjjjjjjjd$Xwjjjjjjjjjjjj9O.............X7hjjjjjjjjjjjjjjjjp%..............;fjjjjjjjjjjjjjjjjjjjjjjjr",
"rjjjjjjjj7=hjjjjjjjjjjjjj8X............4hjjjjjjjjjjjjjjjjjjp#............-fjjjjjjjjjjjjjjjjjjjjjjjjr",
"3jjjjjjjjdpjjjjjjjjjjjjjjj4.....o.....:hjjjjjjjjj9ijjjjjjjjjy+..........&djjjjjjjjjjjjjjjjjjjjjjjjjr",
"tjjjjjjjjjjjjjjjjjjjjjjjjjh=.........&djjjjjjjjjd#>jjjjjjjjjj8X........@ijjjjjjjjjjjjjjjjjjjjjjjjjjt",
"rjjjjjjjjjjjjjjjjjjjjjjjjjja#.......+ijjjjjjjjjj7.@ajjjjjjjjjj:.......X9jjjjjjjjjjjjjjjjjjjjjjjjjjj3",
"rjjjjjjjjjjjjjjjjjjjjjjjjjjj0X..o...7jjjjjjjjjjd$..>jjjjjjjjjja#......-hjjjjjjjjjjjjjjjjjjjjjjjjjjjr",
"rjjjjjjjjjjjjjjjjjjjjjjjjjjjj-.....*hjjjjjjjjjh4...+ijjjjjjjjjj0o....@pjjjjjjjjjjjjjjjjjjjjjjjjjjjjr",
"rjjjjjjjjjjjjjjjjjjjjjjjjjjjjp+...Oyjjjjjjjjjjp@....;hjjjjjjjjjh=....6jjjjjjjjjjjjjjjjjjjjjjjjjjjjjr",
"rjjjjjjjjjjjjjjjjjjjjjjjjjjjjj4...;hjjjjjjjjjh-.....o0jjjjjjjjjjyO..%djjjjjjjjjjjjjjjjjjjjjjjjjjjjjr",
"rjjjjjjjjjjjjjjjjjjjjjjjjjjjjja#.+ijjjjjjjjjj9X......$djjjjjjjjjh:..8jjjjjjjjjjjjjjjjjjjjjjjjjjjjjjr",
"rjjjjjjjjjjjjjjjjjjjjjjjjjjjjjj6.:jjjjjjjjjjp@........;hjjjjjjjjjiO%fjjjjjjjjjjjjjjjjjjjjjjjjjjjjjjr",
"rjjjjjjjjjjjjjjjjjjjjjjjjjjjjjja&ijjjjjjjjjf*.........X7jjjjjjjjjh;8jjjjjjjjjjjjjjjjjjjjjjjjjjjjjjj3",
"rjjjjjjjjjjjjjjjjjjjjjjjjjjjjjjjihjjjjjjjjh:...........Oqjjjjjjjjjafjjjjjjjjjjjjjjjjjjjjjjjjjjjjjjjr",
"rjjjjjjjjjjjjjjjjjjjjjjjjjjjjjjjjjjjjjjjjh4X............@yjjjjjjjjjjjjjjjjjjjjjjjjjjjjjjjjjjjjjjjjjr",
"3jjjjjjjjjjjjjjjjjjjjjjjjjjjjjjjjjjjjjjjh6X..............#yjjjjjjjjjjjjjjjjjjjjjjjjjjjjjjjjjjjjjjjjr",
"tjjjjjjjjjjjjjjjjjjjjjjjjjjjjjjjjjjjjjjh,X................@wjjjjjjjjjjjjjjjjjjjjjjjjjjjjjjjjjjjjjjjr",
"rjjjjjjjjjjjjjjjjjjjjjjjjjjjjjjjjjjjjjf>X..................@0jjjjjjjjjjjjjjjjjjjjjjjjjjjjjjjjjjjjjjr",
"rjjjjjjjjjjjjjjjjjjjjjjjjjjjjjjjjjjjja=.............o.......O6jjjjjjjjjjjjjjjjjjjjjjjjjjjjjjjjjjjjjr",
"rjjjjjjjjjjjjjjjjjjjjjjjjjjjjjjjjjjjji#......................:fjjjjjjjjjjjjjjjjjjjjjjjjjjjjjjjjjjjjt",
"rjjjjjjjjjjjjjjjjjjjjjjjjjjjjjjjjjjjjjp*.............o.....X4hjjjjjjjjjjjjjjjjjjjjjjjjjjjjjjjjjjjjjr",
"rjjjjjjjjjjjjjjjjjjjjjjjjjjjjjjjjjjjjjjd-.........o.......O8hjjjjjjjjjjjjjjjjjjjjjjjjjjjjjjjjjjjjjjr",
"rjjjjjjjjjjjjjjjjjjjjjjjjjjjjjjjjjjjjjjjf-......o.o....o.O8jjjjjjjjjjjjjjjjjjjjjjjjjjjjjjjjjjjjjjjjr",
"rjjjjjjjjjjjjjjjjjjjjjjjjjjjjjjjhjjjjjjjjf-.............O9jjjjjjjjhjjjjjjjjjjjjjjjjjjjjjjjjjjjjjjjjr",
"rjjjjjjjjjjjjjjjjjjjjjjjjjjjjjjh7fjjjjjjjjd*...........X7jjjjjjjjj8yjjjjjjjjjjjjjjjjjjjjjjjjjjjjjjjr",
"rjjjjjjjjjjjjjjjjjjjjjjjjjjjjjjyO0jjjjjjjjja$...o..o...>hjjjjjjjjd#;hjjjjjjjjjjjjjjjjjjjjjjjjjjjjjj3",
"rjjjjjjjjjjjjjjjjjjjjjjjjjjjjjh;.*hjjjjjjjjjwO........*fjjjjjjjjj7.Oijjjjjjjjjjjjjjjjjjjjjjjjjjjjjjr",
"3jjjjjjjjjjjjjjjjjjjjjjjjjjjjjwO..9jjjjjjjjjj4....o..+ijjjjjjjjjd$..;hjjjjjjjjjjjjjjjjjjjjjjjjjjjjjr",
"tjjjjjjjjjjjjjjjjjjjjjjjjjjjjh*...%fjjjjjjjjjf&.o...X7jjjjjjjjjj4...Owjjjjjjjjjjjjjjjjjjjjjjjjjjjjjr",
"rjjjjjjjjjjjjjjjjjjjjjjjjjjjj0X....6jjjjjjjjjjwO....&hjjjjjjjjjp@....*hjjjjjjjjjjjjjjjjjjjjjjjjjjjjr",
"rjjjjjjjjjjjjjjjjjjjjjjjjjjjd$.....@pjjjjjjjjjj;...Xwjjjjjjjjjh;......7jjjjjjjjjjjjjjjjjjjjjjjjjjjjr",
"rjjjjjjjjjjjjjjjjjjjjjjjjjjh>.......-hjjjjjjjjjp+..-hjjjjjjjjj9X......@pjjjjjjjjjjjjjjjjjjjjjjjjjjjr",
"rjjjjjjjjjjjjjjjjjjjjjjjjjj0o.......X6jjjjjjjjjh,.Oyjjjjjjjjjp@......o.=fjjjjjjjjjjjjjjjjjjjjjjjjjjr",
"rjjjjjjjjjjjjjjjjjjjjjjjjjp@.........+wjjjjjjjjjp+;jjjjjjjjjf*..........4hjjjjjjjjjjjjjjjjjjjjjjjjjr",
"rjjjjjjjjjjjjjjjjjjjjjjjjd&...........#pjjjjjjjjj4wjjjjjjjjh:.......o...o8jjjjjjjjjjjjjjjjjjjjjjjjjr",
"rjjjjjjjjjjjjjjjjjjjjjjjf=.............&ajjjjjjjjfjjjjjjjjj4.............O0jjjjjjjjjjjjjjjjjjjjjjjjr",
"rjjjjjjjjjjjjjjjjjjjjjjf=...............&ajjjjjjjjjjjjjjjh4X......o.......+0jjjjjjjjjjjjjjjjjjjjjjjt",
"rjjjjjjjjjjjjjjjjjjjjjd=.................&ajjjjjjjjjjjjjh>X.........o.o....+9jjjjjjjjjjjjjjjjjjjjjj3",
"rjjjjjjjjjjjjjjjjjjjjp*...................$ijjjjjjjjjjjf;X............o.....O7hjjjjjjjjjjjjjjjjjjjjr",
"3jjjjjjjjjjjjjjjjjjjy#.....................@0jjjjjjjjja*......................>hjjjjjjjjjjjjjjjjjjjr",
"tjjjjjjjjjjjjjjjjjjj0+.....................O7jjjjjjjjja&.....................X:fjjjjjjjjjjjjjjjjjjjr",
"rjjjjjjjjjjjjjjjjjjjjw#...................@0jjjjjjjjjjjd;...................O6hjjjjjjjjjjjjjjjjjjjjr",
"rjjjjjjjjjjjjjjjjjjjjjp%.................#yjjjjjjjjjjjjjh>.................O8jjjjjjjjjjjjjjjjjjjjjjr",
"rjjjjjjjjjjjjjjjjjjjjjjp%...............#ujjjjjjjjjjjjjjjj,...............O0jjjjjjjjjjjjjjjjjjjjjjjr",
"rjjjjjjjjjjjjjjjjjjjjjjja%.............#ijjjjjjjjjjjjjjjjjh,.............O9jjjjjjjjjjjjjjjjjjjjjjjj3",
"rjjjjjjjjjjjjjjjjjjjjjjjji#...........+wjjjjjjjjjdhjjjjjjjjh:...........X7jjjjjjjjjjjjjjjjjjjjjjjjjr",
"rjjjjjjjjjjjjjjjjjjjjjjjjjw+.........O9jjjjjjjjjj>qjjjjjjjjjd*..........,jjjjjjjjjjjjjjjjjjjjjjjjjjr",
"rjjjjjjjjjjjjjjjjjjjjjjjjjj7.........,hjjjjjjjjjiO=jjjjjjjjjji@..o.....*fjjjjjjjjjjjjjjjjjjjjjjjjjjr",
"rjjjjjjjjjjjjjjjjjjjjjjjjjjh-.......&fjjjjjjjjjh:.Owjjjjjjjjjj8X......@ijjjjjjjjjjjjjjjjjjjjjjjjjjjr",
"rjjjjjjjjjjjjjjjjjjjjjjjjjjjp@.....OyjjjjjjjjjjiO..=hjjjjjjjjjh-......7jjjjjjjjjjjjjjjjjjjjjjjjjjjjr",
"rjjjjjjjjjjjjjjjjjjjjjjjjjjjj7.....,hjjjjjjjjjh-...X0jjjjjjjjjjp+....*fjjjjjjjjjjjjjjjjjjjjjjjjjjjjr",
"3jjjjjjjjjjjjjjjjjjjjjjjjjjjjf&...#ajjjjjjjjjj0O....%fjjjjjjjjjj4...Xqjjjjjjjjjjjjjjjjjjjjjjjjjjjjjt",
"tjjjjjjjjjjjjjjjjjjjjjjjjjjjjj0X..7jjjjjjjjjjd%......4jjjjjjjjjjd#..-hjjjjjjjjjjjjjjjjjjjjjjjjjjjjjr",
"rjjjjjjjjjjjjjjjjjjjjjjjjjjjjjh*.%fjjjjjjjjjh,.......Oyjjjjjjjjjj7.Oijjjjjjjjjjjjjjjjjjjjjjjjjjjjjjr",
"rjjjjjjjjjjjjjjjjjjjjjjjjjjjjjj0X7jjjjjjjjjj0X........%djjjjjjjjjd#-hjjjjjjjjjjjjjjjjjjjjjjjjjjjjjjr",
"rjjjjjjjjjjjjjjjjjjjjjjjjjjjjjjh>djjjjjjjjjp@..........;hjjjjjjjjj8wjjjjjjjjjjjjjjjjjjjjjjjjjjjjjjjr",
"rjjjjjjjjjjjjjjjjjjjjjjjjjjjjjjjfjjjjjjjjja%............,jjjjjjjjjhjjjjjjjjjjjjjjjjjjjjjjjjjjjjjjjjr",
"rjjjjjjjjjjjjjjjjjjjjjjjjjjjjjjjjjjjjjjjjd*.............X6jjjjjjjjjjjjjjjjjjjjjjjjjjjjjjjjjjjjjjjjj3",
"rjjjjjjjjjjjjjjjjjjjjjjjjjjjjjjjjjjjjjjja*............o..X6jjjjjjjjjjjjjjjjjjjjjjjjjjjjjjjjjjjjjjjjr",
"rjjjjjjjjjjjjjjjjjjjjjjjjjjjjjjjjjjjjjja*.................X4hjjjjjjjjjjjjjjjjjjjjjjjjjjjjjjjjjjjjjjr",
"rjjjjjjjjjjjjjjjjjjjjjjjjjjjjjjjjjjjjjy%...................X:fjjjjjjjjjjjjjjjjjjjjjjjjjjjjjjjjjjjjjr",
"rjjjjjjjjjjjjjjjjjjjjjjjjjjjjjjjjjjjju@......................-hjjjjjjjjjjjjjjjjjjjjjjjjjjjjjjjjjjjjr",
"rjjjjjjjjjjjjjjjjjjjjjjjjjjjjjjjjjjjjd:.....................+9jjjjjjjjjjjjjjjjjjjjjjjjjjjjjjjjjjjjjr",
"3jjjjjjjjjjjjjjjjjjjjjjjjjjjjjjjjjjjjjh6X..................$wjjjjjjjjjjjjjjjjjjjjjjjjjjjjjjjjjjjjjjr",
"tjjjjjjjjjjjjjjjjjjjjjjjjjjjjjjjjjjjjjjj7X.........o..o...$ijjjjjjjjjjjjjjjjjjjjjjjjjjjjjjjjjjjjjjjr",
"rjjjjjjjjjjjjjjjjjjjjjjjjjjjjjjjjjjjjjjjj7O..............$pjjjjjjjjjjjjjjjjjjjjjjjjjjjjjjjjjjjjjjjjr",
"rjjjjjjjjjjjjjjjjjjjjjjjjjjjjjjjjjjjjjjjjj7X............$pjjjjjjjjjjjjjjjjjjjjjjjjjjjjjjjjjjjjjjjjjr",
"rjjjjjjjjjjjjjjjjjjjjjjjjjjjjjjjdjjjjjjjjjj4.......o...@yjjjjjjjjjdfjjjjjjjjjjjjjjjjjjjjjjjjjjjjjjjr",
"rjjjjjjjjjjjjjjjjjjjjjjjjjjjjjjf-ajjjjjjjjjg=.........X0jjjjjjjjjj>9jjjjjjjjjjjjjjjjjjjjjjjjjjjjjjjr",
"rjjjjjjjjjjjjjjjjjjjjjjjjjjjjjj9X6jjjjjjjjjjd$..o.....,hjjjjjjjjjpO&hjjjjjjjjjjjjjjjjjjjjjjjjjjjjjjt",
"rjjjjjjjjjjjjjjjjjjjjjjjjjjjjjf&.#djjjjjjjjjjqO......&fjjjjjjjjjh>.o0jjjjjjjjjjjjjjjjjjjjjjjjjjjjjj3",
"rjjjjjjjjjjjjjjjjjjjjjjjjjjjjj8...,jjjjjjjjjjh:.....Owjjjjjjjjjji+..&fjjjjjjjjjjjjjjjjjjjjjjjjjjjjjr",
"rjjjjjjjjjjjjjjjjjjjjjjjjjjjjd$...@pjjjjjjjjjja#....>hjjjjjjjjjj;...X8jjjjjjjjjjjjjjjjjjjjjjjjjjjjjr",
"rjjjjjjjjjjjjjjjjjjjjjjjjjjjj4.....:jjjjjjjjjjj6...@pjjjjjjjjjjqX....#ajjjjjjjjjjjjjjjjjjjjjjjjjjjjr",
"rjjjjjjjjjjjjjjjjjjjjjjjjjjju+.....X0jjjjjjjjjjf%..4jjjjjjjjjjf%......:hjjjjjjjjjjjjjjjjjjjjjjjjjjjr",
"3jjjjjjjjjjjjjjjjjjjjjjjjjjf*.......$djjjjjjjjjj8.#djjjjjjjjjj>.......Xqjjjjjjjjjjjjjjjjjjjjjjjjjjjr",
"tjjjjjjjjjjjjjjjjjjjjjjjjjj,.........;hjjjjjjjjjf$,jjjjjjjjjj0O........#ajjjjjjjjjjjjjjjjjjjjjjjjjj3",
"rjjjjjjjjjjjjjjjjjjjjjjjjj9O.........X6jjjjjjjjjjqajjjjjjjjji@..........*fjjjjjjjjjjjjjjjfajjjjjjjjr",
"rjjjjjjjjjjjjjjjjjjjjjjjjw+...........O0jjjjjjjjjjjjjjjjjjja&............:hjjjjjjjjjjjjjj7-jjjjjjjjr",
"rjjjjjjjjjjjjjjjjjjjjjjji#.............+qjjjjjjjjjjjjjjjjjd*..............,hjjjjjjjjjjjjf$Xwjjjjjjjr",
"rjjjjjjjjjjjjjjjjjjjjjju#...............+qjjjjjjjjjjjjjjja*.........o...o..,hjjjjjjjjjjh6..=hjjjjjjr",
"rjjjjjjjjjjjjjjjjjjjjjw@...............o.+0jjjjjjjjjjjjja&..................:hjjjjjjjjji+...7jjjjjjr",
"rjjjjjjjjjjjjjjjjjjjj9+..............o....O7hjjjjjjjjjjy$........oo..........=ajjjjjjjf*....@ijjjjjr",
"rjjjjjjjjjjjjjjjjjjj8O......................4jjjjjjjjji@............o..o..o...*fjjjjjh:......%ajjjjt",
"rjjjjjjjjjjjjjjjjjjji&....o................$yjjjjjjjjjf,X............o.......+9jjjjjg,X.......*djjjr",
"rjjjjjjjjjjjjjjjjjjjjf-...................*ajjjjjjjjjjjh8+.......o.o........$yjjjjjf>X.........&pjjr",
"rjjjjjjjjjjjjjjjjjjjjjh:.....o...........=fjjjjjjjjjjjjjj0+......o.....o...$ijjjjjj,............*fjr",
"3jjjjjjjjjjjjjjjjjjjjjjh>...............-fjjjjjjjjjjjjjjjj0+.........o....%pjjjjjjjp*..........#qhjr",
"tjjjjjjjjjjjjjjjjjjjjjjjh:.............=fjjjjjjjjjjjjjjjjjj0O............$pjjjjjjjjjd=........#ujjjr",
"rjjjjjjjjjjjjjjjjjjjjjjjjh=...........%djjjjjjjjjjjjjjjjjjjj7X..........+yjjjjjjjjjjjd*......@ujjjjr",
"rjjjjjjjjjjjjjjjjjjjjjjjjja$.........@ijjjjjjjjjjjjjjjjjjjjjj>.........O9jjjjjjjjjjjjjp#....O0jjjjjr",
"rjjjjjjjjjjjjjjjjjjjjjjjjjjw+.......X0jjjjjjjjjjjjjjjjjjjjjjjf&........>jjjjjjjjjjjjjjjqX...,hjjjjjr",
"rjjjjjjjjjjjjjjjjjjjjjjjjjjj4.......;jjjjjjjjjjjjjjjjjjjjjjjjjyO......%djjjjjjjjjjjjjjjj:..%djjjjjjt",
"rjjjjjjjjjjjjjjjjjjjjjjjjjjjf&.....#ajjjjjjjjjjjjjjjjjjjjjjjjjj4.....Owjjjjjjjjjjjjjjjjja@.9jjjjjjj3",
"rjjjjjjjjjjjjjjjjjjjjjjjjjjjjqX...X8jjjjjjjjjjjjjjjjjjjjjjjjjjjf%....:jjjjjjjjjjjjjjjjjjj,*hjjjjjjjr",
"rjjjjjjjjjjjjjjjjjjjjjjjjjjjjj;...&hjjjjjjjjjjjjjjjjjjjjjjjjjjjj9X..+pjjjjjjjjjjjjjjjjjjjawjjjjjjjjr",
"rjjjjjjjjjjjjjjjjjjjjjjjjjjjjjiO.oqjjjjjjjjjjjjjjjjjjjjjjjjjjjjjh*..4jjjjjjjjjjjjjjjjjjjjjjjjjjjjjjr",
"rjjjjjjjjjjjjjjjjjjjjjjjjjjjjjj:.=hjjjjjjjjjjjjjjjjjjjjjjjjjjjjjjq.#ajjjjjjjjjjjjjjjjjja6-=>yjjjjjjr",
"rjjjjjjjjjjjjjjjjjjjjjjjjjjjjjji@qjjjjjjjjjjjjjjjjjjjjjjjjjjjjjjjh*,jjjjjjjjjjjjjjjjjjy#X&*+O7jjjjjr",
"3jjjjjjjjjjjjjjjjjjjjjjjjjjjjjjh9hjjjjjjjjjjjjjjjjjjjjjjjjjjjjjjjjwpjjjjjjjjjjjjjjjjjf$+qhjp%Owjjjj3",
"tjjjjjjjjjjjjjjjjjjjjjjjjjjjjjjjjjjjjjjjjjjjjjjjjjjjjjjjjjjjjjjjjjjjjjjjjjjjjjjjjjjjjq.,jjjjq.>jjjjr",
"rjjjjjjjjjjjjjjjjjjjjjjjjjjjjjjjjjjjjjjjjjjjjjjjjjjjjjjjjjjjjjjjjjjjjjjjjjjjjjjjjjjjj9.8jjjjpO-jjjjr",
"rjjjjjjjjjjjjjjjjjjjjjjjjjjjjjjjjjjjjjjjjjjjjjjjjjjjjjjjjjjjjjjjjjjjjjjjjjjjjjjjjjjjjw.:jjjj0.>jjjjr",
"rjjjjjjjjjjjjjjjjjjjjjjjjjjjjjjjjjjjjjjjjjjjjjjjjjjjjjjjjjjjjjjjjjjjjjjjjjjjjjjjjjjjjh=O7fhu$+ijjjjr",
"rjjjjjjjjjjjjjjjjjjjjjjjjjjjjjjjjjjjjjjjjjjjjjjjjjjjjjjjjjjjjjjjjjjjjjjjjjjjjjjjjjjjjjd;O#%O$whjjjjt",
"rjjjjjjjjjjjjjjjjjjjjjjjjjjjjjjjjjjjjjjjjjjjjjjjjjjjjjjjjjjjjjjjjjjjjjjjjjjjjjjjjjjjjjd=O*-@$ujjjjj3",
"rjjjjjjjjjjjjjjjjjjjjjjjjjjjjjjjjjjjjjjjjjjjjjjjjjjjjjjjjjjjjjjjjjjjjjjjjjjjjjjjjjjjjj,.8hji@%fjjjjr",
"rjjjjjjjjjjjjjjjjjjjjjjjjjjjjjjjjjjjjjjjjjjjjjjjjjjjjjjjjjjjjjjjjjjjjjjjjjjjjjjjjjjjjh&+djjj-opjjjjr",
"rjjjjjjjjjjjjjjjjjjjjjjjjjjjjjjjjjjjjjjjjjjjjjjjjjjjjjjjjjjjjjjjjjjjjjjjjjjjjjjjjjjjjh=Oijjh&+djjjjr",
"3jjjjjjjjjjjjjjjjjjjjjjjjjjjjjjjjjjjjjjjjjjjjjjjjjjjjjjjjjjjjjjjjjjjjjjjjjjjjjjjjjjjjjqX%qy>o;hjjjj3",
"<gjjjjjjjjjjjjjjjjjjjjjjjjjjjjjjjjjjjjjjjjjjjjjjjjjjjjjjjjjjjjjjjjjjjjjjjjjjjjjjjjjjjjh8#OOO;djjjjg<",
" 2sjjjjjjjjjjjjjjjjjjjjjjjjjjjjjjjjjjjjjjjjjjjjjjjjjjjjjjjjjjjjjjjjjjjjjjjjjjjjjjjjjjjjjdyephjjjjg1 ",
"  <3rtrrtrrrrrrrrrrttrtrrrrtrrrtrtrtrrrtrrrtrrtrrtrrrrtrrrrrrrrtrrtrtrrtrrrtrrrrrrrrrrtrrtttrrtr3<  "
};
