/* XPM */
static char *__of_diamonds1672178177[] = {
/* columns rows colors chars-per-pixel */
"100 145 45 1 ",
"  c None",
". c #DF0000",
"X c #DF0808",
"o c #E00C0C",
"O c #E11313",
"+ c #E21B1B",
"@ c #E32323",
"# c #E42B2B",
"$ c #E53434",
"% c #E63B3B",
"& c #E74343",
"* c #E84B4B",
"= c #E95353",
"- c #EA5C5C",
"; c #EB6464",
": c #EC6C6C",
"> c #ED7474",
", c #EE7C7C",
"< c #868686",
"1 c #A7A7A7",
"2 c gray66",
"3 c #B5B5B5",
"4 c #EF8484",
"5 c #F08787",
"6 c #F08B8B",
"7 c #F19393",
"8 c #F29B9B",
"9 c #F3A3A3",
"0 c #F4ACAC",
"q c #F5B4B4",
"w c #F6BCBC",
"e c #F8BABA",
"r c #C2C2C2",
"t c #C4C8C8",
"y c #F7C3C3",
"u c #F8C7C7",
"i c #F8CCCC",
"p c #F9D4D4",
"a c #FADBDB",
"s c #EFEFEF",
"d c #FBE4E4",
"f c #FCEBEB",
"g c #F1F1F1",
"h c #FDF4F4",
"j c #FFFFFF",
/* pixels */
"  <3rrrrrrrrrrrrrrrrrrrrrrrrrrrrrrrrrrrrrrrrrrrrrrrrrrrrrrrrrrrrrrrrrrrrrrrrrrrrrrrrrrrrrrrrrrrr3<  ",
" 2sjjjjjjhhjjjjjjjjjjjjjjjjjjjjjjjjjjjjjjjjjjjjjjjjjjjjjjjjjjjjjjjjjjjjjjjjjjjjjjjjjjjjjjjjjjjjjjs1 ",
"<gjjjjj0=#$>pjjjjjjjjjjjjjjjjjjjfjjjjjjjjjjjjjjjjjjjjjjjjjjjjjjjjjjfjjjjjjjjjjjjjjjjjjjjjjjjjjjjjjg<",
"3jjjjj8o@::@$ijjjjjjjjjjjjjjjjja>hjjjjjjjjjjjjjjjjjjjjjjjjjjjjjjjjf>djjjjjjjjjjjjjjjjjjjjjjjjjjjjjj3",
"rjjjjp+#ijju+=hjjjjjjjjjjjjjjjj6Xwjjjjjjjjjjjjjjjjjjjjjjjjjjjjjjjj0X7jjjjjjjjjjjjjjjjjjjjjjjjjjjjjjr",
"rjjjj8.6jjjj>Xujjjjjjjjjjjjjjjd#.=hjjjjjjjjjjjjjjjjjjjjjjjjjjjjjjh=.$fjjjjjjjjjjjjjjjjjjjjjjjjjjjjjr",
"rjjjj4.qjjjj8.9jjjjjjjjjjjjjjj6..Xqjjjjjjjjjjjjjjjjjjjjjjjjjjjjjj0o..7jjjjjjjjjjjjjjjjjjjjjjjjjjjjjr",
"rjjjj6.0jjjj4.6jjjjjjjjjjjjjja@...&fjjjjjjjjjjjjjjjjjjjjjjjjjjjjf%...#ajjjjjjjjjjjjjjjjjjjjjjjjjjjjr",
"rjjjjwX=fjjd$.4jjjjjjjjjjjjjj:....X8jjjjjjjjjjjjjjjjjjjjjjjjjjjj6X....>jjjjjjjjjjjjjjjjjjjjjjjjjjjjr",
"rjjjjh;.*87&@X4jjjjjjjjjjjjjqO.....@ajjjjjjjjjjjjjjjjjjjjjjjjjjp@.....Owjjjjjjjjjjjjjjjjjjjjjjjjjjjr",
"rjjjjjf:+X+:8X7jjjjjjjjjjjjd%.......-hjjjjjjjjjjjjjjjjjjjjjjjjh-.......&fjjjjjjjjjjjjjjjjjjjjjjjjjjr",
"rjjjjjjjaypj8X0jjjjjjjjjjjh>........X8jjjjjjjjjjjjjjjjjjjjjjjj6X........>jjjjjjjjjjjjjjjjjjjjjjjjjj3",
"3jjjjd7ijjjj-Oajjjjjjjjjjj8X.........+wjjjjjjjjjjjjjjjjjjjjjjqO.........X9jjjjjjjjjjjjjjjjjjjjjjjjjr",
"rjjjjpO=hjjeO-hjjjjjjjjjjq+...........$pjjjjjjjjjjjjjjjjjjjji#...........+ejjjjjjjjjjjjjjjjjjjjjjjjr",
"rjjjjj:X;8,+#pjjjjjjjjjjy@.............&ajjjjjjjjjjjjjjjjjja%.............#ujjjjjjjjjjjjjjjjjjjjjjjr",
"rjjjjjf,#+@-pjjjjjjjjjjy@...............&ajjjjjjjjjjjjjjjjp%...............#yjjjjjjjjjjjjjjjjjjjjjjr",
"3jjjjjjjdafhjjjjjjjjjje@.................%pjjjjjjjjjjjjjji%.....o..o..o.....#wjjjjjjjjjjjjjjjjjjjjjt",
"tjjjjjjjjdujjjjjjjjjh9+...................$yjjjjjjjjjjjjw#...................@0hjjjjjjjjjjjjjjjjjjj3",
"rjjjjjjjj4&hjjjjjjjj6X.................o...+qjjjjjjjjjj9+...........o..o......X7hjjjjjjjjjjjjjjjjjjr",
"rjjjjjjja@X0jjjjjjjj0@.....................$yjjjjjjjjjjy$.......o..o..........#qjjjjjjjjjjjjjjjjjjjr",
"rjjjjjjj>..%djjjjjjjjy%.......o...........=ajjjjjgjjjjjjp=...........o.......%ujjjjjjjjjjjjjjjjjjjjr",
"rjjjjjjqO..X,jjjjjjjjjp%................X-fjjjjjj5yjjjjjjd=.......o.........&ajjjjjjjjjjjjjjjjjjjjjr",
"rjjjjja$....Oqjjjjjjjjjp&...o..o.......X;fjjjjjja+;jjjjjjjf-....o.o..oo....*ajjjjjjjjjjjjjjjjjjjjjjr",
"rjjjjs=......@ujjjjjjjjja%.............-fjjjjjjh4.+ijjjjjjjf-.............&ajjjjjjjjjjjjjjjjjjjjjjjr",
"rjjjf-........$ijjjjjjjjjp#...........*fjjjjjjjp@..;hjjjjjjjd&...........$pjjjjjjjjjjjjjjjjjjjjjjjjr",
"rjja=..........#ejjjjjjjjjq+.........#pjjjjjjjh>...Oyjjjjjjjjp#.o..o....+wjjjjjjjjjjjjjjjjjjjjjjjjjr",
"3jj,............&fjjjjjjjjj6X.......OqjjjjjjjjyO....=hjjjjjjjj0O.......X7jjjjjjjjjjjjjjjjjjjjjjjjjjr",
"tjjd:X.........%phjjjjjjjjjf=......X,jjjjjjjjh*......8jjjjjjjjh>..o....-hjjjjjjjjjjjjjjjjjjjjjjjjjjr",
"rjjjh>X.......&ajjjjjjjjjjjji+.....%fjjjjjjjj6X......@pjjjjjjjjd$.....@pjjjjjjjjjjjjjjjjjjjjjjjjjjjr",
"rjjjjh;......$pjjjjjjjjjjjjjj4....Xqjjjjjjjjw+........=fjjjjjjjj0X...X7jjjjjjjjjjjjjjjjjjjjjjjjjjjjr",
"rjjjjjf&....+yjjjjjjjjjjjjjjjd$...-hjjjjjjja%.........X,jjjjjjjjh=...%fjjjjjjjjjjjjjjjjjjjjjjjjjjjjr",
"rjjjjjjy+..X6jjjjjjjjjjjjjjjjj9X.Oyjjjjjjjf=...........X8jjjjjjjjwO.X9jjjjjjjjjjjjjjjjjjjjjjjjjjjjj3",
"rjjjjjjj4..*hjjjjjjjjjjjjjjjjjf%.:jjjjjjjh;.....o..o..o.O0jjjjjjjh;.&hjjjjjjjjjjjjjjjjjjjjjjjjjjjjjr",
"rjjjjjjjd$Xqjjjjjjjjjjjjjjjjjjj9+ujjjjjjf;X..............+9jjjjjjjyO0jjjjjjjjjjjjjjjjjjjjjjjjjjjjjjr",
"rjjjjjjjj7-hjjjjjjjjjjjjjjjjjjjd7hjjjjjf;...........o.....O9jjjjjjh6fjjjjjjjjjjjjjjjjjjjjjjjjjjjjjjr",
"3jjjjjjjjdpjjjjjjjjjjjjjjjjjjjjjjjjjjja=........o..o..o....O6hjjjjjjjjjjjjjjjjjjjjjjjjjjjjjjjjjjjjjr",
"tjjjjjjjjjjjjjjjjjjjjjjjjjjjjjjjjjjjji%..........o..........X>hjjjjjjjjjjjjjjjjjjjjjjjjjjjjjjjjjjjjt",
"rjjjjjjjjjjjjjjjjjjjjjjjjjjjjjjjjjjjja&..o..................X4hjjjjjjjjjjjjjjjjjjjjjjjjjjjjjjjjjjjj3",
"rjjjjjjjjjjjjjjjjjjjjjjjjjjjjjjjijjjjjd;...................+9jjjjjjpjjjjjjjjjjjjjjjjjjjjjjjjjjjjjjjr",
"rjjjjjjjjjjjjjjjjjjjjjjjjjjjjjju*djjjjjh>X..o..o..........@qjjjjjjd&ijjjjjjjjjjjjjjjjjjjjjjjjjjjjjjr",
"rjjjjjjjjjjjjjjjjjjjjjjjjjjjjjj:X8jjjjjjh,X..............@ejjjjjjj7.>jjjjjjjjjjjjjjjjjjjjjjjjjjjjjjr",
"rjjjjjjjjjjjjjjjjjjjjjjjjjjjjji+.$djjjjjjh,X............+wjjjjjjjd$.@pjjjjjjjjjjjjjjjjjjjjjjjjjjjjjr",
"rjjjjjjjjjjjjjjjjjjjjjjjjjjjjj;...7jjjjjjjh;...........O0jjjjjjjj4...:hjjjjjjjjjjjjjjjjjjjjjjjjjjjjr",
"rjjjjjjjjjjjjjjjjjjjjjjjjjjjjeO...#ajjjjjjjd&.........X6jjjjjjjjp@...Oyjjjjjjjjjjjjjjjjjjjjjjjjjjjjr",
"rjjjjjjjjjjjjjjjjjjjjjjjjjjjf*.....>jjjjjjjji@........;hjjjjjjjh:.....=hjjjjjjjjjjjjjjjjjjjjjjjjjjjr",
"rjjjjjjjjjjjjjjjjjjjjjjjjjjj7X.....Oejjjjjjjj8X......#ajjjjjjjjqX.....X8jjjjjjjjjjjjjjjjjjjjjjjjjjjr",
"rjjjjjjjjjjjjjjjjjjjjjjjjjju+.......%djjjjjjjh=.....X0jjjjjjjjd$.......@pjjjjjjjjjjjjjjjjjjjjjjjjjjr",
"3jjjjjjjjjjjjjjjjjjjjjjjjjf&.........:hjjjjjjji+....-hjjjjjjjh;.........*fjjjjjjjjjjjjjjjjjjjjjjjjjr",
"tjjjjjjjjjjjjjjjjjjjjjjjjh:..........X7jjjjjjjj,...Oujjjjjjjh6X..........>hjjjjjjjjjjjjjjjjjjjjjjjjr",
"rjjjjjjjjjjjjjjjjjjjjjjjj4X...........O0jjjjjjja#..>jjjjjjjj9O.......oo..X6jjjjjjjjjjjjjjjjjjjjjjjjr",
"rjjjjjjjjjjjjjjjjjjjjjjj7o.............+qjjjjjjj6.+pjjjjjjj0+.............X8jjjjjjjjjjjjjjjjjjjjjjjr",
"rjjjjjjjjjjjjjjjjjjjjjj6o..o............+0jjjjjjd@>jjjjjjj0+..........o....O7jjjjjjjjjjjjjjjjjjjjjj3",
"rjjjjjjjjjjjjjjjjjjjjh4X.................+9jjjjjj8ijjjjjj9O...........o.....X6hjjjjjjjjjjjjjjjjjjjjr",
"rjjjjjjjjjjjjjjjjjjjd:X...................O6hjjjjhjjjjjg4X...................X>fjjjjjjjjjjjjjjjjjjjr",
"rjjjjjjjjjjjjjjjjjjh>......................X8jjjjjjjjjj7X...........o..........,jjjjjjjjjjjjjjjjjjjr",
"rjjjjjjjjjjjjjjjjjjjp=....................X:djjjjjjjjjjd;X............o.......=pjjjjjjjjjjjjjjjjjjjr",
"rjjjjjjjjjjjjjjjjjjjjf;X.................X6hjjjjjjjjjjjjh,X......o..........X:fjjjjjjjjjjjjjjjjjjjjr",
"rjjjjjjjjjjjjjjjjjjjjjh:X...............O7jjjjjjjjjjjjjjjj6X.......o.......X>hjjjjjjjjjjjjjjjjjjjjjr",
"rjjjjjjjjjjjjjjjjjjjjjjh>X.............X7jjjjjjjjjjjjjjjjjj7X.............X,hjjjjjjjjjjjjjjjjjjjjjjr",
"3jjjjjjjjjjjjjjjjjjjjjjjh:.......o....X6jjjjjjjjjjjjjjjjjjjj6X...o........>hjjjjjjjjjjjjjjjjjjjjjjjr",
"tjjjjjjjjjjjjjjjjjjjjjjjjf=......o....,jjjjjjjjjjjjjjjjjjjjjh>...o.......=fjjjjjjjjjjjjjjjjjjjjjjjjr",
"rjjjjjjjjjjjjjjjjjjjjjjjjja$.........=fjjjjjjjjjjjjjjjjjjjjjjf=.........%djjjjjjjjjjjjjjjjjjjjjjjjjr",
"rjjjjjjjjjjjjjjjjjjjjjjjjjjeO.......#pjjjjjjjjjjjjjjjjjjjjjjjji@..o....Owjjjjjjjjjjjjjjjjjjjjjjjjjjr",
"rjjjjjjjjjjjjjjjjjjjjjjjjjjh,....o.o9jjjjjjjjjjjjjjjjjjjjjjjjjj8X......4jjjjjjjjjjjjjjjjjjjjjjjjjjj3",
"rjjjjjjjjjjjjjjjjjjjjjjjjjjjd%.....-hjjjjjjjjjjjjjjjjjjjjjjjjjjh=.....%fjjjjjjjjjjjjjjjjjjjjjjjjjjjr",
"rjjjjjjjjjjjjjjjjjjjjjjjjjjjj0X...+pjjjjjjjjjjjjjjjjjjjjjjjjjjjji+..XXqjjjjjjjjjjjjjjjjjjjjjjjjjjjjr",
"rjjjjjjjjjjjjjjjjjjjjjjjjjjjjh=...,jjjjjjjjjjjjjjjjjjjjjjjjjjjjjj>...-hjjjjjjjjjjjjjjjjjjjjjjjjjjjjr",
"rjjjjjjjjjjjjjjjjjjjjjjjjjjjjjwO.#ajjjjjjjjjjjjjjjjjjjjjjjjjjjjjja@.Oyjjjjjjjjjjjjjjjjjjjjjjjjjjjjjr",
"rjjjjjjjjjjjjjjjjjjjjjjjjjjjjjj-.6jjjjjjjjjjjjjjjjjjjjjjjjjjjjjjjh4.;hjjjjjjjjjjjjjjjjjjjjjjjjjjjjjt",
"rjjjjjjjjjjjjjjjjjjjjjjjjjjjjjjq$ajjjjjjjjjjjjjjjjjjjjjjjjjjjjjjjjp$yjjjjjjjjjjjjjjjjjjjjjjjjjjjjjj3",
"rjjjjjjjjjjjjjjjjjjjjjjjjjjjjjjhyhjjjjjjjjjjjjjjjjjjjjjjjjjjjjjjjjjehjjjjjjjjjjjjjjjjjjjjjjjjjjjjjjr",
"3jjjjjjjjjjjjjjjjjjjjjjjjjjjjjjjjjjjjjjjjjjjjjjjjjjjjjjjjjjjjjjjjjjjjjjjjjjjjjjjjjjjjjjjjjjjjjjjjjjr",
"tjjjjjjjjjjjjjjjjjjjjjjjjjjjjjjjjjjjjjjjjjjjjjjjjjjjjjjjjjjjjjjjjjjjjjjjjjjjjjjjjjjjjjjjjjjjjjjjjjjr",
"rjjjjjjjjjjjjjjjjjjjjjjjjjjjjjjjjjjjjjjjjjjjjjjjjjjjjjjjjjjjjjjjjjjjjjjjjjjjjjjjjjjjjjjjjjjjjjjjjjjr",
"rjjjjjjjjjjjjjjjjjjjjjjjjjjjjjjhqhjjjjjjjjjjjjjjjjjjjjjjjjjjjjjjjjj0fjjjjjjjjjjjjjjjjjjjjjjjjjjjjjjr",
"rjjjjjjjjjjjjjjjjjjjjjjjjjjjjjjq#ajjjjjjjjjjjjjjjjjjjjjjjjjjjjjjjjp#wjjjjjjjjjjjjjjjjjjjjjjjjjjjjjjr",
"rjjjjjjjjjjjjjjjjjjjjjjjjjjjjjh-.4jjjjjjjjjjjjjjjjjjjjjjjjjjjjjjjj,.-jjjjjjjjjjjjjjjjjjjjjjjjjjjjjjr",
"rjjjjjjjjjjjjjjjjjjjjjjjjjjjjjeX.@pjjjjjjjjjjjjjjjjjjjjjjjjjjjjjjp+.Oyjjjjjjjjjjjjjjjjjjjjjjjjjjjjjr",
"rjjjjjjjjjjjjjjjjjjjjjjjjjjjjh*...>jjjjjjjjjjjjjjjjjjjjjjjjjjjjjh:...=hjjjjjjjjjjjjjjjjjjjjjjjjjjjjr",
"rjjjjjjjjjjjjjjjjjjjjjjjjjjjj9X...+ujjjjjjjjjjjjjjjjjjjjjjjjjjjjuO...X0jjjjjjjjjjjjjjjjjjjjjjjjjjjjr",
"rjjjjjjjjjjjjjjjjjjjjjjjjjjja$.....=hjjjjjjjjjjjjjjjjjjjjjjjjjjh*.....$fjjjjjjjjjjjjjjjjjjjjjjjjjjjr",
"rjjjjjjjjjjjjjjjjjjjjjjjjjjj>X.....X8jjjjjjjjjjjjjjjjjjjjjjjjjj7X......,jjjjjjjjjjjjjjjjjjjjjjjjjjjr",
"rjjjjjjjjjjjjjjjjjjjjjjjjjj0X.......@ijjjjjjjjjjjjjjjjjjjjjjjju+.......Oqjjjjjjjjjjjjjjjjjjjjjjjjjjr",
"3jjjjjjjjjjjjjjjjjjjjjjjjjp#.........*fjjjjjjjjjjjjjjjjjjjjjjd&.........#pjjjjjjjjjjjjjjjjjjjjjjjjj3",
"tjjjjjjjjjjjjjjjjjjjjjjjjd*...........:hjjjjjjjjjjjjjjjjjjjjh;...........=fjjjjjjjjjjjjjjjjjjjjjjjjr",
"rjjjjjjjjjjjjjjjjjjjjjjjh-............X4hjjjjjjjjjjjjjjjjjjh,X............;hjjjjjjjjjjjjjjjjjjjjjjjr",
"rjjjjjjjjjjjjjjjjjjjjjjf;X.............X6jjjjjjjjjjjjjjjjjj4X..............:hjjjjjjjjjjjjjjjjjjjjjjr",
"rjjjjjjjjjjjjjjjjjjjjjf;................X4hjjjjjjjjjjjjjjh,X...............X:fjjjjjjjjjjjjjjjjjjjjjr",
"rjjjjjjjjjjjjjjjjjjjjd-...o..............X,fjjjjjjjjjjjjf>X.................X-djjjjjjjjjjjjjjjjjjjjr",
"rjjjjjjjjjjjjjjjjjjji%........o...........X-ajjjjjjjjjja-............oo..o....&pjjjjjjjjjjjjjjjjjjjr",
"rjjjjjjjjjjjjjjjjjjh,.......o.o............X8jjjjjjjjjj7X......................,hjjjjjjjjjjjjjjjjjjr",
"rjjjjjjjjjjjjjjjjjjjf,X.o.o...............+8hjjjjjjjjjjh7O............o...o..X4fjjjjjjjjjjjjjjjjjjjr",
"rjjjjjjjjjjjjjjjjjjjjj7X.................+qjjjjjjjjjjjjjj0+........o..o.o...O8jjjjjjjjjjjjjjjjjjjjjr",
"rjjjjjjjjjjjjjjjjjjjjjj7o....oo.........@ejjjjjjjjjjjjjjjjq@...............O8jjjjjjjjjjjjjjjjjjjjjjr",
"rjjjjjjjjjjjjjjjjjjjjjjj8O......o..o...@yjjjjjjjjjjjjjjjjjjq@.......o.....O9jjjjjjjjjjjjjjjjjjjjjjjr",
"3jjjjjjjjjjjjjjjjjjjjjjjj7o...o.......+qjjjjjjjjjjjjjjjjjjjj0+..o..o..o..o8jjjjjjjjjjjjjjjjjjjjjjjj3",
"tjjjjjjjjjjjjjjjjjjjjjjjjj,..........X9jjjjjjjjjjjjjjjjjjjjjj7X.........X,jjjjjjjjjjjjjjjjjjjjjjjjjr",
"rjjjjjjjjjjjjjjjjjjjjjjjjjf*.........,hjjjjjjjjjjjjjjjjjjjjjjh:.........=fjjjjjjjjjjjjjjjjjjjjjjjjjr",
"rjjjjjjjjjjjjjjjjjjjjjjjjjji@.......&fjjjjjjjjjjjjjjjjjjjjjjjjd%.......#ajjjjjjjjjjjjjjjjjjjjjjjjjjr",
"rjjjjjjjjjjjjjjjjjjjjjjjjjjj8X.....+yjjjjjjjjjjjjjjjjjjjjjjjjjjwO.....X9jjjjjjjjjjjjjjjjjjjjjjjjjjjr",
"rjjjjjjjjjjjjjjjjjjjjjjjjjjjh=.....,jjjjjjjjjjjjjjjjjjjjjjjjjjjj>.....-hjjjjjjjjjjjjjjjjjjjjjjjjjjjt",
"rjjjjjjjjjjjjjjjjjjjjjjjjjjjjyO...#djjjjjjjjjjjjjjjjjjjjjjjjjjjja#...+ujjjjjjjjjjjjjjjjjjjjjjjjjjjj3",
"rjjjjjjjjjjjjjjjjjjjjjjjjjjjjj:..X8jjjjjjjjjjjjjjjjjjjjjjjjjjjjjj6...>jjjjjjjjjjjjjjjjjjjjjjjjjjjjjr",
"rjjjjjjjjjjjjjjjjjjjjjjjjjjjjjp+.%fjjjjjjjjjjjjjjjjjjjjjjjjjjjjjjf%.@ajjjjjjjjjjjjjjjjjjjjjjjjjjjjjr",
"rjjjjjjjjjjjjjjjjjjjjjjjjjjjjjj>.9jjjjjjjjjjjjjjjjjjjjjjjjjjjjjjjj7X,jjjjjjjjjjjjjjjjjjjjjjjjjjjjjjr",
"rjjjjjjjjjjjjjjjjjjjjjjjjjjjjjji=fjjjjjjjjjjjjjjjjjjjjjjjjjjjjjjjjd=pjjjjjjjjjjjjjjjjjjjjjjjjjjjjjjr",
"rjjjjjjjjjjjjjjjjjjjjjjjjjjjjjjhajjjjjjjjjjjjjjjjjjjjjjjjjjjjjjjjjjahjjjjjjjjjjjjjjjjjjjjjjjjjjjjjjr",
"3jjjjjjjjjjjjjjjjjjjjjjjjjjjjjjjjjjjjjjjjjjjjjjjjjjjjjjjjjjjjjjjjjjjjjjjjjjjjjjjjjjjjjjjjjjjjjjjjjjr",
"tjjjjjjjjjjjjjjjjjjjjjjjjjjjjjjjjjjjjjjjjjjjjjjjjjjjjjjjjjjjjjjjjjjjjjjjjjjjjjjjjjjjjjjjjjjjjjjjjjjr",
"rjjjjjjjjjjjjjjjjjjjjjjjjjjjjjjjhjjjjjjjjjjjjjjjjjjjjjjjjjjjjjjjjjjhjjjjjjjjjjjjjjjjjjjjjfajjjjjjjjr",
"rjjjjjjjjjjjjjjjjjjjjjjjjjjjjjjd4hjjjjjjjjjjjjjjjjjjjjjjjjjjjjjjjjg5fjjjjjjjjjjjjjjjjjjjj7-jjjjjjjjr",
"rjjjjjjjjjjjjjjjjjjjjjjjjjjjjjj8OyjjjjjjjjjjjjjjjjjjjjjjjjjjjjjjjjeO9jjjjjjjjjjjjjjjjjjjf$Xwjjjjjjjr",
"rjjjjjjjjjjjjjjjjjjjjjjjjjjjjjf%.;hjjjjjjjjjjjjjjjjjjjjjjjjjjjjjjh-.%fjjjjjjjjjjjjjjjjjj4X.*gjjjjjjr",
"rjjjjjjjjjjjjjjjjjjjjjjjjjjjjj7X.Oyjjjjjjjjjjjjjjjjjjjjjjjjjjjjjjqo.X9jjjjjjjjjjjjjjjjju+..X8jjjjjjr",
"rjjjjjjjjjjjjjjjjjjjjjjjjjjjjd#...=hjjjjjjjjjjjjjjjjjjjjjjjjjjjjh*...$djjjjjjjjjjjjjjjf*....@ujjjjjr",
"rjjjjjjjjjjjjjjjjjjjjjjjjjjjj4....X0jjjjjjjjjjjjjjjjjjjjjjjjjjjj9X....6jjjjjjjjjjjjjjh:......%ajjjj3",
"rjjjjjjjjjjjjjjjjjjjjjjjjjjjy+.....$djjjjjjjjjjjjjjjjjjjjjjjjjjd#.....+ijjjjjjjjjjjjh,X.......*djjjr",
"rjjjjjjjjjjjjjjjjjjjjjjjjjjf*.......>hjjjjjjjjjjjjjjjjjjjjjjjjh:.......=hjjjjjjjjjjf>X.........&pjjr",
"rjjjjjjjjjjjjjjjjjjjjjjjjjj4........X0jjjjjjjjjjjjjjjjjjjjjjjj9X.......X6jjjjjjjjjh,............&fjr",
"3jjjjjjjjjjjjjjjjjjjjjjjjj0O.........#ijjjjjjjjjjjjjjjjjjjjjju@.........Oqjjjjjjjjjp*..........#qjjr",
"tjjjjjjjjjjjjjjjjjjjjjjjju@...........&djjjjjjjjjjjjjjjjjjjja%...........#ujjjjjjjjjd=........#yjjjr",
"rjjjjjjjjjjjjjjjjjjjjjjjp$.............=fjjjjjjjjjjjjjjjjjjd=....o........%ajjjjjjjjjd*......@yjjjjt",
"rjjjjjjjjjjjjjjjjjjjjjjp%...............=djjjjjjjjjjjjjjjjd=.....o.........%pjjjjjjjjjp#....O0jjjjj3",
"rjjjjjjjjjjjjjjjjjjjjji$.................=djjjjjjjjjjjjjja*.................%pjjjjjjjjjqX...>jjjjjjr",
"rjjjjjjjjjjjjjjjjjjjje#...................&pjjjjjjjjjjjji&....o..............$wjjjjjjjjh:..%djjjjjjr",
"rjjjjjjjjjjjjjjjjjjj8+....o................#wjjjjjjjjjje#...o....oo...........+9jjjjjjjja@X9jjjjjjjr",
"rjjjjjjjjjjjjjjjjjjh7O.....................@qjjjjjjjjjjq@.....................+8jjjjjjjjj,&hjjjjjjjr",
"rjjjjjjjjjjjjjjjjjjjjq@...................%ijjjjjjjjjjjju$....o..o...........#qjjjjjjjjjjawjjjjjjjjr",
"rjjjjjjjjjjjjjjjjjjjjjy#...........o..o..&ajjjjjjjjjjjjjja&.............o...$ujjjjjjjjjjjjjjjjjjjjjr",
"rjjjjjjjjjjjjjjjjjjjjjji$...............=ajjjjjjjjjjjjjjjja&...............$ijjjjjjjjjjje:=;qhjjjjjr",
"rjjjjjjjjjjjjjjjjjjjjjjji#.............*djjjjjjjjjjjjjjjjjja&.............$ijjjjjjjjjjh,X#=#O6hjjjjr",
"3jjjjjjjjjjjjjjjjjjjjjjjjy+.....o..o..$ajjjjjjjjjjjjjjjjjjjjp$...........@yjjjjjjjjjjj9X;djd&Opjjjjr",
"tjjjjjjjjjjjjjjjjjjjjjjjjj9X.........@yjjjjjjjjjjjjjjjjjjjjjjy+.........O0jjjjjjjjjjjh&@djjjq*wjjjjr",
"rjjjjjjjjjjjjjjjjjjjjjjjjjj,........X9jjjjjjjjjjjjjjjjjjjjjjjj8X........4jjjjjjjjjjjjpO;jjhhjhjjjjjr",
"rjjjjjjjjjjjjjjjjjjjjjjjjjjf&.......;jjjjjjjjjjjjjjjjjjjjjjjjjh;.......*fjjjjjjjjjjjjeX7w-$=9hjjjjjr",
"rjjjjjjjjjjjjjjjjjjjjjjjjjjjyO.....#ajjjjjjjjjjjjjjjjjjjjjjjjjja#.....+ujjjjjjjjjjjjj9.=@&=@X,jjjjjr",
"rjjjjjjjjjjjjjjjjjjjjjjjjjjjj>....X9jjjjjjjjjjjjjjjjjjjjjjjjjjjj8X....,jjjjjjjjjjjjjj9.X9hjp%owjjjjr",
"rjjjjjjjjjjjjjjjjjjjjjjjjjjjjd@...*hjjjjjjjjjjjjjjjjjjjjjjjjjjjjf&...#djjjjjjjjjjjjjj9.=jjjj0X,jjjjr",
"rjjjjjjjjjjjjjjjjjjjjjjjjjjjjj6o.Xqjjjjjjjjjjjjjjjjjjjjjjjjjjjjjj0X.X8jjjjjjjjjjjjjjjq.,jjjjio-jjjjr",
"rjjjjjjjjjjjjjjjjjjjjjjjjjjjjjd$.-jjjjjjjjjjjjjjjjjjjjjjjjjjjjjjjj=.%fjjjjjjjjjjjjjjjpO;jjjjyX:jjjj3",
"rjjjjjjjjjjjjjjjjjjjjjjjjjjjjjj7OwjjjjjjjjjjjjjjjjjjjjjjjjjjjjjjjjqX8jjjjjjjjjjjjjjjjh*@ajjj;.9jjjjr",
"3jjjjjjjjjjjjjjjjjjjjjjjjjjjjjjd,hjjjjjjjjjjjjjjjjjjjjjjjjjjjjjjjjh,djjjjjjjjjjjjjjjjjwO&qy:X&fjjjj3",
"<gjjjjjjjjjjjjjjjjjjjjjjjjjjjjjhhjjjjjjjjjjjjjjjjjjjjjjjjjjjjjjjjjjhjjjjjjjjjjjjjjjjjjjq%OOO-ajjjjg<",
" 1gjjjjjjjjjjjjjjjjjjjjjjjjjjjjjjjjjjjjjjjjjjjjjjjjjjjjjjjjjjjjjjjjjjjjjjjjjjjjjjjjjjjjjfyepjjjjjg1 ",
"  <3rtrrrtrrrtrrrrtrrrtrtrtrrrrtrrrtrrrrttrtrrrrrtrrrrtrrrtrrrrtrrrtrrrrrrrrttrrrtrtrtrrrtttrrrr3<  "
};
