/* XPM */
static char *ace_of_diamonds1672178177[] = {
/* columns rows colors chars-per-pixel */
"100 145 69 1 ",
"  c None",
". c #DF0101",
"X c #D60D0D",
"o c #DD0A0A",
"O c #CF1B1B",
"+ c #D31414",
"@ c #DD1313",
"# c #D41C1C",
"$ c #DC1C1C",
"% c #E00707",
"& c #E00C0C",
"* c #E11414",
"= c #E21B1B",
"- c #CE2323",
"; c #CF2C2C",
": c #D32424",
"> c #DC2424",
", c #D42B2B",
"< c #DC2C2C",
"1 c #D33333",
"2 c #DC3434",
"3 c #D53B3B",
"4 c #DB3A3A",
"5 c #E32424",
"6 c #E42C2C",
"7 c #E53434",
"8 c #E63B3B",
"9 c #D44444",
"0 c #D94444",
"q c #D64A4A",
"w c #D94D4D",
"e c #D75151",
"r c #DA5454",
"t c #DD5B5B",
"y c #E74343",
"u c #E84646",
"i c #E74848",
"p c #E84B4B",
"a c #E95353",
"s c #EA5D5D",
"d c #DF6060",
"f c #EB6363",
"g c #EC6B6B",
"h c #ED7474",
"j c #EE7B7B",
"k c #868686",
"l c #A7A7A7",
"z c gray66",
"x c #B5B5B5",
"c c #EF8383",
"v c #F08C8C",
"b c #F19393",
"n c #F29C9C",
"m c #F3A4A4",
"M c #F4ABAB",
"N c #F5B4B4",
"B c #F6BABA",
"V c #C2C2C2",
"C c #F7C3C3",
"Z c #F8C7C7",
"A c #F8CBCB",
"S c #F9D5D5",
"D c #FADBDB",
"F c #EFEFEF",
"G c #FBE4E4",
"H c #FCEBEB",
"J c #F1F1F1",
"K c #FDF3F3",
"L c #FFFFFF",
/* pixels */
"  kxVVVVVVVVVVVVVVVVVVVVVVVVVVVVVVVVVVVVVVVVVVVVVVVVVVVVVVVVVVVVVVVVVVVVVVVVVVVVVVVVVVVVVVVVVVVVxk  ",
" zFLLLLLLLLLLLLLLLLLLLLLLLLLLLLLLLLLLLLLLLLLLLLLLLLLLLLLLLLLLLLLLLLLLLLLLLLLLLLLLLLLLLLLLLLLLLLLLFl ",
"kJLLLLLLLHHLLLLLLLLLLLLLLLLLLLLLLLLLLLLLLLLLLLLLLLLLLLLLLLLLLLLLLLLLLLLLLLLLLLLLLLLLLLLLLLLLLLLLLLJk",
"xLLLLLLLC78SLLLLLLLLLLLLLLLLLLLLLLLLLLLLLLLLLLLLLLLLLLLLLLLLLLLLLLLLLLLLLLLLLLLLLLLLLLLLLLLLLLLLLLLx",
"VLLLLLLLh%%jLLLLLLLLLLLLLLLLLLLLLLLLLLLLLLLLLLLLLLLLLLLLLLLLLLLLLLLLLLLLLLLLLLLLLLLLLLLLLLLLLLLLLLLV",
"VLLLLLLG5p86GLLLLLLLLLLLLLLLLLLLLLLLLLLLLLLLLLLLLLLLLLLLLLLLLLLLLLLLLLLLLLLLLLLLLLLLLLLLLLLLLLLLLLLV",
"VLLLLLLmobvomLLLLLLLLLLLLLLLLLLLLLLLLLLLLLLLLLLLLLLLLLLLLLLLLLLLLLLLLLLLLLLLLLLLLLLLLLLLLLLLLLLLLLLV",
"VLLLLLKp=DS*pKLLLLLLLLLLLLLLLLLLLLLLLLLLLLLLLLLLLLLLLLLLLLLLLLLLLLLLLLLLLLLLLLLLLLLLLLLLLLLLLLLLLLLV",
"VLLLLLA&sLKa%ZLLLLLLLLLLLLLLLLLLLLLLLLLLLLLLLLLLLLLLLLLLLLLLLLLLLLLLLLLLLLLLLLLLLLLLLLLLLLLLLLLLLLLV",
"VLLLLLcoMLLMohLLLLLLLLLLLLLLLLLLLLLLLLLLLLLLLLLLLLLLLLLLLLLLLLLLLLLLLLLLLLLLLLLLLLLLLLLLLLLLLLLLLLLV",
"VLLLLH75DHKS55GLLLLLLLLLLLLLLLLLLLLLLLLLLLLLLLLLLLLLLLLLLLLLLLLLLLLLLLLLLLLLLLLLLLLLLLLLLLLLLLLLLLLx",
"VLLLLN%%7777%%bLLLLLLLLLLLLLLLLLLLLLLLLLLLLLLLLLLLLLLLLLLLLLLLLLLLLLLLLLLLLLLLLLLLLLLLLLLLLLLLLLLLLV",
"xLLLLsoassssaoyKLLLLLLLLLLLLLLLLLLLLLLLLLLLLLLLLLLLLLLLLLLLLLLLLLLLLLLLLLLLLLLLLLLLLLLLLLLLLLLLLLLLV",
"VLLLS=8HLLLLKy&BLLLLLLLLLLLLLLLLLLLLLLLLLLLLLLLLLLLLLLLLLLLLLLLLLLLLLLLLLLLLLLLLLLLLLLLLLLLLLLLLLLLV",
"VLLLb.cLLLLLLb.fLLLLLLLLLLLLLLLLLLLLLLLLLLLLLLLLLLLLLLLLLLLLLLLLLLLLLLLLLLLLLLLLLLLLLLLLLLLLLLLLLLLV",
"VLLK8&SLLLLLLD==SLLLLLLLLLLLLLLLLLLLLLLLLLLLLLLLLLLLLLLLLLLLLLLLLLLLLLLLLLLLLLLLLLLLLLLLLLLLLLLLLLLV",
"xLLDphKLLLLLLLcyBLLLLLLLLLLLLLLLLLLLLLLLLLLLLLLLLLLLLLLLLLLLLLLLLLLLLLLLLLLLLLLLLLLLLLLLLLLLLLLLLLLV",
"VLLLKLLLLDCLLLLKLLLLLLLLLLLLLLLLLLLLLLLLLLLLLLLLLLLLLLLLLLLLLLLLLLLLLLLLLLLLLLLLLLLLLLLLLLLLLLLLLLLx",
"VLLLLLLLLcuKLLLLLLLLLLLLLLLLLLLLLLLLLLLLLLLLLLLLLLLLLLLLLLLLLLLLLLLLLLLLLLLLLLLLLLLLLLLLLLLLLLLLLLLV",
"VLLLLLLLD5omLLLLLLLLLLLLLLLLLLLLLLLLLLLLLLLLLLLLLLLLLLLLLLLLLLLLLLLLLLLLLLLLLLLLLLLLLLLLLLLLLLLLLLLV",
"VLLLLLLLh..8GLLLLLLLLLLLLLLLLLLLLLLLLLLLLLLLLLLLLLLLLLLLLLLLLLLLLLLLLLLLLLLLLLLLLLLLLLLLLLLLLLLLLLLV",
"VLLLLLLN*...jLLLLLLLLLLLLLLLLLLLLLLLLLLLLLLLLLLLLLLLLLLLLLLLLLLLLLLLLLLLLLLLLLLLLLLLLLLLLLLLLLLLLLLV",
"VLLLLLD7....*NLLLLLLLLLLLLLLLLLLLLLLLLLLLLLLLLLLLLLLLLLLLLLLLLLLLLLLLLLLLLLLLLLLLLLLLLLLLLLLLLLLLLLV",
"VLLLLHa......5ZLLLLLLLLLLLLLLLLLLLLLLLLLLLLLLLLLLLLLLLLLLLLLLLLLLLLLLLLLLLLLLLLLLLLLLLLLLLLLLLLLLLLV",
"VLLLHs..%.....7ALLLLLLLLLLLLLLLLLLLLLLLLLLLLLLLLLLLLLLLLLLLLLLLLLLLLLLLLLLLLLLLLLLLLLLLLLLLLLLLLLLLV",
"VLLDa.....%....6NLLLLLLLLLLLLLLLLLLLLLLLLLLLLLLLLLLLLLLLLLLLLLLLLLLLLLLLLLLLLLLLLLLLLLLLLLLLLLLLLLLx",
"VLLj.....%......yHLLLLLLLLLLLLLLLLLLLLLLLLLLLLLLLLLLLLLLLLLLLLLLLLLLLLLLLLLLLLLLLLLLLLLLLLLLLLLLLLLV",
"xLLGgo...%..%..8ALLLLLLLLLLLLLLLLLLLLLLLLLLLLLLLLLLLLLLLLLLLLLLLLLLLLLLLLLLLLLLLLLLLLLLLLLLLLLLLLLLV",
"VLLLKho.......yDLLLLLLLLLLLLLLLLLLLLLLLLLLLLLLLLLLLLLLLLLLLLLLLLLLLLLLLLLLLLLLLLLLLLLLLLLLLLLLLLLLLV",
"VLLLLKf......7DLLLLLLLLLLLLLLLLLLLLLLLLLLLLLLLLLLLLLLLLLLLLLLLLLLLLLLLLLLLLLLLLLLLLLLLLLLLLLLLLLLLLV",
"VLLLLLGu....=CLLLLLLLLLLLLLLLLLLLLLLLLLLLLLLLLLLLLLLLLLLLLLLLLLLLLLLLLLLLLLLLLLLLLLLLLLLLLLLLLLLLLLV",
"VLLLLLLZ=..ovLLLLLLLLLLLLLLLLLLLLLLLLLLLLLLLLLLLLLLLLLLLLLLLLLLLLLLLLLLLLLLLLLLLLLLLLLLLLLLLLLLLLLLV",
"VLLLLLLLc..iHLLLLLLLLLLLLLLLLLLLLLLLLLLLLLLLLLLLKHLLLLLLLLLLLLLLLLLLLLLLLLLLLLLLLLLLLLLLLLLLLLLLLLLV",
"xLLLLLLLG7&NLLLLLLLLLLLLLLLLLLLLLLLLLLLLLLLLLLLLZcLLLLLLLLLLLLLLLLLLLLLLLLLLLLLLLLLLLLLLLLLLLLLLLLLV",
"VLLLLLLLLbsKLLLLLLLLLLLLLLLLLLLLLLLLLLLLLLLLLLLLj7SLLLLLLLLLLLLLLLLLLLLLLLLLLLLLLLLLLLLLLLLLLLLLLLLV",
"VLLLLLLLLGSLLLLLLLLLLLLLLLLLLLLLLLLLLLLLLLLLLLLS8=cLLLLLLLLLLLLLLLLLLLLLLLLLLLLLLLLLLLLLLLLLLLLLLLLV",
"VLLLLLLLLLLLLLLLLLLLLLLLLLLLLLLLLLLLLLLLLLLLLLLc==8DLLLLLLLLLLLLLLLLLLLLLLLLLLLLLLLLLLLLLLLLLLLLLLLV",
"VLLLLLLLLLLLLLLLLLLLLLLLLLLLLLLLLLLLLLLLLLLLLLD8===vLLLLLLLLLLLLLLLLLLLLLLLLLLLLLLLLLLLLLLLLLLLLLLLV",
"VLLLLLLLLLLLLLLLLLLLLLLLLLLLLLLLLLLLLLLLLLLLLLb====8DLLLLLLLLLLLLLLLLLLLLLLLLLLLLLLLLLLLLLLLLLLLLLLV",
"xLLLLLLLLLLLLLLLLLLLLLLLLLLLLLLLLLLLLLLLLLLLLG8*====vLLLLLLLLLLLLLLLLLLLLLLLLLLLLLLLLLLLLLLLLLLLLLLx",
"VLLLLLLLLLLLLLLLLLLLLLLLLLLLLLLLLLLLLLLLLLLLLv@=*===8DLLLLLLLLLLLLLLLLLLLLLLLLLLLLLLLLLLLLLLLLLLLLLV",
"VLLLLLLLLLLLLLLLLLLLLLLLLLLLLLLLLLLLLLLLLLLLS7**=***=cLLLLLLLLLLLLLLLLLLLLLLLLLLLLLLLLLLLLLLLLLLLLLV",
"VLLLLLLLLLLLLLLLLLLLLLLLLLLLLLLLLLLLLLLLLLLLj*=******7SLLLLLLLLLLLLLLLLLLLLLLLLLLLLLLLLLLLLLLLLLLLLV",
"VLLLLLLLLLLLLLLLLLLLLLLLLLLLLLLLLLLLLLLLLLLZ6*********gLLLLLLLLLLLLLLLLLLLLLLLLLLLLLLLLLLLLLLLLLLLLV",
"VLLLLLLLLLLLLLLLLLLLLLLLLLLLLLLLLLLLLLLLLLKf**********5CLLLLLLLLLLLLLLLLLLLLLLLLLLLLLLLLLLLLLLLLLLLV",
"xLLLLLLLLLLLLLLLLLLLLLLLLLLLLLLLLLLLLLLLLLN=***&&*&****aKLLLLLLLLLLLLLLLLLLLLLLLLLLLLLLLLLLLLLLLLLLx",
"VLLLLLLLLLLLLLLLLLLLLLLLLLLLLLLLLLLLLLLLLGy***&*&&&*o**=bLLLLLLLLLLLLLLLLLLLLLLLLLLLLLLLLLLLLLLLLLLV",
"VLLLLLLLLLLLLLLLLLLLLLLLLLLLLLLLLLLLLLLLLc**&@&o&&&&&***7SLLLLLLLLLLLLLLLLLLLLLLLLLLLLLLLLLLLLLLLLLV",
"VLLLLLLLLLLLLLLLLLLLLLLLLLLLLLLLLLLLLLLLZ5**@ooo&o&&&****gKLLLLLLLLLLLLLLLLLLLLLLLLLLLLLLLLLLLLLLLLV",
"VLLLLLLLLLLLLLLLLLLLLLLLLLLLLLLLLLLLLLLHa@$@@@Xoo%%%&*&**5MLLLLLLLLLLLLLLLLLLLLLLLLLLLLLLLLLLLLLLLLV",
"VLLLLLLLLLLLLLLLLLLLLLLLLLLLLLLLLLLLLLLc=**+XXXooo.%%****=8SLLLLLLLLLLLLLLLLLLLLLLLLLLLLLLLLLLLLLLLV",
"xLLLLLLLLLLLLLLLLLLLLLLLLLLLLLLLLLLLLLB6==@+++XXooo%%%*&**=gKLLLLLLLLLLLLLLLLLLLLLLLLLLLLLLLLLLLLLLV",
"VLLLLLLLLLLLLLLLLLLLLLLLLLLLLLLLLLLLLGi=*$+#+++X.o.%&&@**===bLLLLLLLLLLLLLLLLLLLLLLLLLLLLLLLLLLLLLLV",
"VLLLLLLLLLLLLLLLLLLLLLLLLLLLLLLLLLLLKh==$$$#OO+XX.%%%&&*@===8ZLLLLLLLLLLLLLLLLLLLLLLLLLLLLLLLLLLLLLV",
"VLLLLLLLLLLLLLLLLLLLLLLLLLLLLLLLLLLLb5=$$>----#Xo.o%%&&***===pDLLLLLLLLLLLLLLLLLLLLLLLLLLLLLLLLLLLLV",
"VLLLLLLLLLLLLLLLLLLLLLLLLLLLLLLLLLLB7=55>:;;;-:+Xo%%%&&***==55gKLLLLLLLLLLLLLLLLLLLLLLLLLLLLLLLLLLLx",
"VLLLLLLLLLLLLLLLLLLLLLLLLLLLLLLLLLSy555><,111;-#X..o%&****===55vKLLLLLLLLLLLLLLLLLLLLLLLLLLLLLLLLLLV",
"xLLLLLLLLLLLLLLLLLLLLLLLLLLLLLLLLDs555<<239931;#Xo%o&&&**===5557mLLLLLLLLLLLLLLLLLLLLLLLLLLLLLLLLLLV",
"VLLLLLLLLLLLLLLLLLLLLLLLLLLLLLLLHf555<640qqq93,#@oo%%&&**====5657NLLLLLLLLLLLLLLLLLLLLLLLLLLLLLLLLLV",
"VLLLLLLLLLLLLLLLLLLLLLLLLLLLLLLHh7666240wrrwq4,:@o%%&&***===55566yCLLLLLLLLLLLLLLLLLLLLLLLLLLLLLLLLV",
"VLLLLLLLLLLLLLLLLLLLLLLLLLLLLLKc7<66240wrstrw3,$@o&&&&***===556566iALLLLLLLLLLLLLLLLLLLLLLLLLLLLLLLV",
"VLLLLLLLLLLLLLLLLLLLLLLLLLLLLKc7772240wtdttr03,$@o&&&****==55556667pZLLLLLLLLLLLLLLLLLLLLLLLLLLLLLLx",
"VLLLLLLLLLLLLLLLLLLLLLLLLLLLKc8727240qettttw01>$@&&&****====55666677aZLLLLLLLLLLLLLLLLLLLLLLLLLLLLLV",
"xLLLLLLLLLLLLLLLLLLLLLLLLLLHc87222339qertre93<$@*&*&o**====5555667777aCLLLLLLLLLLLLLLLLLLLLLLLLLLLLV",
"VLLLLLLLLLLLLLLLLLLLLLLLLLHc88821339qqqeqq0365=***&*****===55666777788pBLLLLLLLLLLLLLLLLLLLLLLLLLLLV",
"VLLLLLLLLLLLLLLLLLLLLLLLLDh44844333999q9902<5==*******====5=55666778888pMLLLLLLLLLLLLLLLLLLLLLLLLLLV",
"VLLLLLLLLLLLLLLLLLLLLLLLSgyy84443313390342<>5=*****=*====55565666777888ypmKLLLLLLLLLLLLLLLLLLLLLLLLV",
"VLLLLLLLLLLLLLLLLLLLLLLBfyyy8y4431333122<<>===*******=====5=6666768888yyuivHLLLLLLLLLLLLLLLLLLLLLLLV",
"VLLLLLLLLLLLLLLLLLLLLKMsypyy4y44222222<<5>5=====**=*====5=5656667778888uyypjDLLLLLLLLLLLLLLLLLLLLLLV",
"xLLLLLLLLLLLLLLLLLLLKbapppyyy84847726255555=============55556667777888yyppppfALLLLLLLLLLLLLLLLLLLLLx",
"VLLLLLLLLLLLLLLLLLLLKNfpppyyy88887766675555==========5=55556666677888yyuyppacDLLLLLLLLLLLLLLLLLLLLLV",
"VLLLLLLLLLLLLLLLLLLLLLAgppypy8887777675555555=5=======5=5556667778788yyuppanKLLLLLLLLLLLLLLLLLLLLLLV",
"VLLLLLLLLLLLLLLLLLLLLLLGcpypyyy887776665555555==5==5=5555666667777888yyyysNLLLLLLLLLLLLLLLLLLLLLLLLV",
"VLLLLLLLLLLLLLLLLLLLLLLLHvpyy8888887766665655555=55=5555555667778888yypyfZLLLLLLLLLLLLLLLLLLLLLLLLLV",
"VLLLLLLLLLLLLLLLLLLLLLLLLKnpyyy888777676566555555555555566666677888y8yygSLLLLLLLLLLLLLLLLLLLLLLLLLLV",
"xLLLLLLLLLLLLLLLLLLLLLLLLLLmpyy8877777766665555555555565666677777888yyhDLLLLLLLLLLLLLLLLLLLLLLLLLLLV",
"VLLLLLLLLLLLLLLLLLLLLLLLLLLLNpyy888777766666655555555565667677778888yhGLLLLLLLLLLLLLLLLLLLLLLLLLLLLV",
"VLLLLLLLLLLLLLLLLLLLLLLLLLLLLNp8888777776766666565656666666777878888hHLLLLLLLLLLLLLLLLLLLLLLLLLLLLLx",
"VLLLLLLLLLLLLLLLLLLLLLLLLLLLLLNp88888776666666566666666667767788888jGLLLLLLLLLLLLLLLLLLLLLLLLLLLLLLV",
"VLLLLLLLLLLLLLLLLLLLLLLLLLLLLLLMiy88777777666666666666666677787888hGLLLLLLLLLLLLLLLLLLLLLLLLLLLLLLLV",
"VLLLLLLLLLLLLLLLLLLLLLLLLLLLLLLLMu8887777767666766666667777778888gGLLLLLLLLLLLLLLLLLLLLLLLLLLLLLLLLV",
"xLLLLLLLLLLLLLLLLLLLLLLLLLLLLLLLKby88887777676766667677667777888sDLLLLLLLLLLLLLLLLLLLLLLLLLLLLLLLLLV",
"VLLLLLLLLLLLLLLLLLLLLLLLLLLLLLLLLKv8887887777667676777777788888aALLLLLLLLLLLLLLLLLLLLLLLLLLLLLLLLLLV",
"VLLLLLLLLLLLLLLLLLLLLLLLLLLLLLLLLLHh88888777777777777777778788uBLLLLLLLLLLLLLLLLLLLLLLLLLLLLLLLLLLLV",
"VLLLLLLLLLLLLLLLLLLLLLLLLLLLLLLLLLLDs8887887777777777777888888nLLLLLLLLLLLLLLLLLLLLLLLLLLLLLLLLLLLLV",
"VLLLLLLLLLLLLLLLLLLLLLLLLLLLLLLLLLLLZp88887777787777878778888cKLLLLLLLLLLLLLLLLLLLLLLLLLLLLLLLLLLLLV",
"VLLLLLLLLLLLLLLLLLLLLLLLLLLLLLLLLLLLLMy888887887788778888888fGLLLLLLLLLLLLLLLLLLLLLLLLLLLLLLLLLLLLLV",
"xLLLLLLLLLLLLLLLLLLLLLLLLLLLLLLLLLLLLKj88888878887878888888aALLLLLLLLLLLLLLLLLLLLLLLLLLLLLLLLLLLLLLx",
"VLLLLLLLLLLLLLLLLLLLLLLLLLLLLLLLLLLLLLDsy888888888888888y8ynLLLLLLLLLLLLLLLLLLLLLLLLLLLLLLLLLLLLLLLV",
"VLLLLLLLLLLLLLLLLLLLLLLLLLLLLLLLLLLLLLLNuy8y8y888888888y88hHLLLLLLLLLLLLLLLLLLLLLLLLLLLLLLLLLLLLLLLV",
"VLLLLLLLLLLLLLLLLLLLLLLLLLLLLLLLLLLLLLLLv8y888888888y8y8yaSLLLLLLLLLLLLLLLLLLLLLLLLLLLLLLLLLLLLLLLLV",
"VLLLLLLLLLLLLLLLLLLLLLLLLLLLLLLLLLLLLLLLGfyyyyyyy8yy8yyyymLLLLLLLLLLLLLLLLLLLLLLLLLLLLLLLLLLLLLLLLLV",
"VLLLLLLLLLLLLLLLLLLLLLLLLLLLLLLLLLLLLLLLLNpyuyyyyy8yyyyyhHLLLLLLLLLLLLLLLLLLLLLLLLLLLLLLLLLLLLLLLLLV",
"xLLLLLLLLLLLLLLLLLLLLLLLLLLLLLLLLLLLLLLLLKcyuyyyyyyyyyypALLLLLLLLLLLLLLLLLLLLLLLLLLLLLLLLLLLLLLLLLLx",
"VLLLLLLLLLLLLLLLLLLLLLLLLLLLLLLLLLLLLLLLLLSayuuuuuuuyiybLLLLLLLLLLLLLLLLLLLLLLLLLLLLLLLLLLLLLLLLLLLV",
"VLLLLLLLLLLLLLLLLLLLLLLLLLLLLLLLLLLLLLLLLLLnuuuuuuuuupsDLLLLLLLLLLLLLLLLLLLLLLLLLLLLLLLLLLLLLLLLLLLV",
"VLLLLLLLLLLLLLLLLLLLLLLLLLLLLLLLLLLLLLLLLLLGfyppyppyppmLLLLLLLLLLLLLLLLLLLLLLLLLLLLLLLLLLLLLLLLLLLLV",
"VLLLLLLLLLLLLLLLLLLLLLLLLLLLLLLLLLLLLLLLLLLLNppppppppgHLLLLLLLLLLLLLLLLLLLLLLLLLLLLLLLLLLLLLLLLLLLLV",
"VLLLLLLLLLLLLLLLLLLLLLLLLLLLLLLLLLLLLLLLLLLLHhpppppppNLLLLLLLLLLLLLLLLLLLLLLLLLLLLLLLLLLLLLLLLLLLLLV",
"xLLLLLLLLLLLLLLLLLLLLLLLLLLLLLLLLLLLLLLLLLLLLBaappppjKLLLLLLLLLLLLLLLLLLLLLLLLLLLLLLLLLLLLLLLLLLLLLV",
"VLLLLLLLLLLLLLLLLLLLLLLLLLLLLLLLLLLLLLLLLLLLLKjpapaaCLLLLLLLLLLLLLLLLLLLLLLLLLLLLLLLLLLLLLLLLLLLLLLV",
"VLLLLLLLLLLLLLLLLLLLLLLLLLLLLLLLLLLLLLLLLLLLLLBapapjKLLLLLLLLLLLLLLLLLLLLLLLLLLLLLLLLLLLLLLLLLLLLLLx",
"VLLLLLLLLLLLLLLLLLLLLLLLLLLLLLLLLLLLLLLLLLLLLLKhaaaBLLLLLLLLLLLLLLLLLLLLLLLLLLLLLLLLLLLLLLLLLLLLLLLV",
"VLLLLLLLLLLLLLLLLLLLLLLLLLLLLLLLLLLLLLLLLLLLLLLNaajHLLLLLLLLLLLLLLLLLLLLLLLLLLLLLLLLLLLLLLLLLLLLLLLV",
"VLLLLLLLLLLLLLLLLLLLLLLLLLLLLLLLLLLLLLLLLLLLLLLHhaNLLLLLLLLLLLLLLLLLLLLLLLLLLLLLLLLLLLLLLLLLLLLLLLLV",
"xLLLLLLLLLLLLLLLLLLLLLLLLLLLLLLLLLLLLLLLLLLLLLLLMhHLLLLLLLLLLLLLLLLLLLLLLLLLLLLLLLLLLLLLLLLLLLLLLLLV",
"VLLLLLLLLLLLLLLLLLLLLLLLLLLLLLLLLLLLLLLLLLLLLLLLGBLLLLLLLLLLLLLLLLLLLLLLLLLLLLLLLLLLLLLLLLLLLLLLLLLV",
"VLLLLLLLLLLLLLLLLLLLLLLLLLLLLLLLLLLLLLLLLLLLLLLLLKLLLLLLLLLLLLLLLLLLLLLLLLLLLLLLLLLLLLLLLLLLLLLLLLLV",
"VLLLLLLLLLLLLLLLLLLLLLLLLLLLLLLLLLLLLLLLLLLLLLLLLLLLLLLLLLLLLLLLLLLLLLLLLLLLLLLLLLLLLLLLLLLLLLLLLLLV",
"VLLLLLLLLLLLLLLLLLLLLLLLLLLLLLLLLLLLLLLLLLLLLLLLLLLLLLLLLLLLLLLLLLLLLLLLLLLLLLLLLLLLLLLLLHSLLLLLLLLx",
"VLLLLLLLLLLLLLLLLLLLLLLLLLLLLLLLLLLLLLLLLLLLLLLLLLLLLLLLLLLLLLLLLLLLLLLLLLLLLLLLLLLLLLLLLbsLLLLLLLLV",
"xLLLLLLLLLLLLLLLLLLLLLLLLLLLLLLLLLLLLLLLLLLLLLLLLLLLLLLLLLLLLLLLLLLLLLLLLLLLLLLLLLLLLLLLH7oBLLLLLLLV",
"VLLLLLLLLLLLLLLLLLLLLLLLLLLLLLLLLLLLLLLLLLLLLLLLLLLLLLLLLLLLLLLLLLLLLLLLLLLLLLLLLLLLLLLLc..aKLLLLLLV",
"VLLLLLLLLLLLLLLLLLLLLLLLLLLLLLLLLLLLLLLLLLLLLLLLLLLLLLLLLLLLLLLLLLLLLLLLLLLLLLLLLLLLLLLZ=..obLLLLLLV",
"VLLLLLLLLLLLLLLLLLLLLLLLLLLLLLLLLLLLLLLLLLLLLLLLLLLLLLLLLLLLLLLLLLLLLLLLLLLLLLLLLLLLLLHu.%..5ALLLLLV",
"VLLLLLLLLLLLLLLLLLLLLLLLLLLLLLLLLLLLLLLLLLLLLLLLLLLLLLLLLLLLLLLLLLLLLLLLLLLLLLLLLLLLLKg......8DLLLLV",
"VLLLLLLLLLLLLLLLLLLLLLLLLLLLLLLLLLLLLLLLLLLLLLLLLLLLLLLLLLLLLLLLLLLLLLLLLLLLLLLLLLLLKho....%..pGLLLV",
"xLLLLLLLLLLLLLLLLLLLLLLLLLLLLLLLLLLLLLLLLLLLLLLLLLLLLLLLLLLLLLLLLLLLLLLLLLLLLLLLLLLHho.....%...iSLLV",
"VLLLLLLLLLLLLLLLLLLLLLLLLLLLLLLLLLLLLLLLLLLLLLLLLLLLLLLLLLLLLLLLLLLLLLLLLLLLLLLLLLLj......%.....pHLV",
"VLLLLLLLLLLLLLLLLLLLLLLLLLLLLLLLLLLLLLLLLLLLLLLLLLLLLLLLLLLLLLLLLLLLLLLLLLLLLLLLLLLSi...%......5NKLV",
"VLLLLLLLLLLLLLLLLLLLLLLLLLLLLLLLLLLLLLLLLLLLLLLLLLLLLLLLLLLLLLLLLLLLLLLLLLLLLLLLLLLLGa........6ZLLLV",
"VLLLLLLLLLLLLLLLLLLLLLLLLLLLLLLLLLLLLLLLLLLLLLLLLLLLLLLLLLLLLLLLLLLLLLLLLLLLLLLLLLLLLGu......=ZLLLLV",
"VLLLLLLLLLLLLLLLLLLLLLLLLLLLLLLLLLLLLLLLLLLLLLLLLLLLLLLLLLLLLLLLLLLLLLLLLLLLLLLLLLLLLLS7....*MLLLLLV",
"xLLLLLLLLLLLLLLLLLLLLLLLLLLLLLLLLLLLLLLLLLLLLLLLLLLLLLLLLLLLLLLLLLLLLLLLLLLLLLLLLLLLLLLMo...hLLLLLLV",
"VLLLLLLLLLLLLLLLLLLLLLLLLLLLLLLLLLLLLLLLLLLLLLLLLLLLLLLLLLLLLLLLLLLLLLLLLLLLLLLLLLLLLLLKg..7GLLLLLLV",
"VLLLLLLLLLLLLLLLLLLLLLLLLLLLLLLLLLLLLLLLLLLLLLLLLLLLLLLLLLLLLLLLLLLLLLLLLLLLLLLLLLLLLLLLD5oMLLLLLLLV",
"VLLLLLLLLLLLLLLLLLLLLLLLLLLLLLLLLLLLLLLLLLLLLLLLLLLLLLLLLLLLLLLLLLLLLLLLLLLLLLLLLLLLLLLLLjyKLLLLLLLx",
"VLLLLLLLLLLLLLLLLLLLLLLLLLLLLLLLLLLLLLLLLLLLLLLLLLLLLLLLLLLLLLLLLLLLLLLLLLLLLLLLLLLGnNLLLDBLLLZbDLLV",
"VLLLLLLLLLLLLLLLLLLLLLLLLLLLLLLLLLLLLLLLLLLLLLLLLLLLLLLLLLLLLLLLLLLLLLLLLLLLLLLLLLLS$$DLLLLLLK8*SLLV",
"xLLLLLLLLLLLLLLLLLLLLLLLLLLLLLLLLLLLLLLLLLLLLLLLLLLLLLLLLLLLLLLLLLLLLLLLLLLLLLLLLLLLf.bLLLLLLC%aKLLV",
"VLLLLLLLLLLLLLLLLLLLLLLLLLLLLLLLLLLLLLLLLLLLLLLLLLLLLLLLLLLLLLLLLLLLLLLLLLLLLLLLLLLLB%yKLLLLLhomLLLV",
"VLLLLLLLLLLLLLLLLLLLLLLLLLLLLLLLLLLLLLLLLLLLLLLLLLLLLLLLLLLLLLLLLLLLLLLLLLLLLLLLLLLLKyXnBBNBM55GLLLV",
"VLLLLLLLLLLLLLLLLLLLLLLLLLLLLLLLLLLLLLLLLLLLLLLLLLLLLLLLLLLLLLLLLLLLLLLLLLLLLLLLLLLLLb.o&o*&%.hLLLLV",
"VLLLLLLLLLLLLLLLLLLLLLLLLLLLLLLLLLLLLLLLLLLLLLLLLLLLLLLLLLLLLLLLLLLLLLLLLLLLLLLLLLLLLD5*nNNN8oCLLLLx",
"VLLLLLLLLLLLLLLLLLLLLLLLLLLLLLLLLLLLLLLLLLLLLLLLLLLLLLLLLLLLLLLLLLLLLLLLLLLLLLLLLLLLLLg%MLLG5yKLLLLV",
"xLLLLLLLLLLLLLLLLLLLLLLLLLLLLLLLLLLLLLLLLLLLLLLLLLLLLLLLLLLLLLLLLLLLLLLLLLLLLLLLLLLLLLC%aLLb.bLLLLLV",
"VLLLLLLLLLLLLLLLLLLLLLLLLLLLLLLLLLLLLLLLLLLLLLLLLLLLLLLLLLLLLLLLLLLLLLLLLLLLLLLLLLLLLLKi*SLi=DLLLLLV",
"VLLLLLLLLLLLLLLLLLLLLLLLLLLLLLLLLLLLLLLLLLLLLLLLLLLLLLLLLLLLLLLLLLLLLLLLLLLLLLLLLLLLLLLnovS*sLLLLLLV",
"VLLLLLLLLLLLLLLLLLLLLLLLLLLLLLLLLLLLLLLLLLLLLLLLLLLLLLLLLLLLLLLLLLLLLLLLLLLLLLLLLLLLLLLG6uc%NLLLLLLV",
"VLLLLLLLLLLLLLLLLLLLLLLLLLLLLLLLLLLLLLLLLLLLLLLLLLLLLLLLLLLLLLLLLLLLLLLLLLLLLLLLLLLLLLLLh&57HLLLLLLV",
"VLLLLLLLLLLLLLLLLLLLLLLLLLLLLLLLLLLLLLLLLLLLLLLLLLLLLLLLLLLLLLLLLLLLLLLLLLLLLLLLLLLLLLLLZ=.cLLLLLLLV",
"xLLLLLLLLLLLLLLLLLLLLLLLLLLLLLLLLLLLLLLLLLLLLLLLLLLLLLLLLLLLLLLLLLLLLLLLLLLLLLLLLLLLLLLLKBMGLLLLLLLx",
"kJLLLLLLLLLLLLLLLLLLLLLLLLLLLLLLLLLLLLLLLLLLLLLLLLLLLLLLLLLLLLLLLLLLLLLLLLLLLLLLLLLLLLLLLLLLLLLLLLJk",
" zFLLLLLLLLLLLLLLLLLLLLLLLLLLLLLLLLLLLLLLLLLLLLLLLLLLLLLLLLLLLLLLLLLLLLLLLLLLLLLLLLLLLLLLLLLLLLLLJl ",
"  kxVVVVVVVVVVVVVVVVVVVVVVVVVVVSVVSVVVVVVVVVVVVVVVVVVVVVVVVVVVVVVVVVVVFVVVVVVVVVVVVVVVVVVVVVVVVVxk  "
};
