/* XPM */
static char *db63fae80c854d78e0f6a2a999305510hB77KK1kZazim3gc[] = {
/* columns rows colors chars-per-pixel */
"20 20 3 1 ",
"  c #bfbfbf",
"# c #aaaaaa",
"5 c #770f16",
/* pixels */
"####################",
"#                  #",
"#                  #",
"#                  #",
"#  5555555555555   #",
"#  5555555555555   #",
"#  5555            #",
"#  5555            #",
"#  5555            #",
"#  5555            #",
"#     5555555      #",
"#     5555555      #",
"#  55        555   #",
"#  55        555   #",
"#    55555555      #",
"#    55555555      #",
"#                  #",
"#                  #",
"#                  #",
"####################"
};  