/* XPM */
static char *db63fae80c854d78e0f6a2a999305510hB77KK1kZazim3gc[] = {
/* columns rows colors chars-per-pixel */
"20 20 3 1 ",
"  c #bfbfbf",
"# c #aaaaaa",
"6 c #ff6969",
/* pixels */
"####################",
"#        666666    #",
"#        666666    #",
"#        666666    #",
"#     666          #",
"#     666          #",
"#     666          #",
"#  666             #",
"#  666             #",
"#  666             #",
"#  66666666666     #",
"#  66666666666     #",
"#  66666666666     #",
"#  666        666  #",
"#  666        666  #",
"#  666        666  #",
"#     66666666     #",
"#     66666666     #",
"#     66666666     #",
"####################"
};  