/* XPM */
static char *HIT1672361798[] = {
/* columns rows colors chars-per-pixel */
"169 72 2 1 ",
"  c #2B7150",
". c white",
/* pixels */
"                                                                                                                                                                         ",
"                                                                                                                                                                         ",
"                                                                                                                                                                         ",
"                                                                                                                                                                         ",
"                                                                                                                                                                         ",
"                                                                                                                                                                         ",
"                                                                                                                                                                         ",
"                             .......                              .......             .......         ...........................................                        ",
"                             .......                              .......             .......         ...........................................                        ",
"                             .......                              .......             .......         ...........................................                        ",
"                             .......                              .......             .......         ...........................................                        ",
"                             .......                              .......             .......         ...........................................                        ",
"                             .......                              .......             .......         ...........................................                        ",
"                             .......                              .......             .......         ...........................................                        ",
"                             .......                              .......             .......                           .......                                          ",
"                             .......                              .......             .......                           .......                                          ",
"                             .......                              .......             .......                           .......                                          ",
"                             .......                              .......             .......                           .......                                          ",
"                             .......                              .......             .......                           .......                                          ",
"                             .......                              .......             .......                           .......                                          ",
"                             .......                              .......             .......                           .......                                          ",
"                             .......                              .......             .......                           .......                                          ",
"                             .......                              .......             .......                           .......                                          ",
"                             .......                              .......             .......                           .......                                          ",
"                             .......                              .......             .......                           .......                                          ",
"                             .......                              .......             .......                           .......                                          ",
"                             .......                              .......             .......                           .......                                          ",
"                             .......                              .......             .......                           .......                                          ",
"                             .......                              .......             .......                           .......                                          ",
"                             ............................................             .......                           .......                                          ",
"                             ............................................             .......                           .......                                          ",
"                             ............................................             .......                           .......                                          ",
"                             ............................................             .......                           .......                                          ",
"                             ............................................             .......                           .......                                          ",
"                             ............................................             .......                           .......                                          ",
"                             ............................................             .......                           .......                                          ",
"                             .......                              .......             .......                           .......                                          ",
"                             .......                              .......             .......                           .......                                          ",
"                             .......                              .......             .......                           .......                                          ",
"                             .......                              .......             .......                           .......                                          ",
"                             .......                              .......             .......                           .......                                          ",
"                             .......                              .......             .......                           .......                                          ",
"                             .......                              .......             .......                           .......                                          ",
"                             .......                              .......             .......                           .......                                          ",
"                             .......                              .......             .......                           .......                                          ",
"                             .......                              .......             .......                           .......                                          ",
"                             .......                              .......             .......                           .......                                          ",
"                             .......                              .......             .......                           .......                                          ",
"                             .......                              .......             .......                           .......                                          ",
"                             .......                              .......             .......                           .......                                          ",
"                             .......                              .......             .......                           .......                                          ",
"                             .......                              .......             .......                           .......                                          ",
"                             .......                              .......             .......                           .......                                          ",
"                             .......                              .......             .......                           .......                                          ",
"                             .......                              .......             .......                           .......                                          ",
"                             .......                              .......             .......                           .......                                          ",
"                             .......                              .......             .......                           .......                                          ",
"                             .......                              .......             .......                           .......                                          ",
"                             .......                              .......             .......                           .......                                          ",
"                             .......                              .......             .......                           .......                                          ",
"                             .......                              .......             .......                           .......                                          ",
"                             .......                              .......             .......                           .......                                          ",
"                                                                                                                                                                         ",
"                                                                                                                                                                         ",
"                                                                                                                                                                         ",
"                                                                                                                                                                         ",
"                                                                                                                                                                         ",
"                                                                                                                                                                         ",
"                                                                                                                                                                         ",
"                                                                                                                                                                         ",
"                                                                                                                                                                         ",
"                                                                                                                                                                         "
};
