/* XPM */
static char *UkVTVEFSVA__[] = {
/* columns rows colors chars-per-pixel */
"169 72 16 1 ",
"  c #808080",
". c #9D92A7",
"X c #A699B4",
"o c #AE9DBE",
"O c #B4A1C6",
"+ c #B9A4CD",
"@ c #BDA7D4",
"# c #C1AAD9",
"$ c #C5ACDF",
"% c #C9AFE4",
"& c #CCB1E8",
"* c #D0B3ED",
"= c #D3B5F1",
"- c #D5B6F5",
"; c #D8B8F8",
": c #DDBBFF",
/* pixels */
":::::::::::::::::::::::::::::::::::::::::::::::::::::::::::::::::::::::::::::::::::::::::::::::::::::::::::::::::::::::::::::::::::::::::::::::::::::::::::::::::::::::::",
":::::::::::::::::::::::::::::::::::::::::::::::::::::::::::::::::::::::::::::::::::::::::::::::::::::::::::::::::::::::::::::::::::::::::::::::::::::::::::::::::::::::::",
":::::::::::::::::::::::::::::::::::::::::::::::::::::::::::::::::::::::::::::::::::::::::::::::::::::::::::::::::::::::::::::::::::::::::::::::::::::::::::::::::::::::::",
":::::::::::::::::::::::::::::::::::::::::::::::::::::::::::::::::::::::::::::::::::::::::::::::::::::::::::::::::::::::::::::::::::::::::::::::::::::::::::::::::::::::::",
":::::::::::::::::::::::::::::::::::::::::::::::::::::::::::::::::::::::::::::::::::::::::::::::::::::::::::::::::::::::::::::::::::::::::::::::::::::::::::::::::::::::::",
":::::::::::::::::::::::::::::::::::::::::::::::::::::::::::::::::::::::::::::::::::::::::::::::::::::::::::::::::::::::::::::::::::::::::::::::::::::::::::::::::::::::::",
":::::::::::::::::::::::::::::::::::::::::::::::::::::::::::::::::::::::::::::::::::::::::::::::::::::::::::::::::::::::::::::::::::::::::::::::::::::::::::::::::::::::::",
":::::::::::::::::::::::::::::::::::::::::::::::::::::::::::::::::::::::::::::::::::::::::::::::::::::::::::::::::::::::::::::::::::::::::::::::::::::::::::::::::::::::::",
":::::::::::::::::::::::::::::::::::::::::::::::::::::::::::::::::::::::::::::::::::::::::::::::::::::::::::::::::::::::::::::::::::::::::::::::::::::::::::::::::::::::::",
":::::::::::::::::::::::::::::::::::::::::::::::::::::::::::::::::::::::::::::::::::::::::::::::::::::::::::::::::::::::::::::::::::::::::::::::::::::::::::::::::::::::::",
":::::::::::::::::::::::::::::::::::::::::::::::::::::::::::::::::::::::::::::::::::::::::::::::::::::::::::::::::::::::::::::::::::::::::::::::::::::::::::::::::::::::::",
":::::::::::::::::::::::::::::::::::::::::::::::::::::::::::::::::::::::::::::::::::::::::::::::::::::::::::::::::::::::::::::::::::::::::::::::::::::::::::::::::::::::::",
":::::::::::::::::::::::::::::::::::::::::::::::::::::::::::::::::::::::::::::::::::::::::::::::::::::::::::::::::::::::::::::::::::::::::::::::::::::::::::::::::::::::::",
":::::::::::::::::::::::::::::::::::::::::::::::::::::::::::::::::::::::::::::::::::::::::::::::::::::::::::::::::::::::::::::::::::::::::::::::::::::::::::::::::::::::::",
":::::::::::::::::::::::::::::::::::::::::::::::::::::::::::::::::::::::::::::::::::::::::::::::::::::::::::::::::::::::::::::::::::::::::::::::::::::::::::::::::::::::::",
":::::::::::::::::::::::::::::::::::::::::::::::::::::::::::::::::::::::::::::::::::::::::::::::::::::::::::::::::::::::::::::::::::::::::::::::::::::::::::::::::::::::::",
":::::::::::::::::::::::::::::::::::::::::::::::::::::::::::::::::::::::::::::::::::::::::::::::::::::::::::::::::::::::::::::::::::::::::::::::::::::::::::::::::::::::::",
":::::::::::::::::::::::::::::::::::::::::::::::::::::::::::::::::::::::::::::::::::::::::::::::::::::::::::::::::::::::::::::::::::::::::::::::::::::::::::::::::::::::::",
":::::::::::::::::::::::::::::::::::::::::::::::::::::::::::::::::::::::::::::::::::::::::::::::::::::::::::::::::::::::::::::::::::::::::::::::::::::::::::::::::::::::::",
":::::::::::::::::::::::::::::::::::::::::::::::::::::::::::::::::::::::::::::::::::::::::::::::::::::::::::::::::::::::::::::::::::::::::::::::::::::::::::::::::::::::::",
":::::::::::::::::::::::::::::::::::::::::::::::::::::::::::::::::::::::::::::::::::::::::::::::::::::::::::::::::::::::::::::::::::::::::::::::::::::::::::::::::::::::::",
":::::::::::::::::::::::::::::::::::::::::::::::::::::::::::::::::::::::::::::::::::::::::::::::::::::::::::::::::::::::::::::::::::::::::::::::::::::::::::::::::::::::::",
":::::::::::::::::::::::::::::::::::::::::::::::::::::::::::::::::::::::::::::::::::::::::::::::::::::::::::::::::::::::::::::::::::::::::::::::::::::::::::::::::::::::::",
"::::::             O#=:::::::::                 ::::::::::&+X   o@*::::::::                   ::::::::::+   +::::::::::::             O#=:::::::                   ::::::",
"::::::                @::::::::                 ::::::::*.         o-::::::                   :::::::::;     ;:::::::::::                @::::::                   ::::::",
"::::::                 #:::::::                 :::::::&            .-:::::                   :::::::::%     %:::::::::::                 #:::::                   ::::::",
"::::::   :::::::::-%X   -::::::   ::::::::::::::::::::;   X&;:::=#.  .:::::::::::::   :::::::::::::::::X  @  X:::::::::::   :::::::::-%X   -::::::::::::   ::::::::::::::",
"::::::   ::::::::::::o  @::::::   ::::::::::::::::::::@  o::::::::-.  %::::::::::::   ::::::::::::::::=  .:X  =::::::::::   ::::::::::::o  @::::::::::::   ::::::::::::::",
"::::::   ::::::::::::*  X::::::   ::::::::::::::::::::X  -:::::::::&  o::::::::::::   ::::::::::::::::@  #:#  @::::::::::   ::::::::::::*  X::::::::::::   ::::::::::::::",
"::::::   :::::::::::::   ::::::   ::::::::::::::::::::   :::::::::::   ::::::::::::   ::::::::::::::::.  ;:;  .::::::::::   :::::::::::::   ::::::::::::   ::::::::::::::",
"::::::   :::::::::::::   ::::::   ::::::::::::::::::::   ;:::::::::::::::::::::::::   :::::::::::::::&  O:::O  &:::::::::   :::::::::::::   ::::::::::::   ::::::::::::::",
"::::::   ::::::::::::&  X::::::   ::::::::::::::::::::+  +:::::::::::::::::::::::::   :::::::::::::::o  &:::&  o:::::::::   ::::::::::::&  X::::::::::::   ::::::::::::::",
"::::::   :::::::::::-.  @::::::   ::::::::::::::::::::=   X$;::::::::::::::::::::::   ::::::::::::::-  .:::::.  -::::::::   :::::::::::-.  @::::::::::::   ::::::::::::::",
"::::::   :::::::::=#.   ;::::::   :::::::::::::::::::::@     X@&;::::::::::::::::::   ::::::::::::::#  @:::::@  #::::::::   :::::::::=#.   ;::::::::::::   ::::::::::::::",
"::::::                 &:::::::                :::::::::%.       X#-:::::::::::::::   ::::::::::::::.  -:::::-  .::::::::                 &:::::::::::::   ::::::::::::::",
"::::::               .&::::::::                :::::::::::%o        O;:::::::::::::   :::::::::::::&  X:::::::X  &:::::::               .&::::::::::::::   ::::::::::::::",
"::::::             O%::::::::::                :::::::::::::;&@X     .-::::::::::::   :::::::::::::+  %:::::::%  +:::::::             O%::::::::::::::::   ::::::::::::::",
"::::::   :::::;o  o-:::::::::::   ::::::::::::::::::::::::::::::;%X   .;:::::::::::   ::::::::::::;               ;::::::   :::::;o  o-:::::::::::::::::   ::::::::::::::",
"::::::   ::::::-.  .-::::::::::   :::::::::::::::::::::::::::::::::%.  @:::::::::::   ::::::::::::$               $::::::   ::::::-.  .-::::::::::::::::   ::::::::::::::",
"::::::   :::::::&   o::::::::::   :::::::::::::::::::   ::::::::::::%  X:::::::::::   ::::::::::::X               X::::::   :::::::&   o::::::::::::::::   ::::::::::::::",
"::::::   ::::::::&   +:::::::::   :::::::::::::::::::X  *::::::::::::   :::::::::::   :::::::::::*  X:::::::::::X  *:::::   ::::::::&   +:::::::::::::::   ::::::::::::::",
"::::::   :::::::::+   &::::::::   :::::::::::::::::::@  @::::::::::::   :::::::::::   :::::::::::@  $:::::::::::#  @:::::   :::::::::+   &::::::::::::::   ::::::::::::::",
"::::::   ::::::::::.  .::::::::   :::::::::::::::::::*   -::::::::::$  O:::::::::::   :::::::::::   ;:::::::::::;   :::::   ::::::::::.  .::::::::::::::   ::::::::::::::",
"::::::   ::::::::::*   @:::::::   ::::::::::::::::::::X  .=::::::::&   &:::::::::::   ::::::::::%  O:::::::::::::O  %::::   ::::::::::*   @:::::::::::::   ::::::::::::::",
"::::::   :::::::::::O   =::::::   ::::::::::::::::::::-    O&;:::*O   o::::::::::::   ::::::::::o  &:::::::::::::&  o::::   :::::::::::O   =::::::::::::   ::::::::::::::",
"::::::   :::::::::::;.  o::::::                  ::::::&             .;::::::::::::   :::::::::-  .:::::::::::::::.  -:::   :::::::::::;.  o::::::::::::   ::::::::::::::",
"::::::   ::::::::::::%   $:::::                  :::::::-o          +::::::::::::::   :::::::::@  @:::::::::::::::@  @:::   ::::::::::::%   $:::::::::::   ::::::::::::::",
"::::::   :::::::::::::o  .;::::                  :::::::::=#O    O#;:::::::::::::::   :::::::::.  -:::::::::::::::-  .:::   :::::::::::::o  .;::::::::::   ::::::::::::::",
":::::::::::::::::::::::::::::::::::::::::::::::::::::::::::::::::::::::::::::::::::::::::::::::::::::::::::::::::::::::::::::::::::::::::::::::::::::::::::::::::::::::::",
":::::::::::::::::::::::::::::::::::::::::::::::::::::::::::::::::::::::::::::::::::::::::::::::::::::::::::::::::::::::::::::::::::::::::::::::::::::::::::::::::::::::::",
":::::::::::::::::::::::::::::::::::::::::::::::::::::::::::::::::::::::::::::::::::::::::::::::::::::::::::::::::::::::::::::::::::::::::::::::::::::::::::::::::::::::::",
":::::::::::::::::::::::::::::::::::::::::::::::::::::::::::::::::::::::::::::::::::::::::::::::::::::::::::::::::::::::::::::::::::::::::::::::::::::::::::::::::::::::::",
":::::::::::::::::::::::::::::::::::::::::::::::::::::::::::::::::::::::::::::::::::::::::::::::::::::::::::::::::::::::::::::::::::::::::::::::::::::::::::::::::::::::::",
":::::::::::::::::::::::::::::::::::::::::::::::::::::::::::::::::::::::::::::::::::::::::::::::::::::::::::::::::::::::::::::::::::::::::::::::::::::::::::::::::::::::::",
":::::::::::::::::::::::::::::::::::::::::::::::::::::::::::::::::::::::::::::::::::::::::::::::::::::::::::::::::::::::::::::::::::::::::::::::::::::::::::::::::::::::::",
":::::::::::::::::::::::::::::::::::::::::::::::::::::::::::::::::::::::::::::::::::::::::::::::::::::::::::::::::::::::::::::::::::::::::::::::::::::::::::::::::::::::::",
":::::::::::::::::::::::::::::::::::::::::::::::::::::::::::::::::::::::::::::::::::::::::::::::::::::::::::::::::::::::::::::::::::::::::::::::::::::::::::::::::::::::::",
":::::::::::::::::::::::::::::::::::::::::::::::::::::::::::::::::::::::::::::::::::::::::::::::::::::::::::::::::::::::::::::::::::::::::::::::::::::::::::::::::::::::::",
":::::::::::::::::::::::::::::::::::::::::::::::::::::::::::::::::::::::::::::::::::::::::::::::::::::::::::::::::::::::::::::::::::::::::::::::::::::::::::::::::::::::::",
":::::::::::::::::::::::::::::::::::::::::::::::::::::::::::::::::::::::::::::::::::::::::::::::::::::::::::::::::::::::::::::::::::::::::::::::::::::::::::::::::::::::::",
":::::::::::::::::::::::::::::::::::::::::::::::::::::::::::::::::::::::::::::::::::::::::::::::::::::::::::::::::::::::::::::::::::::::::::::::::::::::::::::::::::::::::",
":::::::::::::::::::::::::::::::::::::::::::::::::::::::::::::::::::::::::::::::::::::::::::::::::::::::::::::::::::::::::::::::::::::::::::::::::::::::::::::::::::::::::",
":::::::::::::::::::::::::::::::::::::::::::::::::::::::::::::::::::::::::::::::::::::::::::::::::::::::::::::::::::::::::::::::::::::::::::::::::::::::::::::::::::::::::",
":::::::::::::::::::::::::::::::::::::::::::::::::::::::::::::::::::::::::::::::::::::::::::::::::::::::::::::::::::::::::::::::::::::::::::::::::::::::::::::::::::::::::",
":::::::::::::::::::::::::::::::::::::::::::::::::::::::::::::::::::::::::::::::::::::::::::::::::::::::::::::::::::::::::::::::::::::::::::::::::::::::::::::::::::::::::",
":::::::::::::::::::::::::::::::::::::::::::::::::::::::::::::::::::::::::::::::::::::::::::::::::::::::::::::::::::::::::::::::::::::::::::::::::::::::::::::::::::::::::",
":::::::::::::::::::::::::::::::::::::::::::::::::::::::::::::::::::::::::::::::::::::::::::::::::::::::::::::::::::::::::::::::::::::::::::::::::::::::::::::::::::::::::",
":::::::::::::::::::::::::::::::::::::::::::::::::::::::::::::::::::::::::::::::::::::::::::::::::::::::::::::::::::::::::::::::::::::::::::::::::::::::::::::::::::::::::",
":::::::::::::::::::::::::::::::::::::::::::::::::::::::::::::::::::::::::::::::::::::::::::::::::::::::::::::::::::::::::::::::::::::::::::::::::::::::::::::::::::::::::",
":::::::::::::::::::::::::::::::::::::::::::::::::::::::::::::::::::::::::::::::::::::::::::::::::::::::::::::::::::::::::::::::::::::::::::::::::::::::::::::::::::::::::",
":::::::::::::::::::::::::::::::::::::::::::::::::::::::::::::::::::::::::::::::::::::::::::::::::::::::::::::::::::::::::::::::::::::::::::::::::::::::::::::::::::::::::",
":::::::::::::::::::::::::::::::::::::::::::::::::::::::::::::::::::::::::::::::::::::::::::::::::::::::::::::::::::::::::::::::::::::::::::::::::::::::::::::::::::::::::"
};
