/* XPM */
static char *_f86ba39b3774d9f94db3c8a0ae59a46IUIceVeAXkyjocwN[] = {
/* columns rows colors chars-per-pixel */
"169 72 18 1 ",
"  c #F0801E",
". c #F18222",
"X c #F18424",
"o c #F0872B",
"O c #F18A31",
"+ c #F18E38",
"@ c #F2923F",
"# c #F29747",
"$ c #F39B4F",
"% c #F3A058",
"& c #F4A661",
"* c #F5AB6B",
"= c #F5B277",
"- c #F6B983",
"; c #F7C191",
": c #F8CBA3",
"> c #FAD8BB",
", c white",
/* pixels */
"                                                                                                                                                                         ",
"                                                                                                                                                                         ",
"                                                                                                                                                                         ",
"                                                                                                                                                                         ",
"                                                                                                                                                                         ",
"                                                                                                                                                                         ",
"                                                                                                                                                                         ",
"                                                                                                                                                                         ",
"                                                                                                                                                                         ",
"                                                                                                                                                                         ",
"                                                                                                                                                                         ",
"                                                                                                                                                                         ",
"                                                                                                                                                                         ",
"                                                                                                                                                                         ",
"                                                                                                                                                                         ",
"                   +%-;,,,,:-&#                                                                                                                                          ",
"                 %:,,,,,,,,,,,,,=+              ,,,,,,,,,,,,,,,,,,>-=%O              ,,,,,                           ,,,,,      ,,,,,,,,,,,,,,,,,,,,,,,,,,,,,,,          ",
"               $>,,,,,,,,,,,,,,,,,-o            ,,,,,,,,,,,,,,,,,,,,,,,:#            ,,,,,                           ,,,,,      ,,,,,,,,,,,,,,,,,,,,,,,,,,,,,,,          ",
"              *,,,,,,,,,,,,,,,,,,,,>O           ,,,,,,,,,,,,,,,,,,,,,,,,,;o          ,,,,,                           ,,,,,      ,,,,,,,,,,,,,,,,,,,,,,,,,,,,,,,          ",
"             *,,,,,,,,,,,,,,,,,,,,,,>O          ,,,,,,,,,,,,,,,,,,,,,,,,,,>o         ,,,,,                           ,,,,,      ,,,,,,,,,,,,,,,,,,,,,,,,,,,,,,,          ",
"            @,,,,,,>*@O    o+%;,,,,,,:          ,,,,,,,,,,,,,,,,,,,,,,,,,,,;         ,,,,,                           ,,,,,      ,,,,,,,,,,,,,,,,,,,,,,,,,,,,,,,          ",
"            :,,,,,&            +>,,,,,%         ,,,,,              +#-,,,,,,%        ,,,,,                           ,,,,,                   ,,,,,                       ",
"           @,,,,,#               ;,,,,>         ,,,,,                 $,,,,,>        ,,,,,                           ,,,,,                   ,,,,,                       ",
"           *,,,,=                O,,,,,#        ,,,,,                  $,,,,,#       ,,,,,                           ,,,,,                   ,,,,,                       ",
"           :,,,,O                 *,,,,=        ,,,,,                   -,,,,*       ,,,,,                           ,,,,,                   ,,,,,                       ",
"           ,,,,,                  @,,,,:        ,,,,,                   #,,,,;       ,,,,,                           ,,,,,                   ,,,,,                       ",
"           ,,,,,                   ,,,,,        ,,,,,      .XXX.        o,,,,,       ,,,,,                           ,,,,,                   ,,,,,                       ",
"           >,,,,O                               ,,,,,                    ,,,,,       ,,,,,                           ,,,,,                   ,,,,,                       ",
"           -,,,,=                               ,,,,,                    ,,,,,       ,,,,,                           ,,,,,                   ,,,,,                       ",
"           $,,,,,&                              ,,,,,                   o,,,,>       ,,,,,                           ,,,,,                   ,,,,,                       ",
"            >,,,,,;#                            ,,,,,                   #,,,,-       ,,,,,                           ,,,,,                   ,,,,,                       ",
"            %,,,,,,,>*#                         ,,,,,                   :,,,,%       ,,,,,                           ,,,,,                   ,,,,,                       ",
"             *,,,,,,,,,,;*#o                    ,,,,,                  *,,,,,O       ,,,,,                           ,,,,,                   ,,,,,                       ",
"              *,,,,,,,,,,,,,:*#                 ,,,,,                 *,,,,,-        ,,,,,                           ,,,,,                   ,,,,,                       ",
"               $>,,,,,,,,,,,,,,,=#              ,,,,,             +#*>,,,,,,+        ,,,,,                           ,,,,,                   ,,,,,                       ",
"                 %:,,,,,,,,,,,,,,,>$            ,,,,,,,,,,,,,,,,,,,,,,,,,,,&         ,,,,,                           ,,,,,                   ,,,,,                       ",
"                   @&:,,,,,,,,,,,,,,;o          ,,,,,,,,,,,,,,,,,,,,,,,,,,*          ,,,,,                           ,,,,,                   ,,,,,                       ",
"                      o#*:,,,,,,,,,,,>O         ,,,,,,,,,,,,,,,,,,,,,,,,,&           ,,,,,                           ,,,,,                   ,,,,,                       ",
"                          o#*:,,,,,,,,:         ,,,,,,,,,,,,,,,,,,,,,,,*O            ,,,,,                           ,,,,,                   ,,,,,                       ",
"                              O&>,,,,,,*        ,,,,,,,,,,,,,,,,,,--%@               ,,,,,                           ,,,,,                   ,,,,,                       ",
"                                 &,,,,,,o       ,,,,,                                ,,,,,                           ,,,,,                   ,,,,,                       ",
"                                  #,,,,,%       ,,,,,                                ,,,,,                           ,,,,,                   ,,,,,                       ",
"                                   =,,,,-       ,,,,,                                ,,,,,                           ,,,,,                   ,,,,,                       ",
"          ,,,,,                    @,,,,,       ,,,,,                                ,,,,,                           ,,,,,                   ,,,,,                       ",
"          >,,,,+                    ,,,,,       ,,,,,                                ,,,,,                           ,,,,,                   ,,,,,                       ",
"          -,,,,&                    ,,,,,       ,,,,,                                ,,,,,                           ,,,,,                   ,,,,,                       ",
"          %,,,,:                   o,,,,:       ,,,,,                                ,,,,,                           ,,,,,                   ,,,,,                       ",
"          O,,,,,$                  #,,,,=       ,,,,,                                ,,,,,                           ,,,,,                   ,,,,,                       ",
"           :,,,,>O                 :,,,,#       ,,,,,                                ,,,,,                           ,,,,,                   ,,,,,                       ",
"           #,,,,,>+               ;,,,,>        ,,,,,                                ,,,,,                           ,,,,,                   ,,,,,                       ",
"            ;,,,,,,*o           +:,,,,,%        ,,,,,                                ,,,,,                           ,,,,,                   ,,,,,                       ",
"            O>,,,,,,,;$+    o+&:,,,,,,;         ,,,,,                                ,,,,,,,,,,,,,,,,,,,,,,,,,       ,,,,,                   ,,,,,                       ",
"             @,,,,,,,,,,,,,,,,,,,,,,,>O         ,,,,,                                ,,,,,,,,,,,,,,,,,,,,,,,,,       ,,,,,                   ,,,,,                       ",
"              +>,,,,,,,,,,,,,,,,,,,,:O          ,,,,,                                ,,,,,,,,,,,,,,,,,,,,,,,,,       ,,,,,                   ,,,,,                       ",
"               o-,,,,,,,,,,,,,,,,,,=            ,,,,,                                ,,,,,,,,,,,,,,,,,,,,,,,,,       ,,,,,                   ,,,,,                       ",
"                 +=,,,,,,,,,,,,,,=+             ,,,,,                                ,,,,,,,,,,,,,,,,,,,,,,,,,       ,,,,,                   ,,,,,                       ",
"                    @%-;,,,,,-*#                                                                                                                                         ",
"                                                                                                                                                                         ",
"                                                                                                                                                                         ",
"                                                                                                                                                                         ",
"                                                                                                                                                                         ",
"                                                                                                                                                                         ",
"                                                                                                                                                                         ",
"                                                                                                                                                                         ",
"                                                                                                                                                                         ",
"                                                                                                                                                                         ",
"                                                                                                                                                                         ",
"                                                                                                                                                                         ",
"                                                                                                                                                                         ",
"                                                                                                                                                                         ",
"                                                                                                                                                                         ",
"                                                                                                                                                                         "
};
