/* XPM */
static char *db63fae80c854d78e0f6a2a999305510hB77KK1kZazim3gc[] = {
/* columns rows colors chars-per-pixel */
"169 72 28 1 ",
"  c #AB1719",
". c #B31719",
"X c #B71719",
"o c #BA1718",
"O c #B91819",
"+ c #BD1F20",
"@ c #BE2122",
"# c #BE2425",
"$ c #BF2B2B",
"% c #C23233",
"& c #C4393A",
"* c #C64142",
"= c #C84646",
"- c #C9494A",
"; c #CB5353",
": c #CC5454",
"> c #CE5D5D",
", c #D16767",
"< c #D26768",
"1 c #D57273",
"2 c #D97F80",
"3 c #DD8E8E",
"4 c #DF9394",
"5 c #E2A0A0",
"6 c #EAB8B9",
"7 c #EEC6C6",
"8 c #F0CACA",
"9 c white",
/* pixels */
"ooooooooooooooooooooooooooooooooooooooooooooooooooooooooooooooooooooooooooooooooooooooooooooooooooooooooooooooooooooooooooooooooooooooooooooooooooooooooooooooooooooooooo",
"ooooooooooooooooooooooooooooooooooooooooooooooooooooooooooooooooooooooooooooooooooooooooooooooooooooooooooooooooooooooooooooooooooooooooooooooooooooooooooooooooooooooooo",
"ooooooooooooooooooooooooooooooooooooooooooooooooooooooooooooooooooooooooooooooooooooooooooooooooooooooooooooooooooooooooooooooooooooooooooooooooooooooooooooooooooooooooo",
"ooooooooooooooooooooooooooooooooooooooooooooooooooooooooooooooooooooooooooooooooooooooooooooooooooooooooooooooooooooooooooooooooooooooooooooooooooooooooooooooooooooooooo",
"ooooooooooooooooooooooooooooooooooooooooooooooooooooooooooooooooooooooooooooooooooooooooooooooooooooooooooooooooooooooooooooooooooooooooooooooooooooooooooooooooooooooooo",
"ooooooooooooooooooooooooooooooooooooooooooooooooooooooooooooooooooooooooooooooooooooooooooooooooooooooooooooooooooooooooooooooooooooooooooooooooooooooooooooooooooooooooo",
"ooooooooooooooooooooooooooooooooooooooooooooooooooooooooooooooooooooooooooooooooooooooooooooooooooooooooooooooooooooooooooooooooooooooooooooooooooooooooooooooooooooooooo",
"ooooooooooooooooooooooooooooooooooooooooooooooooooooooooooooooooooooooooooooooooooooooooooooooooooooooooooooooooooooooooooooooooooooooooooooooooooooooooooooooooooooooooo",
"ooooooooooooooooooooooooooooooooooooooooooooooooooooooooooooooooooooooooooooooooooooooooooooooooooooooooooooooooooooooooooooooooooooooooooooooooooooooooooooooooooooooooo",
"ooooooooooooooooooooooooooooooooooooooooooooooooooooooooooooooooooooooooooooooooooooooooooooooooooooooooooooooooooooooooooooooooooooooooooooooooooooooooooooooooooooooooo",
"oooooooooooooo%;229999932;&oooooooooooooooooooooooooooooooooooooooooooooooooooooooooooooooooooooooooooooooooooooooooooooooooooooooooooooooooooooooooooooooooooooooooooooo",
"ooooooooooo%,6999999999999991*oooooooooooooo999999999999999999999999999999999999ooooooooooooooooooo@8999999#ooooooooooooooooo1999999&oooooooooooooooooooooooooo&999998+oo",
"ooooooooo#299999999999999999995*oooooooooooo999999999999999999999999999999999999ooooooooooooooooooo;9999999;oooooooooooooooooo6999996oooooooooooooooooooooooooo6999994ooo",
"oooooooo*999999999999999999999992ooooooooooo999999999999999999999999999999999999ooooooooooooooooooo599999995oooooooooooooooooo&9999991oooooooooooooooooooooooo1999999%ooo",
"ooooooo;99999999999999999999999993oooooooooo999999999999999999999999999999999999oooooooooooooooooo&999999999&oooooooooooooooooo1999999&oooooooooooooooooooooo&9999991oooo",
"oooooo*99999996,*%ooooo%*,699999993ooooooooo999999999999999999999999999999999999oooooooooooooooooo19999999991ooooooooooooooooooo6999996oooooooooooooooooooooo6999996ooooo",
"ooooo#6999999;ooooooooooooo*6999999,ooooooooooooooooooooooo999999ooooooooooooooooooooooooooooooooo99999,99999ooooooooooooooooooo&9999991oooooooooooooooooooo1999999&ooooo",
"ooooo,999996$ooooooooooooooo#3999999%oooooooooooooooooooooo999999oooooooooooooooooooooooooooooooo-99996o69999-ooooooooooooooooooo1999999&oooooooooooooooooo&9999991oooooo",
"oooo#999999%oooooooooooooooooo6999992oooooooooooooooooooooo999999oooooooooooooooooooooooooooooooo59999,o>99995oooooooooooooooooooo6999996oooooooooooooooooo6999996ooooooo",
"oooo-99999,ooooooooooooooooooo*999999#ooooooooooooooooooooo999999ooooooooooooooooooooooooooooooo%99999$o$99999%ooooooooooooooooooo&9999991oooooooooooooooo1999999&ooooooo",
"oooo299999&oooooooooooooooooooo599999-ooooooooooooooooooooo999999ooooooooooooooooooooooooooooooo,99995ooo59999,oooooooooooooooooooo1999999&oooooooooooooo&9999991oooooooo",
"oooo699999ooooooooooooooooooooo;999992ooooooooooooooooooooo999999ooooooooooooooooooooooooooooooo99999-ooo-99999ooooooooooooooooooooo6999996oooooooooooooo6999996ooooooooo",
"Oooo999999ooooooooooooooooooooo%999995ooooooooooooooooooooo999999oooooooooooooooooooooooooooooo-99999#ooo#99999-oooooooooooooooooooo&9999991oooooooooooo1999999&ooooooooo",
"oooo999999oooooooooooooooooooooo999999ooooooooooooooooooooo999999oooooooooooooooooooooooooooooo399991ooooo199993ooooooooooooooooooooo1999999&oooooooooo&9999991oooooooooo",
"oooo699999*oooooooooooooooooooooooooooooooooooooooooooooooo999999ooooooooooooooooooooooooooooo$99999*ooooo*99999$ooooooooooooooooooooo6999996oooooooooo6999996ooooooooooo",
"oooo2999995oooooooooooooooooooooooooooooooooooooooooooooooo999999ooooooooooooooooooooooooooooo,99996ooooooo69999,ooooooooooooooooooooo&9999991oooooooo1999999&ooooooooooo",
"oooo=999999,ooooooooooooooooooooooooooooooooooooooooooooooo999999ooooooooooooooooooooooooooooo69999,ooooooo,99996oooooooooooooooooooooo1999999&oooooo&9999991oooooooooooo",
"oooo@99999993%ooooooooooooooooooooooooooooooooooooooooooooo999999oooooooooooooooooooooooooooo*99999%ooooooo%99999*oooooooooooooooooooooo6999996oooooo6999996ooooooooooooo",
"ooooo,999999993-#oooooooooooooooooooooooooooooooooooooooooo999999oooooooooooooooooooooooooooo399995ooooooooo599993oooooooooooooooooooooo&9999991oooo1999999&ooooooooooooo",
"oooooo699999999993;%ooooooooooooooooooooooooooooooooooooooo999999ooooooooooooooooooooooooooo#99999>ooooooooo>99999#oooooooooooooooooooooo2999999&oo&9999992oooooooooooooo",
"oooooo$699999999999992;%ooooooooooooooooooooooooooooooooooo999999ooooooooooooooooooooooooooo>99999#ooooooooo#99999>oooooooooooooooooooooo#6999996oo6999996#oooooooooooooo",
"ooooooo$699999999999999992-$ooooooooooooooooooooooooooooooo999999ooooooooooooooooooooooooooo699993ooooooooooo399996ooooooooooooooooooooooo-99999911999999-ooooooooooooooo",
"oooooooo#29999999999999999995;#oooooooooooooooooooooooooooo999999oooooooooooooooooooooooooo*99999*ooooooooooo*99999*ooooooooooooooooooooooo29999999999992oooooooooooooooo",
"oooooooooo*59999999999999999999,#oooooooooooooooooooooooooo999999oooooooooooooooooooooooooo299999ooooooooooooo999992ooooooooooooooooooooooo#699999999996#oooooooooooooooo",
"oooooooooooo%,6999999999999999999;ooooooooooooooooooooooooo999999ooooooooooooooooooooooooo#99999,ooooooooooooo,99999#ooooooooooooooooooooooo-9999999999-ooooooooooooooooo",
"ooooooooooooooo&>599999999999999993oooooooooooooooooooooooo999999ooooooooooooooooooooooooo;99999&ooooooooooooo&99999;oooooooooooooooooooooooo2999999992oooooooooooooooooo",
"oooooooooooooooooo#*,599999999999993ooooooooooooooooooooooo999999ooooooooooooooooooooooooo599996ooooooooooooooo699995oooooooooooooooooooooooo#69999996#oooooooooooooooooo",
"oooooooooooooooooooooo$-1999999999992oooooooooooooooooooooo999999oooooooooooooooooooooooo&99999>ooooooooooooooo>99999&oooooooooooooooooooooooo-999999-ooooooooooooooooooo",
"oooooooooooooooooooooooooo&,999999999*ooooooooooooooooooooo999999oooooooooooooooooooooooo19999999999999999999999999991ooooooooooooooooooooooooo999999oooooooooooooooooooo",
"ooooooooooooooooooooooooooooo>99999995ooooooooooooooooooooo999999ooooooooooooooooooooooo#99999999999999999999999999999#oooooooooooooooooooooooo999999oooooooooooooooooooo",
"oooooooooooooooooooooooooooooo$6999999&oooooooooooooooooooo999999ooooooooooooooooooooooo-99999999999999999999999999999-oooooooooooooooooooooooo999999oooooooooooooooooooo",
"ooooooooooooooooooooooooooooooo$999999,oooooooooooooooooooo999999ooooooooooooooooooooooo5999999999999999999999999999995oooooooooooooooooooooooo999999oooooooooooooooooooo",
"oo799999oooooooooooooooooooooooo,999992oooooooooooooooooooo999999oooooooooooooooooooooo%9999999999999999999999999999999%ooooooooooooooooooooooo999999oooooooooooooooooooo",
"oo499999%ooooooooooooooooooooooo%999999oooooooooooooooooooo999999oooooooooooooooooooooo,99999*ooooooooooooooooooo*99999,ooooooooooooooooooooooo999999oooooooooooooooooooo",
"oo<99999-oooooooooooooooooooooooo999999oooooooooooooooooooo999999oooooooooooooooooooooo999996ooooooooooooooooooooo699999ooooooooooooooooooooooo999999oooooooooooooooooooo",
"oo:999991oooooooooooooooooooooooo999999oooooooooooooooooooo999999ooooooooooooooooooooo-99999,ooooooooooooooooooooo,99999-oooooooooooooooooooooo999999oooooooooooooooooooo",
"oo&999996oooooooooooooooooooooooo999995oooooooooooooooooooo999999ooooooooooooooooooooo399999%ooooooooooooooooooooo%999993oooooooooooooooooooooo999999oooooooooooooooooooo",
"ooo999999*oooooooooooooooooooooo&999992oooooooooooooooooooo999999oooooooooooooooooooo$999995ooooooooooooooooooooooo599999$ooooooooooooooooooooo999999oooooooooooooooooooo",
"ooo1999996oooooooooooooooooooooo299999-oooooooooooooooooooo999999oooooooooooooooooooo,99999;ooooooooooooooooooooooo;99999,ooooooooooooooooooooo999999oooooooooooooooooooo",
"ooo%9999991oooooooooooooooooooo%999999#oooooooooooooooooooo999999oooooooooooooooooooo699999#ooooooooooooooooooooooo#999996ooooooooooooooooooooo999999oooooooooooooooooooo",
"oooo1999999,ooooooooooooooooooo599999,ooooooooooooooooooooo999999ooooooooooooooooooo*999993ooooooooooooooooooooooooo399999*oooooooooooooooooooo999999oooooooooooooooooooo",
"oooo%99999992#ooooooooooooooo$3999999#ooooooooooooooooooooo999999ooooooooooooooooooo399999*ooooooooooooooooooooooooo*999993oooooooooooooooooooo999999oooooooooooooooooooo",
"ooooO-99999999>#ooooooooooo#;9999999;oooooooooooooooooooooo999999oooooooooooooooooo$999999ooooooooooooooooooooooooooo999999$ooooooooooooooooooo999999oooooooooooooooooooo",
"ooooOo,9999999993;%#oooo%-199999999,ooooooooooooooooooooooo999999oooooooooooooooooo>99999,ooooooooooooooooooooooooooo,99999>ooooooooooooooooooo999999oooooooooooooooooooo",
"ooooooo,999999999999999999999999991oooooooooooooooooooooooo999999oooooooooooooooooo699999&ooooooooooooooooooooooooooo&999996ooooooooooooooooooo999999oooooooooooooooooooo",
"oooooooo*699999999999999999999999;ooooooooooooooooooooooooo999999ooooooooooooooooo*999996ooooooooooooooooooooooooooooo699999*oooooooooooooooooo999999oooooooooooooooooooo",
"ooooooooo#,999999999999999999992%oooooooooooooooooooooooooo999999ooooooooooooooooo299999>ooooooooooooooooooooooooooooo>999992oooooooooooooooooo999999oooooooooooooooooooo",
"ooooooooooo#>59999999999999991%oooooooooooooooooooooooooooo999999oooooooooooooooo#999999$ooooooooooooooooooooooooooooo$999999#ooooooooooooooooo999999oooooooooooooooooooo",
"oooooooooooooo$->239999932;&ooooooooooooooooooooooooooooooooooooooooooooooooooooooooooooooooooooooooooooooooooooooooooooooooooooooooooooooooooooooooooooooooooooooooooooo",
"ooooooooooooooooooooooooooooooooooooooooooooooooooooooooooooooooooooooooooooooooooooooooooooooooooooooooooooooooooooooooooooooooooooooooooooooooooooooooooooooooooooooooo",
"ooooooooooooooooooooooooooooooooooooooooooooooooooooooooooooooooooooooooooooooooooooooooooooooooooooooooooooooooooooooooooooooooooooooooooooooooooooooooooooooooooooooooo",
"ooooooooooooooooooooooooooooooooooooooooooooooooooooooooooooooooooooooooooooooooooooooooooooooooooooooooooooooooooooooooooooooooooooooooooooooooooooooooooooooooooooooooo",
"ooooooooooooooooooooooooooooooooooooooooooooooooooooooooooooooooooooooooooooooooooooooooooooooooooooooooooooooooooooooooooooooooooooooooooooooooooooooooooooooooooooooooo",
"ooooooooooooooooooooooooooooooooooooooooooooooooooooooooooooooooooooooooooooooooooooooooooooooooooooooooooooooooooooooooooooooooooooooooooooooooooooooooooooooooooooooooo",
"ooooooooooooooooooooooooooooooooooooooooooooooooooooooooooooooooooooooooooooooooooooooooooooooooooooooooooooooooooooooooooooooooooooooooooooooooooooooooooooooooooooooooo",
"ooooooooooooooooooooooooooooooooooooooooooooooooooooooooooooooooooooooooooooooooooooooooooooooooooooooooooooooooooooooooooooooooooooooooooooooooooooooooooooooooooooooooo",
"ooooooooooooooooooooooooooooooooooooooooooooooooooooooooooooooooooooooooooooooooooooooooooooooooooooooooooooooooooooooooooooooooooooooooooooooooooooooooooooooooooooooooo",
"ooooooooooooooooooooooooooooooooooooooooooooooooooooooooooooooooooooooooooooooooooooooooooooooooooooooooooooooooooooooooooooooooooooooooooooooooooooooooooooooooooooooooo",
"ooooooooooooooooooooooooooooooooooooooooooooooooooooooooooooooooooooooooooooooooooooooooooooooooooooooooooooooooooooooooooooooooooooooooooooooooooooooooooooooooooooooooo",
"ooooooooooooooooooooooooooooooooooooooooooooooooooooooooooooooooooooooooooooooooooooooooooooooooooooooooooooooooooooooooooooooooooooooooooooooooooooooooooooooooooooooooo",
"ooooooooooooooooooooooooooooooooooooooooooooooooooooooooooooooooooooooooooooooooooooooooooooooooooooooooooooooooooooooooooooooooooooooooooooooooooooooooooooooooooooooooo",
"ooooooooooooooooooooooooooooooooooooooooooooooooooooooooooooooooooooooooooooooooooooooooooooooooooooooooooooooooooooooooooooXoX..                      Xooooooooooooooooo"
};
