/* XPM */
static char *VkFMSURFUg__[] = {
/* columns rows colors chars-per-pixel */
"169 72 16 1 ",
"  c #808080",
". c #819FA7",
"X c #81AAB4",
"o c #81B2BE",
"O c #82B8C6",
"+ c #82BECD",
"@ c #82C3D4",
"# c #82C8D9",
"$ c #82CCDF",
"% c #82D0E4",
"& c #82D4E8",
"* c #82D7ED",
"= c #82DAF1",
"- c #82DEF5",
"; c #82E0F8",
": c #82E6FF",
/* pixels */
":::::::::::::::::::::::::::::::::::::::::::::::::::::::::::::::::::::::::::::::::::::::::::::::::::::::::::::::::::::::::::::::::::::::::::::::::::::::::::::::::::::::::",
":::::::::::::::::::::::::::::::::::::::::::::::::::::::::::::::::::::::::::::::::::::::::::::::::::::::::::::::::::::::::::::::::::::::::::::::::::::::::::::::::::::::::",
":::::::::::::::::::::::::::::::::::::::::::::::::::::::::::::::::::::::::::::::::::::::::::::::::::::::::::::::::::::::::::::::::::::::::::::::::::::::::::::::::::::::::",
":::::::::::::::::::::::::::::::::::::::::::::::::::::::::::::::::::::::::::::::::::::::::::::::::::::::::::::::::::::::::::::::::::::::::::::::::::::::::::::::::::::::::",
":::::::::::::::::::::::::::::::::::::::::::::::::::::::::::::::::::::::::::::::::::::::::::::::::::::::::::::::::::::::::::::::::::::::::::::::::::::::::::::::::::::::::",
":::::::::::::::::::::::::::::::::::::::::::::::::::::::::::::::::::::::::::::::::::::::::::::::::::::::::::::::::::::::::::::::::::::::::::::::::::::::::::::::::::::::::",
":::::::::::::::::::::::::::::::::::::::::::::::::::::::::::::::::::::::::::::::::::::::::::::::::::::::::::::::::::::::::::::::::::::::::::::::::::::::::::::::::::::::::",
":::::::::::::::::::::::::::::::::::::::::::::::::::::::::::::::::::::::::::::::::::::::::::::::::::::::::::::::::::::::::::::::::::::::::::::::::::::::::::::::::::::::::",
":::::::::::::::::::::::::::::::::::::::::::::::::::::::::::::::::::::::::::::::::::::::::::::::::::::::::::::::::::::::::::::::::::::::::::::::::::::::::::::::::::::::::",
":::::::::::::::::::::::::::::::::::::::::::::::::::::::::::::::::::::::::::::::::::::::::::::::::::::::::::::::::::::::::::::::::::::::::::::::::::::::::::::::::::::::::",
":::::::::::::::::::::::::::::::::::::::::::::::::::::::::::::::::::::::::::::::::::::::::::::::::::::::::::::::::::::::::::::::::::::::::::::::::::::::::::::::::::::::::",
":::::::::::::::::::::::::::::::::::::::::::::::::::::::::::::::::::::::::::::::::::::::::::::::::::::::::::::::::::::::::::::::::::::::::::::::::::::::::::::::::::::::::",
":::::::::::::::::::::::::::::::::::::::::::::::::::::::::::::::::::::::::::::::::::::::::::::::::::::::::::::::::::::::::::::::::::::::::::::::::::::::::::::::::::::::::",
":::::::::::::::::::::::::::::::::::::::::::::::::::::::::::::::::::::::::::::::::::::::::::::::::::::::::::::::::::::::::::::::::::::::::::::::::::::::::::::::::::::::::",
":::::::::::::::::::::::::::::::::::::::::::::::::::::::::::::::::::::::::::::::::::::::::::::::::::::::::::::::::::::::::::::::::::::::::::::::::::::::::::::::::::::::::",
":::::::::::::::::::::::::::::::::::::::::::::::::::::::::::::::::::::::::::::::::::::::::::::::::::::::::::::::::::::::::::::::::::::::::::::::::::::::::::::::::::::::::",
":::::::::::::::::::::::::::::::::::::::::::::::::::::::::::::::::::::::::::::::::::::::::::::::::::::::::::::::::::::::::::::::::::::::::::::::::::::::::::::::::::::::::",
":::::::::::::::::::::::::::::::::::::::::::::::::::::::::::::::::::::::::::::::::::::::::::::::::::::::::::::::::::::::::::::::::::::::::::::::::::::::::::::::::::::::::",
":::::::;     -:::::::::::::::::::::-     ;:::::::::::::::::::::::::::::::    ::::::::    :::::::::::::::::::::::::    :::::::::::::::::::::::::::::::::::::::::::::::::::",
"::::::::o    #:::::::::::::::::::::#    o::::::::::::::::::::::::::::::::    ::::::::    :::::::::::::::::::::::::    :::::::::::::::::::::::::::::::::::::::::::::::::::",
"::::::::&    .:::::::::::::::::::::.    &::::::::::::::::::::::::::::::::    ::::::::    :::::::::::::::::::::::::    :::::::::::::::::::::::::::::::::::::::::::::::::::",
":::::::::     *:::::::::::::::::::*     :::::::::::::::::::::::::::::::::    ::::::::    :::::::::::::::::::::::::    :::::::::::::::::::::::::::::::::::::::::::::::::::",
":::::::::@    +:::::::::::::::::::+    +:::::::::::::::::::::::::::::::::    :::::::::::::::::::::::::::::::::::::    :::::::::::::::::::::::::::::::::::::::::::::::::::",
":::::::::*     :::::::::::::::::::     *:::::::::::::::::::::::::::::::::    :::::::::::::::::::::::::::::::::::::    :::::::::::::::::::::::::::::::::::::::::::::::::::",
"::::::::::.    &:::::::::::::::::%    .::::::::::::::::::::::::::::::::::    :::::::::::::::::::::::::::::::::::::    :::::::::::::::::::::::::::::::::::::::::::::::::::",
"::::::::::#    o:::::::::::::::::o    #::::::::::::::::::::::::::::::::::    :::::::::::::::::::::::::::::::::::::    :::::::::::::::::::::::::::::::::::::::::::::::::::",
"::::::::::-     ;:::::::::::::::-     -::::::::::::::::::::::::::::::::::    :::::::::::::::::::::::::::::::::::::    :::::::::::::::::::::::::::::::::::::::::::::::::::",
":::::::::::o    #:::::::::::::::#    X::::::::::::*#OX    o+%;:::::::::::    :::::::::::::::::::::::::*@o   O#;:::    ::::::::::::-$O.   O#=::::::::::::::::::%o  X@-::::",
":::::::::::%    X:::::::::::::::X    %::::::::::$.            @;:::::::::    ::::::::    :::::::::::*X         $::    ::::::::::-O          o=::::::::::   ::o       +:::",
"::::::::::::     *:::::::::::::*     ;::::::::-o               .-::::::::    ::::::::    ::::::::::@            O:    :::::::::&              $:::::::::   :o        @:::",
"::::::::::::+    @:::::::::::::@    O:::::::::.                 X::::::::    ::::::::    :::::::::O              +    ::::::::#                @::::::::   +         =:::",
"::::::::::::&     :::::::::::::     &::::::::O    .#=::::-&O     &:::::::    ::::::::    ::::::::$    .#=:::*@        :::::::&     +&;:::*@     %:::::::      X&::=OX::::",
":::::::::::::.    &:::::::::::&    .::::::::-    o::::::::::=.   +:::::::    ::::::::    :::::::;    o;:::::::=.      :::::::.   X=::::::::;o   .;::::::     o::::::;::::",
":::::::::::::@    o:::::::::::o    @::::::::@   .;:::::::::::$   X:::::::    ::::::::    :::::::@   X::::::::::-.     ::::::@   o::::::::::::+   @::::::     =:::::::::::",
":::::::::::::-     ;:::::::::;     *::::::::X   $::::::::::::;    :::::::    ::::::::    :::::::    =:::::::::::&     ::::::.   ;:::::::::::::.  .::::::    o::::::::::::",
"::::::::::::::X    $:::::::::#    X:::::::::;&@X;:::::::::::::    :::::::    ::::::::    ::::::&   o:::::::::::::X    :::::*   @::::::::::::::#   *:::::    $::::::::::::",
"::::::::::::::$    X:::::::::X    #:::::::::::::::::::::::::::    :::::::    ::::::::    ::::::#   %:::::::::::::#    :::::#   =::::::::::::::=   #:::::    =::::::::::::",
"::::::::::::::;     =:::::::*     ;:::::::::::::::::::::::-&#X    :::::::    ::::::::    ::::::O   =:::::::::::::=    :::::O   ::::::::::::::::   O:::::    ;::::::::::::",
":::::::::::::::O    @:::::::@    o:::::::::::::::::=*$$Oo         :::::::    ::::::::    ::::::.   ::::::::::::::;    :::::.                      .:::::    :::::::::::::",
":::::::::::::::&    .:::::::     %::::::::::::::%o                :::::::    ::::::::    ::::::    :::::::::::::::    :::::                        :::::    :::::::::::::",
"::::::::::::::::.    &:::::&     :::::::::::::$.                  :::::::    ::::::::    ::::::    :::::::::::::::    :::::                        :::::    :::::::::::::",
"::::::::::::::::@    O:::::o    +::::::::::::o            o@%;    :::::::    ::::::::    ::::::    :::::::::::::::    :::::                        :::::    :::::::::::::",
"::::::::::::::::*     ;:::;     &:::::::::::+      o+$%=;:::::    :::::::    ::::::::    ::::::.   :::::::::::::::    :::::    :::::::::::::::::::::::::    :::::::::::::",
":::::::::::::::::X    $:::#    .:::::::::::=    o*::::::::::::    :::::::    ::::::::    ::::::O   =:::::::::::::=    :::::O   =::::::::::::::::::::::::    :::::::::::::",
":::::::::::::::::#    X:::X    @:::::::::::+   +:::::::::::::=    :::::::    ::::::::    ::::::#   #:::::::::::::%    :::::@   %::::::::::::::::::::::::    :::::::::::::",
":::::::::::::::::;     -:-     -:::::::::::.   ;:::::::::::::$    :::::::    ::::::::    ::::::*   X:::::::::::::O    :::::%   X::::::::::::::=X@&;:::::    :::::::::::::",
"::::::::::::::::::o    #:#    X::::::::::::    ::::::::::::::.    :::::::    ::::::::    :::::::.   %:::::::::::=     :::::;    %:::::::::::::o   +:::::    :::::::::::::",
"::::::::::::::::::&    X:X    $::::::::::::    =::::::::::::o     :::::::    ::::::::    :::::::$   .-::::::::::X     ::::::+   .-:::::::::::#    &:::::    :::::::::::::",
":::::::::::::::::::     &     ;::::::::::::O   o::::::::::&X      :::::::    ::::::::    ::::::::.   .=:::::::-o      ::::::;    .%:::::::::#    X::::::    :::::::::::::",
":::::::::::::::::::+         O:::::::::::::&    .#=::::=$X        -::::::    ::::::::    ::::::::*     O*:::=@        :::::::$     X%-:::-%X     =::::::    :::::::::::::",
":::::::::::::::::::*         &::::::::::::::o                     =::::::    ::::::::    :::::::::#              $    ::::::::@                 &:::::::    :::::::::::::",
"::::::::::::::::::::.        :::::::::::::::-.              X*.   &::::::    ::::::::    ::::::::::%            @:    :::::::::#               &::::::::    :::::::::::::",
"::::::::::::::::::::#       @:::::::::::::::::O           X$::+   #::::::    ::::::::    :::::::::::=O         $::    ::::::::::=O           O-:::::::::    :::::::::::::",
"::::::::::::::::::::-       *::::::::::::::::::-#O.   XO$=::::=   X::::::    ::::::::    :::::::::::::=@o   o#;:::    ::::::::::::-$O.   XO$;:::::::::::    :::::::::::::",
":::::::::::::::::::::::::::::::::::::::::::::::::::::::::::::::::::::::::::::::::::::::::::::::::::::::::::::::::::::::::::::::::::::::::::::::::::::::::::::::::::::::::",
":::::::::::::::::::::::::::::::::::::::::::::::::::::::::::::::::::::::::::::::::::::::::::::::::::::::::::::::::::::::::::::::::::::::::::::::::::::::::::::::::::::::::",
":::::::::::::::::::::::::::::::::::::::::::::::::::::::::::::::::::::::::::::::::::::::::::::::::::::::::::::::::::::::::::::::::::::::::::::::::::::::::::::::::::::::::",
":::::::::::::::::::::::::::::::::::::::::::::::::::::::::::::::::::::::::::::::::::::::::::::::::::::::::::::::::::::::::::::::::::::::::::::::::::::::::::::::::::::::::",
":::::::::::::::::::::::::::::::::::::::::::::::::::::::::::::::::::::::::::::::::::::::::::::::::::::::::::::::::::::::::::::::::::::::::::::::::::::::::::::::::::::::::",
":::::::::::::::::::::::::::::::::::::::::::::::::::::::::::::::::::::::::::::::::::::::::::::::::::::::::::::::::::::::::::::::::::::::::::::::::::::::::::::::::::::::::",
":::::::::::::::::::::::::::::::::::::::::::::::::::::::::::::::::::::::::::::::::::::::::::::::::::::::::::::::::::::::::::::::::::::::::::::::::::::::::::::::::::::::::",
":::::::::::::::::::::::::::::::::::::::::::::::::::::::::::::::::::::::::::::::::::::::::::::::::::::::::::::::::::::::::::::::::::::::::::::::::::::::::::::::::::::::::",
":::::::::::::::::::::::::::::::::::::::::::::::::::::::::::::::::::::::::::::::::::::::::::::::::::::::::::::::::::::::::::::::::::::::::::::::::::::::::::::::::::::::::",
":::::::::::::::::::::::::::::::::::::::::::::::::::::::::::::::::::::::::::::::::::::::::::::::::::::::::::::::::::::::::::::::::::::::::::::::::::::::::::::::::::::::::",
":::::::::::::::::::::::::::::::::::::::::::::::::::::::::::::::::::::::::::::::::::::::::::::::::::::::::::::::::::::::::::::::::::::::::::::::::::::::::::::::::::::::::",
":::::::::::::::::::::::::::::::::::::::::::::::::::::::::::::::::::::::::::::::::::::::::::::::::::::::::::::::::::::::::::::::::::::::::::::::::::::::::::::::::::::::::",
":::::::::::::::::::::::::::::::::::::::::::::::::::::::::::::::::::::::::::::::::::::::::::::::::::::::::::::::::::::::::::::::::::::::::::::::::::::::::::::::::::::::::",
":::::::::::::::::::::::::::::::::::::::::::::::::::::::::::::::::::::::::::::::::::::::::::::::::::::::::::::::::::::::::::::::::::::::::::::::::::::::::::::::::::::::::",
":::::::::::::::::::::::::::::::::::::::::::::::::::::::::::::::::::::::::::::::::::::::::::::::::::::::::::::::::::::::::::::::::::::::::::::::::::::::::::::::::::::::::",
":::::::::::::::::::::::::::::::::::::::::::::::::::::::::::::::::::::::::::::::::::::::::::::::::::::::::::::::::::::::::::::::::::::::::::::::::::::::::::::::::::::::::",
":::::::::::::::::::::::::::::::::::::::::::::::::::::::::::::::::::::::::::::::::::::::::::::::::::::::::::::::::::::::::::::::::::::::::::::::::::::::::::::::::::::::::",
":::::::::::::::::::::::::::::::::::::::::::::::::::::::::::::::::::::::::::::::::::::::::::::::::::::::::::::::::::::::::::::::::::::::::::::::::::::::::::::::::::::::::"
};
