/* XPM */
static char *_767ec0ab9614894d42c5f0de07d13eaD9paMwNOntvZu0wF[] = {
/* columns rows colors chars-per-pixel */
"169 72 16 1 ",
"  c #393B3B",
". c #444646",
"X c #4A4B4B",
"o c #505252",
"O c #565858",
"+ c #5D5F5F",
"@ c #646666",
"# c #6C6D6D",
"$ c #747676",
"% c #7D7E7E",
"& c #878888",
"* c #929393",
"= c #9E9F9F",
"- c #AEAFAF",
"; c #C3C3C3",
": c white",
/* pixels */
"                                                                                                                                                                         ",
"                                                                                                                                                                         ",
"                                                                                                                                                                         ",
"                                                                                                                                                                         ",
"                                                                                                                                                                         ",
"                                                                                                                                                                         ",
"                                                                                                                                                                         ",
"                                                                                                                                                                         ",
"                                                                                                                                                                         ",
"                                                                                                                                                                         ",
"                                                                                                                                                                         ",
"                                             &:::::::$                       -:::::::&                O#*=::::;*%+.                                                      ",
"                                              -:::::::o                     $:::::::;              .%;:::::::::::::*o                                                    ",
"                                              o:::::::-                    O::::::::o             $::::::::::::::::::*.                                                  ",
"                                               $:::::::&                   ;:::::::$            X=::::::::::::::::::::;o                                                 ",
"                                                =:::::::O                 &:::::::-            X;:::::::::::::::::::::::O                                                ",
"                                                X:::::::;                +::::::::o            -::::::::::::::::::::::::;X                                               ",
"                                                 #:::::::*              .;:::::::#            %::::::::=@o    o+*::::::::=                                               ",
"                                                  *:::::::@             *:::::::=            o:::::::=o          X=:::::::#                                              ",
"                                                  .;::::::;X           @::::::::X            %::::::%              %::::::;                                              ",
"                                                   @:::::::=          X;:::::::@             ::::::*                &::::::O                                             ",
"                                                    &:::::::#         =:::::::*             +::::::.                 ;:::::%                                             ",
"                                                     ;:::::::X       #:::::::;.             %:::::%                  #:::::*                                             ",
"                                                     O:::::::-      X::::::::@              *:::::O                  X::::::                                             ",
"                                                      $:::::::$     =:::::::&               ::::::                    ::::::                                             ",
"                                                       -:::::::o   $:::::::;                 o@$*;                    ::::::                                             ",
"                                                       o:::::::-  o::::::::O                                          ::::::                                             ",
"                                                        #:::::::$ -:::::::&                                          O:::::*                                             ",
"                                                         =:::::::%:::::::-                                           %:::::$                                             ",
"                                                         X;::::::::::::::o                                           ;:::::O                                             ",
"                                                          @:::::::::::::$                                           $:::::;                                              ",
"                                                           *:::::::::::=                                           o::::::#                                              ",
"                                                           .;::::::::::X                                           ;:::::;                                               ",
"                                                            O:::::::::#                                           =::::::+                                               ",
"                                                             -:::::::-                                           =::::::&                                                ",
"                                                            @:::::::::o                                         =::::::-                                                 ",
"                                                           X::::::::::-                                        =::::::;X                                                 ",
"                                                           =:::::::::::&                                      =:::::::o                                                  ",
"                                                          #:::::::::::::O                                    =:::::::+                                                   ",
"                                                         X::::::::::::::;                                  X-:::::::+                                                    ",
"                                                         -:::::::;:::::::*                                X;::::::;+                                                     ",
"                                                        $:::::::; *:::::::@                              +;::::::;X                                                      ",
"                                                       o::::::::O .;::::::;X                            @:::::::;X                                                       ",
"                                                       -:::::::%   @:::::::=                           %:::::::=.                                                        ",
"                                                      &:::::::-     &:::::::#                        .=:::::::=                                                          ",
"                                                     O::::::::o      ;:::::::o                      X;:::::::%                                                           ",
"                                                     ;:::::::$       O:::::::-                     +::::::::@                                                            ",
"                                                    &:::::::=         $:::::::$                   +:::::::;o                                                             ",
"                                                   @::::::::X          -:::::::O                 $:::::::=X                                                              ",
"                                                  .;:::::::#           o:::::::;                #:::::::*                                                                ",
"                                                  *:::::::=             #:::::::&              +:::::::%                                                                 ",
"                                                 @:::::::;X              =:::::::@            o:::::::#                                                                  ",
"                                                X::::::::@               X;::::::;.           ;::::::+                                                                   ",
"                                                =:::::::*                 @:::::::*          &::::::#                                                                    ",
"                                               #:::::::;.                  *:::::::#        o::::::&                                                                     ",
"                                              o::::::::O                    ;:::::::X       *:::::::::::::::::::::::::::::::                                             ",
"                                              -:::::::&                     O:::::::=      .::::::::::::::::::::::::::::::::                                             ",
"                                             $:::::::;                       &:::::::$     $::::::::::::::::::::::::::::::::                                             ",
"                                            o::::::::O                        -:::::::o    *::::::::::::::::::::::::::::::::                                             ",
"                                            ;:::::::$                         o:::::::-    :::::::::::::::::::::::::::::::::                                             ",
"                                           &:::::::-                           $:::::::&   :::::::::::::::::::::::::::::::::                                             ",
"                                                                                                                                                                         ",
"                                                                                                                                                                         ",
"                                                                                                                                                                         ",
"                                                                                                                                                                         ",
"                                                                                                                                                                         ",
"                                                                                                                                                                         ",
"                                                                                                                                                                         ",
"                                                                                                                                                                         ",
"                                                                                                                                                                         ",
"                                                                                                                                                                         ",
"                                                                                                                                                                         "
};
