/* XPM */
static char *__of_diamonds1672178124[] = {
/* columns rows colors chars-per-pixel */
"100 145 43 1 ",
"  c None",
". c #DF0000",
"X c #DF0808",
"o c #E00C0C",
"O c #E11313",
"+ c #E21B1B",
"@ c #E32424",
"# c #E42C2C",
"$ c #E53333",
"% c #E63B3B",
"& c #E74343",
"* c #E84747",
"= c #E84B4B",
"- c #E95454",
"; c #EA5C5C",
": c #EB6464",
"> c #EC6B6B",
", c #ED7373",
"< c #EE7B7B",
"1 c #868686",
"2 c #A7A7A7",
"3 c gray66",
"4 c #B5B5B5",
"5 c #EF8484",
"6 c #F08C8C",
"7 c #F19494",
"8 c #F29B9B",
"9 c #F3A4A4",
"0 c #F4ACAC",
"q c #F5B4B4",
"w c #F6BCBC",
"e c #C2C2C2",
"r c #F7C3C3",
"t c #F8C7C7",
"y c #F8CBCB",
"u c #F9D4D4",
"i c #FADCDC",
"p c #EFEFEF",
"a c #FBE4E4",
"s c #FCECEC",
"d c #F1F1F1",
"f c #FDF4F4",
"g c #FFFFFF",
/* pixels */
"  14eeeeeeeeeeeeeeeeeeeeeeeeeeeeeeeeeeeeeeeeeeeeeeeeeeeeeeeeeeeeeeeeeeeeeeeeeeeeeeeeeeeeeeeeeeee41  ",
" 3pggggggggggggggggggggggggggggggggggggggggggggggggggggggggggggggggggggggggggggggggggggggggggggggp2 ",
"1dggggs,;--;-,fgggggggggggggggggggggggggggggggggggggggggggggggggggggggggggggggggggggggggggggggggggd1",
"4gggggyOO@@@@*sgggggggggggggggggggggggggggggggggggggggggggggggggggggggggggggggggggggggggggggggggggg4",
"eggggg0X7asaasggggggggggggggggggggggggggggggggggggggggggggggggggggggggggggggggggggggggggggggggggggge",
"eggggg5oygggggggggggggggggggggggggggggggggggggggggggggggggggggggggggggggggggggggggggggggggggggggggge",
"eggggg-@uywuggggggggggggggggggggggggggggggggggggggggggggggggggggggggggggggggggggggggggggggggggggggge",
"eggggs$+%OXO:iggggggggggggggggggggggggggggggggggggggggggggggggggggggggggggggggggggggggggggggggggggge",
"egggguOX:09=.-sgggggggggggggggggggggggggggggggggggggggggggggggggggggggggggggggggggggggggggggggggggge",
"eggggs60gggf-Xqgggggggggggggggggggggggggggggggggggggggggggggggggggggggggggggggggggggggggggggggggggge",
"eggggggggggg9.<gggggggggggggggggggggggggggggggggggggggggggggggggggggggggggggggggggggggggggggggggggg4",
"4ggggffgggggw.,gggggggggggggggggggggggggggggggggggggggggggggggggggggggggggggggggggggggggggggggggggge",
"egggg0$0gggg7.7gggggggggggggggggggggggggggggggggggggggggggggggggggggggggggggggggggggggggggggggggggge",
"eggggwX&sggi%+ugggggggggggggggggggggggggggggggggggggggggggggggggggggggggggggggggggggggggggggggggggge",
"eggggf>X*77$X7ggggggggggggggggggggggggggggggggggggggggggggggggggggggggggggggggggggggggggggggggggggge",
"egggggf6$++&0gggggggggggggggggggggggggggggggggggggggggggggggggggggggggggggggggggggggggggggggggggggge",
"4gggggggsiifggggggggggggggggggggggggggggggggggggggggggggggggggggggggggggggggggggggggggggggggggggggge",
"eggggggggarggggggggggggggggggggs9ggggggggggggggggggggggggggggggggguqggggggggggggggggggggggggggggggge",
"egggggggg5*fggggggggggggggggggg0@ugggggggggggggggggggggggggggggggg,%sgggggggggggggggggggggggggggggg4",
"egggggggi@X0ggggggggggggggggggf=.,gggggggggggggggggggggggggggggggi@X0gggggggggggggggggggggggggggggge",
"eggggggg,..%aggggggggggggggggg0X.+ugggggggggggggggggggggggggggggg<..&sggggggggggggggggggggggggggggge",
"eggggggqO..X<ggggggggggggggggs&...:gggggggggggggggggggggggggggggu+..X7ggggggggggggggggggggggggggggge",
"egggggi$....Oqggggggggggggggg7X...Orgggggggggggggggggggggggggggf:....$agggggggggggggggggggggggggggge",
"eggggp-......@ygggggggggggggi@.....*sggggggggggggggggggggggggggqX.....,gggggggggggggggggggggggggggge",
"egggs;........$ygggggggggggf:......X6ggggggggggggggggggggggggga%......Owggggggggggggggggggggggggggge",
"eggi-..........#qgggggggggg9X.......+rgggggggggggggggggggggggg,........%agggggggggggggggggggggggggg4",
"egg<............&sggggggggy+.........%agggggggggggggggggggggg9X.........:fggggggggggggggggggggggggge",
"4gga>X.........%yggggggggi%...........;fggggggggggggggggggggq+..........X6ggggggggggggggggggggggggge",
"egggf,X.......&iggggggggs=.............,fggggggggggggggggggy#............X8gggggggggggggggggggggggge",
"eggggf:......$ugggggggga-..............X<fggggggggggggggggy$..............O9ggggggggggggggggggggggge",
"egggggs&....+rgggggggga-..o..oo.........X,fggggggggggggggy$............o...O8gggggggggggggggggggggge",
"eggggggr+..X6ggggggggu*..................X:sggggggggggggq#...........o......O6fgggggggggggggggggggge",
"eggggggg5..&fgggggggq$.....................*ugggggggggg8O....................X>aggggggggggggggggggge",
"4ggggggga$oqgggggggg<X................o....O9gggggggggs-......................@yggggggggggggggggggge",
"egggggggg7-gggggggggf6X...................@0ggggggggggga:X...................%ygggggggggggggggggggge",
"eggggggggauggggggggggg0O.........o.......#rgggggggggggggf<X.................=aggggggggggggggggggggge",
"egggggggggggggggggggggg0+........o..o...$rgggggggggggggggf5X...............-agggggggggggggggggggggge",
"eggggggggggggggggggggggg0+.............#ygggggggggggggggggf6X...o..o......-aggggggggggggggggggggggge",
"egggggggggggggggggggggggg9X........o..@rgggggggggggggggggggf<X...........&agggggggggggggggggggggggge",
"4ggggggggggggggggggggggggg6X.....o...O0gggggggggggggggggggggs;....o.....#uggggggggggggggggggggggggg4",
"egggggggggggggggggggggggggf;........X5gggggggggggggggggggggggi$.o......Oqgggggggggggggggggggggggggge",
"eggggggggggggggggggggggggggi#.......=sggggggggggggggggggggggggqO.......<ggggggggggggggggggggggggggge",
"eggggggggggggggggggggggggggg0X.....+ygggggggggggggggggggggggggg,......&sggggggggggggggggggggggggggge",
"egggggggggggggggggggggggggggf:.....6ggggggggggggggggggggggggggga$....owgggggggggggggggggggggggggggge",
"eggggggggggggggggggggggggggggy+...%agggggggggggggggggggggggggggg9X...:ggggggggggggggggggggggggggggge",
"4ggggggggggggggggggggggggggggg,..X9gggggggggggggggggggggggggggggf*..+yggggggggggggggggggggggggggggg4",
"egggggggggggggggggggggggggggggi@.&fggggggggggggggggggggggggggggggqX.,gggggggggggggggggggggggggggggge",
"egggggggggggggggggggggggggggggg<X0gggggggggggggggggggggggggggggggf=+ugggggggggggggggggggggggggggggge",
"eggggggggggggggggggggggggggggggu:sgggggggggggggggggggggggggggggggg0<ggggggggggggggggggggggggggggggge",
"egggggggggggggggggggggggggggggggagggggggggggggggggggggggggggggggggfsggggggggggggggggggggggggggggggge",
"egggggggggggggggggggggggggggggggggggggggggggggggggggggggggggggggggggggggggggggggggggggggggggggggggge",
"4gggggggggggggggggggggggggggggggggggggggggggggggggggggggggggggggggggggggggggggggggggggggggggggggggge",
"egggggggggggggggggggggggggggggggggggggggggggggggggggggggggggggggggggggggggggggggggggggggggggggggggge",
"egggggggggggggggggggggggggggggggggggggggggggggggggggggggggggggggggggggggggggggggggggggggggggggggggge",
"egggggggggggggggggggggggggggggggggggggggggggggggggggggggggggggggggggggggggggggggggggggggggggggggggge",
"egggggggggggggggggggggggggggggggggggggggggggggggarggggggggggggggggggggggggggggggggggggggggggggggggg4",
"eggggggggggggggggggggggggggggggggggggggggggggggg8%sgggggggggggggggggggggggggggggggggggggggggggggggge",
"4ggggggggggggggggggggggggggggggggggggggggggggggs%X9gggggggggggggggggggggggggggggggggggggggggggggggge",
"egggggggggggggggggggggggggggggggggggggggggggggg9X.&sggggggggggggggggggggggggggggggggggggggggggggggge",
"eggggggggggggggggggggggggggggggggggggggggggggga$..X8ggggggggggggggggggggggggggggggggggggggggggggggge",
"eggggggggggggggggggggggggggggggggggggggggggggg6....#agggggggggggggggggggggggggggggggggggggggggggggge",
"eggggggggggggggggggggggggggggggggggggggggggggu@.....<gggggggggggggggggggggggggggggggggggggggggggggge",
"egggggggggggggggggggggggggggggggggggggggggggf;......Owggggggggggggggggggggggggggggggggggggggggggggg4",
"4ggggggggggggggggggggggggggggggggggggggggggg7X.......%agggggggggggggggggggggggggggggggggggggggggggge",
"eggggggggggggggggggggggggggggggggggggggggggr+.........>fggggggggggggggggggggggggggggggggggggggggggge",
"egggggggggggggggggggggggggggggggggggggggggi%.o........X7ggggggggggggggggggggggggggggggggggggggggggge",
"egggggggggggggggggggggggggggggggggggggggga=....o.......O9gggggggggggggggggggggggggggggggggggggggggge",
"eggggggggggggggggggggggggggggggggggggggga;..............+0fgggggggggggggggggggggggggggggggggggggggge",
"egggggggggggggggggggggggggggggggggggggga-................+9gggggggggggggggggggggggggggggggggggggggge",
"4gggggggggggggggggggggggggggggggggggggi*....o..o..........O8ggggggggggggggggggggggggggggggggggggggge",
"eggggggggggggggggggggggggggggggggggggw$....................X5sggggggggggggggggggggggggggggggggggggg4",
"egggggggggggggggggggggggggggggggggggf;.......o..............Oqggggggggggggggggggggggggggggggggggggge",
"eggggggggggggggggggggggggggggggggggggi;....................+0fggggggggggggggggggggggggggggggggggggge",
"egggggggggggggggggggggggggggggggggggggs,X...........o..o..#wggggggggggggggggggggggggggggggggggggggge",
"eggggggggggggggggggggggggggggggggggggggf<X...............#rgggggggggggggggggggggggggggggggggggggggge",
"4gggggggggggggggggggggggggggggggggggggggf<X.........o...$yggggggggggggggggggggggggggggggggggggggggge",
"eggggggggggggggggggggggggggggggggggggggggf>...o........@rgggggggggggggggggggggggggggggggggggggggggge",
"egggggggggggggggggggggggggggggggggggggggggs-..........Oqggggggggggggggggggggggggggggggggggggggggggg4",
"eggggggggggggggggggggggggggggggggggggggggggi$....o...X6gggggggggggggggggggggggggggggggggggggggggggge",
"egggggggggggggggggggggggggggggggggggggggggggqO.......-sgggggggggggggggggggggggggggggggggggggggggggge",
"egggggggggggggggggggggggggggggggggggggggggggg,......@uggggggggggggggggggggggggggggggggggggggggggggge",
"4gggggggggggggggggggggggggggggggggggggggggggga$....X7gggggggggggggggggggggggggggggggggggggggggggggge",
"eggggggggggggggggggggggggggggggggggggggggggggg9X...&sgggggggggggggggggggggggggggggggggggggggggggggge",
"egggggggggggggggggggggggggggggggggggggggggggggs=..Xqggggggggggggggggggggggggggggggggggggggggggggggge",
"eggggggggggggggggggggggggggggggggggggggggggggggqX.-fggggggggggggggggggggggggggggggggggggggggggggggge",
"eggggggggggggggggggggggggggggggggggggggggggggggg-Xwgggggggggggggggggggggggggggggggggggggggggggggggge",
"eggggggggggggggggggggggggggggggggggggggggggggggg0-fgggggggggggggggggggggggggggggggggggggggggggggggge",
"4gggggggggggggggggggggggggggggggggggggggggggggggfiggggggggggggggggggggggggggggggggggggggggggggggggg4",
"egggggggggggggggggggggggggggggggggggggggggggggggggggggggggggggggggggggggggggggggggggggggggggggggggge",
"egggggggggggggggggggggggggggggggggggggggggggggggggggggggggggggggggggggggggggggggggggggggggggggggggge",
"egggggggggggggggggggggggggggggggggggggggggggggggggggggggggggggggggggggggggggggggggggggggggggggggggge",
"egggggggggggggggggggggggggggggggggggggggggggggggggggggggggggggggggggggggggggggggggggggggggggggggggge",
"egggggggggggggggggggggggggggggggggggggggggggggggggggggggggggggggggggggggggggggggggggggggggggggggggge",
"4gggggggggggggggggggggggggggggggfggggggggggggggggggggggggggggggggggfggggggggggggggggggggggggggggggge",
"eggggggggggggggggggggggggggggggi<fggggggggggggggggggggggggggggggggw7ggggggggggggggggggggggggggggggg4",
"egggggggggggggggggggggggggggggg7Owgggggggggggggggggggggggggggggggg;@igggggggggggggggggggggggggggggge",
"egggggggggggggggggggggggggggggs$.;fggggggggggggggggggggggggggggggtO.6gggggggggggggggggggggggggggggge",
"eggggggggggggggggggggggggggggg6..Xwgggggggggggggggggggggggggggggd;..#iggggggggggggggggggggggggggggge",
"eggggggggggggggggggggggggggggi#...=fggggggggggggggggggggggggggggqO...<ggggggggggggggggggggggggggggge",
"4gggggggggggggggggggggggggggg,....X9gggggggggggggggggggggggggggs=....+ygggggggggggggggggggggggggggge",
"egggggggggggggggggggggggggggwO.....#igggggggggggggggggggggggggg7X.....-fggggggggggggggggggggggggggge",
"eggggggggggggggggggggggggggs&.......>fggggggggggggggggggggggggy@......X8ggggggggggggggggggggggggggge",
"egggggggggggggggggggggggggg<........X9gggggggggggggggggggggggs=........@ygggggggggggggggggggggggggg4",
"eggggggggggggggggggggggggg9X.........@rgggggggggggggggggggggf,X.........%aggggggggggggggggggggggggge",
"eggggggggggggggggggggggggw+...........%igggggggggggggggggggg7X...........:sgggggggggggggggggggggggge",
"4gggggggggggggggggggggggy#.............=agggggggggggggggggg9O.............,fggggggggggggggggggggggge",
"eggggggggggggggggggggggy#...............=agggggggggggggggg9O...............,fgggggggggggggggggggggge",
"egggggggggggggggggggggr#.................*igggggggggggggf9O................X>fggggggggggggggggggggge",
"egggggggggggggggggggg0@.o..o..............%tgggggggggggf6O........o.........X;agggggggggggggggggggge",
"eggggggggggggggggggg7O.........o...........@qgggggggggf>X.......o.............%ugggggggggsugggggggg4",
"eggggggggggggggggggf9+.....................#wgggggggggf,X.....................=iggggggggg7:fggggggge",
"4ggggggggggggggggggggw@..o.o..o...........=ugggggggggggg8O........o.........X>sgggggggggs$Xwggggggge",
"egggggggggggggggggggggy$.................-agggggggggggggg0+.....o..o.o..o..X<fgggggggggf6..-fgggggge",
"eggggggggggggggggggggggu%...............-sggggggggggggggggq+..............X<fggggggggggy+..X7gggggge",
"egggggggggggggggggggggggu$.............-aggggggggggggggggggq+...o..o.....X<gggggggggggs=....@tggggge",
"eggggggggggggggggggggggggy@...........&agggggggggggggggggggg9X...........>fggggggggggf>......%igggge",
"eggggggggggggggggggggggggg0O.........#ygggggggggggggggggggggg<.......o..*sggggggggggf<X.......=aggge",
"4gggggggggggggggggggggggggg5........X0gggggggggggggggggggggggf-.o......@ugggggggggfs,X.........*ugge",
"eggggggggggggggggggggggggggs*.......,gggggggggggggggggggggggggu@......X9ggggggggggg<............&sge",
"egggggggggggggggggggggggggggy+.....$agggggggggggggggggggggggggg8X.....:fgggggggggggu=..........#qgge",
"egggggggggggggggggggggggggggg<....X0gggggggggggggggggggggggggggf=....+uggggggggggggga-........#rggge",
"egggggggggggggggggggggggggggga#...-fggggggggggggggggggggggggggggrO..X5ggggggggggggggga&......@rgggge",
"eggggggggggggggggggggggggggggg8X.Orgggggggggggggggggggggggggggggg:..#aggggggggggggggggu$....O0ggggge",
"4gggggggggggggggggggggggggggggs%.;gggggggggggggggggggggggggggggggy+.7gggggggggggggggggg0X...,gggggg4",
"egggggggggggggggggggggggggggggg7Orgggggggggggggggggggggggggggggggg:#aggggggggggggggggggg>..%agggggge",
"egggggggggggggggggggggggggggggga6fggggggggggggggggggggggggggggggggr8ggggggggggggggggggggi@X9ggggggge",
"egggggggggggggggggggggggggggggggfggggggggggggggggggggggggggggggggggfggggggggggggggggggggg<&fggggggge",
"eggggggggggggggggggggggggggggggggggggggggggggggggggggggggggggggggggggggggggggggggggggggggiwgggggggge",
"egggggggggggggggggggggggggggggggggggggggggggggggggggggggggggggggggggggggggggggggggggggggggggggggggge",
"4gggggggggggggggggggggggggggggggggggggggggggggggggggggggggggggggggggggggggggggggggggggga7:-,qgggggge",
"egggggggggggggggggggggggggggggggggggggggggggggggggggggggggggggggggggggggggggggggggggggi%X%=+O6ggggge",
"eggggggggggggggggggggggggggggggggggggggggggggggggggggggggggggggggggggggggggggggggggggf;X7fgy%Xwgggge",
"eggggggggggggggggggggggggggggggggggggggggggggggggggggggggggggggggggggggggggggggggggggrX;gggg9X5gggge",
"egggggggggggggggggggggggggggggggggggggggggggggggggggggggggggggggggggggggggggggggggggg8.8ggggfrigggg4",
"egggggggggggggggggggggggggggggggggggggggggggggggggggggggggggggggggggggggggggggggggggg7.7ggggggggggge",
"4ggggggggggggggggggggggggggggggggggggggggggggggggggggggggggggggggggggggggggggggggggggqX;ggggayfgggge",
"eggggggggggggggggggggggggggggggggggggggggggggggggggggggggggggggggggggggggggggggggggggs&X5iaw&Owgggge",
"egggggggggggggggggggggggggggggggggggggggggggggggggggggggggggggggggggggggggggggggggggggy$X+@+OOugggge",
"egggggggggggggggggggggggggggggggggggggggggggggggggggggggggggggggggggggggggggggggggggggga7><q%#sgggge",
"eggggggggggggggggggggggggggggggggggggggggggggggggggggggggggggggggggggggggggggggggggggggggggs@-ggggge",
"eggggggggggggggggggggggggggggggggggggggggggggggggggggggggggggggggggggggggggggggggggggggggggyo<ggggge",
"4ggggggggggggggggggggggggggggggggggggggggggggggggggggggggggggggggggggggggggggggggggggg7>>>>*o0ggggg4",
"1dgggggggggggggggggggggggggggggggggggggggggggggggggggggggggggggggggggggggggggggggggggf-O++++@yggggp1",
" 3pgggggggggggggggggggggggggggggggggggggggggggggggggggggggggggggggggggggggggggggggggggsaaiaiaggggd2 ",
"  14eeeeeeeeeeeeeeeeeeeeeeeeeeeeeeeueeeeeeeeeeeeeeeeeeeeeeeeeeeeeeeeeeeeeeeeeeeepeeeeeeeeeeeeeee41  "
};
