/* XPM */
static char *__of_diamonds1672178178[] = {
/* columns rows colors chars-per-pixel */
"100 145 43 1 ",
"  c None",
". c #DF0000",
"X c #DF0808",
"o c #E00C0C",
"O c #E11414",
"+ c #E21C1C",
"@ c #E32323",
"# c #E42C2C",
"$ c #E53333",
"% c #E63C3C",
"& c #E74444",
"* c #E84B4B",
"= c #E95454",
"- c #EA5C5C",
"; c #EB6363",
": c #EC6B6B",
"> c #ED7373",
", c #EE7B7B",
"< c #868686",
"1 c #A7A7A7",
"2 c gray66",
"3 c #B5B5B5",
"4 c #EF8383",
"5 c #F08787",
"6 c #F08C8C",
"7 c #F19494",
"8 c #F29C9C",
"9 c #F3A4A4",
"0 c #F4ACAC",
"q c #F5B4B4",
"w c #F6BCBC",
"e c #C2C2C2",
"r c #F7C3C3",
"t c #F8C7C7",
"y c #F8CBCB",
"u c #F9D3D3",
"i c #FADCDC",
"p c #EFEFEF",
"a c #FBE4E4",
"s c #FCEBEB",
"d c #F1F1F1",
"f c #FDF4F4",
"g c #FFFFFF",
/* pixels */
"  <3eeeeeeeeeeeeeeeeeeeeeeeeeeeeeeeeeeeeeeeeeeeeeeeeeeeeeeeeeeeeeeeeeeeeeeeeeeeeeeeeeeeeeeeeeeee3<  ",
" 2pggggggggggggggggggggggggggggggggggggggggggggggggggggggggggggggggggggggggggggggggggggggggggggggp1 ",
"<dgggw=======-0gggggggggggggggggggggggggggggggggggggggggggggggggggggggggggggggggggggggggggggggggggd<",
"3gggg9@@@@@@..7gggggggggggggggggggggggggggggggggggggggggggggggggggggggggggggggggggggggggggggggggggg3",
"eggggfasasa0o=sgggggggggggggggggggggggggggggggggggggggggggggggggggggggggggggggggggggggggggggggggggge",
"eggggggggga%@uggggggggggggggggggggggggggggggggggggggggggggggggggggggggggggggggggggggggggggggggggggge",
"eggggggggg,.8gggggggggggggggggggggggggggggggggggggggggggggggggggggggggggggggggggggggggggggggggggggge",
"eggggggggy+&fgggggggggggggggggggggggggggggggggggggggggggggggggggggggggggggggggggggggggggggggggggggge",
"egggggggg:X0ggggggggggggggggggggggggggggggggggggggggggggggggggggggggggggggggggggggggggggggggggggggge",
"egggggggu+%fggggggggggggggggggggggggggggggggggggggggggggggggggggggggggggggggggggggggggggggggggggggge",
"eggggggg7.7gggggggggggggggggggggggggggggggggggggggggggggggggggggggggggggggggggggggggggggggggggggggg3",
"eggggggf*Ougggggggggggggggggggggggggggggggggggggggggggggggggggggggggggggggggggggggggggggggggggggggge",
"3gggggga@&fgggggggggggggggggggggggggggggggggggggggggggggggggggggggggggggggggggggggggggggggggggggggge",
"eggggggw.>ggggggggggggggggggggggtfggggggggggggggggggggggggggggggggyaggggggggggggggggggggggggggggggge",
"egggggg8.7gggggggggggggggggggggu%tgggggggggggggggggggggggggggggggf=4ggggggggggggggggggggggggggggggge",
"egggggg9%wggggggggggggggggggggg6.:gggggggggggggggggggggggggggggggwo#agggggggggggggggggggggggggggggge",
"eggggggfffggggggggggggggggggggi#.+ygggggggggggggggggggggggggggggf=..7gggggggggggggggggggggggggggggge",
"eggggggggarggggggggggggggggggg,...;fggggggggggggggggggggggggggggqX..@iggggggggggggggggggggggggggggge",
"egggggggg4&fgggggggggggggggggu+...Xwgggggggggggggggggggggggggggd&....,ggggggggggggggggggggggggggggg3",
"eggggggga@X0ggggggggggggggggf-.....*sgggggggggggggggggggggggggg7.....Orgggggggggggggggggggggggggggge",
"eggggggg>..%sggggggggggggggg9X......6gggggggggggggggggggggggggu+...o..*dggggggggggggggggggggggggggge",
"3ggggggqo..X,ggggggggggggggu#.......+tgggggggggggggggggggggggf=.......o5fgggggggggggggggggggggggggge",
"egggggi$....oqggggggggggggf=.........%agggggggggggggggggggggf4X........Oqgggggggggggggggggggggggggge",
"eggggs=......@yggggggggggf,...........;fgggggggggggggggggggg0o...o......#uggggggggggggggggggggggggge",
"egggs-........$yggggggggg7X.....o..o...,fggggggggggggggggggw+....o..o..o.%igggggggggggggggggggggggge",
"eggi=..........#wfgggggg9o.............o6fggggggggggggggggw@..............*aggggggggggggggggggggggg3",
"egg,............&sggggf8X.............o.X4fggggggggggggggw@......oo........&igggggggggggggggggggggge",
"3gga>..........%yggggf7o........o..o.....X>fggggggggggggq+..........o..o....%uggggggggggggggggggggge",
"egggf>........&uggggs>....o......o.........;agggggggggf7O............o.......#wfggggggggggggggggggge",
"eggggf:......$uggggg7...o....oo.............,fggggggggt+.........o.o..........&aggggggggggggggggggge",
"eggggga&....+tggggggs,o.........o..o.......;agggggggggfq@X.......o.....o.....&ugggggggggggggggggggge",
"eggggggt+..X6ggggggggf7O..o..o...........X4fggggggggggggt$...........o......-aggggggggggggggggggggge",
"eggggggg4..&fgggggggggf9o...............X6fggggggggggggggu%................;sgggggggggggggggggggggge",
"3ggggggga$owgggggggggggg9+.............X7fggggggggggggggggu%..............:sggggggggggggggggggggggge",
"egggggggg7-fggggggggggggg8X............4fggggggggfgggggggggu#............-sgggggggggggggggggggggggge",
"eggggggggauggggggggggggggg4...........:fggggggggg8ugggggggggr+..........%aggggggggggggggggggggggggge",
"egggggggggggggggggggggggggs-.........&aggggggggga#>gggggggggg8X........@ygggggggggggggggggggggggggge",
"eggggggggggggggggggggggggggi#.......+ygggggggggg7.+igggggggggf:.......X8ggggggggggggggggggggggggggge",
"eggggggggggggggggggggggggggg0X......7gggggggggga$..>gggggggggga$...o..-fggggggggggggggggggggggggggge",
"3gggggggggggggggggggggggggggf:.....*fgggggggggf4...+ygggggggggg9o....@ugggggggggggggggggggggggggggg3",
"eggggggggggggggggggggggggggggu+...Orggggggggggu@....;fgggggggggf=....6ggggggggggggggggggggggggggggge",
"eggggggggggggggggggggggggggggg4...;fgggggggggf-.....X0ggggggggggrO..%aggggggggggggggggggggggggggggge",
"egggggggggggggggggggggggggggggi#.+ygggggggggg9X......$agggggggggf:..8gggggggggggggggggggggggggggggge",
"egggggggggggggggggggggggggggggg6.:ggggggggggu@........:fgggggggggyO%sgggggggggggggggggggggggggggggge",
"eggggggggggggggggggggggggggggggi&ygggggggggs*.........X8gggggggggf;8ggggggggggggggggggggggggggggggge",
"3gggggggggggggggggggggggggggggggyfggggggggf:...........Oqgggggggggisggggggggggggggggggggggggggggggg3",
"eggggggggggggggggggggggggggggggggggggggggf4X............@rggggggggggggggggggggggggggggggggggggggggge",
"egggggggggggggggggggggggggggggggggggggggf6X..............#rgggggggggggggggggggggggggggggggggggggggge",
"eggggggggggggggggggggggggggggggggggggggf,X................#wggggggggggggggggggggggggggggggggggggggge",
"egggggggggggggggggggggggggggggggggggggs>X..................@0gggggggggggggggggggggggggggggggggggggge",
"eggggggggggggggggggggggggggggggggggggi=.....................o7fgggggggggggggggggggggggggggggggggggge",
"3ggggggggggggggggggggggggggggggggggggy#...............o......:fgggggggggggggggggggggggggggggggggggge",
"egggggggggggggggggggggggggggggggggggggu*............o..o...X4fggggggggggggggggggggggggggggggggggggge",
"egggggggggggggggggggggggggggggggggggggga-........o........O8fgggggggggggggggggggggggggggggggggggggge",
"egggggggggggggggggggggggggggggggggggggggs-.......o.oo....o8gggggggggggggggggggggggggggggggggggggggge",
"egggggggggggggggggggggggggggggggfggggggggs-.............O9ggggggggfgggggggggggggggggggggggggggggggge",
"eggggggggggggggggggggggggggggggf7sgggggggga*...........X7ggggggggg8rggggggggggggggggggggggggggggggge",
"3ggggggggggggggggggggggggggggggrO9gggggggggi$....oo....>fggggggggs#;fgggggggggggggggggggggggggggggge",
"egggggggggggggggggggggggggggggf-.&fgggggggggwO........*sggggggggg7.Oygggggggggggggggggggggggggggggg3",
"egggggggggggggggggggggggggggggrO.X9gggggggggg4...o...+yggggggggga#..;fggggggggggggggggggggggggggggge",
"eggggggggggggggggggggggggggggf*...%sgggggggggs&..o..X7gggggggggg4...owggggggggggggggggggggggggggggge",
"egggggggggggggggggggggggggggg0X....6ggggggggggro....&fgggggggggu@....*fgggggggggggggggggggggggggggge",
"eggggggggggggggggggggggggggga$.....@ugggggggggf:...Xwgggggggggf;......7gggggggggggggggggggggggggggge",
"3ggggggggggggggggggggggggggf>.......-fgggggggggu+..-fggggggggg9X......@uggggggggggggggggggggggggggge",
"egggggggggggggggggggggggggg0o.......X7gggggggggg,.+ygggggggggu@........=sgggggggggggggggggggggggggge",
"egggggggggggggggggggggggggu@...o.....+wgggggggggu+;fggggggggs*.......o..4fggggggggggggggggggggggggge",
"egggggggggggggggggggggggga&...........#uggggggggg4rggggggggf:...........o8ggggggggggggggggggggggggge",
"eggggggggggggggggggggggga=.............&iggggggggsfgggggggf4.............O0gggggggggggggggggggggggge",
"eggggggggggggggggggggggs-......o........&igggggggggggggggf,X.......o..o...+0ggggggggggggggggggggggge",
"3ggggggggggggggggggggga=.................&igggggggggggggf,X................O9gggggggggggggggggggggge",
"eggggggggggggggggggggu*...................$ygggggggggggs:...........o.......O7fgggggggggggggggggggg3",
"egggggggggggggggggggr#.....................+0gggggggggi*...........o..o.......>fggggggggggggggggggge",
"eggggggggggggggggggg0+.....................o8fggggggggu&......................>fggggggggggggggggggge",
"eggggggggggggggggggggw#................o..@0gggggggggggs;...................o7fgggggggggggggggggggge",
"egggggggggggggggggggggu%.................#rgggggggggggggf>.................o9fggggggggggggggggggggge",
"3ggggggggggggggggggggggu%...........o...#tgggggggggggggggf,...............O0ggggggggggggggggggggggge",
"egggggggggggggggggggggggu&.............#ygggggggggggggggggf,.............O9gggggggggggggggggggggggge",
"eggggggggggggggggggggggggy#...........+wgggggggggggggggggggf:....oo.....X7ggggggggggggggggggggggggg3",
"egggggggggggggggggggggggggw+.........O9ggggggggggggggggggggga&.........X,fggggggggggggggggggggggggge",
"egggggggggggggggggggggggggg7....o....,fggggggggggggggggggggggu@..o.....*sgggggggggggggggggggggggggge",
"eggggggggggggggggggggggggggf-.....o.&agggggggggggggggggggggggg8o......@yggggggggggggggggggggggggggge",
"3gggggggggggggggggggggggggggu@.....Orgggggggggggggggggggggggggf-......7gggggggggggggggggggggggggggge",
"egggggggggggggggggggggggggggg7.....,gggggggggggggggggggggggggggu+....*sgggggggggggggggggggggggggggge",
"eggggggggggggggggggggggggggggs&...#igggggggggggggggggggggggggggg4...Xqggggggggggggggggggggggggggggge",
"eggggggggggggggggggggggggggggg0o..7fgggggggggggggggggggggggggggga$..-fggggggggggggggggggggggggggggge",
"egggggggggggggggggggggggggggggf*.%sgggggggggggggggggggggggggggggg7.oygggggggggggggggggggggggggggggge",
"egggggggggggggggggggggggggggggg0X8ggggggggggggggggggggggggggggggga#-fgggggggggggggggggggggggggggggge",
"3ggggggggggggggggggggggggggggggf>agggggggggggggggggggggggggggggggg8wggggggggggggggggggggggggggggggge",
"egggggggggggggggggggggggggggggggsgggggggggggggggggggggggggggggggggffggggggggggggggggggggggggggggggge",
"egggggggggggggggggggggggggggggggggggggggggggggggggggggggggggggggggggggggggggggggggggggggggggggggggge",
"egggggggggggggggggggggggggggggggggggggggggggggggggggggggggggggggggggggggggggggggggggggggggggggggggg3",
"egggggggggggggggggggggggggggggggggggggggggggggggggggggggggggggggggggggggggggggggggggggggggggggggggge",
"egggggggggggggggggggggggggggggggggggggggggggggggggggggggggggggggggggggggggggggggggggggggggggggggggge",
"3gggggggggggggggggggggggggggggggggggggggggggggggggggggggggggggggggggggggggggggggggggggggggggggggggge",
"egggggggggggggggggggggggggggggggggggggggggggggggggggggggggggggggggggggggggggggggggggggggggggggggggge",
"egggggggggggggggggggggggggggggggggggggggggggggggggggggggggggggggggggggggggggggggggggggggggggggggggge",
"egggggggggggggggggggggggggggggggggggggggggggggggggggggggggggggggggggggggggggggggggggggggggggggggggge",
"egggggggggggggggggggggggggggggggggggggggggggggggggggggggggggggggggggggggggggggggggggggggggggggggggge",
"egggggggggggggggggggggggggggggggggggggggggggggggggggggggggggggggggggggggggggggggggggggggggggggggggge",
"3gggggggggggggggggggggggggggggggafggggggggggggggggggggggggggggggggasggggggggggggggggggggggggggggggge",
"eggggggggggggggggggggggggggggggs-igggggggggggggggggggggggggggggggg>9ggggggggggggggggggggggggggggggge",
"egggggggggggggggggggggggggggggg9X6ggggggggggggggggggggggggggggggguO&fgggggggggggggggggggggggggggggge",
"egggggggggggggggggggggggggggggs&.#agggggggggggggggggggggggggggggf>.o0gggggggggggggggggggggggggggggge",
"eggggggggggggggggggggggggggggg8...4gggggggggggggggggggggggggggggy+..&sggggggggggggggggggggggggggggg3",
"egggggggggggggggggggggggggggga$...@ugggggggggggggggggggggggggggf;....8ggggggggggggggggggggggggggggge",
"3gggggggggggggggggggggggggggg4.....:fggggggggggggggggggggggggggqo....$igggggggggggggggggggggggggggge",
"egggggggggggggggggggggggggggt+.....Xqggggggggggggggggggggggggga%.....X:fggggggggggggggggggggggggggge",
"eggggggggggggggggggggggggggs*.......$agggggggggggggggggggggggf,X......o0ggggggggggggggggggggggggggge",
"egggggggggggggggggggggggggg4.........;fgggggggggggggggggggggg0o........#ugggggggggggggggggggggggggge",
"eggggggggggggggggggggggggg9o.........X6gggggggggggggggggggggy@..........*dgggggggggggggggsugggggggg3",
"eggggggggggggggggggggggggw+...........O0gggggggggggggggggggi&............:fgggggggggggggg7-gggggggge",
"3gggggggggggggggggggggggy#.............+qggggggggggggggggga*..............,fggggggggggggs$Xwggggggge",
"eggggggggggggggggggggggr#.........o..o..+qgggggggggggggggi*...............X>fggggggggggg4X.*fgggggge",
"egggggggggggggggggggggw#.................+0gggggggggggggu&...........oo.....:fgggggggggt+..X7gggggge",
"egggggggggggggggggggf0+................o..O7fggggggggggr%....................-igggggggs*....@tggggge",
"eggggggggggggggggggg9X...............o......6fggggggggy@..............o..o....*sgggggf:......%igggge",
"egggggggggggggggggggy&...o.....o...........$rgggggggggs,X.......o..o..o......+9fggggf,........*aggge",
"3gggggggggggggggggggga;...................=ugggggggggggf8+..................$wgggggs>X.........*ugge",
"egggggggggggggggggggggf:.................=sgggggggggggggg0+.........o......$ygggggg,............*sge",
"eggggggggggggggggggggggf>..o..o.........-sgggggggggggggggg0+....o..o..o...%ugggggggu*..........@qfge",
"egggggggggggggggggggggggf:.............=sgggggggggggggggggg0O............$uggggggggga=........#tggge",
"eggggggggggggggggggggggggs-...........%agggggggggggggggggggg8X..........+rggggggggggga*......+tgggge",
"egggggggggggggggggggggggggi$.........+ugggggggggggggggggggggf>.........X9gggggggggggggu#....O0ggggge",
"3ggggggggggggggggggggggggggwO.......X0gggggggggggggggggggggggs&........,gggggggggggggggqX...,fggggge",
"eggggggggggggggggggggggggggg4.......:fggggggggggggggggggggggggtO......%agggggggggggggggf>..%agggggge",
"egggggggggggggggggggggggggggs&.....#agggggggggggggggggggggggggg4.....owgggggggggggggggggu@.9ggggggge",
"eggggggggggggggggggggggggggggwo....9gggggggggggggggggggggggggggs%...X:fgggggggggggggggggg4*fggggggg3",
"eggggggggggggggggggggggggggggf;...*sgggggggggggggggggggggggggggg9X..+uggggggggggggggggggguwgggggggge",
"egggggggggggggggggggggggggggggy+.Xqgggggggggggggggggggggggggggggf*..4gggggggggggggggggggggggggggggge",
"3gggggggggggggggggggggggggggggg:.=fggggggggggggggggggggggggggggggqX@uggggggggggggggggggggga6qgggggge",
"eggggggggggggggggggggggggggggggy@qgggggggggggggggggggggggggggggggf*,ggggggggggggggggggggggr.>gggggge",
"eggggggggggggggggggggggggggggggf9fggggggggggggggggggggggggggggggggwugggggggggggggggggggggg9.7gggggg3",
"eggggggggggggggggggggggggggggggggggggggggggggggggggggggggggggggggggggggggggggggggggggggggg>.wgggggge",
"eggggggggggggggggggggggggggggggggggggggggggggggggggggggggggggggggggggggggggggggggggggggggf%+agggggge",
"eggggggggggggggggggggggggggggggggggggggggggggggggggggggggggggggggggggggggggggggggggggggggto-fgggggge",
"3gggggggggggggggggggggggggggggggggggggggggggggggggggggggggggggggggggggggggggggggggggggggg>.0ggggggge",
"eggggggggggggggggggggggggggggggggggggggggggggggggggggggggggggggggggggggggggggggggggggggga@$sggggggge",
"eggggggggggggggggggggggggggggggggggggggggggggggggggggggggggggggggggggggggggggggggggggggg4.7gggggggge",
"eggggggggggggggggggggggggggggggggggggggggggggggggggggggggggggggggggggggggggggggggggggggu+%agggggggg3",
"egggggggggggggggggggggggggggggggggggggggggggggggggggggggggggggggggggggggggggggggggggggf:X0ggggggggge",
"eggggggggggggggggggggggggggggggggggggggggggggggggggggggggggggggggggggggggggggggggggggg8X,fggggggggge",
"3ggggggggggggggggggggggggggggggggggggggggggggggggggggggggggggggggggggggggggggggggggggt+X-:::::0gggg3",
"<dggggggggggggggggggggggggggggggggggggggggggggggggggggggggggggggggggggggggggggggggggg0+++OOOO+5gggd<",
" 2pggggggggggggggggggggggggggggggggggggggggggggggggggggggggggggggggggggggggggggggggggfiiiiaiiisggd1 ",
"  <3eeeeeeeeeeeeeeeeeeeeeeeeeeeeeeeueeeeeeeeeeeeeeeeeeeeeeeeeeeeeeeeeeeeeeeeeeeeeeeeeepeeeeeeeee3<  "
};
