/* XPM */
static char *ace_of_clubs1672178177[] = {
/* columns rows colors chars-per-pixel */
"100 145 43 1 ",
"  c None",
". c #020202",
"X c #0C0C0C",
"o c #131313",
"O c #1C1C1C",
"+ c #242424",
"@ c #2B2B2B",
"# c #343434",
"$ c #373837",
"% c #3B3B3B",
"& c #434343",
"* c #4B4B4B",
"= c #535353",
"- c #5C5C5C",
"; c #646464",
": c #6C6C6C",
"> c #737373",
", c #7B7A7B",
"< c #848484",
"1 c #888788",
"2 c #8C8B8C",
"3 c #949494",
"4 c #9B9B9B",
"5 c #A09FA0",
"6 c #A3A3A3",
"7 c #A8A7A8",
"8 c #ABABAB",
"9 c #B4B4B4",
"0 c #B8B7B8",
"q c #BCBCBC",
"w c #C2C2C2",
"e c #C8C7C8",
"r c #CCCCCC",
"t c #D0CFD0",
"y c #D3D3D3",
"u c #D8D7D8",
"i c #DCDCDC",
"p c #E4E4E4",
"a c #ECECEC",
"s c #F0EFF0",
"d c #F4F3F4",
"f c #F8F7F8",
"g c #FFFEFF",
/* pixels */
"  19wwwwwwwwwwwwwwwwwwwwwwwwwwwwwwwwwwwwwwwwwwwwwwwwwwwwwwwwwwwwwwwwwwwwwwwwwwwwwwwwwwwwwwwwwwww91  ",
" 7agggggggggggggggggggggggggggggggggggggggggggggggggggggggggggggggggggggggggggggggggggggggggggggga7 ",
"1dgggggggrwpggggggggggggggggggggggggggggggggggggggggggggggggggggggggggggggggggggggggggggggggggggggd1",
"9gggggggi+.<ggggggggggggggggggggggggggggggggggggggggggggggggggggggggggggggggggggggggggggggggggggggg9",
"wggggggg3XO@pggggggggggggggggggggggggggggggggggggggggggggggggggggggggggggggggggggggggggggggggggggggw",
"wggggggd%#1X7ggggggggggggggggggggggggggggggggggggggggggggggggggggggggggggggggggggggggggggggggggggggw",
"wggggggwX>io*fgggggggggggggggggggggggggggggggggggggggggggggggggggggggggggggggggggggggggggggggggggggw",
"wgggggg>Xqg-Xegggggggggggggggggggggggggggggggggggggggggggggggggggggggggggggggggggggggggggggggggggggw",
"wgggggp+%dg7.>gggggggggggggggggggggggggggggggggggggggggggggggggggggggggggggggggggggggggggggggggggggw",
"wggggg6.2gga@+pggggggggggggggggggggggggggggggggggggggggggggggggggggggggggggggggggggggggggggggggggggw",
"wggggf=X5ree=.4ggggggggggggggggggggggggggggggggggggggggggggggggggggggggggggggggggggggggggggggggggggw",
"wggggto.XXoXX.&dgggggggggggggggggggggggggggggggggggggggggggggggggggggggggggggggggggggggggggggggggggw",
"wgggg<.>66665$Xqgggggggggggggggggggggggggggggggggggggggggggggggggggggggggggggggggggggggggggggggggggw",
"wggga#Oiggggg3.:gggggggggggggggggggggggggggggggggggggggggggggggggggggggggggggggggggggggggggggggggggw",
"wggg8.;ggggggiOOiggggggggggggggggggggggggggggggggggggggggggggggggggggggggggggggggggggggggggggggggggw",
"wggf;.8ggggggg;.2ggggggggggggggggggggggggggggggggggggggggggggggggggggggggggggggggggggggggggggggggggw",
"wggd42agggggggr18ggggggggggggggggggggggggggggggggggggggggggggggggggggggggggggggggggggggggggggggggggw",
"wggggggggggggggggggggggggggggggggggggggggggggggggggggggggggggggggggggggggggggggggggggggggggggggggggw",
"wgggggggu3<3iggggggggggggggggggggggggggggggggggggggggggggggggggggggggggggggggggggggggggggggggggggggw",
"wgggggg6O...+8gggggggggggggggggggggggggggggggggggggggggggggggggggggggggggggggggggggggggggggggggggggw",
"wgggggrO.....+uggggggggggggggggggggggggggggggggggggggggggggggggggggggggggggggggggggggggggggggggggggw",
"wggggg1.......3ggggggggggggggggggggggggggggggggggggggggggggggggggggggggggggggggggggggggggggggggggggq",
"wggggg,.......1ggggggggggggggggggggggggggggggggggggggggggggggggggggggggggggggggggggggggggggggggggggw",
"wggggg7......X0ggggggggggggggggggggggggggggggggggggggggggggggggggggggggggggggggggggggggggggggggggggw",
"wggggga&.....=dggggggggggggggggggggggggfgfggggggggggggggggggggfggggggggggggggggggggggggggggggggggggw",
"wggp4;;;X...o;;;5agggggggggggggggggggggggggggggggggggggggggggggggggggggggggggggggggggggggggggggggggw",
"wgi*.............=pgfgfggggggfgggfgffggggggggfgfgggggfgggfgffggggggggfgffgfgfggggggggfgfggfggggggggw",
"wg:...............,ggggggggggggggggggggggggggggggggggggggggggggggggggggggggggggggggggggggggggggggggw",
"wa@...............%dgggggfggggggggggggggggfggggggfggggggggggggggggggggggggfggggggggggggggfgggggggggw",
"wa@...............$agggggggggggggggggggggggggfggggggggggggggggggggggfgggggggggfgggggfggggggggggggggq",
"wf=......%+%......;fgggggggggggggggggggfggggggggggggggggggfggggfgggggggggggggggggggggggggfgggggggggw",
"wgqO....&7+7#....+egfggggggggggfggfggggggggggggggggggggfgggggggggggggggggggggggggggggggggggggggggggw",
"wgg0*++:i7X9u;++=wggggfggggggfgggggggggggggggggggggggggggggggggggfggfggggggggggggggggfgggggggggggggw",
"wgggfipgg;.>gfppsggggggggggggggggggggggfggfggggggggggggggggggggggggggggggggggggggfgggggggggggggggggw",
"wgggggggqo.Owggggggfggggfggggggggggggggggggggfggggggggggggggggggggggggggfggggfgggggggggggggggggggggw",
"wggggggge666yggggggggggggggggggggggfggggggggggggggggggggfggggfgggggggggggggggggggggggggggggggggggggw",
"wggggggggggggggggggggggggggggggggggggggfgggggggsppppdfgggggggggggggggfggggggggggggggfggggggggggggggw",
"wgggggggggggggggggggggggggfggggfgggggggggggdr4:=&$#$&;2waggggggggggggggggggggggfggfggggggggggggggggw",
"wgggggggggggggggggfggggfgggggggggggggggggs9;%@+++OoooXXO&4pgggggggfggggggggggggggggggggggggggggggggw",
"wgggggggggggggggggggggggggggggggggfggfgge;%%%%$#@+OOooXoXo&9fggggggggggggfgggggggggggggggfgggggggggw",
"wggggggggggggfgggggggggggggggfggggggggf7*&*=*&&$#+OoooXoXooO<sggggggggggggggfggfgggggggfgfgggggggggq",
"wggggggggggggggggggggggggfgggggggggggf3&*=--==&$@+OooXXXoXoXo>agfggggfgggggggggggggggggggggggggggggw",
"wgggggggggggggggggggfgggggggggggggggf4%*-;;;-=%#+OoXXXXXXXoooo,dgggggggggggfgggggggggggggggggggggggw",
"wgggggggggfgggggfgggggggggggggggggggq%&=-;:;=&#@OoXXXXXXXXXoooO4gggggggggggggggggfgggggggggggggggggw",
"wggggggggggggfggggggggggggggfggggggp=#&=-;;-*$+OXXXX.XXXXXooooo#tgggggggggggggggggggggfggggggggggggw",
"wgggggggggfgggggggggggfgggggggggggg3@%&====&$@OoXX.XXX.XXoXXoooo,fggfggggggggggggggfgggggggggggggggw",
"wgggggggggggggggfgggggggggfgggggggp&+%&*=&&$+oXX.X.X..XXXXXooooo@yggggggggfggggfgggggggggggggggggggw",
"wgggggggggfggggggggggggggggggggggg8+@$%%%%@+OXXXX....X.XXXXoooooo3gfgggggggggggggggggggggggggggggggw",
"wggggggggggggggggggggfggggfggggggg>O+@##@@+ooXX.......XXXXXXooOoo=fggggggggggfgggggggggggggggggggggw",
"wgggggggfgggggggfgggggggggggggggga&O+@@@++ooXX.X.....XX.XXXXXoooo$pggggggggggggggggggggggfgggggggggq",
"wgggggggggggfggggggggggggggggggfgp#O++++OOoXX.X.X......XXXXXooooo+egggggfgggggggggggfggggggggggggggw",
"wggggggggggggggggggggggggggggggggt@OOOOoooXX.X........X.XXXoXoooo+wgfggggggggggggfgggggggfgggggggggw",
"wggggggggggggggggggggggggggggggggi#OoOoooXXXXX.X......XXXXXXooooo+egggggggggggggggggggfggggggggggggw",
"wgggggggggfggfgggggggfggggfggggggp$oOooooXXXX.X.....X.X.XXXXXoooo@tggggggggggfgggggggggggggggggggggw",
"wggggggggggggggggggggggggggggggggs=oOoooXoXXX.X.X......XXXXXoooOo%pggggggggggggggggggggggggggggggggw",
"wgggggggggfgggggggfggggggggggfgggg,ooOoooXXXXX.X....XX.XXXXXooooo;ggggggggfgggggfgggggggfggggggggggw",
"wgggggggggggggggfgggggfggggggggfgg8OoooooXXXX.X.X..XX.XXXXXXooooo3gggggggfggfggggggggggggggggggggggw",
"wgggggggggggfgggggggggggggggggggggp$OooooooXXX.XX.X...XXXXXooooo+tgggggfgggggggggfgggggggggggggggggw",
"wgggggggggggggggggggggggggggggggggg,OooooXXXXXXX.X.XXXXXXoXooooo;ggggggggggggggggggggfgggggggggggggw",
"qgggggggggggggggfgggggggggfggggfgggr@ooooooXXXXXX.XX.XXXXXXooooO0gfgggggggggfggggggggggggggggggggggw",
"wgggggggggggggggggfggggggggggggggggf,oOooooXXXXXXXXXXXXoXoooooo;dgggggggggggggggggggfggggggggggggggw",
"wgggggggggfgggggggggggfgggggggggggggi%oooooXoXXXXXXXXXXXoXXooo#rggggggggfgggggggfggggggggggggggggggw",
"wgggggggggggggggggggggggggfgggggggggg7+oooooXoXXXXXXXXXXXXoooo3gggggggggggggfggggggggggggggggggggggw",
"wggggggggggggggfgggggggggggggggggggggf>ooooXoXXoXXXXXXXoooooo;dggggggggggggggggggggggggggfgggggggggq",
"wggggggggggffgggggggggggggfsuq53237wpfa-oooooXXoXXXooXoXoooo*pgpr95445qysggggggggggggggggggggggggggw",
"wggggggggggggggggggfggggdt4:&$@++O++$:7w*ooooooXooXXXXooooo%q9>*%%%%&&&*-1edgggggggggfggfggggggggggw",
"wggggggggggggggggggggggt2-*&&%##@++OOoO&>%oooooooXoXoooooo#>=@+#%&===**&%%%:qggggggggggggggggggggggw",
"wggggggggggggggggggggs8:---=*&$#@+++OOOoO$OoooooooXooooooO#+O@#$&&*====&&%%$%1pgggfggggggfgggggggggw",
"wgggggggfggggfgggggga3::>;;=*&$#@++O+OOOOoooOoooooooooooooOO+@@$&&&=*=**&%%$##;iggggggggggfggggggggw",
"wggggggggggggggggfga2:>,>>;-*%#@@+++OOOOOOOOooooooooooOooOOO+@##%&&&&&&&&%%####-iggggggggfgggggggggw",
"wgggggggggfgggggggs4;>,,,>-=&$@@+++O+OOOOooOOoOooOoooooOoOO++@@@#$$%%%%%%$#####@:agggggggggggggggggw",
"wggggggggggggggggg0;:,,,:;=&%#@@++++O+OOOOOOoOoooooOoOooOOOO++@@@#####$##########3ggfggggggggggggggw",
"wgggggggggggggfggp:;:>>:;-&%##@+++++++OOOOOOoOoOOooOooOOoOOO+++++@@@@@#@@###@###$*yggggfgggggggggggw",
"wgggggggggfgggggg7=-;;;-=&%#@@@+@++++O+O+OOOOOOoOOOoOOOoOOOOO+++++@@@@@@@@@####$$#1fgggggggggggggggw",
"wgggggggggfggggga:==---=&&##@@@@+@+++OOOOOOOOoOOoOOoOoOOOOOOO+++++@+@@@@@@#@###$$$=pgggggggggggggggw",
"wgggggggggggggggr=*===*&%##@@@@@@+++++++O+OOOOOOOOOOOOOOOO+O+OO++@++@+@@@#@#####$$$0gggggggggggggggw",
"wggggggggfgggggg8&**&*&%####@@@@@+@+++++OO+O+OOOOOOOOOOOO+O+O+++++@+@@@@@@#@##$$$%$3fggggggggggggggw",
"wggggggggggggggg1&&&&%%%###@#@@@@@++++++++O+OOOO+OOOOOOOOO+O+++++++@+@@@#@##@$#$$%$>fggggggggggggggw",
"wggggggggggggggf,%&%%%%$###@@#@@@+@++++++OO++OO+OOOOOO+OO++O++++++@@@@@#@#####$$$%%;dggggggggggggggw",
"wggggggggggggggf:%&%%%$$#####@@@@@@+@++++++O+++OO++O+O+++O++++++@@+@@@@@@###$$$$%%%-aggggfgggggggggw",
"wggggggggggggggs:%%%%%%$$###@#@#@@@@@++++++++O+++O+O+++O+++++++@+@+@@@#@@####$$$%%%-aggggfgggggggggw",
"wggggggggggggggf,%&%%$$%$#####@@@@@@+@@+@++++++O+OO+O++++++++@@++@@@@@@#####$$%$%%%;sfgggggggggggggw",
"wggggggggggggggg1%&%%%$$$$###@@#@@@+@++@++++++++++++++++++++++@+@@@@@@######$$%%%%%>fggfgggggggggggq",
"qggggggggggggggg8&%%&%%$$$#####@#@@@@@@+@+@+@++*@+++=+++@+++@+@@@@@@#@#@###$$$%%&%&4gggggggggggggggw",
"wgggggggfgggggggu*&&&%%%$$####@#@#@@@@@@+@@+++&6#++@6*+@+++@+@@@@@@@@@###$#$$%%%&%&wgggggggggggggggw",
"wgggggggggggggggd>%&%%%%$$$$#####@#@@@@@@@++@+3t#++@w6@++@@++@@@@@@#######$$%%%%%%;agggggggggggggggw",
"wgggggggggggggggg0&&&%&%$$$$$#####@@@@@@@@@@+=pt#++@ws;+@@@@@@@@#@#@@###$#$%%%%&&%5ggggggggggggggggw",
"wgggggggggfggggggs:%&%%%%%%$$####@#@@#@@@@@@$qge@@@@0gr&+@@@@@@@@#@######$$$%%%%%;pgfggggggggggggggw",
"wgggggggggfgggggggw*%%%%%%%$$$$###@#@#@@@@@@4ggq@+@@7gg7#@@@@@@#@@####%%##%%%%&&&0gggggggggggggggggq",
"wgggggggggggggggggg4&&&%%%%$$$$####@#@##@@@,sgg8@@@+3ggf2@@@@#@@########%%%%%%%%2fggggggfggggggggggw",
"wgggggggggfggggggfgs1&%&%%%%$$$$#####@@@@@>aggg4@@@@<gggs<#@@##@@########%%%%&%,agggggfggggggggggggw",
"wgggggggggggfgggggggs1&%&%%%%%$$$########<agggg<@@@@:fgggd2#@##@######%%%%%%%%,pgggggggggfgggggggggw",
"wgggggggggfggggggggggs5*%%%%%$$$$$####@&5sggggd;@@@@=aggggf8*@#####$$##%%%$%*3agggggggggggfggggggggw",
"wggggggggggggggggggggggr,&%%%%%$$$$##%,tggggggp&@##@%tggggggu<&####$$%$%$%&>efggggggfggggfgggggggggw",
"wgggggggggggfgggggggggggde3-*%%%$%&-1rfgggggggw##@@##7gggggggft2-&$$#$%&-<wsggggfggggggggggggggggggw",
"wgggggggggggggggggggggggggfstq858qtagggggggggg2#@###@,fgggggggggsyw858qyaffggggfgggggggggggggggggggw",
"wggggggggggggggggfggggggfggggggggggggggggggggs-@####@*pggggggggggggggggggggggggggggggfgggggggggggggw",
"wgggggggfgggggggggggggggggfggggggggggggggggfgw$#######8gfgggggggggggggggggggfggggfgggggggggggggggggw",
"wgggggggggggfggggggggggfggggggggggggggfgggggf,####$###:sggggggfgggggggggfggggggggggggggggggggggggggw",
"wgggggggggggggggggggggggggggggggggfgggggggggt&#$$#$#$#%0ggggggggggfggggggggggggggggggggggggggggggggw",
"wggggggggggggggggggggggggggfgggggggggggfgfgd,#$$$$$$$$$;agggggggggggfgggggggggfgggggfggggggggggggggw",
"wgggggggggfggfggfggggfgggggggggfggggggggggg8%$$$%$$$$$$%4ggggfgggggfggggggggggggggfggggggggggggggggw",
"wgggggggggggggggggggggggggggggggggggggggggt=$%%$$%$%$$$$&egggggggggggggggggggggggggggggggggggggggggq",
"wgggggggggfggggggggggggggggggggggfgggggggi;$$$$$$#$$$$$$#=tgggggggggggggggfggggggggggggggfgggggggggw",
"wggggggggggggggggggggggggggggfggggggggggf8,,,,,,,,,,,,,,,,5sgggggggggggfgggggggggggggggfgggggggggggw",
"wgggggggggggfggggggggggggggggggggggggggggfgfgfgfffggffgggffgfggggggggggggggfggfggggggggggggggggggggw",
"wgggggggggggggggggggggggfggggggggfgggggggggggggggggggggggggggggggggggggggggggggggggggggggggggggggggw",
"qggggggggggggggggfggfggfgggggggggggggfggggggggggfggggggggggggggggfgggggggggggggggfgggggggggggggggggw",
"wggggggggggggggggggggggggggggfgggggggfggggggggggggfgggggggggggggggggggfgggggggggggggggfggggggggggggq",
"wgggggggggfggggggggggggggggggggggfggggggggggfgggggggggfgggfggggfgggggggggggfggggggggggge2210gggggggw",
"wggggggggggggggggfgggggfggfggggggggggggggggfgggggggggggggggggggggggfgggggggggggggggggggu+.oqgggggggw",
"wggggggggggggggfggggggggggggggggggggggggggggggggggggggggggggggggggggggggggggfggggggsyysg1.;gdiragggw",
"wggggggggggggggggggggggggggggfgggggggggggggggggggggggggggggggggggggggggggggggggggg0&oo&wwX6u-Oo#6fgw",
"wgggggggfggggggggggggggggggggggggggggggggggggggggggggggggggggggggfgggggggggggggfgwO....+7@4%....X7gw",
"wgggggggggggggggggfggggggfgggfgggggggggfggfgggggfgggggggfggggggggfggggggggggfgggf;......@O@......&dw",
"wggggggggggggggggggggggggggggggggggggggggggggggggggggggggggggggggggggggggggfggggd%...............Opw",
"wgggggggggggggggggggggggggggggggggggggggggggggggggggggggggggggggggggggggggggggggf*...............@aw",
"wgggggggggggggggggggggggggggggggggggggggggggggggggggggggggggggggggggggggggggggggg3...............>gw",
"wggggggggggggggggggggggggggggggggggggggggggggggggggggggggggggggggggggggggggggggggd:X...X........=igw",
"wgggggggggggggggggggggggggggggggggggggggggggggggggggggggggggggggggggggggggggggggggd9<>>o...X;,,8sggw",
"wggggggggggggggggggggggggggggggggggggggggggggggggggggggggggggggggggggggggggggggggggggd*.....#pgggggw",
"wggggggggggggggggggggggggggggggggggggggggggggggggggggggggggggggggggggggggggggggggggggqX......3gggggw",
"wgggggggggggggggggggggggggggggggggggggggggggggggggggggggggggggggggggggggggggggggggggg3.......:gggggw",
"wgggggggggggggggggggggggggggggggggggggggggggggggggggggggggggggggggggggggggggggggggggg7.......<gggggw",
"wggggggggggggggggggggggggggggggggggggggggggggggggggggggggggggggggggggggggggggggggggggp$.....Otgggggw",
"wgggggggggggggggggggggggggggggggggggggggggggggggggggggggggggggggggggggggggggggggggggggw%...@8ggggggw",
"wggggggggggggggggggggggggggggggggggggggggggggggggggggggggggggggggggggggggggggggggggggggp937pgggggggw",
"wggggggggggggggggggggggggggggggggggggggggggggggggggggggggggggggggggggggggggggggggggddgggggggggdsgggw",
"wgggggggggggggggggggggggggggggggggggggggggggggggggggggggggggggggggggggggggggggggggg2%5gggggggi*;sggw",
"wgggggggggggggggggggggggggggggggggggggggggggggggggggggggggggggggggggggggggggggggggg9.&dgggggg5.>gggw",
"wggggggggggggggggggggggggggggggggggggggggggggggggggggggggggggggggggggggggggggggggggd%Xqgggggf=Xwgggw",
"qggggggggggggggggggggggggggggggggggggggggggggggggggggggggggggggggggggggggggggggggggg3.:ffgggto&dgggw",
"wgggggggggggggggggggggggggggggggggggggggggggggggggggggggggggggggggggggggggggggggggggi+o=====%.3ggggw",
"wgggggggggggggggggggggggggggggggggggggggggggggggggggggggggggggggggggggggggggggggggggg:.O%%%#.Oiggggw",
"wggggggggggggggggggggggggggggggggggggggggggggggggggggggggggggggggggggggggggggggggggggwX*sdfqX;gggggw",
"wggggggggggggggggggggggggggggggggggggggggggggggggggggggggggggggggggggggggggggggggggggd*Xrgg>X0gggggw",
"wggggggggggggggggggggggggggggggggggggggggggggggggggggggggggggggggggggggggggggggggggggg4.1gp@#agggggw",
"wgggggggggggggggggggggggggggggggggggggggggggggggggggggggggggggggggggggggggggggggggggggp+$s9.<ggggggq",
"wgggggggggggggggggggggggggggggggggggggggggggggggggggggggggggggggggggggggggggggggggggggg>X9;otggggggw",
"wggggggggggggggggggggggggggggggggggggggggggggggggggggggggggggggggggggggggggggggggggggggeX-@=fggggggw",
"wggggggggggggggggggggggggggggggggggggggggggggggggggggggggggggggggggggggggggggggggggggggf=.X6gggggggw",
"9ggggggggggggggggggggggggggggggggggggggggggggggggggggggggggggggggggggggggggggggggggggggg9$=pggggggg9",
"1sggggggggggggggggggggggggggggggggggggggggggggggggggggggggggggggggggggggggggggggggggggggfsdgggggggs1",
" 7dggggggggggggggggggggggggggggggggggggggggggggggggggggggggggggggggggggggggggggggggggggggggggggggs7 ",
"  19wwwwwwewwwewwwewwwewwwewwwewewwwewwwewwwewwwwwwwwwewwwewwwwewwwewwwwewwwwewwwewwwwewwwwewwww91  "
};
